<svg width="750" height="500" viewBox="0 0 750 500" fill="none" xmlns="http://www.w3.org/2000/svg">
<path d="M697.14 151.13C696.973 151.71 696.71 152.258 696.36 152.75C695.564 153.916 694.447 154.827 693.145 155.373C691.843 155.92 690.411 156.078 689.02 155.83C687.706 155.598 686.479 155.014 685.47 154.14C684.924 153.674 684.452 153.128 684.07 152.52C683.661 151.907 683.354 151.231 683.16 150.52C682.736 148.987 682.816 147.358 683.389 145.874C683.961 144.391 684.996 143.13 686.34 142.28C686.955 141.873 687.63 141.566 688.34 141.37C689.329 141.1 690.363 141.038 691.377 141.187C692.39 141.337 693.362 141.696 694.23 142.24C695.429 142.988 696.385 144.067 696.985 145.346C697.584 146.625 697.802 148.05 697.61 149.45C697.538 150.048 697.365 150.629 697.1 151.17C697.1 151.17 697.32 150.56 697.45 149.43C697.615 147.82 697.238 146.202 696.38 144.83C695.751 143.824 694.879 142.992 693.845 142.41C692.811 141.828 691.647 141.515 690.46 141.5C689.784 141.485 689.11 141.572 688.46 141.76C687.776 141.944 687.125 142.235 686.53 142.62C685.267 143.431 684.295 144.623 683.756 146.024C683.216 147.425 683.137 148.961 683.53 150.41C683.714 151.098 684.004 151.752 684.39 152.35C684.744 152.928 685.186 153.448 685.7 153.89C686.593 154.672 687.667 155.219 688.825 155.481C689.983 155.743 691.188 155.712 692.33 155.39C693.885 154.952 695.248 154.004 696.2 152.7C696.89 151.73 697.09 151.11 697.14 151.13Z" fill="#E0E0E0"/>
<path d="M704 158H704.25L705.02 158.1L708.02 158.5L707.95 158.55C708.56 156.92 709.37 154.79 710.34 152.21V152.34L706.94 150.07H706.88V150C707.038 148.541 706.997 147.068 706.76 145.62V145.54L706.82 145.49L710.1 143.03V143.21L707.34 137.03L707.52 137.12L703.52 137.92H703.42L703.35 137.84C702.43 136.705 701.364 135.696 700.18 134.84L700.09 134.78V134.67C700.27 133.42 700.47 132.03 700.67 130.67L700.79 130.87L694.47 128.44L694.7 128.37L692.42 131.77L692.36 131.87H692.24C690.788 131.713 689.322 131.75 687.88 131.98H687.76L687.68 131.88L685.24 128.6L685.48 128.67L679.29 131.42L679.41 131.19L680.2 135.19V135.32L680.1 135.4C678.962 136.309 677.953 137.369 677.1 138.55L676.9 138.64H676.77H676.64H676.39L675.88 138.57L674.88 138.42L672.88 138.12L673.1 137.99C672.28 140.13 671.46 142.24 670.66 144.31L670.59 144.07L673.98 146.35L674.09 146.42V146.54C673.931 147.992 673.968 149.458 674.2 150.9V151.02L674.1 151.09L670.82 153.54L670.88 153.3C671.82 155.41 672.73 157.48 673.62 159.49L673.41 159.38L677.41 158.59H677.53L677.6 158.68C678.514 159.814 679.573 160.822 680.75 161.68L680.84 161.74V161.85C680.63 163.24 680.43 164.58 680.24 165.85L680.13 165.67L686.44 168.12L686.25 168.18L688.54 164.78L688.59 164.71H688.68C690.138 164.869 691.61 164.836 693.06 164.61H693.14L693.19 164.67L695.62 167.96H695.48L701.68 165.24L701.62 165.34C701.32 163.73 701.07 162.42 700.86 161.34C701.73 160.654 702.531 159.883 703.25 159.04L703.77 158.41C703.823 158.261 703.9 158.123 704 158L703.85 158.23C703.75 158.38 703.58 158.6 703.35 158.88C702.653 159.751 701.865 160.546 701 161.25V161.18C701.22 162.28 701.49 163.59 701.82 165.18V165.26H701.75L695.58 168.03H695.49L695.43 167.95L693 164.8H693.13C691.659 165.041 690.162 165.085 688.68 164.93L688.82 164.86L686.55 168.27L686.48 168.37H686.36L680 166H679.88V165.86C680.07 164.55 680.26 163.2 680.46 161.86L680.53 162.03C679.321 161.152 678.234 160.116 677.3 158.95L677.48 159.02L673.48 159.82H673.33L673.27 159.68L670.52 153.49L670.45 153.34L670.58 153.25L673.86 150.8L673.78 150.99C673.543 149.515 673.506 148.015 673.67 146.53L673.76 146.72L670.36 144.44L670.22 144.35L670.28 144.19C671.08 142.117 671.89 140.01 672.71 137.87L672.77 137.72H672.94L674.94 138.02L675.94 138.17L676.45 138.24H676.7H676.83H677L676.8 138.33C677.677 137.117 678.713 136.027 679.88 135.09L679.81 135.29L679.02 131.29V131.12L679.17 131.06L685.37 128.31L685.52 128.25L685.61 128.38L688.06 131.66L687.86 131.58C689.339 131.348 690.842 131.315 692.33 131.48L692.14 131.56L694.43 128.17L694.51 128.04L694.66 128.09L700.97 130.54L701.11 130.59V130.74C700.9 132.15 700.7 133.53 700.51 134.74L700.44 134.57C701.65 135.451 702.736 136.49 703.67 137.66L703.5 137.59L707.5 136.81H707.63V136.93L710.36 143.13V143.24L710.27 143.31L707 145.73L707.05 145.6C707.276 147.069 707.31 148.562 707.15 150.04L707.09 149.93L710.48 152.22L710.55 152.27V152.35C709.55 154.92 708.71 157.04 708.08 158.65H708L705 158.17L704.23 158.04L704 158Z" fill="#E0E0E0"/>
<path fill-rule="evenodd" clip-rule="evenodd" d="M663.72 117.85C662.347 119.721 660.733 121.402 658.92 122.85L660.17 129.18L650.4 133.52L646.55 128.34C644.235 128.71 641.88 128.767 639.55 128.51L636 133.92L626 130.07L626.93 123.69C625.057 122.316 623.376 120.698 621.93 118.88L615.59 120.13L611.26 110.37L616.44 106.51C616.072 104.195 616.011 101.841 616.26 99.5102L610.88 96.0002L614.72 86.0002L621.11 86.9302C622.483 85.0599 624.097 83.3788 625.91 81.9302L624.66 75.5901L634.43 71.2602L638.29 76.4402C640.605 76.0696 642.959 76.0124 645.29 76.2701L648.89 70.9102L658.89 74.7502L657.95 81.1301C659.82 82.5075 661.501 84.1247 662.95 85.9402L669.28 84.6902L673.61 94.4501L668.44 98.3102C668.81 100.625 668.868 102.98 668.61 105.31L673.97 108.91L670.13 118.91L663.74 117.98L663.72 117.85ZM652.94 107C653.753 104.885 653.921 102.576 653.422 100.366C652.924 98.1552 651.781 96.1421 650.138 94.581C648.496 93.0198 646.427 91.9807 644.194 91.5949C641.961 91.2091 639.664 91.494 637.593 92.4136C635.522 93.3332 633.77 94.8461 632.558 96.7612C631.347 98.6763 630.73 100.908 630.787 103.173C630.843 105.438 631.57 107.636 632.875 109.489C634.18 111.341 636.006 112.765 638.12 113.58C639.525 114.122 641.023 114.382 642.529 114.344C644.034 114.307 645.517 113.973 646.894 113.362C648.27 112.751 649.512 111.874 650.55 110.783C651.587 109.691 652.399 108.406 652.94 107Z" fill="#EBEBEB"/>
<path fill-rule="evenodd" clip-rule="evenodd" d="M651.66 215.58C649.464 218.61 646.871 221.331 643.95 223.67L645.95 233.84L630.28 240.84L624.08 232.52C620.386 233.118 616.629 233.215 612.91 232.81L607.14 241.41L591.14 235.24L592.64 225C589.612 222.802 586.891 220.209 584.55 217.29L574.38 219.29L567.38 203.62L575.69 197.42C575.096 193.726 575.002 189.969 575.41 186.25L566.8 180.48L572.97 164.48L583.22 165.98C585.415 162.947 588.008 160.222 590.93 157.88L588.93 147.71L604.61 140.76L610.8 149.07C614.498 148.481 618.257 148.387 621.98 148.79L627.75 140.18L643.75 146.35L642.25 156.6C645.278 158.798 647.999 161.391 650.34 164.31L660.51 162.31L667.51 177.98L659.19 184.17C659.782 187.867 659.88 191.627 659.48 195.35L668.08 201.12L661.91 217.12L651.66 215.62V215.58ZM634.35 198.1C635.659 194.704 635.933 190.997 635.135 187.445C634.337 183.894 632.504 180.66 629.867 178.151C627.231 175.642 623.909 173.971 620.323 173.349C616.737 172.728 613.047 173.184 609.72 174.66C606.394 176.136 603.579 178.566 601.633 181.641C599.687 184.717 598.697 188.301 598.788 191.939C598.879 195.577 600.047 199.107 602.144 202.082C604.241 205.056 607.173 207.342 610.57 208.65C615.122 210.403 620.185 210.277 624.644 208.298C629.103 206.32 632.594 202.652 634.35 198.1Z" fill="#EBEBEB"/>
<path d="M217.1 74.3702C218.168 81.6033 217.066 88.9905 213.933 95.5969C210.8 102.203 205.778 107.732 199.502 111.483C193.226 115.234 185.979 117.038 178.677 116.668C171.375 116.299 164.346 113.771 158.482 109.405C152.617 105.039 148.179 99.0308 145.73 92.1417C143.282 85.2526 142.932 77.7918 144.725 70.7036C146.518 63.6155 150.374 57.2186 155.804 52.3228C161.234 47.4269 167.995 44.2521 175.23 43.2002C180.026 42.4963 184.914 42.7443 189.614 43.9299C194.314 45.1156 198.735 47.2158 202.623 50.1104C206.511 53.005 209.791 56.6374 212.275 60.8C214.759 64.9625 216.399 69.5738 217.1 74.3702Z" fill="#F5F5F5"/>
<path d="M208.4 75.6303C209.215 81.1427 208.376 86.7729 205.989 91.8082C203.603 96.8435 199.776 101.058 194.993 103.917C190.21 106.776 184.687 108.152 179.122 107.871C173.556 107.59 168.2 105.664 163.73 102.337C159.26 99.01 155.877 94.4316 154.01 89.1814C152.143 83.9311 151.876 78.245 153.242 72.8428C154.609 67.4406 157.547 62.5651 161.685 58.8336C165.824 55.1021 170.976 52.6822 176.49 51.8803C183.871 50.7989 191.379 52.6935 197.363 57.1473C203.348 61.6012 207.318 68.2496 208.4 75.6303Z" fill="#EBEBEB"/>
<path d="M208.26 74.76C208.09 74.76 207.8 73.59 207.04 71.52C205.979 68.6127 204.475 65.8871 202.58 63.44C199.781 59.8466 196.15 56.9878 192 55.11C190.811 54.5707 189.585 54.1195 188.33 53.76C187.021 53.3707 185.684 53.0865 184.33 52.91C182.935 52.7203 181.528 52.6368 180.12 52.66C178.672 52.7012 177.229 52.8416 175.8 53.08C174.372 53.345 172.965 53.7126 171.59 54.18C170.259 54.6397 168.965 55.2013 167.72 55.86C166.521 56.4801 165.374 57.1957 164.29 58C163.228 58.7674 162.226 59.6131 161.29 60.53C159.564 62.2284 158.062 64.1406 156.82 66.22C155.757 68.0483 154.896 69.9862 154.25 72C153.315 74.9458 152.842 78.0191 152.85 81.11C152.85 83.31 152.99 84.54 152.85 84.57C152.71 84.6 152.3 83.41 152.04 81.15C151.701 77.9365 151.962 74.688 152.81 71.57C154.079 66.8819 156.53 62.5983 159.93 59.13C161.931 57.0895 164.227 55.3604 166.74 54C168.078 53.2788 169.469 52.6604 170.9 52.15C173.861 51.1105 176.972 50.56 180.11 50.52C181.629 50.4983 183.147 50.5987 184.65 50.82C186.102 51.0361 187.533 51.3705 188.93 51.82C190.273 52.2284 191.583 52.7365 192.85 53.34C195.184 54.4626 197.359 55.8882 199.32 57.58C201.009 59.0633 202.516 60.7417 203.81 62.58C205.674 65.2164 207.03 68.1768 207.81 71.31C208.37 73.48 208.39 74.74 208.26 74.76Z" fill="#E0E0E0"/>
<path d="M186.1 95.84L186.88 100.69L182.55 101.38L181.8 96.67C177.48 97.09 173.15 96.41 170.48 94.93L172 89.27C174.762 90.6123 177.827 91.2087 180.89 91L179.73 83.78C174.73 83.38 169.13 82.64 168.14 76.46C167.41 71.87 170.14 67.46 176.81 65.53L176.04 60.73L180.37 60.04L181.12 64.75C184.242 64.4246 187.396 64.8497 190.32 65.99L189 71.65C186.769 70.7925 184.39 70.388 182 70.46L183.17 77.81C188.17 78.17 193.68 78.92 194.66 85.02C195.42 89.52 192.76 93.94 186.1 95.84ZM178.72 77.42L177.72 71.28C175.51 72.17 174.81 73.57 175.04 75C175.27 76.43 176.72 77.12 178.72 77.42ZM187.82 86.65C187.58 85.14 186.2 84.52 184.23 84.17L185.23 90.17C187.27 89.31 188 88 187.82 86.65Z" fill="#E0E0E0"/>
<path d="M205.67 204.77C207.527 217.326 205.617 230.151 200.182 241.621C194.746 253.091 186.03 262.69 175.136 269.204C164.242 275.718 151.66 278.853 138.984 278.212C126.307 277.572 114.106 273.184 103.924 265.606C93.7419 258.027 86.0375 247.598 81.7859 235.638C77.5343 223.679 76.9266 210.727 80.0398 198.422C83.1531 186.117 89.8472 175.012 99.2748 166.514C108.702 158.015 120.44 152.505 133 150.68C149.81 148.217 166.909 152.532 180.537 162.676C194.165 172.819 203.206 187.961 205.67 204.77Z" fill="#F5F5F5"/>
<path d="M190.57 207C191.984 216.569 190.526 226.342 186.383 235.082C182.239 243.822 175.596 251.137 167.293 256.099C158.991 261.062 149.402 263.449 139.742 262.96C130.082 262.471 120.784 259.126 113.025 253.35C105.267 247.574 99.3964 239.626 96.1572 230.512C92.9181 221.397 92.4558 211.527 94.829 202.15C97.2021 192.773 102.304 184.311 109.489 177.835C116.673 171.359 125.618 167.16 135.19 165.77C148.001 163.896 161.032 167.187 171.417 174.919C181.802 182.65 188.691 194.19 190.57 207Z" fill="#EBEBEB"/>
<path d="M190.34 205.46C190.05 205.46 189.53 203.46 188.21 199.82C186.372 194.782 183.765 190.06 180.48 185.82C178.212 182.943 175.637 180.32 172.8 178C169.535 175.355 165.946 173.138 162.12 171.4C160.06 170.456 157.93 169.671 155.75 169.05C153.485 168.381 151.172 167.89 148.83 167.58C146.409 167.245 143.965 167.101 141.52 167.15C139.003 167.212 136.493 167.456 134.01 167.88C131.534 168.334 129.094 168.969 126.71 169.78C124.398 170.574 122.151 171.547 119.99 172.69C117.896 173.791 115.89 175.051 113.99 176.46C112.159 177.795 110.431 179.266 108.82 180.86C105.825 183.805 103.22 187.122 101.07 190.73C99.2069 193.889 97.6946 197.243 96.5603 200.73C94.9418 205.844 94.1222 211.177 94.1303 216.54C94.1303 220.37 94.3703 222.54 94.1303 222.54C93.8903 222.54 93.1303 220.54 92.7303 216.6C92.1224 211.036 92.553 205.407 94.0003 200C96.1935 191.863 100.451 184.429 106.36 178.42C108.054 176.669 109.883 175.055 111.83 173.59C113.848 172.043 115.989 170.662 118.23 169.46C120.553 168.204 122.97 167.13 125.46 166.25C130.606 164.45 136.009 163.494 141.46 163.42C144.1 163.386 146.738 163.56 149.35 163.94C154.283 164.666 159.079 166.126 163.58 168.27C171.184 171.881 177.728 177.392 182.58 184.27C185.837 188.844 188.211 193.985 189.58 199.43C190.53 203.23 190.55 205.42 190.34 205.46Z" fill="#E0E0E0"/>
<path d="M151.86 242.05L153.21 250.46L145.71 251.66L144.4 243.48C136.89 244.22 129.4 243.04 124.75 240.48L127.41 230.66C132.199 232.981 137.51 234.015 142.82 233.66L140.82 221.12C132.17 220.43 122.42 219.12 120.7 208.41C119.42 200.41 124.11 192.7 135.75 189.41L134.42 181.08L141.93 179.87L143.23 188.06C148.94 187.61 154.65 188.23 159.23 190.19L156.96 200.03C153.085 198.552 148.955 197.862 144.81 198L146.81 210.76C155.46 211.38 165.06 212.69 166.75 223.27C168 231.07 163.42 238.74 151.86 242.05ZM139.05 210.05L137.34 199.39C133.51 200.93 132.28 203.39 132.68 205.84C133.08 208.29 135.58 209.56 139.05 210.08V210.05ZM154.86 226.05C154.43 223.42 152.03 222.35 148.62 221.74L150.28 232.09C153.9 230.72 155.24 228.5 154.86 226.1V226.05Z" fill="#E0E0E0"/>
<path d="M65.7502 140.58C61.1005 136.803 57.6758 131.732 55.9098 126.008C54.1438 120.284 54.1158 114.165 55.8294 108.425C57.543 102.685 60.9211 97.5825 65.5361 93.7635C70.151 89.9445 75.7953 87.5806 81.7545 86.9711C87.7136 86.3616 93.7196 87.5339 99.0122 90.3395C104.305 93.1452 108.646 97.4581 111.486 102.732C114.326 108.006 115.537 114.005 114.967 119.968C114.396 125.931 112.069 131.59 108.28 136.23C105.774 139.309 102.686 141.865 99.1916 143.75C95.6975 145.635 91.8662 146.813 87.9165 147.217C83.9669 147.621 79.9763 147.243 76.1729 146.104C72.3695 144.965 68.8278 143.088 65.7502 140.58Z" fill="#F5F5F5"/>
<path d="M70.3 135C66.7576 132.121 64.149 128.255 62.8045 123.892C61.46 119.53 61.44 114.866 62.7471 110.492C64.0541 106.119 66.6295 102.231 70.1471 99.3211C73.6648 96.4114 77.9666 94.6108 82.508 94.1472C87.0495 93.6835 91.6264 94.5776 95.6595 96.7163C99.6926 98.855 103 102.142 105.164 106.162C107.328 110.181 108.251 114.753 107.816 119.297C107.381 123.841 105.608 128.154 102.72 131.69C100.812 134.041 98.4587 135.992 95.795 137.431C93.1312 138.871 90.2095 139.77 87.1974 140.077C84.1853 140.385 81.1422 140.095 78.2425 139.223C75.3428 138.352 72.6437 136.917 70.3 135Z" fill="#EBEBEB"/>
<path d="M70.8599 135.46C70.9499 135.34 71.7999 135.91 73.3999 136.74C75.649 137.906 78.0639 138.718 80.5599 139.15C84.2391 139.768 88.0131 139.486 91.5599 138.33C93.6328 137.637 95.5985 136.658 97.4 135.42C98.349 134.765 99.2451 134.036 100.08 133.24C100.937 132.417 101.733 131.531 102.46 130.59C103.178 129.638 103.827 128.636 104.4 127.59C104.949 126.575 105.417 125.518 105.8 124.43C106.182 123.382 106.48 122.305 106.69 121.21C106.902 120.162 107.033 119.099 107.08 118.03C107.185 116.052 107.033 114.069 106.63 112.13C106.271 110.431 105.725 108.778 105 107.2C103.933 104.905 102.519 102.787 100.81 100.92C99.5899 99.5901 98.81 98.9201 98.91 98.8101C99.8094 99.1748 100.621 99.7271 101.29 100.43C103.273 102.185 104.911 104.295 106.12 106.65C106.969 108.284 107.62 110.013 108.06 111.8C108.831 114.985 108.93 118.295 108.35 121.52C108.137 122.702 107.833 123.865 107.44 125C107.034 126.179 106.532 127.323 105.94 128.42C105.332 129.549 104.636 130.629 103.86 131.65C103.078 132.665 102.218 133.617 101.29 134.5C100.381 135.353 99.4082 136.135 98.3799 136.84C97.3886 137.515 96.3454 138.11 95.26 138.62C94.2244 139.12 93.1511 139.538 92.05 139.87C88.2478 141.041 84.208 141.214 80.3199 140.37C77.732 139.828 75.2669 138.811 73.05 137.37C71.51 136.29 70.7999 135.54 70.8599 135.46Z" fill="#E0E0E0"/>
<path d="M72.5802 110.45L69.4302 108L71.6602 105.19L74.7302 107.62C76.7861 105.184 79.4855 103.376 82.5202 102.4L84.7302 106.66C82.3237 107.386 80.1464 108.723 78.4102 110.54L83.1002 114.26C86.3402 111.74 90.1002 109.08 94.1602 112.26C97.1602 114.63 97.9802 118.82 94.9702 123.66L98.0902 126.14L95.8602 128.95L92.8002 126.52C91.0916 128.441 88.9536 129.932 86.5602 130.87L84.2102 126.72C86.0271 126.004 87.6853 124.937 89.0902 123.58L84.3102 119.79C81.1002 122.33 77.3102 124.93 73.3802 121.79C70.4502 119.43 69.6202 115.29 72.5802 110.45ZM87.2402 117.45L91.2402 120.62C92.0802 118.86 91.7302 117.62 90.8102 116.89C89.8902 116.16 88.6102 116.57 87.2402 117.49V117.45ZM76.6302 117C77.6302 117.78 78.7902 117.39 80.1702 116.51L76.2902 113.44C75.4902 115.05 75.7302 116.25 76.6302 117Z" fill="#E0E0E0"/>
<path d="M686.47 453.34C686.47 453.48 544.77 453.6 370.02 453.6C195.27 453.6 53.5298 453.48 53.5298 453.34C53.5298 453.2 195.2 453.08 370.02 453.08C544.84 453.08 686.47 453.2 686.47 453.34Z" fill="#263238"/>
<path d="M86.6097 426.4C86.6579 426.241 86.7216 426.087 86.7997 425.94C86.9497 425.61 87.1597 425.18 87.4197 424.62C88.1701 422.913 88.7788 421.147 89.2397 419.34C90.4397 414.64 90.8597 407.47 89.0797 398.94C88.1189 394.296 86.8562 389.719 85.2997 385.24C83.6997 380.38 81.8397 375.24 80.2997 369.64C78.5831 363.821 77.7538 357.776 77.8397 351.71C78.0697 345.36 79.9497 339.03 82.0097 332.71C84.0697 326.39 86.2097 320.22 86.8397 314.01C87.5515 308.04 86.3542 301.997 83.4197 296.75C80.6797 291.75 77.2397 287.41 74.6697 282.94C72.2663 278.803 70.4934 274.33 69.4097 269.67C67.8588 262.916 67.7463 255.91 69.0797 249.11C69.5514 246.622 70.2682 244.187 71.2197 241.84C71.2005 242.008 71.1602 242.172 71.0997 242.33C70.9897 242.67 70.8497 243.13 70.6597 243.72C70.1171 245.507 69.6731 247.324 69.3297 249.16C68.1007 255.927 68.2811 262.875 69.8597 269.57C70.9623 274.174 72.7416 278.588 75.1397 282.67C77.7097 287.08 81.1397 291.37 83.9497 296.47C86.9713 301.822 88.2145 307.995 87.4997 314.1C86.8597 320.41 84.7097 326.62 82.6597 332.93C80.6097 339.24 78.7297 345.49 78.4997 351.73C78.4087 357.733 79.2177 363.716 80.8997 369.48C82.3897 375.03 84.2297 380.19 85.8097 385.07C87.353 389.577 88.599 394.18 89.5397 398.85C91.2697 407.44 90.7697 414.69 89.4797 419.4C88.9927 421.214 88.3434 422.982 87.5397 424.68C87.2497 425.22 87.0297 425.68 86.8597 425.97C86.7887 426.12 86.7051 426.264 86.6097 426.4Z" fill="#263238"/>
<path d="M78.1899 287.37C78.1899 287.37 72.9999 270.65 82.3399 260.86C82.4129 260.78 82.5069 260.722 82.6113 260.692C82.7156 260.663 82.8261 260.663 82.9302 260.693C83.0344 260.724 83.1279 260.782 83.2004 260.863C83.2728 260.944 83.3211 261.043 83.3399 261.15C83.8299 263.91 84.4599 272.32 78.1899 287.37Z" fill="#0E98D5"/>
<path d="M81.3198 266.43C81.3086 267.469 81.1913 268.504 80.9698 269.52C80.6198 271.64 80.2198 274.14 79.7698 276.89C79.3198 279.64 78.9398 282.14 78.5998 284.26C78.5168 285.292 78.3326 286.313 78.0498 287.31C77.956 286.276 77.9862 285.236 78.1398 284.21C78.3198 282.3 78.6498 279.67 79.1398 276.78C79.6298 273.89 80.1398 271.3 80.5198 269.43C80.6752 268.403 80.9435 267.397 81.3198 266.43Z" fill="#263238"/>
<path d="M84.3301 326.79C84.3301 326.79 87.5201 309.57 100.39 305.3C100.491 305.266 100.6 305.26 100.704 305.284C100.808 305.307 100.904 305.359 100.98 305.434C101.057 305.508 101.111 305.602 101.138 305.706C101.164 305.809 101.161 305.918 101.13 306.02C100.28 308.7 96.9001 316.42 84.3301 326.79Z" fill="#0E98D5"/>
<path d="M96.88 309.75C96.3867 310.662 95.8002 311.519 95.13 312.31L90.63 318.31L86.15 324.31C85.5862 325.181 84.9435 325.997 84.23 326.75C84.6312 325.791 85.1484 324.884 85.77 324.05C86.77 322.44 88.34 320.27 90.11 317.95C91.88 315.63 93.53 313.56 94.77 312.1C95.3792 311.237 96.0874 310.448 96.88 309.75Z" fill="#263238"/>
<path d="M80.85 370C80.85 370 78.9101 352.58 90.0001 344.76C90.0873 344.697 90.1905 344.659 90.2979 344.651C90.4054 344.644 90.5129 344.666 90.6084 344.716C90.7039 344.766 90.7837 344.841 90.8387 344.934C90.8938 345.026 90.9219 345.132 90.92 345.24C90.86 348 89.87 356.41 80.85 370Z" fill="#0E98D5"/>
<path d="M87.92 350C87.7067 351.029 87.3918 352.034 86.98 353L84.41 360L81.85 367C81.5629 367.995 81.1881 368.962 80.73 369.89C80.8303 368.866 81.0588 367.858 81.41 366.89C81.94 365.05 82.78 362.53 83.79 359.79C84.8 357.05 85.79 354.6 86.55 352.84C86.8921 351.842 87.352 350.889 87.92 350Z" fill="#263238"/>
<path d="M90.5399 413.44C90.5399 413.44 89.2199 395.97 100.54 388.56C100.628 388.501 100.731 388.468 100.838 388.464C100.944 388.46 101.049 388.485 101.142 388.536C101.235 388.588 101.312 388.664 101.364 388.756C101.417 388.849 101.443 388.954 101.44 389.06C101.34 391.86 100.05 400.19 90.5399 413.44Z" fill="#0E98D5"/>
<path d="M98.32 393.75C98.084 394.757 97.749 395.739 97.32 396.68C96.5 398.68 95.55 401.01 94.49 403.59L91.69 410.51C91.366 411.492 90.9543 412.442 90.46 413.35C90.606 412.323 90.8711 411.316 91.25 410.35C91.85 408.53 92.77 406.04 93.89 403.35C95.01 400.66 96.07 398.23 96.89 396.5C97.2649 395.534 97.7444 394.612 98.32 393.75Z" fill="#263238"/>
<path d="M70.6698 272.68C70.6698 272.68 55.1498 264.57 54.8498 251C54.8468 250.894 54.873 250.789 54.9256 250.696C54.9782 250.604 55.0551 250.528 55.1479 250.476C55.2408 250.425 55.346 250.4 55.4522 250.404C55.5583 250.408 55.6613 250.441 55.7498 250.5C58.0598 252.12 64.4498 257.61 70.6698 272.68Z" fill="#0E98D5"/>
<path d="M58.0698 255.68C58.7936 256.422 59.4403 257.237 59.9998 258.11L64.3798 264.16L68.7698 270.16C69.4368 270.954 70.0293 271.807 70.5398 272.71C69.7409 272.045 69.0256 271.287 68.4098 270.45C67.1798 268.98 65.5598 266.88 63.8498 264.51C62.1398 262.14 60.6598 259.95 59.6198 258.34C59.0062 257.513 58.4863 256.621 58.0698 255.68Z" fill="#263238"/>
<path d="M87.3396 308.58C87.3396 308.58 71.3396 301.43 70.2296 287.92C70.2207 287.814 70.2409 287.708 70.2882 287.613C70.3354 287.518 70.4079 287.438 70.4976 287.381C70.5873 287.324 70.6909 287.293 70.7971 287.291C70.9032 287.289 71.0079 287.316 71.0996 287.37C73.4996 288.82 80.2196 293.92 87.3396 308.58Z" fill="#0E98D5"/>
<path d="M73.73 292.37C74.4948 293.072 75.1912 293.846 75.81 294.68L80.54 300.45C82.32 302.6 83.93 304.55 85.29 306.21C86.009 306.958 86.6521 307.775 87.21 308.65C86.3967 308.024 85.6555 307.309 85 306.52C83.68 305.12 81.93 303.13 80.09 300.87C78.25 298.61 76.62 296.51 75.49 294.96C74.8062 294.166 74.2157 293.297 73.73 292.37Z" fill="#263238"/>
<path d="M78.1399 348.62C78.1399 348.62 67.1399 334.97 72.3199 322.44C72.3617 322.347 72.4273 322.267 72.51 322.207C72.5927 322.148 72.6896 322.111 72.791 322.101C72.8923 322.091 72.9946 322.108 73.0874 322.15C73.1803 322.191 73.2604 322.257 73.3199 322.34C74.8199 324.73 78.4799 332.32 78.1399 348.62Z" fill="#0E98D5"/>
<path d="M73.4097 328C73.7712 328.972 74.0391 329.977 74.2097 331C74.6597 333.1 75.2097 335.57 75.7897 338.3C76.3697 341.03 76.9297 343.49 77.3997 345.59C77.6876 346.57 77.8883 347.574 77.9997 348.59C77.5499 347.657 77.2142 346.673 76.9997 345.66C76.4597 343.82 75.8097 341.25 75.1997 338.4C74.5897 335.55 74.0997 332.94 73.7997 331.05C73.5576 330.051 73.4268 329.028 73.4097 328Z" fill="#263238"/>
<path d="M88.9998 395.74C88.9998 395.74 73.1298 388.32 72.2298 374.8C72.2202 374.692 72.2411 374.583 72.29 374.487C72.339 374.39 72.414 374.309 72.5067 374.253C72.5993 374.196 72.7059 374.167 72.8143 374.168C72.9226 374.17 73.0285 374.201 73.1198 374.26C75.5098 375.75 82.1398 381 88.9998 395.74Z" fill="#0E98D5"/>
<path d="M75.6797 379.31C76.4238 380.02 77.0939 380.804 77.6797 381.65L82.3197 387.5L86.9997 393.34C87.699 394.102 88.3282 394.925 88.8797 395.8C88.0482 395.177 87.2989 394.451 86.6497 393.64C85.3497 392.22 83.6497 390.2 81.8297 387.91C80.0097 385.62 78.4397 383.49 77.3397 381.91C76.694 381.106 76.1374 380.234 75.6797 379.31Z" fill="#263238"/>
<path d="M120.62 326.88C120.634 327.009 120.634 327.14 120.62 327.27C120.62 327.57 120.62 327.94 120.62 328.39C120.62 329.44 120.51 330.86 120.43 332.64C120.23 336.37 119.94 341.57 119.6 347.8C118.47 354.13 115.24 361.16 110.9 367.98C107.72 372.98 104.39 377.57 101.51 381.82C98.9084 385.529 96.5694 389.415 94.5096 393.45C93.1445 396.187 92.0397 399.046 91.2096 401.99C90.9296 403.04 90.7196 403.85 90.5996 404.41C90.5517 404.697 90.4746 404.978 90.3696 405.25C90.3738 404.957 90.4073 404.666 90.4696 404.38C90.5496 403.82 90.7196 402.99 90.9696 401.93C91.7073 398.937 92.7529 396.028 94.0896 393.25C96.1291 389.159 98.4688 385.225 101.09 381.48C103.95 377.2 107.26 372.63 110.43 367.63C114.74 360.84 117.95 353.93 119.13 347.69C119.57 341.47 119.93 336.27 120.2 332.54C120.34 330.78 120.45 329.36 120.54 328.31C120.54 327.86 120.62 327.5 120.65 327.19C120.68 326.88 120.6 326.88 120.62 326.88Z" fill="#263238"/>
<path d="M111.17 366.71C111.17 366.71 117.89 350.54 109.44 339.94C109.373 339.86 109.286 339.799 109.187 339.764C109.089 339.729 108.983 339.722 108.88 339.742C108.778 339.763 108.683 339.81 108.605 339.88C108.528 339.95 108.47 340.04 108.44 340.14C107.68 342.84 106.29 351.16 111.17 366.71Z" fill="#0E98D5"/>
<path d="M110 345.58C110.287 346.578 110.465 347.604 110.53 348.64C110.77 350.54 111.04 353.18 111.24 356.09C111.44 359 111.55 361.65 111.55 363.57C111.618 364.607 111.554 365.649 111.36 366.67C111.178 365.65 111.087 364.616 111.09 363.58C110.94 361.44 110.78 358.92 110.59 356.14C110.4 353.36 110.22 350.83 110.07 348.69C109.941 347.659 109.917 346.616 110 345.58Z" fill="#263238"/>
<g opacity="0.3">
<path d="M111.17 366.71C111.17 366.71 117.89 350.54 109.44 339.94C109.373 339.86 109.286 339.799 109.187 339.764C109.089 339.729 108.983 339.722 108.88 339.742C108.778 339.763 108.683 339.81 108.605 339.88C108.528 339.95 108.47 340.04 108.44 340.14C107.68 342.84 106.29 351.16 111.17 366.71Z" fill="black"/>
</g>
<path d="M90.3599 405.69C90.3599 405.69 95.7499 389.02 86.4599 379.15C86.3894 379.066 86.2963 379.004 86.1916 378.972C86.0869 378.939 85.9751 378.938 85.8696 378.967C85.7641 378.997 85.6693 379.056 85.5966 379.138C85.524 379.22 85.4765 379.322 85.4599 379.43C84.9399 382.18 84.2299 390.58 90.3599 405.69Z" fill="#0E98D5"/>
<path d="M87.4297 384.73C87.8026 385.697 88.0643 386.704 88.2097 387.73C88.5997 389.61 89.0797 392.21 89.5197 395.1C89.9597 397.99 90.2797 400.62 90.4297 402.53C90.5774 403.56 90.6009 404.604 90.4997 405.64C90.2269 404.639 90.0495 403.614 89.9697 402.58C89.6597 400.45 89.2797 397.96 88.8697 395.2C88.4597 392.44 88.0697 389.94 87.7497 387.81C87.5398 386.797 87.4326 385.765 87.4297 384.73Z" fill="#263238"/>
<g opacity="0.3">
<path d="M90.3599 405.69C90.3599 405.69 95.7499 389.02 86.4599 379.15C86.3894 379.066 86.2963 379.004 86.1916 378.972C86.0869 378.939 85.9751 378.938 85.8696 378.967C85.7641 378.997 85.6693 379.056 85.5966 379.138C85.524 379.22 85.4765 379.322 85.4599 379.43C84.9399 382.18 84.2299 390.58 90.3599 405.69Z" fill="black"/>
</g>
<path d="M119.73 347C119.73 347 134.08 336.95 132.63 323.48C132.626 323.366 132.589 323.255 132.522 323.162C132.456 323.069 132.363 322.998 132.256 322.957C132.15 322.917 132.033 322.909 131.922 322.934C131.81 322.959 131.709 323.017 131.63 323.1C129.58 324.93 124 331.2 119.73 347Z" fill="#0E98D5"/>
<g opacity="0.3">
<path d="M119.73 347C119.73 347 134.08 336.95 132.63 323.48C132.626 323.366 132.589 323.255 132.522 323.162C132.456 323.069 132.363 322.998 132.256 322.957C132.15 322.917 132.033 322.909 131.922 322.934C131.81 322.959 131.709 323.017 131.63 323.1C129.58 324.93 124 331.2 119.73 347Z" fill="black"/>
</g>
<path d="M130 328.46C129.712 329.458 129.313 330.421 128.81 331.33C127.99 333.06 126.81 335.42 125.42 337.99C124.03 340.56 122.69 342.85 121.66 344.47C121.158 345.381 120.547 346.227 119.84 346.99C120.23 346.033 120.706 345.113 121.26 344.24L124.84 337.68L128.4 331.12C128.841 330.181 129.377 329.29 130 328.46Z" fill="#263238"/>
<path d="M96.1499 389.17C96.1499 389.17 113.45 386.47 118.09 373.73C118.127 373.629 118.136 373.521 118.115 373.416C118.094 373.311 118.045 373.214 117.973 373.135C117.9 373.057 117.807 373 117.705 372.97C117.602 372.941 117.493 372.941 117.39 372.97C114.69 373.74 106.87 376.89 96.1499 389.17Z" fill="#0E98D5"/>
<g opacity="0.3">
<path d="M96.1499 389.17C96.1499 389.17 113.45 386.47 118.09 373.73C118.127 373.629 118.136 373.521 118.115 373.416C118.094 373.311 118.045 373.214 117.973 373.135C117.9 373.057 117.807 373 117.705 372.97C117.602 372.941 117.493 372.941 117.39 372.97C114.69 373.74 106.87 376.89 96.1499 389.17Z" fill="black"/>
</g>
<path d="M113.54 377.11C112.836 377.872 112.055 378.559 111.21 379.16C109.71 380.35 107.6 381.95 105.21 383.65C102.82 385.35 100.63 386.81 98.9897 387.81C98.1357 388.406 97.2122 388.897 96.2397 389.27C97.0135 388.577 97.8505 387.957 98.7397 387.42L104.83 383.11L110.92 378.79C111.73 378.138 112.609 377.574 113.54 377.11Z" fill="#263238"/>
<path d="M75.6699 421.01L80.6399 453.57L100.46 453.54L107.14 421.01H75.6699Z" fill="#455A64"/>
<path d="M104.23 433.57C104.23 433.57 104.23 433.62 104.06 433.69C103.895 433.803 103.721 433.904 103.54 433.99C102.843 434.325 102.097 434.548 101.33 434.65C100.103 434.815 98.855 434.699 97.6799 434.31C96.0996 433.809 94.7242 432.809 93.7599 431.46C93.2187 430.65 92.9013 429.712 92.8399 428.74C92.7878 428.194 92.886 427.645 93.124 427.152C93.362 426.658 93.7306 426.239 94.1899 425.94C94.7151 425.677 95.3023 425.563 95.8877 425.611C96.4731 425.658 97.0342 425.866 97.5099 426.21C98.4961 426.937 99.174 428.008 99.4099 429.21C99.6691 430.418 99.7533 431.658 99.6599 432.89C99.5859 434.178 99.3126 435.446 98.8499 436.65C98.3659 437.916 97.5757 439.043 96.5499 439.93C95.4925 440.87 94.1516 441.429 92.7399 441.52C91.3204 441.555 89.9242 441.154 88.7399 440.37C87.597 439.655 86.5828 438.752 85.7399 437.7C84.8908 436.685 84.368 435.437 84.2399 434.12C84.1889 433.475 84.2899 432.827 84.5348 432.227C84.7796 431.628 85.1616 431.095 85.6499 430.67C86.1501 430.295 86.7494 430.075 87.3734 430.038C87.9974 430 88.6187 430.147 89.1599 430.46C89.6744 430.719 90.1224 431.092 90.4692 431.552C90.816 432.011 91.0524 432.544 91.1599 433.11C91.3082 434.121 91.148 435.154 90.7002 436.073C90.2524 436.991 89.5379 437.754 88.6499 438.26C87.1912 439.057 85.4944 439.302 83.8699 438.95C82.6647 438.708 81.5108 438.258 80.4599 437.62C79.7968 437.231 79.1589 436.8 78.5499 436.33C78.3289 436.179 78.1244 436.004 77.9399 435.81C78.175 435.934 78.3991 436.078 78.6099 436.24C79.0499 436.53 79.6899 436.96 80.6099 437.44C81.6679 438.022 82.8125 438.431 83.9999 438.65C85.5521 438.946 87.1587 438.687 88.5399 437.92C89.3429 437.444 89.9864 436.741 90.3888 435.898C90.7912 435.056 90.9343 434.114 90.7999 433.19C90.6986 432.691 90.4835 432.222 90.1713 431.819C89.8591 431.417 89.4582 431.092 88.9999 430.87C88.5371 430.603 88.0062 430.478 87.4729 430.51C86.9397 430.542 86.4275 430.73 85.9999 431.05C85.5837 431.425 85.259 431.89 85.051 432.41C84.8429 432.931 84.757 433.491 84.7999 434.05C84.9234 435.26 85.4116 436.404 86.1999 437.33C86.9955 438.328 87.952 439.187 89.0299 439.87C90.1127 440.613 91.3968 441.007 92.7099 441C94.0018 440.909 95.228 440.396 96.1999 439.54C97.1606 438.709 97.9024 437.655 98.3599 436.47C98.8059 435.321 99.0691 434.11 99.1399 432.88C99.2346 431.699 99.1605 430.51 98.9199 429.35C98.7203 428.268 98.1205 427.3 97.2399 426.64C96.8381 426.341 96.3623 426.157 95.8638 426.107C95.3652 426.058 94.8627 426.145 94.4099 426.36C94.0183 426.615 93.704 426.973 93.5013 427.394C93.2986 427.816 93.2151 428.285 93.2599 428.75C93.3075 429.651 93.5902 430.523 94.0799 431.28C94.9859 432.575 96.2825 433.545 97.7799 434.05C98.9071 434.451 100.11 434.595 101.3 434.47C102.32 434.337 103.311 434.032 104.23 433.57Z" fill="#263238"/>
<path d="M639.999 351.92C646.542 345.374 654.674 340.642 663.598 338.187C672.521 335.733 681.93 335.641 690.899 337.92C675.719 348.262 657.807 353.859 639.439 354" fill="#0E98D5"/>
<path d="M657.299 290.79C655.179 275.79 661.009 258.92 672.239 248.02C672.609 262.88 666.329 279.61 657.299 290.79Z" fill="#0E98D5"/>
<path d="M648.32 319.12C656.441 303.73 669.351 291.402 685.1 284C682.641 292.637 677.924 300.461 671.434 306.668C664.944 312.874 656.917 317.238 648.18 319.31" fill="#0E98D5"/>
<path d="M646.46 324.59C655.52 324.84 664.69 324.53 673.46 322.21C682.23 319.89 690.61 315.43 696.46 308.5C678.715 308.555 661.381 313.846 646.63 323.71" fill="#0E98D5"/>
<path d="M651.059 306.58C646.459 289.35 638.879 277.43 625.329 267.77C624.289 276.244 626.31 284.811 631.028 291.926C635.745 299.042 642.849 304.239 651.059 306.58Z" fill="#0E98D5"/>
<path d="M616.87 336.3C616.837 331.274 618.29 326.351 621.046 322.149C623.801 317.947 627.738 314.652 632.36 312.68C631.61 321.58 624.62 331.87 616.87 336.3Z" fill="#0E98D5"/>
<path d="M612.54 321.77C611.91 314.555 609.232 307.67 604.82 301.926C600.409 296.182 594.448 291.819 587.64 289.35C590.77 303.75 599.09 315.74 612.54 321.77Z" fill="#0E98D5"/>
<path d="M619.059 347.56C615.869 342.99 610.649 340.15 605.259 338.74C599.869 337.33 594.259 337.2 588.649 337.08C592.45 341.206 597.101 344.459 602.28 346.615C607.459 348.771 613.043 349.78 618.649 349.57" fill="#0E98D5"/>
<path d="M625.53 384.29C615.363 381.156 604.391 381.944 594.777 386.5C585.162 391.055 577.603 399.047 573.59 408.9C592.46 405.32 611.08 396.9 625.53 384.29Z" fill="#0E98D5"/>
<path d="M646.24 371.53C643.11 380.79 643.71 391.99 650.68 399.98C652.067 395.202 652.388 390.177 651.621 385.262C650.854 380.346 649.017 375.658 646.24 371.53Z" fill="#0E98D5"/>
<path d="M658.479 366.38C658.986 372.351 661.024 378.091 664.396 383.044C667.768 387.998 672.36 391.999 677.729 394.66C677.978 394.822 678.257 394.931 678.55 394.979C678.843 395.028 679.142 395.014 679.43 394.94C680.28 394.6 680.36 393.44 680.26 392.53C678.89 380.66 670.099 369.18 658.479 366.38Z" fill="#0E98D5"/>
<path d="M666.479 365.18C669.138 368.054 672.359 370.351 675.942 371.928C679.525 373.505 683.394 374.329 687.309 374.349C691.224 374.369 695.101 373.584 698.7 372.042C702.299 370.501 705.542 368.237 708.229 365.39C694.959 363.94 679.639 362.97 666.479 365.18Z" fill="#0E98D5"/>
<path d="M668.459 259.07C668.435 259.204 668.395 259.335 668.339 259.46L667.939 260.58C667.559 261.58 667.019 263.04 666.339 264.88C665.659 266.72 664.799 269.03 663.839 271.7C663.359 273.03 662.839 274.45 662.299 275.96L660.649 280.76C658.299 287.48 655.649 295.55 652.869 304.53C650.089 313.51 647.189 323.46 644.329 333.94C641.469 344.42 639.009 354.48 636.879 363.65C634.749 372.82 633.029 381.12 631.749 388.13C631.419 389.88 631.099 391.54 630.809 393.13C630.519 394.72 630.289 396.2 630.049 397.59C629.569 400.38 629.159 402.78 628.879 404.75C628.599 406.72 628.349 408.22 628.179 409.29C628.099 409.78 628.039 410.17 627.989 410.46C627.939 410.75 627.909 410.86 627.909 410.86C627.896 410.727 627.896 410.593 627.909 410.46C627.909 410.17 627.989 409.77 628.049 409.27C628.189 408.21 628.399 406.68 628.649 404.72C628.899 402.76 629.279 400.34 629.739 397.55C629.959 396.15 630.199 394.66 630.459 393.07C630.719 391.48 631.049 389.82 631.369 388.07C632.609 381.07 634.369 372.75 636.369 363.56C638.369 354.37 640.969 344.32 643.789 333.82C646.609 323.32 649.579 313.39 652.369 304.4C655.159 295.41 657.859 287.4 660.259 280.65L661.949 275.86C662.509 274.36 663.029 272.94 663.529 271.61C664.529 268.95 665.359 266.67 666.099 264.82C666.839 262.97 667.389 261.56 667.789 260.56L668.239 259.45C668.399 259.2 668.449 259.07 668.459 259.07Z" fill="#263238"/>
<path d="M595.56 297C595.56 297 595.64 297.07 595.79 297.21L596.42 297.88C596.98 298.47 597.78 299.36 598.78 300.52C601.629 303.826 604.242 307.328 606.6 311C610.115 316.422 612.865 322.305 614.77 328.48C616.96 335.48 618.32 343.35 619.67 351.62C622.37 368.17 625.67 382.99 628.08 393.71C629.28 399.05 630.26 403.37 630.95 406.4C631.28 407.88 631.53 409.04 631.72 409.86C631.79 410.23 631.86 410.53 631.9 410.76C631.928 410.861 631.944 410.965 631.95 411.07C631.906 410.974 631.873 410.873 631.85 410.77C631.79 410.54 631.71 410.25 631.62 409.88C631.41 409.06 631.12 407.88 630.76 406.45C630.03 403.45 629 399.11 627.76 393.79C625.27 383.09 621.9 368.27 619.2 351.7C617.85 343.43 616.5 335.55 614.35 328.62C612.49 322.472 609.798 316.608 606.35 311.19C604.028 307.533 601.469 304.032 598.69 300.71C597.69 299.52 596.94 298.62 596.41 298.01L595.81 297.31C595.714 297.217 595.63 297.113 595.56 297Z" fill="#263238"/>
<path d="M670.44 364.61C670.285 364.665 670.123 364.695 669.96 364.7L668.59 364.85L667.59 364.95L666.41 365.13C665.57 365.25 664.61 365.38 663.56 365.61L661.92 365.94L660.15 366.38C658.92 366.66 657.65 367.11 656.3 367.52C653.403 368.522 650.594 369.76 647.9 371.22C645.222 372.717 642.697 374.472 640.36 376.46C639.344 377.327 638.379 378.252 637.47 379.23C636.659 380.068 635.894 380.949 635.18 381.87C634.576 382.617 634.012 383.394 633.49 384.2C633.062 384.79 632.675 385.408 632.33 386.05L631.62 387.24C631.548 387.384 631.457 387.519 631.35 387.64C631.388 387.482 631.448 387.33 631.53 387.19L632.16 385.95C632.472 385.289 632.837 384.653 633.25 384.05C633.752 383.218 634.303 382.417 634.9 381.65C635.597 380.701 636.351 379.796 637.16 378.94C638.071 377.941 639.035 376.993 640.05 376.1C642.399 374.077 644.945 372.294 647.65 370.78C650.372 369.303 653.216 368.062 656.15 367.07C657.52 366.67 658.8 366.24 660.05 365.97L661.83 365.55L663.5 365.25C664.56 365.04 665.5 364.94 666.38 364.85L667.56 364.71H668.56L669.95 364.65C670.111 364.618 670.275 364.605 670.44 364.61Z" fill="#263238"/>
<path d="M674.22 297.36C673.915 297.696 673.58 298.004 673.22 298.28L670.49 300.65C668.17 302.65 664.94 305.34 661.36 308.32C657.78 311.3 654.5 313.96 652.12 315.88L649.29 318.12C648.955 318.41 648.594 318.668 648.21 318.89C648.509 318.548 648.844 318.24 649.21 317.97L651.95 315.6C654.27 313.6 657.5 310.9 661.08 307.93C664.66 304.96 667.93 302.29 670.31 300.37L673.15 298.13C673.479 297.837 673.838 297.579 674.22 297.36Z" fill="#263238"/>
<path d="M677.48 314.91C677.48 315.05 670.55 317.23 661.92 319.78C653.29 322.33 646.25 324.29 646.21 324.15C646.17 324.01 653.14 321.84 661.78 319.29C670.42 316.74 677.44 314.78 677.48 314.91Z" fill="#263238"/>
<path d="M651.75 307.92C651.476 307.612 651.235 307.277 651.03 306.92L649.19 304.12C647.64 301.77 645.42 298.55 642.81 295.12C640.2 291.69 637.67 288.71 635.81 286.58C634.93 285.58 634.19 284.74 633.61 284.06C633.312 283.759 633.05 283.423 632.83 283.06C633.166 283.303 633.474 283.581 633.75 283.89C634.32 284.44 635.11 285.27 636.08 286.3C638.01 288.38 640.58 291.3 643.21 294.77C645.84 298.24 648.01 301.47 649.5 303.88C650.24 305.09 650.82 306.08 651.2 306.77C651.422 307.133 651.607 307.519 651.75 307.92Z" fill="#263238"/>
<path d="M627.55 317.67C627.062 318.601 626.514 319.499 625.91 320.36C624.91 321.99 623.46 324.27 622 326.84C620.54 329.41 619.3 331.84 618.43 333.52C618.016 334.478 617.538 335.406 617 336.3C617.291 335.286 617.676 334.302 618.15 333.36C618.95 331.59 620.15 329.17 621.61 326.59C623.07 324.01 624.54 321.75 625.67 320.16C626.219 319.274 626.849 318.441 627.55 317.67Z" fill="#263238"/>
<path d="M619.27 348C618.065 347.539 616.883 347.019 615.73 346.44C613.55 345.44 610.51 344.18 607.08 342.98C603.65 341.78 600.47 340.88 598.16 340.29C596.897 340.02 595.649 339.687 594.42 339.29C594.756 339.29 595.092 339.327 595.42 339.4C596.09 339.5 597.04 339.68 598.21 339.93C604.317 341.274 610.239 343.349 615.85 346.11C616.92 346.64 617.78 347.11 618.36 347.43C618.685 347.583 618.991 347.774 619.27 348Z" fill="#263238"/>
<path d="M625.79 384.35C625.656 384.42 625.51 384.467 625.36 384.49L624.1 384.81L619.47 385.88C614.359 386.956 609.306 388.291 604.33 389.88C599.38 391.534 594.641 393.762 590.21 396.52C588.52 397.59 587.21 398.52 586.31 399.22C585.865 399.582 585.397 399.916 584.91 400.22C585.002 400.099 585.106 399.989 585.22 399.89C585.44 399.69 585.75 399.39 586.22 399.03C587.44 398.007 588.715 397.052 590.04 396.17C594.449 393.309 599.204 391.021 604.19 389.36C609.182 387.755 614.268 386.463 619.42 385.49L624.09 384.58C624.65 384.461 625.219 384.384 625.79 384.35Z" fill="#263238"/>
<path d="M649.36 393.3C649.22 393.3 648.36 388.43 647.51 382.38C646.66 376.33 646.02 371.38 646.16 371.38C646.3 371.38 647.16 376.25 648.01 382.3C648.86 388.35 649.5 393.28 649.36 393.3Z" fill="#263238"/>
<path d="M673.9 384.39C673.108 383.561 672.37 382.683 671.69 381.76C670.36 380.11 668.53 377.83 666.45 375.36C664.37 372.89 662.45 370.69 661.05 369.1C660.254 368.271 659.516 367.389 658.84 366.46C659.101 366.63 659.336 366.835 659.54 367.07C659.97 367.48 660.54 368.07 661.31 368.85C662.78 370.38 664.75 372.56 666.84 375.04C668.93 377.52 670.72 379.83 671.98 381.54C672.6 382.4 673.1 383.1 673.43 383.54C673.63 383.797 673.789 384.084 673.9 384.39Z" fill="#263238"/>
<path d="M608.95 407.15V419.28H611.99L622.76 453.3H646.67L657.11 419.61L661.15 419.28V407.15H608.95Z" fill="#263238"/>
<path d="M659.13 419.61C659.13 419.75 648.58 419.87 635.56 419.87C622.54 419.87 611.99 419.75 611.99 419.61C611.99 419.47 622.54 419.36 635.56 419.36C648.58 419.36 659.13 419.47 659.13 419.61Z" fill="#455A64"/>
<path d="M676.33 341.61C675.828 341.786 675.313 341.924 674.789 342.02L670.599 343.02C667.059 343.9 662.21 345.23 656.94 347.02C651.67 348.81 647 350.67 643.65 352.11L639.7 353.84C639.226 354.076 638.735 354.273 638.229 354.43C638.667 354.134 639.128 353.877 639.609 353.66C640.519 353.19 641.85 352.54 643.51 351.78C652.174 347.831 661.221 344.785 670.51 342.69C672.29 342.3 673.74 342.01 674.74 341.84C675.261 341.711 675.793 341.634 676.33 341.61Z" fill="#263238"/>
<path d="M651.2 438.51C651.2 438.65 643.79 438.76 634.66 438.76C625.53 438.76 618.12 438.65 618.12 438.51C618.12 438.37 625.52 438.25 634.66 438.25C643.8 438.25 651.2 438.37 651.2 438.51Z" fill="#FAFAFA"/>
<path d="M652.13 435.69C652.13 435.83 644.28 435.95 634.6 435.95C624.92 435.95 617.07 435.83 617.07 435.69C617.07 435.55 624.92 435.44 634.6 435.44C644.28 435.44 652.13 435.55 652.13 435.69Z" fill="#FAFAFA"/>
<path d="M587 93.2701H179.75C178.076 93.2648 176.417 93.5903 174.869 94.228C173.321 94.8656 171.914 95.8028 170.73 96.9856C169.545 98.1685 168.606 99.5738 167.966 101.121C167.326 102.668 166.997 104.326 167 106V393.66C167 397.031 168.339 400.264 170.723 402.647C173.106 405.031 176.339 406.37 179.71 406.37H336.06C336.06 406.37 346 437.12 315.18 453H461.34C461.34 453 426.54 441.07 435.49 406.35H587C588.669 406.35 590.322 406.021 591.864 405.383C593.406 404.744 594.807 403.808 595.987 402.627C597.168 401.447 598.104 400.046 598.743 398.504C599.381 396.962 599.71 395.309 599.71 393.64V106C599.713 104.329 599.386 102.674 598.748 101.13C598.111 99.5857 597.175 98.1822 595.994 96.9998C594.814 95.8175 593.412 94.8795 591.869 94.2395C590.325 93.5995 588.671 93.2701 587 93.2701Z" fill="#455A64"/>
<path d="M388.83 376.11C394.37 384.03 385.69 392.7 377.77 387.16C377.507 386.973 377.278 386.743 377.09 386.48C371.57 378.57 380.23 369.91 388.14 375.43C388.405 375.618 388.638 375.848 388.83 376.11Z" fill="#263238"/>
<path d="M183.42 98.5801H582.71C585.283 98.5801 587.75 99.602 589.569 101.421C591.388 103.24 592.41 105.707 592.41 108.28V353.78H173.72V108.28C173.72 105.707 174.742 103.24 176.561 101.421C178.38 99.602 180.848 98.5801 183.42 98.5801Z" fill="white"/>
<path d="M183.2 98.5402H584.89C586.884 98.5402 588.797 99.3325 590.207 100.743C591.618 102.153 592.41 104.066 592.41 106.06V119.75H174V107.7C173.999 106.494 174.236 105.299 174.698 104.184C175.161 103.069 175.839 102.057 176.694 101.206C177.549 100.355 178.564 99.6807 179.681 99.2232C180.797 98.7657 181.993 98.5336 183.2 98.5402Z" fill="#EBEBEB"/>
<path d="M190.32 109.59C190.32 110.171 190.148 110.74 189.824 111.223C189.501 111.707 189.042 112.084 188.505 112.306C187.968 112.529 187.377 112.587 186.806 112.473C186.236 112.36 185.712 112.08 185.301 111.669C184.89 111.258 184.61 110.734 184.496 110.163C184.383 109.593 184.441 109.002 184.664 108.465C184.886 107.928 185.263 107.468 185.747 107.145C186.23 106.822 186.798 106.65 187.38 106.65C188.16 106.65 188.907 106.96 189.459 107.511C190.01 108.062 190.32 108.81 190.32 109.59Z" fill="#263238"/>
<path d="M199.09 109.59C199.09 110.171 198.918 110.74 198.594 111.223C198.271 111.707 197.812 112.084 197.275 112.306C196.738 112.529 196.147 112.587 195.576 112.473C195.006 112.36 194.482 112.08 194.071 111.669C193.66 111.258 193.38 110.734 193.266 110.163C193.153 109.593 193.211 109.002 193.434 108.465C193.656 107.928 194.033 107.468 194.517 107.145C195 106.822 195.568 106.65 196.15 106.65C196.93 106.65 197.678 106.96 198.229 107.511C198.78 108.062 199.09 108.81 199.09 109.59Z" fill="#263238"/>
<path d="M207.43 109.59C207.43 110.171 207.257 110.74 206.934 111.223C206.611 111.707 206.152 112.084 205.615 112.306C205.078 112.529 204.487 112.587 203.916 112.473C203.346 112.36 202.822 112.08 202.411 111.669C202 111.258 201.72 110.734 201.606 110.163C201.493 109.593 201.551 109.002 201.774 108.465C201.996 107.928 202.373 107.468 202.856 107.145C203.34 106.822 203.908 106.65 204.49 106.65C205.27 106.65 206.017 106.96 206.569 107.511C207.12 108.062 207.43 108.81 207.43 109.59Z" fill="#263238"/>
<path d="M514.21 406.41C514.21 406.54 456.21 406.65 384.78 406.65C313.35 406.65 255.34 406.54 255.34 406.41C255.34 406.28 313.28 406.16 384.78 406.16C456.28 406.16 514.21 406.27 514.21 406.41Z" fill="#263238"/>
<path d="M543.13 263C547.97 260.5 553.67 260.18 559.04 261.06C561.92 261.54 564.93 262.4 566.9 264.57C568.87 266.74 569.23 270.57 566.98 272.42C565.509 273.407 563.741 273.849 561.98 273.67C557.78 273.62 553.11 272.88 549.75 275.41C547.84 276.86 546.56 279.26 544.27 279.96C543.117 280.238 541.906 280.13 540.821 279.651C539.737 279.172 538.84 278.349 538.27 277.31C537.176 275.205 536.936 272.758 537.6 270.48C537.878 268.89 538.523 267.386 539.483 266.088C540.442 264.79 541.691 263.733 543.13 263Z" fill="#EBEBEB"/>
<path d="M532.05 241.56C535.05 245.79 540.76 244.39 543.42 241.81C546.08 239.23 547.22 235.49 548.24 231.93C550.59 223.79 552.95 215.24 551.24 206.93C550.819 204.417 549.716 202.068 548.05 200.14C547.204 199.192 546.125 198.482 544.92 198.08C543.715 197.678 542.425 197.599 541.18 197.85C538.28 198.62 536.47 201.46 535.18 204.16C531.349 212.135 529.341 220.863 529.3 229.71C529.3 233.83 529.77 238.14 532.09 241.54" fill="#EBEBEB"/>
<path d="M523.93 247.62C527.14 243.81 527.75 238.25 526.32 233.48C524.89 228.71 521.66 224.64 517.94 221.32C513.56 217.427 508.466 214.421 502.94 212.47C500.798 211.61 498.496 211.218 496.19 211.32C495.038 211.388 493.921 211.735 492.934 212.333C491.948 212.931 491.123 213.761 490.53 214.75C488.95 217.75 490.46 221.41 492.1 224.39C494.981 229.643 498.275 234.659 501.95 239.39C504.95 243.2 508.29 246.96 512.79 248.68C517.29 250.4 521.97 250.2 524.36 247.07" fill="#EBEBEB"/>
<path d="M531.85 305.29C532.013 304.663 532.104 304.018 532.12 303.37C532.26 301.98 532.43 300.22 532.63 298.13C532.886 295.551 533.28 292.987 533.81 290.45C534.494 287.357 535.427 284.323 536.6 281.38C537.75 278.44 539.309 275.676 541.23 273.17C542.798 271.133 544.8 269.469 547.09 268.3C548.642 267.533 550.306 267.016 552.02 266.77C552.664 266.745 553.305 266.652 553.93 266.49C553.281 266.425 552.628 266.425 551.98 266.49C550.201 266.63 548.461 267.084 546.84 267.83C544.431 268.967 542.319 270.648 540.67 272.74C538.663 275.276 537.045 278.097 535.87 281.11C534.681 284.098 533.75 287.183 533.09 290.33C532.599 292.901 532.265 295.499 532.09 298.11C531.92 300.34 531.86 302.11 531.83 303.38C531.77 304.016 531.776 304.656 531.85 305.29Z" fill="#E0E0E0"/>
<path d="M532.21 301.26C532.25 300.965 532.25 300.665 532.21 300.37V297.82C532.21 295.61 532.21 292.41 532.32 288.46C532.52 280.56 533.2 272.06 534.51 260.07C535.75 248.8 537.42 235.68 539.19 227.15C539.56 225.21 539.95 223.47 540.3 221.94C540.65 220.41 540.94 219.08 541.22 218.02C541.5 216.96 541.66 216.19 541.81 215.54C541.9 215.255 541.953 214.959 541.97 214.66C541.832 214.926 541.728 215.208 541.66 215.5C541.47 216.14 541.22 216.94 540.92 217.94C540.62 218.94 540.26 220.31 539.87 221.83C539.48 223.35 539.05 225.1 538.64 227.03C536.459 237.119 534.816 247.317 533.72 257.58C532.41 269.58 531.81 280.53 531.72 288.45C531.72 292.45 531.72 295.62 531.86 297.83C531.92 298.83 531.97 299.71 532.01 300.38C532.048 300.679 532.115 300.974 532.21 301.26Z" fill="#E0E0E0"/>
<path d="M532.27 280.17C532.333 279.281 532.333 278.389 532.27 277.5C532.17 275.79 531.93 273.32 531.45 270.29C530.869 266.749 530.088 263.243 529.11 259.79C527.962 255.541 526.491 251.385 524.71 247.36C521.666 239.941 517.298 233.137 511.82 227.28C510.88 226.278 509.878 225.336 508.82 224.46C508.36 224.06 507.94 223.67 507.53 223.36L506.35 222.55C505.639 222.017 504.89 221.536 504.11 221.11C503.98 221.29 507.28 223.23 511.45 227.66C516.746 233.566 520.999 240.329 524.03 247.66C525.754 251.672 527.207 255.794 528.38 260C529.389 263.422 530.224 266.893 530.88 270.4C531.43 273.4 531.75 275.84 531.94 277.54C531.979 278.424 532.089 279.304 532.27 280.17Z" fill="#E0E0E0"/>
<path d="M511.87 317.38L513.99 346.34H551.19L553.31 317.38H511.87Z" fill="#E0E0E0"/>
<path d="M557.75 305.96H508.28V317.38H557.75V305.96Z" fill="#E0E0E0"/>
<path d="M508.28 345.23V348.4H510.61H556.93V345.23H508.28Z" fill="#EBEBEB"/>
<path d="M512.88 353.97L510.61 348.4H555.16L552.5 353.97H512.88Z" fill="#E0E0E0"/>
<path d="M552.62 326.84C552.62 326.84 552.62 326.94 552.44 327.11C552.26 327.28 552.11 327.55 551.89 327.85L549.719 330.62L549.62 330.74L549.53 330.62L544.21 323.25H544.51L539.27 330.67L539.109 330.91L538.919 330.69L532.7 323.29H533.06L532.719 323.72L527.159 330.72L526.979 330.95L526.799 330.71L521.56 323.28H521.859L515.4 330.64L515.289 330.77L515.2 330.62L513.2 327.22L512.68 326.32C512.618 326.218 512.565 326.111 512.52 326C512.52 326 512.61 326.09 512.74 326.28L513.31 327.15C513.83 327.97 514.54 329.09 515.44 330.49H515.229L521.59 323.05L521.75 322.86L521.9 323.06C523.5 325.31 525.28 327.79 527.19 330.45H526.83L532.38 323.45L532.719 323.02L532.9 322.8L533.08 323.01L539.28 330.43H538.93L544.229 323.04L544.38 322.83L544.53 323.04L549.74 330.49H549.56L551.81 327.79L552.409 327.09C552.469 326.998 552.539 326.914 552.62 326.84Z" fill="#F5F5F5"/>
<path d="M553.83 317.19C553.83 317.32 544.5 317.42 533.01 317.42C521.52 317.42 512.18 317.32 512.18 317.19C512.18 317.06 521.5 317 533 317C544.5 317 553.83 317.06 553.83 317.19Z" fill="#F5F5F5"/>
<path d="M555.71 348.71C555.71 348.84 545.57 348.94 533.08 348.94C520.59 348.94 510.45 348.84 510.45 348.71C510.45 348.58 520.58 348.48 533.08 348.48C545.58 348.48 555.71 348.58 555.71 348.71Z" fill="#F5F5F5"/>
<path d="M437.64 186.35C436.58 168.603 434.843 150.91 432.43 133.27C430.98 122.66 429.26 112 425.6 101.93C421.94 91.8601 416.19 82.3501 407.84 75.7001C399.49 69.0501 388.34 65.5601 378 67.8701L420.21 198.15C423.36 198.57 426.57 198.98 429.68 198.36C432.79 197.74 435.84 195.89 437.07 192.94C437.756 190.815 437.951 188.562 437.64 186.35Z" fill="#263238"/>
<path d="M364.231 72.3499C356.141 71.7199 346.331 74.8199 341.731 81.5499C338.161 86.7799 339.011 95.8999 337.731 102.13C335.731 112.13 333.791 122.13 333.541 132.32C333.271 143.5 335.071 154.61 336.881 165.64C338.881 177.84 340.881 190.037 342.881 202.23C343.771 207.65 344.691 213.23 347.241 218.05C349.791 222.87 354.311 227.05 359.741 227.69C364.741 228.27 369.681 225.76 373.021 222.01C376.361 218.26 378.231 213.41 379.391 208.51L364.231 72.3499Z" fill="#263238"/>
<path d="M371.361 186.23C368.941 186.11 352.811 189.98 352.811 189.98L371.581 263.48L401.631 265.91L428.301 182.24L371.361 186.23Z" fill="#AA6550"/>
<path d="M405.13 248.36C400.816 253.679 394.875 257.434 388.22 259.05C384.557 260.077 380.668 259.965 377.07 258.73C373.55 257.36 370.57 254.2 370.13 250.42L365 266L374.11 311.43L388.9 353.8L417.85 353.63L405.13 248.36Z" fill="#263238"/>
<path d="M289.52 257.37L302.45 241.74C302.45 241.74 314.94 200.97 318.69 197.92C322.44 194.87 356.69 186.27 356.69 186.27L368.9 238.94L375.11 303.76L386.5 329.5L397.68 353.71L358.43 353.82C358.43 353.82 342.43 317.69 333.95 296.68C331.198 289.854 329.482 282.654 328.86 275.32L328.44 270.32C328.44 270.32 302.91 329.39 296.89 333.19C290.87 336.99 283.36 342.71 275.08 342.36C266.8 342.01 249.78 317.41 249.78 317.41L249.69 284.55L273.75 274.49L277.92 283.58L289.52 257.37Z" fill="#0E98D5"/>
<path d="M393.08 327.72L395.7 321.27L451.26 295.15L449.54 217.8L464.34 186.26C464.34 186.26 472.74 189.93 477.6 200.77C481.03 208.39 490.92 316.28 485.32 319.65C478 324 428.84 343.54 412.4 350C410.913 350.584 409.265 350.612 407.759 350.079C406.253 349.547 404.989 348.489 404.2 347.1L393.08 327.72Z" fill="#0E98D5"/>
<path d="M457.85 319.29L464.14 186L432.82 180.23L423.82 173.74H416.7C416.7 173.74 419.32 180.52 418.97 186.11C418.62 191.7 392.82 291.55 392.82 291.55L407.47 353.69L473.7 353.49L457.85 319.29Z" fill="#0E98D5"/>
<path d="M432.82 180.2V180.39C432.82 180.54 432.82 180.72 432.82 180.95C432.82 181.48 432.91 182.21 432.97 183.14C433.09 185.06 433.22 187.88 433.3 191.45C433.47 198.61 433.18 208.83 432.59 221.02V221.22H432.38L420.59 221.88L420.78 221.5C423.507 225.83 427.244 229.433 431.67 232L431.87 232.12L431.78 232.33L427.07 242.75C422.57 252.75 418.39 262.32 415.01 271.19C411.957 279.025 409.323 287.016 407.12 295.13C405.26 302.06 404.19 307.78 403.49 311.73C403.19 313.73 402.95 315.23 402.78 316.3C402.7 316.8 402.64 317.2 402.59 317.49C402.579 317.626 402.552 317.76 402.51 317.89C402.497 317.754 402.497 317.617 402.51 317.48C402.51 317.19 402.59 316.79 402.65 316.29C402.79 315.29 402.96 313.69 403.26 311.7C403.9 307.7 404.92 302 406.73 295.03C408.894 286.895 411.498 278.883 414.53 271.03C417.89 262.13 422.07 252.55 426.53 242.54L431.25 232.12L431.35 232.45C426.874 229.84 423.1 226.182 420.35 221.79L420.13 221.44H420.54L432.34 220.82L432.12 221.03C432.76 208.85 433.12 198.65 433.02 191.5C433.02 187.92 432.89 185.11 432.82 183.19C432.82 182.25 432.76 181.52 432.73 181V180.43C432.743 180.348 432.774 180.27 432.82 180.2Z" fill="#263238"/>
<path d="M396.001 345.86L395.571 345.66L394.321 345.04C393.221 344.52 391.661 343.62 389.661 342.43C388.661 341.79 387.601 341.1 386.451 340.29C385.301 339.48 384.051 338.57 382.801 337.5C379.893 335.147 377.172 332.573 374.661 329.8C368.122 322.572 362.769 314.353 358.801 305.45C354.015 294.531 350.677 283.034 348.871 271.25C347.551 263.31 346.781 255.53 346.241 248.13C345.971 244.45 345.811 240.74 346.781 237.3C347.751 233.86 349.901 230.81 353.031 229.48L352.971 229.86C351.786 228.851 350.366 228.157 348.842 227.842C347.317 227.527 345.738 227.602 344.251 228.06L343.971 228.16V227.86C344.341 216.37 344.641 206.86 344.851 200.3C344.971 197.03 345.071 194.46 345.131 192.68C345.131 191.83 345.201 191.16 345.221 190.68C345.241 190.2 345.271 189.99 345.271 189.99C345.271 189.99 345.271 190.23 345.271 190.68C345.271 191.13 345.271 191.82 345.271 192.68C345.271 194.45 345.171 197.02 345.101 200.3C344.931 206.91 344.691 216.37 344.401 227.86L344.121 227.65C345.678 227.162 347.334 227.076 348.933 227.399C350.533 227.723 352.025 228.445 353.271 229.5L353.541 229.74L353.211 229.89C350.211 231.15 348.161 234.13 347.211 237.42C346.261 240.71 346.441 244.42 346.711 248.09C347.261 255.48 348.031 263.24 349.361 271.16C351.153 282.902 354.464 294.362 359.211 305.25C363.142 314.118 368.436 322.317 374.901 329.55C377.387 332.318 380.078 334.895 382.951 337.26C384.191 338.34 385.451 339.26 386.561 340.07C387.671 340.88 388.791 341.59 389.741 342.25C391.741 343.46 393.251 344.39 394.341 344.94L395.561 345.6L396.001 345.86Z" fill="#263238"/>
<path d="M449.12 229.82C449.132 229.923 449.132 230.027 449.12 230.13C449.12 230.35 449.12 230.65 449.12 231.04C449.17 231.87 449.23 233.04 449.32 234.61C449.47 237.74 449.69 242.31 449.97 248.1C450.51 259.72 451.26 276.26 452.17 295.96V296.12L452.03 296.18L400.56 319L395.61 321.19L395.75 321.05C395.39 321.95 395.03 322.82 394.67 323.7V323.5C398.32 332.35 401.83 340.9 405.13 348.91L405.03 348.79C406.343 349.569 407.805 350.063 409.32 350.24C409.685 350.265 410.051 350.245 410.41 350.18C410.754 350.093 411.088 349.976 411.41 349.83L413.55 349.02L421.88 345.83L437.39 339.83C447.18 336.01 455.81 332.57 462.94 329.65C470.07 326.73 475.71 324.32 479.52 322.54C481.42 321.65 482.87 320.93 483.81 320.37C484.166 320.167 484.501 319.929 484.81 319.66C484.918 319.573 485.001 319.459 485.05 319.33C485.031 319.476 484.956 319.608 484.84 319.7C484.533 319.98 484.198 320.228 483.84 320.44C482.457 321.266 481.032 322.02 479.57 322.7C475.78 324.52 470.16 326.98 463.04 329.94C455.92 332.9 447.31 336.37 437.53 340.23L422.03 346.23L413.7 349.44L411.57 350.26C411.205 350.414 410.827 350.538 410.44 350.63C410.038 350.703 409.628 350.726 409.22 350.7C407.624 350.521 406.083 350.007 404.7 349.19H404.63V349.11C401.32 341.11 397.8 332.56 394.15 323.71V323.61V323.51C394.51 322.64 394.86 321.76 395.23 320.86V320.77L395.32 320.72L400.32 318.53L451.9 295.74L451.76 295.96C450.94 276.25 450.25 259.72 449.76 248.09C449.53 242.3 449.35 237.73 449.23 234.59C449.177 233.036 449.137 231.846 449.11 231.02C449.11 230.63 449.11 230.33 449.11 230.11L449.12 229.82Z" fill="#263238"/>
<path d="M463.091 190.05C463.161 190.11 461.981 191.45 460.331 193.79C458.183 196.845 456.366 200.12 454.911 203.56C453.471 207.005 452.408 210.596 451.741 214.27C451.221 217.09 451.091 218.87 451.001 218.86C450.959 218.441 450.959 218.019 451.001 217.6C451.064 216.461 451.184 215.326 451.361 214.2C452.504 206.718 455.471 199.633 460.001 193.57C460.678 192.656 461.402 191.778 462.171 190.94C462.447 190.613 462.755 190.315 463.091 190.05Z" fill="#263238"/>
<path d="M329.761 231.53C329.631 231.083 329.547 230.624 329.511 230.16C329.401 229.28 329.201 228 328.911 226.44C327.43 218.257 324.501 210.404 320.261 203.25C319.451 201.88 318.761 200.78 318.261 200.04C317.987 199.663 317.749 199.261 317.551 198.84C317.877 199.172 318.171 199.534 318.431 199.92C318.971 200.63 319.711 201.7 320.561 203.06C325.016 210.161 327.976 218.096 329.261 226.38C329.501 227.96 329.651 229.25 329.701 230.14C329.772 230.6 329.792 231.066 329.761 231.53Z" fill="#263238"/>
<path d="M383.69 259.72C383.427 258.431 383.336 257.113 383.42 255.8C383.324 254.492 383.409 253.176 383.67 251.89C384.017 254.489 384.017 257.122 383.67 259.72H383.69Z" fill="#754034"/>
<g opacity="0.3">
<path d="M427.6 223.47L436.4 224.65C434.51 219.81 434.78 193.65 433.25 188.54L432.44 221L420.65 221.63C420.65 221.63 425.72 228.44 428.09 229.87C429.294 230.563 430.447 231.342 431.54 232.2C431.54 232.2 414.86 271.2 412.26 277.92C406.73 292.23 402.71 316.3 402.71 316.3C416.54 292.3 424.57 264.53 431.82 237.72C432.526 235.672 432.798 233.499 432.62 231.34C432.13 228.22 429.81 225.74 427.6 223.47Z" fill="black"/>
</g>
<g opacity="0.3">
<path d="M344.26 227.89C344.1 228.37 344.39 216.89 344.46 216.65C344.53 216.41 342.96 230.42 342.68 231.25L347.51 230.19C346.311 230.787 345.25 231.63 344.397 232.663C343.544 233.697 342.918 234.899 342.56 236.19C341.864 238.796 341.59 241.497 341.75 244.19C342.07 264.28 346.43 284.91 357.23 301.81C350.17 285 348 266.58 346.29 248.4C345.96 244.83 345.68 241.27 346.68 237.82C347.68 234.37 349.97 230.7 353.11 229.53C350.69 227.53 347.29 226.53 344.26 227.89Z" fill="black"/>
</g>
<g opacity="0.3">
<path d="M406.4 349.76C407.67 352.45 412.3 352.26 415.53 351.9C418.74 351.399 421.872 350.488 424.85 349.19C438.29 344.01 451.29 339.35 464.73 334.19L462.86 330.14L411 350.31C410.24 350.56 409.434 350.64 408.639 350.545C407.845 350.45 407.08 350.182 406.4 349.76Z" fill="black"/>
</g>
<path d="M269.06 219.8C266.5 219.58 258.91 221.8 256.92 225.33L252.74 239.33C252.74 239.33 262.14 229.65 266.47 228.09C273.25 225.65 276.39 225.6 273.47 221.95C272.939 221.289 272.268 220.754 271.506 220.382C270.743 220.01 269.908 219.812 269.06 219.8Z" fill="#AA6550"/>
<path d="M229.511 230.39L234.071 240.9L234.251 260L256.981 256.65L253.711 238.35L255.951 230.31L246.581 222.4L229.511 230.39Z" fill="#AA6550"/>
<path d="M328.393 247.054L209.273 247.408L209.516 329.197L328.636 328.844L328.393 247.054Z" fill="#FAFAFA"/>
<path d="M328.61 328.86C328.61 328.86 328.61 328.35 328.61 327.37C328.61 326.39 328.61 324.93 328.61 323.04C328.61 319.25 328.56 313.69 328.51 306.58C328.45 292.36 328.35 271.94 328.23 247.08L328.44 247.29L209.33 247.68L209.59 247.42C209.66 276.62 209.74 304.36 209.8 329.21L209.56 328.97L295.4 328.84H328.69H328.13H326.48L320.01 328.89L295.56 329.02L209.56 329.39H209.33V329.15C209.25 304.3 209.16 276.56 209.07 247.36V247.1H209.34L328.45 246.81H328.66V247.02C328.66 271.93 328.71 292.39 328.72 306.65V323.07C328.72 324.94 328.72 326.37 328.72 327.35C328.72 328.33 328.61 328.86 328.61 328.86Z" fill="#263238"/>
<path d="M218.41 320.44C218.27 320.44 218.11 306.56 218.06 289.44C218.01 272.32 218.06 258.44 218.24 258.44C218.42 258.44 218.54 272.31 218.59 289.44C218.64 306.57 218.56 320.44 218.41 320.44Z" fill="#263238"/>
<path d="M321.77 311.6C321.77 311.75 298.54 311.93 269.88 312.01C241.22 312.09 217.99 312.01 217.99 311.9C217.99 311.79 241.22 311.57 269.88 311.49C298.54 311.41 321.77 311.46 321.77 311.6Z" fill="#EBEBEB"/>
<path d="M321.74 302.51C321.74 302.65 298.51 302.84 269.86 302.92C241.21 303 218 303 218 302.81C218 302.62 241.22 302.48 269.89 302.4C298.56 302.32 321.74 302.37 321.74 302.51Z" fill="#EBEBEB"/>
<path d="M321.71 293.42C321.71 293.56 298.48 293.75 269.83 293.83C241.18 293.91 217.94 293.83 217.94 293.72C217.94 293.61 241.17 293.39 269.83 293.31C298.49 293.23 321.71 293.27 321.71 293.42Z" fill="#EBEBEB"/>
<path d="M321.69 284.33C321.69 284.47 298.46 284.65 269.8 284.74C241.14 284.83 217.91 284.74 217.91 284.62C217.91 284.5 241.14 284.3 269.8 284.22C298.46 284.14 321.69 284.18 321.69 284.33Z" fill="#EBEBEB"/>
<path d="M321.661 275.23C321.661 275.38 298.431 275.56 269.781 275.64C241.131 275.72 217.891 275.64 217.891 275.53C217.891 275.42 241.111 275.21 269.781 275.12C298.451 275.03 321.661 275.09 321.661 275.23Z" fill="#EBEBEB"/>
<path d="M321.64 266.14C321.64 266.29 298.4 266.47 269.75 266.55C241.1 266.63 217.86 266.55 217.86 266.44C217.86 266.33 241.09 266.11 269.75 266.03C298.41 265.95 321.64 266 321.64 266.14Z" fill="#EBEBEB"/>
<path d="M321.61 257.05C321.61 257.19 298.38 257.38 269.73 257.46C241.08 257.54 217.84 257.46 217.84 257.35C217.84 257.24 241.06 257.02 269.72 256.94C298.38 256.86 321.61 256.91 321.61 257.05Z" fill="#EBEBEB"/>
<path d="M232.468 306.209L225.028 306.231L225.07 320.401L232.51 320.379L232.468 306.209Z" fill="#0E98D5"/>
<path d="M286.454 306.089L279.014 306.109L279.053 320.279L286.493 320.259L286.454 306.089Z" fill="#0E98D5"/>
<path d="M247.027 295.736L239.587 295.758L239.66 320.348L247.1 320.326L247.027 295.736Z" fill="#0E98D5"/>
<path d="M274.227 289.313L266.787 289.333L266.874 320.323L274.314 320.303L274.227 289.313Z" fill="#0E98D5"/>
<path d="M260.714 270.521L253.274 270.542L253.414 320.351L260.853 320.331L260.714 270.521Z" fill="#0E98D5"/>
<path d="M300.8 279.629L293.36 279.649L293.474 320.249L300.914 320.228L300.8 279.629Z" fill="#0E98D5"/>
<path d="M309.811 320.17C309.811 320.32 289.391 320.49 264.211 320.56C239.031 320.63 218.601 320.56 218.601 320.44C218.601 320.32 239.011 320.12 264.211 320.04C289.411 319.96 309.811 320 309.811 320.17Z" fill="#263238"/>
<path d="M262.12 253.57L259.81 258.46L257.04 253.58L256.83 205.07L261.91 205.06L262.12 253.57Z" fill="#263238"/>
<path d="M260.001 205.16C260.001 205.16 257.811 200.77 255.391 200.78C252.971 200.79 249.341 205.19 249.341 205.19C249.341 205.19 243.761 202.28 241.821 203.01C239.881 203.74 236.991 208.64 236.991 208.64C235.453 209.131 234.009 209.878 232.721 210.85C231.431 212.07 231.201 215.98 231.201 215.98C231.201 215.98 227.811 216.47 227.811 218.43C227.811 220.39 227.811 228.43 229.541 230.38C231.271 232.33 240.721 239.62 243.991 239.38C247.261 239.14 247.241 234.49 246.511 233.52C246.511 233.52 250.401 236.44 252.331 233.75C254.261 231.06 253.281 227.16 253.281 227.16C253.281 227.16 254.771 231.8 257.781 229.74C261.271 227.36 258.281 222.39 258.281 222.39C258.281 222.39 260.791 226.39 262.281 224.45C263.771 222.51 263.281 219.32 262.281 217.13C261.281 214.94 260.001 205.16 260.001 205.16Z" fill="#AA6550"/>
<path d="M243.59 231.26C243.023 230.841 242.514 230.347 242.081 229.79C239.835 227.249 237.91 224.441 236.351 221.43C235.986 220.825 235.707 220.172 235.521 219.49C235.661 219.42 237.161 222.25 239.391 225.49C241.621 228.73 243.7 231.15 243.59 231.26Z" fill="#754034"/>
<path d="M253.291 226.76C251.392 224.616 249.626 222.358 248.001 220C246.226 217.734 244.59 215.363 243.101 212.9C245.008 215.055 246.785 217.322 248.421 219.69C250.182 221.948 251.808 224.309 253.291 226.76Z" fill="#754034"/>
<path d="M258.611 222.6C258.103 221.953 257.667 221.252 257.311 220.51L254.391 215.34L251.441 210.18C250.99 209.491 250.611 208.757 250.311 207.99C250.87 208.598 251.357 209.269 251.761 209.99C252.591 211.26 253.691 213.06 254.841 215.08C255.991 217.1 256.961 218.97 257.631 220.33C258.037 221.05 258.366 221.811 258.611 222.6Z" fill="#754034"/>
<path d="M252.77 226.67C252.77 226.67 252.86 226.74 252.98 226.91C253.163 227.155 253.312 227.424 253.42 227.71C253.771 228.627 253.864 229.624 253.688 230.59C253.511 231.556 253.073 232.456 252.42 233.19C251.782 233.91 250.911 234.384 249.96 234.53C248.898 234.625 247.832 234.409 246.89 233.91C245.87 233.406 244.962 232.702 244.22 231.84L244.58 231.49C245.699 232.416 246.503 233.667 246.88 235.07C247.029 235.79 246.977 236.537 246.73 237.23C246.481 237.922 245.986 238.499 245.34 238.85C244.109 239.362 242.734 239.412 241.47 238.99C239.376 238.449 237.392 237.545 235.61 236.32C234.412 235.501 233.317 234.541 232.35 233.46C232.02 233.07 231.77 232.76 231.61 232.54C231.45 232.32 231.38 232.2 231.4 232.19C232.716 233.633 234.196 234.919 235.81 236.02C237.58 237.171 239.53 238.02 241.58 238.53C242.732 238.903 243.979 238.857 245.1 238.4C245.628 238.067 246.036 237.574 246.265 236.993C246.493 236.412 246.53 235.773 246.37 235.17C246.011 233.877 245.268 232.723 244.24 231.86L244.6 231.51C246.04 233.15 248.07 234.27 249.9 234.08C250.757 233.97 251.548 233.559 252.13 232.92C252.649 232.367 253.035 231.704 253.26 230.98C253.592 229.936 253.592 228.814 253.26 227.77C253 227 252.73 226.7 252.77 226.67Z" fill="#754034"/>
<path d="M257.59 220.64C258.105 221.225 258.502 221.905 258.76 222.64C259.094 223.435 259.329 224.268 259.46 225.12C259.554 226.192 259.396 227.27 259 228.27C258.838 228.808 258.538 229.294 258.132 229.681C257.725 230.068 257.225 230.344 256.68 230.48C256.227 230.526 255.77 230.459 255.349 230.284C254.929 230.11 254.558 229.833 254.27 229.48C253.906 229.024 253.612 228.515 253.4 227.97C253.25 227.6 253.19 227.38 253.22 227.37C253.25 227.36 253.37 227.54 253.58 227.88C253.863 228.366 254.198 228.819 254.58 229.23C254.834 229.522 255.152 229.749 255.51 229.893C255.869 230.037 256.256 230.095 256.64 230.06C257.095 229.923 257.509 229.674 257.844 229.337C258.179 229 258.425 228.586 258.56 228.13C258.922 227.201 259.079 226.205 259.02 225.21C258.921 224.396 258.733 223.594 258.46 222.82C258 221.46 257.51 220.68 257.59 220.64Z" fill="#754034"/>
<path d="M251.07 238.39C249.764 239.455 248.349 240.38 246.85 241.15C245.443 242.074 243.941 242.845 242.37 243.45C243.683 242.396 245.096 241.475 246.59 240.7C248.002 239.781 249.503 239.007 251.07 238.39Z" fill="#754034"/>
<path d="M395.881 323.21L361.351 333.26L348.731 324.64C348.731 324.64 337.241 321.12 333.501 320.64C329.761 320.16 323.601 320.43 319.501 320.44C317.336 320.556 315.19 319.993 313.361 318.83C313.361 318.83 309.811 318.7 310.761 323.25C311.941 328.89 325.361 328.85 325.361 328.85L307.571 328.91H297.221L306.221 335.25C308.503 336.845 311.216 337.71 314.001 337.73H317.621C316.691 342.73 318.501 345.45 321.811 346.89C319.201 349.35 320.511 353.95 325.631 353.76C328.111 353.67 371.431 353.76 371.431 353.76L408.711 348.46L395.881 323.21Z" fill="#AA6550"/>
<path d="M325.691 337.45C323.776 337.813 321.827 337.954 319.881 337.87C317.94 337.954 315.997 337.921 314.061 337.77C315.975 337.407 317.924 337.266 319.871 337.35C321.811 337.26 323.755 337.293 325.691 337.45Z" fill="#754034"/>
<path d="M336.101 326.73C333.802 327.329 331.462 327.757 329.101 328.01C326.79 328.442 324.45 328.7 322.101 328.78C324.4 328.185 326.74 327.758 329.101 327.5C331.412 327.073 333.752 326.815 336.101 326.73Z" fill="#754034"/>
<path d="M342.36 188.62C342.63 188.49 342.23 187.06 341.36 184.62C340.49 182.18 339.03 178.62 337.45 174.22C335.56 169.149 334.092 163.932 333.06 158.62C331.828 152.217 331.807 145.64 333 139.23C334.25 132.38 336.47 125.94 338.28 119.95C340 114.596 341.245 109.102 342 103.53C342.52 99.7314 342.482 95.8776 341.89 92.0898C341.41 89.4298 340.79 88.0898 340.53 88.0898C339.87 88.2098 340.95 93.9998 339.05 103.09C337.886 108.4 336.373 113.629 334.52 118.74C332.52 124.61 330.14 131.14 328.79 138.47C328.453 140.283 328.21 142.112 328.06 143.95C328 144.86 327.93 145.76 327.93 146.67C327.93 147.58 327.87 148.46 327.93 149.34C328.037 152.705 328.459 156.053 329.19 159.34C330.433 164.85 332.256 170.214 334.63 175.34C336.177 178.765 337.909 182.103 339.82 185.34C341.21 187.57 342.11 188.75 342.36 188.62Z" fill="#263238"/>
<path d="M410.751 105.51C410.457 100.927 409.242 96.4494 407.177 92.3466C405.113 88.2438 402.242 84.5997 398.736 81.6326C395.23 78.6655 391.161 76.4362 386.774 75.0784C382.386 73.7205 377.77 73.2619 373.201 73.7301C354.791 75.4601 341.201 91.8401 341.831 110.12C342.381 126.12 343.281 142.26 344.431 147.96C347.881 165.14 359.331 169.9 363.841 171.13C365.424 171.382 367.029 171.469 368.631 171.39C368.646 171.389 368.661 171.39 368.676 171.395C368.69 171.4 368.704 171.408 368.715 171.419C368.726 171.429 368.735 171.441 368.741 171.456C368.748 171.47 368.751 171.485 368.751 171.5L368.591 192C369.271 205.29 378.751 215.45 392.181 214.85C405.611 214.25 414.001 202.35 413.611 189L410.751 105.51Z" fill="#AA6550"/>
<path d="M350.57 119.06C350.591 119.789 350.899 120.481 351.427 120.985C351.955 121.488 352.661 121.763 353.39 121.75C353.749 121.765 354.107 121.708 354.444 121.582C354.78 121.457 355.088 121.266 355.35 121.02C355.611 120.774 355.821 120.479 355.967 120.151C356.113 119.823 356.193 119.469 356.2 119.11C356.174 118.382 355.865 117.693 355.338 117.191C354.811 116.688 354.108 116.412 353.38 116.42C353.022 116.406 352.664 116.464 352.329 116.59C351.993 116.716 351.685 116.907 351.424 117.153C351.162 117.398 350.952 117.693 350.806 118.021C350.659 118.348 350.579 118.701 350.57 119.06Z" fill="#263238"/>
<path d="M346.73 114C347.09 114.35 349.16 112.69 352.19 112.56C355.22 112.43 357.49 113.84 357.81 113.45C357.96 113.28 357.58 112.64 356.59 111.99C355.238 111.15 353.66 110.745 352.07 110.83C350.494 110.893 348.979 111.453 347.74 112.43C346.84 113.2 346.55 113.88 346.73 114Z" fill="#263238"/>
<path d="M379.521 118.78C379.547 119.508 379.856 120.196 380.383 120.699C380.91 121.202 381.612 121.478 382.341 121.47C382.699 121.482 383.055 121.423 383.391 121.297C383.726 121.17 384.033 120.979 384.294 120.734C384.555 120.489 384.765 120.194 384.912 119.867C385.059 119.541 385.14 119.188 385.151 118.83C385.127 118.101 384.818 117.411 384.291 116.908C383.763 116.405 383.059 116.129 382.331 116.14C381.972 116.125 381.614 116.182 381.277 116.308C380.941 116.433 380.633 116.624 380.371 116.87C380.109 117.116 379.9 117.411 379.753 117.739C379.607 118.067 379.528 118.421 379.521 118.78Z" fill="#263238"/>
<path d="M376.511 113.26C376.871 113.6 378.951 111.95 381.971 111.82C384.991 111.69 387.281 113.09 387.591 112.71C387.751 112.54 387.371 111.9 386.371 111.25C385.023 110.407 383.448 110.001 381.861 110.09C380.286 110.151 378.77 110.707 377.531 111.68C376.621 112.43 376.331 113.1 376.511 113.26Z" fill="#263238"/>
<path d="M366.39 136C366.39 135.83 364.5 135.59 361.44 135.34C360.66 135.34 359.92 135.18 359.77 134.66C359.678 133.871 359.828 133.072 360.2 132.37C360.86 130.49 361.54 128.51 362.26 126.44C365.11 118.01 367.14 111.08 366.8 110.97C366.46 110.86 363.87 117.59 361 126C360.31 128.08 359.66 130.07 359 132C358.562 132.937 358.463 133.998 358.72 135C358.844 135.268 359.027 135.504 359.256 135.689C359.484 135.875 359.753 136.005 360.04 136.07C360.474 136.16 360.917 136.2 361.36 136.19C364.48 136.21 366.39 136.14 366.39 136Z" fill="#263238"/>
<path d="M368.75 171.38C368.75 171.38 380.48 171.81 394.75 162.45C394.75 162.45 390.75 177.95 368.7 176.91L368.75 171.38Z" fill="#754034"/>
<path d="M368.001 143.14C368.552 142.395 369.281 141.801 370.121 141.411C370.962 141.021 371.886 140.849 372.811 140.91C373.479 140.939 374.135 141.101 374.74 141.388C375.345 141.675 375.886 142.08 376.331 142.58C376.754 143.063 377.018 143.666 377.086 144.305C377.154 144.944 377.023 145.588 376.711 146.15C376.241 146.709 375.617 147.119 374.916 147.327C374.216 147.535 373.47 147.532 372.771 147.32C371.307 146.892 369.946 146.171 368.771 145.2C368.418 144.982 368.113 144.696 367.871 144.36C367.759 144.195 367.699 144 367.699 143.8C367.699 143.6 367.759 143.405 367.871 143.24" fill="#754034"/>
<path d="M375.38 137.65C374.89 137.65 375.01 140.89 372.29 143.33C369.57 145.77 366.05 145.56 366.04 146.02C366.04 146.22 366.85 146.61 368.33 146.59C370.256 146.529 372.101 145.801 373.55 144.53C374.93 143.312 375.784 141.605 375.93 139.77C376 138.41 375.61 137.62 375.38 137.65Z" fill="#263238"/>
<path d="M374.94 108.07C375.27 108.87 378.28 108.35 381.85 108.62C385.42 108.89 388.33 109.71 388.77 108.96C388.97 108.6 388.44 107.86 387.25 107.12C385.658 106.224 383.885 105.697 382.063 105.579C380.24 105.462 378.414 105.756 376.72 106.44C375.43 107 374.8 107.69 374.94 108.07Z" fill="#263238"/>
<path d="M347.6 107.86C348.16 108.52 350.22 107.72 352.73 107.57C355.24 107.42 357.38 107.82 357.84 107.09C358.04 106.73 357.68 106.09 356.72 105.46C355.437 104.744 353.972 104.421 352.507 104.531C351.042 104.641 349.641 105.18 348.48 106.08C347.62 106.82 347.35 107.54 347.6 107.86Z" fill="#263238"/>
<path d="M338.78 152.34C335.85 165.43 341.2 178.95 347.9 190.56C350.43 194.94 353.19 199.26 354.7 204.1C356.21 208.94 356.28 214.5 353.61 218.8C354.545 219.115 355.562 219.088 356.478 218.721C357.395 218.354 358.151 217.673 358.61 216.8C358.86 219.48 359.1 222.15 359.34 224.8C362.6 226.2 366.48 223.86 368.05 220.66C369.62 217.46 369.49 213.73 369.33 210.17C368.85 199.72 369.23 187.36 368.75 176.91L350.12 173.13L338.78 152.34Z" fill="#263238"/>
<path d="M389 95.51C396.06 109.11 396.91 125.08 396.4 140.43C395.89 155.78 394.19 171.26 396.72 186.43C397.72 192.38 399.37 198.43 398.46 204.37C397.92 207.88 396.51 211.2 395.8 214.68C395.09 218.16 395.2 222.07 397.37 224.87C399.54 227.67 403.5 228.75 406.99 228.08C410.478 227.253 413.623 225.363 415.99 222.67C421.35 217.02 424.15 209.3 425.19 201.56C426.23 193.82 425.65 185.96 425.07 178.17C423.563 157.903 422.05 137.64 420.53 117.38C419.88 108.62 419.18 99.65 415.63 91.62C411.765 83.2572 405.403 76.2979 397.42 71.7C388.04 66.11 375.89 63.7 366.25 68.83C363.03 70.54 359.94 73.83 360.71 77.39C361.32 80.22 364.07 81.97 366.58 83.39L391.35 97.49" fill="#263238"/>
<path d="M401.77 204.94C402.04 204.8 401.52 203.23 400.46 200.47C399.4 197.71 397.81 193.78 396.17 188.83C394.229 183.105 392.95 177.176 392.36 171.16C391.72 164.44 392.58 156.97 393.96 149.16C395.34 141.35 396.96 133.68 397.39 126.5C397.898 120.113 397.306 113.687 395.64 107.5C394.506 103.3 392.507 99.3824 389.77 96.0001C389.25 95.4301 388.77 94.9401 388.39 94.5201C388.033 94.1647 387.656 93.8308 387.26 93.5201C386.63 93.0401 386.26 92.8401 386.15 92.9401C386.04 93.0401 386.23 93.4501 386.64 94.1001L387.43 95.2901C387.71 95.7701 388.05 96.2901 388.43 96.9201C390.473 100.403 391.932 104.196 392.75 108.15C393.907 114.051 394.166 120.092 393.52 126.07C392.89 132.85 391.21 140.3 389.8 148.31C388.39 156.32 387.59 164.31 388.49 171.49C389.281 177.789 390.923 183.952 393.37 189.81C394.974 193.735 396.856 197.542 399 201.2C400.51 203.75 401.52 205.07 401.77 204.94Z" fill="#263238"/>
<path d="M426.371 103.47C426.164 103.366 425.946 103.285 425.721 103.23L423.841 102.62C423.021 102.37 422.011 102.05 420.841 101.62C419.671 101.19 418.361 100.8 416.921 100.25C414.021 99.2501 410.611 97.8801 406.921 96.2501C403.231 94.6201 399.141 92.7301 394.991 90.5501C390.841 88.3701 386.991 86.0801 383.531 83.9201C380.071 81.7601 377.061 79.6801 374.531 77.8601C373.271 76.9801 372.171 76.1201 371.191 75.3901C370.211 74.6601 369.371 74.0201 368.701 73.4801L367.131 72.2701C366.951 72.122 366.761 71.9883 366.561 71.8701C366.72 72.0382 366.89 72.1952 367.071 72.3401L368.601 73.6101C369.261 74.1701 370.071 74.8401 371.051 75.6101C372.031 76.3801 373.101 77.2401 374.361 78.1401C376.831 79.9801 379.851 82.0701 383.281 84.2801C386.711 86.4901 390.591 88.7501 394.751 90.9501C398.911 93.1501 402.981 95.0301 406.751 96.6401C410.521 98.2501 413.941 99.5401 416.851 100.54C418.301 101.06 419.631 101.46 420.851 101.84C422.071 102.22 423.021 102.52 423.851 102.75L425.761 103.28C425.96 103.357 426.163 103.42 426.371 103.47Z" fill="#455A64"/>
<path d="M426.551 106.51C426.325 106.445 426.094 106.401 425.861 106.38L423.861 106.08L422.411 105.88L420.711 105.57C419.481 105.34 418.081 105.13 416.561 104.75L414.161 104.21C413.331 104.02 412.471 103.76 411.581 103.53C409.791 103.08 407.931 102.46 405.951 101.83C401.697 100.377 397.536 98.6675 393.491 96.7098C389.466 94.7105 385.565 92.4698 381.811 89.9998C380.111 88.8198 378.471 87.7198 377.021 86.5798C376.291 86.0198 375.561 85.4998 374.901 84.9498L373.001 83.3498C371.771 82.3498 370.741 81.3498 369.811 80.5698L368.511 79.3998L367.511 78.3998L366.001 76.9998C365.833 76.8332 365.656 76.6763 365.471 76.5298C365.632 76.703 365.809 76.8604 366.001 76.9998C366.341 77.3698 366.811 77.8498 367.401 78.4698L368.401 79.4698C368.781 79.8398 369.211 80.2298 369.671 80.6598C370.591 81.5098 371.611 82.5098 372.831 83.4998L374.721 85.0998C375.381 85.6498 376.101 86.1798 376.831 86.7498C378.281 87.9098 379.911 89.0198 381.621 90.2198C385.374 92.7329 389.285 95.0009 393.331 97.0098C397.39 98.9795 401.572 100.686 405.851 102.12C407.851 102.74 409.711 103.35 411.511 103.79C412.411 104.02 413.271 104.27 414.101 104.45L416.521 104.97C418.051 105.32 419.461 105.52 420.691 105.73C421.301 105.82 421.871 105.93 422.401 106L423.861 106.17L425.861 106.38C426.087 106.441 426.318 106.484 426.551 106.51Z" fill="white"/>
<path d="M414.94 213.46C414.973 213.373 414.993 213.282 415 213.19C415 212.98 415.08 212.71 415.13 212.36C415.23 211.64 415.4 210.58 415.53 209.19C415.946 205.291 416.143 201.371 416.12 197.45C416.12 192.45 415.8 186.57 415.17 180.04C414.54 173.51 413.66 166.35 412.79 158.83C411 143.83 409.39 130.2 408.21 120.33C407.61 115.42 407.12 111.45 406.77 108.67C406.6 107.31 406.46 106.25 406.36 105.5L406.24 104.68C406.233 104.585 406.216 104.491 406.19 104.4C406.198 104.495 406.215 104.588 406.24 104.68C406.24 104.89 406.24 105.16 406.32 105.51C406.4 106.26 406.51 107.33 406.65 108.69C406.96 111.47 407.41 115.45 407.95 120.36C409.1 130.24 410.67 143.85 412.41 158.88C413.29 166.4 414.19 173.55 414.83 180.08C415.47 186.61 415.83 192.5 415.83 197.45C415.881 201.365 415.731 205.28 415.38 209.18C415.27 210.56 415.13 211.63 415.05 212.35C415.05 212.7 414.99 212.97 414.97 213.18C414.95 213.39 414.94 213.46 414.94 213.46Z" fill="#455A64"/>
<path d="M404.22 168.19C404.266 167.963 404.29 167.732 404.29 167.5L404.41 165.5C404.51 163.79 404.62 161.32 404.72 158.26C404.92 152.15 405.05 143.69 404.9 134.36C404.75 125.03 404.33 116.58 403.9 110.48C403.69 107.42 403.5 104.96 403.35 103.25C403.27 102.43 403.21 101.78 403.17 101.25C403.16 101.02 403.127 100.792 403.07 100.57C403.055 100.8 403.055 101.03 403.07 101.26C403.07 101.75 403.13 102.4 403.18 103.26C403.28 105 403.42 107.46 403.59 110.48C403.92 116.59 404.28 125.03 404.44 134.36C404.6 143.69 404.51 152.13 404.38 158.24C404.31 161.24 404.25 163.73 404.21 165.48C404.21 166.31 404.21 166.96 404.21 167.48C404.195 167.716 404.198 167.954 404.22 168.19Z" fill="#455A64"/>
<path d="M452.3 150.74L460.66 135.8C456.09 128.336 454.125 119.567 455.07 110.867C456.015 102.166 459.817 94.0248 465.883 87.7158C471.948 81.4069 479.934 77.2866 488.59 75.9999C497.247 74.7132 506.086 76.3325 513.724 80.6045C521.362 84.8766 527.368 91.5602 530.803 99.6097C534.238 107.659 534.907 116.62 532.707 125.091C530.506 133.561 525.559 141.063 518.64 146.422C511.722 151.782 503.221 154.696 494.47 154.71C485.68 154.74 477.134 151.821 470.2 146.42L452.3 150.74Z" fill="#FAFAFA"/>
<path d="M452.3 150.74L470.18 146.31L470.11 146.52C470.097 146.509 470.087 146.495 470.08 146.479C470.073 146.464 470.069 146.447 470.069 146.43C470.069 146.413 470.073 146.396 470.08 146.381C470.087 146.365 470.097 146.351 470.11 146.34C470.133 146.324 470.161 146.315 470.19 146.315C470.219 146.315 470.247 146.324 470.27 146.34C472.786 148.266 475.518 149.894 478.41 151.19C481.862 152.702 485.512 153.712 489.25 154.19C491.318 154.468 493.406 154.558 495.49 154.46C496.56 154.39 497.65 154.37 498.75 154.25L502.08 153.73C511.965 151.674 520.696 145.932 526.5 137.67C529.728 133.104 531.944 127.901 533 122.41C534.086 116.608 533.895 110.64 532.44 104.92C530.944 98.9445 528.052 93.4095 524 88.7699L522.39 86.9999C521.86 86.4099 521.23 85.9199 520.66 85.3799C520.095 84.8313 519.501 84.3139 518.88 83.8299L517 82.4199C516.369 81.9376 515.7 81.5062 515 81.1299L513 79.9199L510.92 78.9199C510.238 78.5629 509.533 78.2521 508.81 77.9899C503.221 75.7815 497.202 74.8719 491.21 75.3299C485.537 75.7436 480.028 77.4139 475.08 80.2199C466.187 85.2715 459.567 93.5379 456.58 103.32C455.369 107.483 454.799 111.806 454.89 116.14C455.095 123.072 457.105 129.831 460.72 135.75C460.73 135.768 460.735 135.789 460.735 135.81C460.735 135.831 460.73 135.851 460.72 135.87L452.25 150.75C452.68 149.98 455.25 145.32 460.5 135.75V135.88C456.807 129.942 454.738 123.138 454.5 116.15C454.389 111.777 454.949 107.413 456.16 103.21C459.169 93.2872 465.879 84.9017 474.9 79.7899C479.9 76.9297 485.476 75.2215 491.22 74.7899C497.29 74.3196 503.387 75.236 509.05 77.4699C509.783 77.7354 510.498 78.0495 511.19 78.4099L513.3 79.4099L515.3 80.6399C515.994 81.0291 516.662 81.4634 517.3 81.9399L519.2 83.3699C519.86 83.8299 520.4 84.3699 521.01 84.9399C521.62 85.5099 522.22 85.9899 522.76 86.5899L524.38 88.3799C528.491 93.0767 531.425 98.6846 532.94 104.74C534.412 110.533 534.6 116.577 533.49 122.45C532.422 128.008 530.175 133.273 526.9 137.89C521.026 146.246 512.178 152.039 502.17 154.08L498.81 154.6C497.7 154.71 496.59 154.73 495.51 154.8C493.405 154.893 491.296 154.793 489.21 154.5C485.443 154.001 481.769 152.96 478.3 151.41C475.39 150.092 472.644 148.438 470.12 146.48L470.3 146.29C470.323 146.314 470.336 146.346 470.336 146.38C470.336 146.413 470.323 146.446 470.3 146.47H470.25L452.3 150.74Z" fill="#263238"/>
<path d="M511 104C510.631 104.46 510.222 104.889 509.78 105.28L506.3 108.64C503.3 111.45 499.23 115.31 494.67 119.55L493.98 120.2L493.81 120.36L493.62 120.2L488.04 115.41H488.38L480.77 122.3L478.57 124.24C478.316 124.484 478.038 124.701 477.74 124.89C477.95 124.607 478.188 124.346 478.45 124.11C479.01 123.58 479.71 122.9 480.56 122.11L488.03 115.11L488.2 114.96L488.37 115.1L493.97 119.87H493.61L494.3 119.23C498.86 114.99 503.01 111.23 506.04 108.43L509.63 105.21C510.052 104.768 510.51 104.364 511 104Z" fill="#263238"/>
<path d="M511.56 113.2C511.374 112.318 511.273 111.421 511.26 110.52C511.14 108.85 511.01 106.52 510.89 103.96L511.18 104.23H510.71C508.05 104.34 505.63 104.42 503.88 104.44C502.937 104.513 501.988 104.49 501.05 104.37C501.977 104.17 502.922 104.063 503.87 104.05C505.61 103.93 508.02 103.79 510.69 103.68H511.15H511.42V103.95C511.52 106.53 511.59 108.84 511.61 110.51C511.677 111.406 511.661 112.307 511.56 113.2Z" fill="#263238"/>
</svg>
