<svg width="252" height="138" viewBox="0 0 252 138" fill="none" xmlns="http://www.w3.org/2000/svg">
<path d="M38.2554 0.375C19.0996 0.375 10.6673 15.8075 10.6673 26.898C10.6673 51.009 29.4501 52.3619 31.5522 52.4572V52.3619C24.9396 50.4345 18.2311 42.717 18.2311 31.7112C18.2311 18.6906 26.5728 9.53017 38.4366 9.53017C50.8892 9.53017 63.6349 20.8087 63.6349 36.347C63.6349 49.6482 53.6707 63.929 33.1694 63.929C17.4744 63.9369 2.15243 53.233 0.516588 35.19H0.42334V36.355C0.42334 56.5027 16.6139 72.8035 36.6329 72.8035C56.548 72.8035 72.7385 56.5027 72.7385 36.355C72.7385 15.8075 55.9752 0.375 38.2554 0.375ZM93.1386 0.856851C92.536 0.849121 91.9379 0.960612 91.3791 1.18483C90.8203 1.40905 90.312 1.74151 89.8838 2.16286C89.4556 2.5842 89.116 3.08601 88.8849 3.63904C88.6537 4.19208 88.5356 4.78529 88.5374 5.38413V51.5862H97.6411V10.02H103.574C118.142 10.02 129.913 21.8888 129.913 36.5429C129.913 51.197 118.142 63.0659 103.574 63.0659H82.8893C82.2288 63.0884 81.5723 62.955 80.9737 62.6767L89.2062 70.9688C90.0263 71.7711 91.1299 72.2225 92.2807 72.2264H103.574C123.116 72.2264 139.009 56.2194 139.009 36.5429C139.009 16.7712 123.111 0.856851 103.574 0.856851H93.1386ZM159.414 0.856851C158.812 0.850548 158.214 0.963015 157.656 1.18774C157.098 1.41247 156.59 1.74499 156.162 2.16605C155.734 2.58711 155.395 3.08835 155.163 3.64074C154.932 4.19313 154.812 4.78569 154.813 5.38413V51.5862H163.911V10.02H169.868C184.42 10.02 196.207 21.8888 196.207 36.5429C196.207 51.197 184.415 63.0659 169.868 63.0659H149.178C148.517 63.0898 147.861 62.9564 147.262 62.6767L155.495 70.9688C156.31 71.7708 157.409 72.2224 158.556 72.2264H169.868C189.411 72.2264 205.303 56.2194 205.303 36.5429C205.303 16.7712 189.405 0.856851 169.868 0.856851H159.414ZM232.88 0.375C221.957 0.375 214.401 7.31418 214.401 16.6759C214.401 24.7826 219.098 31.3326 229.912 35.0021C239.876 38.3777 241.885 44.1652 241.885 49.3755C241.885 56.9845 234.993 65.0886 222.25 65.0886C216.889 65.0886 212.659 64.2176 209.134 62.2875L209.041 62.3961L217.46 69.9098C219.098 71.358 221.584 72.8035 227.424 72.8035C241.126 72.8035 251.077 61.4191 251.077 49.3755C251.077 32.8708 237.388 27.8617 232.121 26.0269C228.29 24.674 223.595 22.1695 223.595 16.8638C223.595 12.3365 227.043 9.53811 232.883 9.53811C238.443 9.53811 243.137 12.2439 244.669 12.2439C245.279 12.245 245.883 12.1254 246.445 11.8919C247.008 11.6585 247.518 11.3159 247.945 10.8842C248.373 10.4526 248.71 9.9405 248.936 9.37796C249.162 8.81543 249.273 8.21373 249.262 7.60806C249.284 6.72861 249.039 5.86302 248.56 5.12304C248.082 4.38305 247.391 3.80264 246.577 3.45673C245.533 2.97488 239.21 0.375 232.88 0.375Z" fill="black"/>
<path d="M26.0985 1.52668C13.0625 5.49268 1.5663 17.5469 1.5663 32.6749C1.5663 50.0348 16.1343 62.8568 33.1747 62.8568C52.8101 62.8568 62.4813 49.3543 62.4813 36.3338C62.4999 21.5923 50.415 10.7004 38.4419 10.7004C26.6713 10.7004 19.3927 19.8635 19.3927 31.7297C19.3809 33.2161 19.5057 34.7005 19.7657 36.1643H19.8722C20.0587 27.0012 27.428 19.4849 36.6329 19.4849C45.4408 19.4849 53.3962 26.898 53.3962 36.3629C53.3962 45.1368 46.6904 53.7228 34.3337 53.7228C21.8811 53.7228 9.52169 46.4897 9.52169 26.9059C9.52169 16.382 16.4087 5.86598 26.1918 1.63523L26.0985 1.52668ZM79.535 11.7594C78.7261 12.6204 78.2831 13.7586 78.2988 14.9364V57.2784C78.2867 57.8842 78.3967 58.4864 78.6221 59.0494C78.8476 59.6124 79.1841 60.1249 79.6118 60.5568C80.0395 60.9887 80.5497 61.3313 81.1126 61.5644C81.6754 61.7975 82.2795 61.9165 82.8893 61.9142H103.574C117.463 61.9142 128.77 50.5298 128.77 36.5429C128.77 22.556 117.463 11.1716 103.574 11.1716H98.7787V20.3347H103.574C112.486 20.3347 119.672 27.5678 119.672 36.5429C119.672 45.5181 112.478 52.7511 103.574 52.7511H87.3972V5.38413C87.4232 4.72667 87.5489 4.07688 87.7701 3.45673L79.535 11.7594ZM145.824 11.7594C145.005 12.6154 144.557 13.7558 144.574 14.9364V57.2784C144.562 57.8853 144.673 58.4883 144.899 59.052C145.126 59.6158 145.464 60.1287 145.893 60.5608C146.322 60.9928 146.833 61.3351 147.398 61.5676C147.962 61.8 148.567 61.9179 149.178 61.9142H169.868C183.757 61.9142 195.051 50.5298 195.051 36.5429C195.051 22.556 183.752 11.1716 169.868 11.1716H165.073V20.3347H169.868C178.767 20.3347 185.952 27.5678 185.952 36.5429C185.952 45.5181 178.759 52.7511 169.868 52.7511H153.673V5.38413C153.696 4.72523 153.827 4.07444 154.059 3.45673L145.824 11.7594ZM220.534 2.59893C216.581 4.34975 213.226 7.20563 210.878 10.8184C208.531 14.4311 207.291 18.6446 207.311 22.9452C207.311 40.6837 226.174 44.5517 228.29 45.2215C231.162 46.2806 231.641 48.2106 231.641 49.3755C231.641 51.3982 228.956 54.6706 222.25 54.6706C217.553 54.6706 215.744 53.8949 214.015 53.225C213.423 52.9175 212.767 52.7525 212.099 52.7432C211.065 52.7482 210.062 53.0977 209.25 53.7359C208.439 54.3741 207.867 55.2641 207.625 56.2637C207.383 57.2632 207.485 58.3146 207.915 59.2497C208.345 60.1848 209.078 60.9495 209.997 61.4218C212.286 62.5761 215.453 63.929 222.253 63.929C234.319 63.929 240.836 56.3994 240.836 49.3676C240.836 43.768 238.257 39.0422 229.529 36.0531C218.232 32.1083 213.351 25.2618 213.351 16.6759C213.351 9.24159 217.553 4.80962 220.627 2.69159L220.534 2.59893ZM232.88 10.7004C227.997 10.7004 224.645 12.9243 224.645 16.5938C224.645 19.0983 225.508 20.4512 226.561 21.5102C228.29 20.6392 230.685 19.1937 235.379 20.1574C237.574 20.5465 239.21 19.9694 240.263 19.0057L246.766 13.1123L246.673 13.017C246.032 13.2617 245.353 13.3934 244.667 13.4062C242.458 13.4062 238.254 10.7004 232.88 10.7004Z" fill="#1498D5"/>
<path d="M62.3013 84.955V136.955H51.864V103.132L37.9229 136.955H30.0204L16.0047 103.132V136.955H5.56741V84.955H17.4211L33.9716 123.619L50.5221 84.955H62.3013Z" fill="black"/>
<path d="M107.287 115.425C107.287 116.915 107.187 118.256 106.989 119.448H76.7952C77.0437 122.427 78.0874 124.762 79.9264 126.45C81.7653 128.139 84.0267 128.983 86.7106 128.983C90.5873 128.983 93.3457 127.319 94.9858 123.992H106.243C105.05 127.965 102.764 131.243 99.3844 133.826C96.0047 136.359 91.8546 137.625 86.9342 137.625C82.9581 137.625 79.3797 136.756 76.1988 135.018C73.0676 133.23 70.6074 130.722 68.8182 127.493C67.0786 124.265 66.2088 120.54 66.2088 116.319C66.2088 112.047 67.0786 108.298 68.8182 105.069C70.5577 101.841 72.9931 99.3579 76.1242 97.6196C79.2554 95.8813 82.8587 95.0122 86.9342 95.0122C90.8606 95.0122 94.3645 95.8565 97.446 97.5451C100.577 99.2337 102.988 101.643 104.678 104.771C106.417 107.851 107.287 111.402 107.287 115.425ZM96.4769 112.445C96.4271 109.763 95.458 107.627 93.5693 106.038C91.6807 104.399 89.3696 103.579 86.636 103.579C84.0516 103.579 81.8647 104.374 80.0755 105.963C78.3359 107.503 77.2674 109.663 76.8697 112.445H96.4769Z" fill="black"/>
<path d="M134.065 95.0867C138.985 95.0867 142.961 96.6511 145.993 99.7801C149.025 102.859 150.541 107.18 150.541 112.743V136.955H140.104V114.158C140.104 110.88 139.284 108.372 137.643 106.634C136.003 104.846 133.767 103.952 130.934 103.952C128.051 103.952 125.765 104.846 124.075 106.634C122.435 108.372 121.615 110.88 121.615 114.158V136.955H111.178V95.6827H121.615V100.823C123.006 99.0351 124.771 97.6444 126.908 96.6511C129.095 95.6082 131.48 95.0867 134.065 95.0867Z" fill="black"/>
<path d="M168.89 104.25V124.215C168.89 125.606 169.214 126.624 169.86 127.27C170.555 127.866 171.699 128.164 173.289 128.164H178.135V136.955H171.574C162.777 136.955 158.379 132.683 158.379 124.141V104.25H153.458V95.6827H158.379V85.4765H168.89V95.6827H178.135V104.25H168.89Z" fill="black"/>
<path d="M200.254 137.625C196.278 137.625 192.699 136.756 189.519 135.018C186.338 133.23 183.828 130.722 181.989 127.493C180.2 124.265 179.305 120.54 179.305 116.319C179.305 112.097 180.224 108.372 182.063 105.144C183.952 101.916 186.512 99.4324 189.742 97.6941C192.973 95.9062 196.576 95.0122 200.552 95.0122C204.528 95.0122 208.132 95.9062 211.362 97.6941C214.593 99.4324 217.128 101.916 218.967 105.144C220.855 108.372 221.799 112.097 221.799 116.319C221.799 120.54 220.83 124.265 218.892 127.493C217.003 130.722 214.419 133.23 211.139 135.018C207.908 136.756 204.28 137.625 200.254 137.625ZM200.254 128.536C202.143 128.536 203.907 128.089 205.547 127.195C207.237 126.252 208.579 124.861 209.573 123.023C210.567 121.186 211.064 118.951 211.064 116.319C211.064 112.395 210.02 109.39 207.933 107.304C205.895 105.169 203.385 104.101 200.403 104.101C197.421 104.101 194.911 105.169 192.873 107.304C190.885 109.39 189.891 112.395 189.891 116.319C189.891 120.242 190.861 123.272 192.799 125.407C194.787 127.493 197.272 128.536 200.254 128.536Z" fill="black"/>
<path d="M236.165 102.09C237.507 99.9042 239.247 98.1908 241.384 96.9491C243.571 95.7075 246.056 95.0867 248.839 95.0867V106.038H246.081C242.8 106.038 240.315 106.808 238.625 108.347C236.985 109.887 236.165 112.569 236.165 116.393V136.955H225.728V95.6827H236.165V102.09Z" fill="black"/>
</svg>
