<svg width="204" height="26" viewBox="0 0 204 26" fill="none" xmlns="http://www.w3.org/2000/svg">
<path d="M13.5083 0C6.66852 0 3.6577 5.53986 3.6577 9.52107C3.6577 18.1763 10.3643 18.662 11.1148 18.6962V18.662C8.75374 17.9701 6.3584 15.1997 6.3584 11.2489C6.3584 6.57484 9.33688 3.28647 13.573 3.28647C18.0193 3.28647 22.5702 7.33516 22.5702 12.913C22.5702 17.6878 19.0124 22.8143 11.6923 22.8143C6.08824 22.8171 0.617385 18.9747 0.033295 12.4977H0V12.9159C0 20.1484 5.78097 26 12.9289 26C20.0398 26 25.8208 20.1484 25.8208 12.9159C25.8208 5.53986 19.8353 0 13.5083 0ZM33.1048 0.172972C32.8896 0.170197 32.6761 0.21022 32.4766 0.290709C32.277 0.371197 32.0955 0.490544 31.9426 0.641796C31.7897 0.793048 31.6685 0.973183 31.586 1.17171C31.5034 1.37023 31.4613 1.58318 31.4619 1.79815V18.3835H34.7125V3.46229H36.831C42.0326 3.46229 46.2354 7.72292 46.2354 12.9834C46.2354 18.2438 42.0326 22.5044 36.831 22.5044H29.4452C29.2093 22.5125 28.9749 22.4646 28.7612 22.3647L31.7007 25.3414C31.9935 25.6294 32.3876 25.7914 32.7985 25.7928H36.831C43.8087 25.7928 49.4831 20.0467 49.4831 12.9834C49.4831 5.88581 43.8068 0.172972 36.831 0.172972H33.1048ZM56.769 0.172972C56.554 0.17071 56.3406 0.211082 56.1414 0.291753C55.9421 0.372424 55.7608 0.491791 55.608 0.642941C55.4552 0.794091 55.3339 0.974022 55.2512 1.17232C55.1685 1.37061 55.126 1.58333 55.1261 1.79815V18.3835H58.3748V3.46229H60.5018C65.6978 3.46229 69.9062 7.72292 69.9062 12.9834C69.9062 18.2438 65.6959 22.5044 60.5018 22.5044H53.1141C52.8783 22.513 52.6437 22.4651 52.4302 22.3647L55.3696 25.3414C55.6606 25.6293 56.0532 25.7914 56.4627 25.7928H60.5018C67.4795 25.7928 73.1539 20.0467 73.1539 12.9834C73.1539 5.88581 67.4776 0.172972 60.5018 0.172972H56.769ZM83.0007 0C79.1004 0 76.4026 2.49099 76.4026 5.85159C76.4026 8.76171 78.0797 11.113 81.941 12.4302C85.4988 13.642 86.2161 15.7196 86.2161 17.5899C86.2161 20.3214 83.7551 23.2305 79.2051 23.2305C77.2911 23.2305 75.7804 22.9179 74.5219 22.225L74.4886 22.264L77.4947 24.9612C78.0797 25.4811 78.9673 26 81.0525 26C85.945 26 89.498 21.9133 89.498 17.5899C89.498 11.6652 84.6103 9.86702 82.7296 9.20839C81.3616 8.72274 79.6855 7.82366 79.6855 5.91907C79.6855 4.29389 80.9165 3.28932 83.0017 3.28932C84.987 3.28932 86.6632 4.26063 87.2102 4.26063C87.4278 4.26104 87.6434 4.21809 87.8442 4.13428C88.0451 4.05047 88.2272 3.9275 88.3799 3.77254C88.5326 3.61759 88.6528 3.43377 88.7336 3.23184C88.8143 3.0299 88.854 2.81391 88.8502 2.59648C88.8578 2.28078 88.7705 1.97006 88.5995 1.70442C88.4286 1.43879 88.1819 1.23043 87.8913 1.10626C87.5184 0.933289 85.261 0 83.0007 0Z" fill="black"/>
<path d="M9.16754 0.413452C4.5129 1.83715 0.408096 6.1643 0.408096 11.5949C0.408096 17.8266 5.60973 22.4294 11.6942 22.4294C18.7051 22.4294 22.1583 17.5824 22.1583 12.9083C22.165 7.61651 17.8499 3.70658 13.5749 3.70658C9.37207 3.70658 6.77316 6.9959 6.77316 11.2556C6.76895 11.7892 6.81353 12.322 6.90634 12.8475H6.94439C7.01098 9.55817 9.64224 6.85999 12.9289 6.85999C16.0739 6.85999 18.9144 9.5211 18.9144 12.9188C18.9144 16.0684 16.52 19.1505 12.108 19.1505C7.66166 19.1505 3.24864 16.554 3.24864 9.52395C3.24864 5.74613 5.70771 1.97115 9.20084 0.452418L9.16754 0.413452ZM28.2475 4.08674C27.9587 4.3958 27.8005 4.80441 27.8061 5.22721V20.4269C27.8018 20.6444 27.841 20.8605 27.9216 21.0626C28.0021 21.2647 28.1222 21.4487 28.2749 21.6038C28.4276 21.7588 28.6098 21.8818 28.8108 21.9655C29.0118 22.0492 29.2274 22.0919 29.4452 22.091H36.831C41.79 22.091 45.8273 18.0043 45.8273 12.9834C45.8273 7.96245 41.79 3.87575 36.831 3.87575H35.1186V7.16507H36.831C40.013 7.16507 42.5786 9.76155 42.5786 12.9834C42.5786 16.2052 40.0102 18.8017 36.831 18.8017H31.0547V1.79818C31.064 1.56217 31.1089 1.32891 31.1879 1.10629L28.2475 4.08674ZM51.9165 4.08674C51.6243 4.39402 51.4641 4.8034 51.4703 5.22721V20.4269C51.4661 20.6447 51.5056 20.8612 51.5865 21.0636C51.6673 21.266 51.7879 21.4501 51.9411 21.6052C52.0943 21.7603 52.277 21.8832 52.4784 21.9666C52.6799 22.05 52.8961 22.0924 53.1141 22.091H60.5018C65.4609 22.091 69.4934 18.0043 69.4934 12.9834C69.4934 7.96245 65.459 3.87575 60.5018 3.87575H58.7895V7.16507H60.5018C63.6791 7.16507 66.2448 9.76155 66.2448 12.9834C66.2448 16.2052 63.6763 18.8017 60.5018 18.8017H54.719V1.79818C54.7275 1.56165 54.7741 1.32803 54.8569 1.10629L51.9165 4.08674ZM78.5924 0.798363C77.181 1.42686 75.9832 2.45205 75.1448 3.74893C74.3065 5.04582 73.864 6.55836 73.8712 8.10216C73.8712 14.4698 80.6063 15.8583 81.3616 16.0988C82.3871 16.479 82.5584 17.1718 82.5584 17.59C82.5584 18.3161 81.5995 19.4908 79.2051 19.4908C77.528 19.4908 76.882 19.2123 76.2647 18.9718C76.0534 18.8615 75.8191 18.8022 75.5807 18.7989C75.2113 18.8007 74.8531 18.9261 74.5635 19.1552C74.2739 19.3843 74.0695 19.7038 73.9831 20.0626C73.8967 20.4215 73.9331 20.7989 74.0867 21.1345C74.2402 21.4702 74.502 21.7447 74.8301 21.9143C75.6473 22.3286 76.7783 22.8143 79.206 22.8143C83.5144 22.8143 85.8413 20.1114 85.8413 17.5871C85.8413 15.577 84.9204 13.8806 81.804 12.8076C77.7705 11.3915 76.0278 8.93376 76.0278 5.85162C76.0278 3.18291 77.528 1.59194 78.6257 0.831627L78.5924 0.798363ZM83.0007 3.70658C81.257 3.70658 80.0603 4.50491 80.0603 5.82216C80.0603 6.72123 80.3685 7.20689 80.7443 7.58705C81.3616 7.27437 82.2169 6.75545 83.893 7.10139C84.6769 7.2411 85.261 7.03392 85.6367 6.68797L87.9588 4.57239L87.9255 4.53817C87.6967 4.62602 87.4543 4.6733 87.2092 4.67788C86.4206 4.67788 84.9195 3.70658 83.0007 3.70658Z" fill="#1498D5"/>
<path d="M123.295 1.76V24H119.647V8.768L112.863 24H110.335L103.519 8.768V24H99.8706V1.76H103.807L111.615 19.2L119.391 1.76H123.295ZM142.649 14.752C142.649 15.4133 142.607 16.0107 142.521 16.544H129.049C129.156 17.952 129.679 19.0827 130.617 19.936C131.556 20.7893 132.708 21.216 134.073 21.216C136.036 21.216 137.423 20.3947 138.233 18.752H142.169C141.636 20.3733 140.665 21.7067 139.257 22.752C137.871 23.776 136.143 24.288 134.073 24.288C132.388 24.288 130.873 23.9147 129.529 23.168C128.207 22.4 127.161 21.3333 126.393 19.968C125.647 18.5813 125.273 16.9813 125.273 15.168C125.273 13.3547 125.636 11.7653 126.361 10.4C127.108 9.01333 128.143 7.94667 129.465 7.2C130.809 6.45333 132.345 6.08 134.073 6.08C135.737 6.08 137.22 6.44267 138.521 7.168C139.823 7.89333 140.836 8.91733 141.561 10.24C142.287 11.5413 142.649 13.0453 142.649 14.752ZM138.841 13.6C138.82 12.256 138.34 11.1787 137.401 10.368C136.463 9.55733 135.3 9.152 133.913 9.152C132.655 9.152 131.577 9.55733 130.681 10.368C129.785 11.1573 129.252 12.2347 129.081 13.6H138.841ZM153.535 6.08C154.922 6.08 156.159 6.368 157.247 6.944C158.357 7.52 159.221 8.37333 159.839 9.504C160.458 10.6347 160.767 12 160.767 13.6V24H157.151V14.144C157.151 12.5653 156.757 11.36 155.967 10.528C155.178 9.67467 154.101 9.248 152.735 9.248C151.37 9.248 150.282 9.67467 149.471 10.528C148.682 11.36 148.287 12.5653 148.287 14.144V24H144.639V6.368H148.287V8.384C148.885 7.65867 149.642 7.09333 150.559 6.688C151.498 6.28267 152.49 6.08 153.535 6.08ZM168.077 9.344V19.104C168.077 19.7653 168.226 20.2453 168.525 20.544C168.845 20.8213 169.378 20.96 170.125 20.96H172.365V24H169.485C167.842 24 166.583 23.616 165.709 22.848C164.834 22.08 164.397 20.832 164.397 19.104V9.344H162.317V6.368H164.397V1.984H168.077V6.368H172.365V9.344H168.077ZM181.775 24.288C180.111 24.288 178.607 23.9147 177.263 23.168C175.919 22.4 174.863 21.3333 174.095 19.968C173.327 18.5813 172.943 16.9813 172.943 15.168C172.943 13.376 173.337 11.7867 174.127 10.4C174.916 9.01333 175.993 7.94667 177.359 7.2C178.724 6.45333 180.249 6.08 181.935 6.08C183.62 6.08 185.145 6.45333 186.511 7.2C187.876 7.94667 188.953 9.01333 189.743 10.4C190.532 11.7867 190.927 13.376 190.927 15.168C190.927 16.96 190.521 18.5493 189.711 19.936C188.9 21.3227 187.791 22.4 186.383 23.168C184.996 23.9147 183.46 24.288 181.775 24.288ZM181.775 21.12C182.713 21.12 183.588 20.896 184.399 20.448C185.231 20 185.903 19.328 186.415 18.432C186.927 17.536 187.183 16.448 187.183 15.168C187.183 13.888 186.937 12.8107 186.447 11.936C185.956 11.04 185.305 10.368 184.495 9.92C183.684 9.472 182.809 9.248 181.871 9.248C180.932 9.248 180.057 9.472 179.247 9.92C178.457 10.368 177.828 11.04 177.359 11.936C176.889 12.8107 176.655 13.888 176.655 15.168C176.655 17.0667 177.135 18.5387 178.095 19.584C179.076 20.608 180.303 21.12 181.775 21.12ZM196.581 8.928C197.114 8.032 197.818 7.33867 198.693 6.848C199.589 6.336 200.645 6.08 201.861 6.08V9.856H200.933C199.504 9.856 198.416 10.2187 197.669 10.944C196.944 11.6693 196.581 12.928 196.581 14.72V24H192.933V6.368H196.581V8.928Z" fill="black"/>
</svg>
