<svg width="217" height="27" viewBox="0 0 217 27" fill="none" xmlns="http://www.w3.org/2000/svg">
<path d="M13.5083 0C6.66852 0 3.6577 5.53986 3.6577 9.52107C3.6577 18.1763 10.3643 18.662 11.1148 18.6962V18.662C8.75374 17.9701 6.3584 15.1997 6.3584 11.2489C6.3584 6.57484 9.33688 3.28647 13.573 3.28647C18.0193 3.28647 22.5702 7.33516 22.5702 12.913C22.5702 17.6878 19.0124 22.8143 11.6923 22.8143C6.08824 22.8171 0.617385 18.9747 0.033295 12.4977H0V12.9159C0 20.1484 5.78097 26 12.9289 26C20.0398 26 25.8208 20.1484 25.8208 12.9159C25.8208 5.53986 19.8353 0 13.5083 0ZM33.1048 0.172972C32.8896 0.170197 32.6761 0.21022 32.4766 0.290709C32.277 0.371197 32.0955 0.490544 31.9426 0.641796C31.7897 0.793048 31.6685 0.973183 31.586 1.17171C31.5034 1.37023 31.4613 1.58318 31.4619 1.79815V18.3835H34.7125V3.46229H36.831C42.0326 3.46229 46.2354 7.72292 46.2354 12.9834C46.2354 18.2438 42.0326 22.5044 36.831 22.5044H29.4452C29.2093 22.5125 28.9749 22.4646 28.7612 22.3647L31.7007 25.3414C31.9935 25.6294 32.3876 25.7914 32.7985 25.7928H36.831C43.8087 25.7928 49.4831 20.0467 49.4831 12.9834C49.4831 5.88581 43.8068 0.172972 36.831 0.172972H33.1048ZM56.769 0.172972C56.554 0.17071 56.3406 0.211082 56.1414 0.291753C55.9421 0.372424 55.7608 0.491791 55.608 0.642941C55.4552 0.794091 55.3339 0.974022 55.2512 1.17232C55.1685 1.37061 55.126 1.58333 55.1261 1.79815V18.3835H58.3748V3.46229H60.5018C65.6978 3.46229 69.9062 7.72292 69.9062 12.9834C69.9062 18.2438 65.6959 22.5044 60.5018 22.5044H53.1141C52.8783 22.513 52.6437 22.4651 52.4302 22.3647L55.3696 25.3414C55.6606 25.6293 56.0532 25.7914 56.4627 25.7928H60.5018C67.4795 25.7928 73.1539 20.0467 73.1539 12.9834C73.1539 5.88581 67.4776 0.172972 60.5018 0.172972H56.769ZM83.0007 0C79.1004 0 76.4026 2.49099 76.4026 5.85159C76.4026 8.76171 78.0797 11.113 81.941 12.4302C85.4988 13.642 86.2161 15.7196 86.2161 17.5899C86.2161 20.3214 83.7551 23.2305 79.2051 23.2305C77.2911 23.2305 75.7804 22.9179 74.5219 22.225L74.4886 22.264L77.4947 24.9612C78.0797 25.4811 78.9673 26 81.0525 26C85.945 26 89.498 21.9133 89.498 17.5899C89.498 11.6652 84.6103 9.86702 82.7296 9.20839C81.3616 8.72274 79.6855 7.82366 79.6855 5.91907C79.6855 4.29389 80.9165 3.28932 83.0017 3.28932C84.987 3.28932 86.6632 4.26063 87.2102 4.26063C87.4278 4.26104 87.6434 4.21809 87.8442 4.13428C88.0451 4.05047 88.2272 3.9275 88.3799 3.77254C88.5326 3.61759 88.6528 3.43377 88.7336 3.23184C88.8143 3.0299 88.854 2.81391 88.8502 2.59648C88.8578 2.28078 88.7705 1.97006 88.5995 1.70442C88.4286 1.43879 88.1819 1.23043 87.8913 1.10626C87.5184 0.933289 85.261 0 83.0007 0Z" fill="black"/>
<path d="M9.16754 0.413452C4.5129 1.83715 0.408096 6.1643 0.408096 11.5949C0.408096 17.8266 5.60973 22.4294 11.6942 22.4294C18.7051 22.4294 22.1583 17.5824 22.1583 12.9083C22.165 7.61651 17.8499 3.70658 13.5749 3.70658C9.37207 3.70658 6.77316 6.9959 6.77316 11.2556C6.76895 11.7892 6.81353 12.322 6.90634 12.8475H6.94439C7.01098 9.55817 9.64224 6.85999 12.9289 6.85999C16.0739 6.85999 18.9144 9.5211 18.9144 12.9188C18.9144 16.0684 16.52 19.1505 12.108 19.1505C7.66166 19.1505 3.24864 16.554 3.24864 9.52395C3.24864 5.74613 5.70771 1.97115 9.20084 0.452418L9.16754 0.413452ZM28.2475 4.08674C27.9587 4.3958 27.8005 4.80441 27.8061 5.22721V20.4269C27.8018 20.6444 27.841 20.8605 27.9216 21.0626C28.0021 21.2647 28.1222 21.4487 28.2749 21.6038C28.4276 21.7588 28.6098 21.8818 28.8108 21.9655C29.0118 22.0492 29.2274 22.0919 29.4452 22.091H36.831C41.79 22.091 45.8273 18.0043 45.8273 12.9834C45.8273 7.96245 41.79 3.87575 36.831 3.87575H35.1186V7.16507H36.831C40.013 7.16507 42.5786 9.76155 42.5786 12.9834C42.5786 16.2052 40.0102 18.8017 36.831 18.8017H31.0547V1.79818C31.064 1.56217 31.1089 1.32891 31.1879 1.10629L28.2475 4.08674ZM51.9165 4.08674C51.6243 4.39402 51.4641 4.8034 51.4703 5.22721V20.4269C51.4661 20.6447 51.5056 20.8612 51.5865 21.0636C51.6673 21.266 51.7879 21.4501 51.9411 21.6052C52.0943 21.7603 52.277 21.8832 52.4784 21.9666C52.6799 22.05 52.8961 22.0924 53.1141 22.091H60.5018C65.4609 22.091 69.4934 18.0043 69.4934 12.9834C69.4934 7.96245 65.459 3.87575 60.5018 3.87575H58.7895V7.16507H60.5018C63.6791 7.16507 66.2448 9.76155 66.2448 12.9834C66.2448 16.2052 63.6763 18.8017 60.5018 18.8017H54.719V1.79818C54.7275 1.56165 54.7741 1.32803 54.8569 1.10629L51.9165 4.08674ZM78.5924 0.798363C77.181 1.42686 75.9832 2.45205 75.1448 3.74893C74.3065 5.04582 73.864 6.55836 73.8712 8.10216C73.8712 14.4698 80.6063 15.8583 81.3616 16.0988C82.3871 16.479 82.5584 17.1718 82.5584 17.59C82.5584 18.3161 81.5995 19.4908 79.2051 19.4908C77.528 19.4908 76.882 19.2123 76.2647 18.9718C76.0534 18.8615 75.8191 18.8022 75.5807 18.7989C75.2113 18.8007 74.8531 18.9261 74.5635 19.1552C74.2739 19.3843 74.0695 19.7038 73.9831 20.0626C73.8967 20.4215 73.9331 20.7989 74.0867 21.1345C74.2402 21.4702 74.502 21.7447 74.8301 21.9143C75.6473 22.3286 76.7783 22.8143 79.206 22.8143C83.5144 22.8143 85.8413 20.1114 85.8413 17.5871C85.8413 15.577 84.9204 13.8806 81.804 12.8076C77.7705 11.3915 76.0278 8.93376 76.0278 5.85162C76.0278 3.18291 77.528 1.59194 78.6257 0.831627L78.5924 0.798363ZM83.0007 3.70658C81.257 3.70658 80.0603 4.50491 80.0603 5.82216C80.0603 6.72123 80.3685 7.20689 80.7443 7.58705C81.3616 7.27437 82.2169 6.75545 83.893 7.10139C84.6769 7.2411 85.261 7.03392 85.6367 6.68797L87.9588 4.57239L87.9255 4.53817C87.6967 4.62602 87.4543 4.6733 87.2092 4.67788C86.4206 4.67788 84.9195 3.70658 83.0007 3.70658Z" fill="#1498D5"/>
<path d="M126.523 0.979998V26H122.419V8.864L114.787 26H111.943L104.275 8.864V26H100.171V0.979998H104.599L113.383 20.6L122.131 0.979998H126.523ZM148.297 15.596C148.297 16.34 148.249 17.012 148.153 17.612H132.997C133.117 19.196 133.705 20.468 134.761 21.428C135.817 22.388 137.113 22.868 138.649 22.868C140.857 22.868 142.417 21.944 143.329 20.096H147.757C147.157 21.92 146.065 23.42 144.481 24.596C142.921 25.748 140.977 26.324 138.649 26.324C136.753 26.324 135.049 25.904 133.537 25.064C132.049 24.2 130.873 23 130.009 21.464C129.169 19.904 128.749 18.104 128.749 16.064C128.749 14.024 129.157 12.236 129.973 10.7C130.813 9.14 131.977 7.94 133.465 7.1C134.977 6.26 136.705 5.84 138.649 5.84C140.521 5.84 142.189 6.248 143.653 7.064C145.117 7.88 146.257 9.032 147.073 10.52C147.889 11.984 148.297 13.676 148.297 15.596ZM144.013 14.3C143.989 12.788 143.449 11.576 142.393 10.664C141.337 9.752 140.029 9.296 138.469 9.296C137.053 9.296 135.841 9.752 134.833 10.664C133.825 11.552 133.225 12.764 133.033 14.3H144.013ZM160.543 5.84C162.103 5.84 163.495 6.164 164.719 6.812C165.967 7.46 166.939 8.42 167.635 9.692C168.331 10.964 168.679 12.5 168.679 14.3V26H164.611V14.912C164.611 13.136 164.167 11.78 163.279 10.844C162.391 9.884 161.179 9.404 159.643 9.404C158.107 9.404 156.883 9.884 155.971 10.844C155.083 11.78 154.639 13.136 154.639 14.912V26H150.535V6.164H154.639V8.432C155.311 7.616 156.163 6.98 157.195 6.524C158.251 6.068 159.367 5.84 160.543 5.84ZM176.902 9.512V20.492C176.902 21.236 177.07 21.776 177.406 22.112C177.766 22.424 178.366 22.58 179.206 22.58H181.726V26H178.486C176.638 26 175.222 25.568 174.238 24.704C173.254 23.84 172.762 22.436 172.762 20.492V9.512H170.422V6.164H172.762V1.232H176.902V6.164H181.726V9.512H176.902ZM192.313 26.324C190.441 26.324 188.749 25.904 187.237 25.064C185.725 24.2 184.537 23 183.673 21.464C182.809 19.904 182.377 18.104 182.377 16.064C182.377 14.048 182.821 12.26 183.709 10.7C184.597 9.14 185.809 7.94 187.345 7.1C188.881 6.26 190.597 5.84 192.493 5.84C194.389 5.84 196.105 6.26 197.641 7.1C199.177 7.94 200.389 9.14 201.277 10.7C202.165 12.26 202.609 14.048 202.609 16.064C202.609 18.08 202.153 19.868 201.241 21.428C200.329 22.988 199.081 24.2 197.497 25.064C195.937 25.904 194.209 26.324 192.313 26.324ZM192.313 22.76C193.369 22.76 194.353 22.508 195.265 22.004C196.201 21.5 196.957 20.744 197.533 19.736C198.109 18.728 198.397 17.504 198.397 16.064C198.397 14.624 198.121 13.412 197.569 12.428C197.017 11.42 196.285 10.664 195.373 10.16C194.461 9.656 193.477 9.404 192.421 9.404C191.365 9.404 190.381 9.656 189.469 10.16C188.581 10.664 187.873 11.42 187.345 12.428C186.817 13.412 186.553 14.624 186.553 16.064C186.553 18.2 187.093 19.856 188.173 21.032C189.277 22.184 190.657 22.76 192.313 22.76ZM208.97 9.044C209.57 8.036 210.362 7.256 211.346 6.704C212.354 6.128 213.542 5.84 214.91 5.84V10.088H213.866C212.258 10.088 211.034 10.496 210.194 11.312C209.378 12.128 208.97 13.544 208.97 15.56V26H204.866V6.164H208.97V9.044Z" fill="black"/>
</svg>
