<svg width="173" height="50" viewBox="0 0 173 50" fill="none" xmlns="http://www.w3.org/2000/svg">
<path d="M26.4042 0C13.2632 0 7.47856 10.6536 7.47856 18.3098C7.47856 34.9545 20.3637 35.8884 21.8058 35.9542V35.8884C17.2695 34.5579 12.6674 29.2302 12.6674 21.6325C12.6674 12.6439 18.3898 6.32014 26.5285 6.32014C35.0711 6.32014 43.8148 14.1061 43.8148 24.8328C43.8148 34.0151 36.9792 43.8736 22.9152 43.8736C12.1483 43.8791 1.63728 36.4897 0.51508 24.0341H0.451111V24.8382C0.451111 38.7469 11.558 50 25.2912 50C38.9531 50 50.06 38.7469 50.06 24.8382C50.06 10.6536 38.5602 0 26.4042 0ZM64.0546 0.332639C63.6412 0.327303 63.2309 0.404269 62.8476 0.559055C62.4642 0.713841 62.1155 0.943353 61.8218 1.23422C61.528 1.52509 61.2951 1.87151 61.1365 2.25329C60.9779 2.63507 60.8969 3.04458 60.8982 3.45798V35.3529H67.1434V6.65826H71.2136C81.2074 6.65826 89.2821 14.8518 89.2821 24.968C89.2821 35.0843 81.2074 43.2778 71.2136 43.2778H57.0235C56.5704 43.2933 56.12 43.2012 55.7094 43.0091L61.3569 48.7334C61.9195 49.2873 62.6766 49.5989 63.4661 49.6016H71.2136C84.6197 49.6016 95.5218 38.5514 95.5218 24.968C95.5218 11.3189 84.616 0.332639 71.2136 0.332639H64.0546ZM109.52 0.332639C109.107 0.328288 108.697 0.405928 108.314 0.561064C107.931 0.716201 107.583 0.945751 107.289 1.23642C106.996 1.5271 106.763 1.87312 106.604 2.25445C106.445 2.63579 106.363 3.04486 106.364 3.45798V35.3529H112.605V6.65826H116.692C126.675 6.65826 134.76 14.8518 134.76 24.968C134.76 35.0843 126.671 43.2778 116.692 43.2778H102.498C102.045 43.2943 101.594 43.2022 101.184 43.0091L106.832 48.7334C107.391 49.287 108.145 49.5988 108.932 49.6016H116.692C130.098 49.6016 141 38.5514 141 24.968C141 11.3189 130.094 0.332639 116.692 0.332639H109.52ZM159.919 0C152.425 0 147.242 4.79036 147.242 11.2531C147.242 16.8494 150.464 21.3711 157.882 23.9043C164.718 26.2346 166.096 30.2299 166.096 33.8268C166.096 39.0796 161.368 44.6741 152.626 44.6741C148.949 44.6741 146.046 44.0728 143.628 42.7404L143.564 42.8154L149.34 48.0023C150.464 49.0021 152.169 50 156.175 50C165.575 50 172.402 42.1409 172.402 33.8268C172.402 22.433 163.011 18.975 159.398 17.7084C156.769 16.7745 153.549 15.0455 153.549 11.3828C153.549 8.25748 155.914 6.32562 159.92 6.32562C163.735 6.32562 166.955 8.19352 168.006 8.19352C168.424 8.19431 168.838 8.1117 169.224 7.95054C169.61 7.78937 169.96 7.55288 170.253 7.25489C170.547 6.9569 170.778 6.6034 170.933 6.21507C171.088 5.82673 171.164 5.41136 171.157 4.99324C171.172 4.38612 171.004 3.78858 170.675 3.27774C170.347 2.7669 169.873 2.36622 169.315 2.12743C168.598 1.79479 164.261 0 159.919 0Z" fill="white"/>
<path d="M18.0645 0.794922C9.12163 3.53279 1.23517 11.8542 1.23517 22.2976C1.23517 34.2818 11.229 43.1333 22.9188 43.1333C36.3889 43.1333 43.0234 33.8121 43.0234 24.8235C43.0362 14.647 34.7458 7.12785 26.5322 7.12785C18.4575 7.12785 13.4642 13.4535 13.4642 21.6452C13.4561 22.6713 13.5418 23.696 13.7201 24.7065H13.7932C13.9211 18.3809 18.9765 13.1921 25.2912 13.1921C31.3335 13.1921 36.791 18.3096 36.791 24.8436C36.791 30.9006 32.1907 36.8277 23.7139 36.8277C15.1713 36.8277 6.69264 31.8345 6.69264 18.3151C6.69264 11.0501 11.4172 3.7905 18.1285 0.869857L18.0645 0.794922ZM54.7224 7.85893C54.1674 8.45328 53.8636 9.23907 53.8743 10.0522V39.2823C53.8661 39.7006 53.9415 40.1162 54.0962 40.5049C54.2508 40.8935 54.4817 41.2474 54.7751 41.5455C55.0685 41.8437 55.4185 42.0802 55.8046 42.2411C56.1907 42.402 56.6051 42.4841 57.0234 42.4826H71.2136C80.7413 42.4826 88.498 34.6236 88.498 24.9679C88.498 15.3122 80.7413 7.45318 71.2136 7.45318H67.9238V13.7788H71.2136C77.3272 13.7788 82.2565 18.772 82.2565 24.9679C82.2565 31.1637 77.3217 36.157 71.2136 36.157H60.1159V3.45786C60.1337 3.00399 60.22 2.55542 60.3718 2.1273L54.7224 7.85893ZM100.197 7.85893C99.6356 8.44986 99.3279 9.23714 99.3399 10.0522V39.2823C99.3318 39.7013 99.4077 40.1176 99.563 40.5067C99.7183 40.8959 99.95 41.25 100.244 41.5483C100.539 41.8465 100.89 42.0828 101.277 42.2433C101.664 42.4037 102.079 42.4851 102.498 42.4826H116.692C126.22 42.4826 133.967 34.6236 133.967 24.9679C133.967 15.3122 126.216 7.45318 116.692 7.45318H113.402V13.7788H116.692C122.796 13.7788 127.726 18.772 127.726 24.9679C127.726 31.1637 122.791 36.157 116.692 36.157H105.581V3.45786C105.598 3.003 105.687 2.55373 105.846 2.1273L100.197 7.85893ZM151.449 1.53513C148.737 2.74379 146.436 4.7153 144.825 7.20931C143.215 9.70331 142.364 12.6121 142.378 15.5809C142.378 27.8264 155.318 30.4966 156.769 30.959C158.74 31.6901 159.069 33.0225 159.069 33.8267C159.069 35.223 157.226 37.4821 152.626 37.4821C149.404 37.4821 148.163 36.9465 146.977 36.4841C146.571 36.2719 146.121 36.1579 145.663 36.1515C144.953 36.1549 144.265 36.3962 143.708 36.8368C143.152 37.2774 142.759 37.8918 142.593 38.5818C142.427 39.2719 142.497 39.9977 142.792 40.6432C143.087 41.2887 143.59 41.8166 144.221 42.1427C145.79 42.9395 147.964 43.8735 152.628 43.8735C160.905 43.8735 165.376 38.6755 165.376 33.8212C165.376 29.9556 163.607 26.6932 157.619 24.6298C149.87 21.9065 146.522 17.1801 146.522 11.2529C146.522 6.1208 149.404 3.06125 151.513 1.5991L151.449 1.53513ZM159.919 7.12785C156.568 7.12785 154.269 8.66311 154.269 11.1963C154.269 12.9253 154.861 13.8592 155.583 14.5903C156.769 13.989 158.412 12.9911 161.633 13.6563C163.139 13.925 164.261 13.5266 164.983 12.8613L169.444 8.79287L169.38 8.72708C168.941 8.89601 168.475 8.98693 168.004 8.99575C166.489 8.99575 163.605 7.12785 159.919 7.12785V7.12785Z" fill="#1498D5"/>
</svg>
