<svg width="500" height="500" viewBox="0 0 500 500" fill="none" xmlns="http://www.w3.org/2000/svg">
<path d="M449.9 398.49H416.78V398.74H449.9V398.49Z" fill="#EBEBEB"/>
<path d="M331.22 401.21H322.53V401.46H331.22V401.21Z" fill="#EBEBEB"/>
<path d="M415.78 389.21H396.59V389.46H415.78V389.21Z" fill="#EBEBEB"/>
<path d="M95.65 390.89H52.46V391.14H95.65V390.89Z" fill="#EBEBEB"/>
<path d="M110.89 390.89H104.56V391.14H110.89V390.89Z" fill="#EBEBEB"/>
<path d="M225.15 395.11H131.47V395.36H225.15V395.11Z" fill="#EBEBEB"/>
<path d="M237 337.8H43.91C42.3973 337.797 40.9475 337.195 39.8788 336.124C38.8102 335.053 38.21 333.603 38.21 332.09V60.66C38.2231 59.156 38.8292 57.718 39.8964 56.6582C40.9637 55.5985 42.4059 55.0026 43.91 55H237C238.514 55 239.967 55.6016 241.038 56.6724C242.108 57.7433 242.71 59.1956 242.71 60.71V332.09C242.71 333.604 242.108 335.057 241.038 336.128C239.967 337.198 238.514 337.8 237 337.8ZM43.91 55.2C42.4636 55.2026 41.0774 55.7791 40.0556 56.8027C39.0338 57.8264 38.46 59.2136 38.46 60.66V332.09C38.46 333.536 39.0338 334.924 40.0556 335.947C41.0774 336.971 42.4636 337.547 43.91 337.55H237C238.447 337.547 239.834 336.971 240.858 335.948C241.881 334.924 242.457 333.537 242.46 332.09V60.66C242.457 59.2127 241.881 57.8255 240.858 56.8021C239.834 55.7787 238.447 55.2026 237 55.2H43.91Z" fill="#EBEBEB"/>
<path d="M453.31 337.8H260.21C258.696 337.797 257.246 337.195 256.175 336.125C255.105 335.054 254.503 333.604 254.5 332.09V60.66C254.516 59.1551 255.124 57.7171 256.193 56.6576C257.262 55.5981 258.705 55.0025 260.21 55H453.31C454.812 55.0052 456.252 55.6022 457.317 56.6617C458.382 57.7212 458.987 59.1578 459 60.66V332.09C459 333.601 458.401 335.05 457.335 336.121C456.268 337.191 454.821 337.795 453.31 337.8ZM260.21 55.2C258.763 55.2026 257.375 55.7787 256.352 56.8021C255.329 57.8255 254.753 59.2127 254.75 60.66V332.09C254.753 333.537 255.329 334.924 256.352 335.948C257.375 336.971 258.763 337.547 260.21 337.55H453.31C454.757 337.547 456.145 336.971 457.168 335.948C458.191 334.924 458.767 333.537 458.77 332.09V60.66C458.767 59.2127 458.191 57.8255 457.168 56.8021C456.145 55.7787 454.757 55.2026 453.31 55.2H260.21Z" fill="#EBEBEB"/>
<path d="M500 382.4H0V382.65H500V382.4Z" fill="#EBEBEB"/>
<path d="M455.66 71.3701H384.41V313.08H455.66V71.3701Z" fill="#FAFAFA"/>
<path d="M457.47 156.93H368.39V310.97H457.47V156.93Z" fill="#E0E0E0"/>
<path d="M385.5 135.41V174.04H392.53H433.34H440.37V135.41H385.5Z" fill="#E0E0E0"/>
<path d="M385.5 162.64H374.1V174.04H385.5V162.64Z" fill="#FAFAFA"/>
<path d="M407.59 162.64H396.19V174.04H407.59V162.64Z" fill="#FAFAFA"/>
<path d="M429.68 162.64H418.28V174.04H429.68V162.64Z" fill="#FAFAFA"/>
<path d="M451.78 162.64H440.37V174.04H451.78V162.64Z" fill="#F0F0F0"/>
<path d="M385.5 183.36H374.1V194.77H385.5V183.36Z" fill="#F0F0F0"/>
<path d="M407.59 183.36H396.19V194.77H407.59V183.36Z" fill="#F0F0F0"/>
<path d="M429.68 183.36H418.28V194.77H429.68V183.36Z" fill="#FAFAFA"/>
<path d="M451.78 183.36H440.37V194.77H451.78V183.36Z" fill="#FAFAFA"/>
<path d="M385.5 204.08H374.1V215.48H385.5V204.08Z" fill="#F0F0F0"/>
<path d="M407.59 204.08H396.19V215.48H407.59V204.08Z" fill="#FAFAFA"/>
<path d="M429.68 204.08H418.28V215.48H429.68V204.08Z" fill="#FAFAFA"/>
<path d="M407.59 144.72H396.19V156.12H407.59V144.72Z" fill="#FAFAFA"/>
<path d="M429.68 144.72H418.28V156.12H429.68V144.72Z" fill="#F0F0F0"/>
<path d="M451.78 204.08H440.37V215.48H451.78V204.08Z" fill="#F0F0F0"/>
<path d="M385.5 224.8H374.1V236.2H385.5V224.8Z" fill="#FAFAFA"/>
<path d="M407.59 224.8H396.19V236.2H407.59V224.8Z" fill="#F0F0F0"/>
<path d="M429.68 224.8H418.28V236.2H429.68V224.8Z" fill="#F0F0F0"/>
<path d="M451.78 224.8H440.37V236.2H451.78V224.8Z" fill="#FAFAFA"/>
<path d="M385.5 245.53H374.1V256.94H385.5V245.53Z" fill="#F0F0F0"/>
<path d="M407.59 245.53H396.19V256.94H407.59V245.53Z" fill="#FAFAFA"/>
<path d="M429.68 245.53H418.28V256.94H429.68V245.53Z" fill="#FAFAFA"/>
<path d="M451.78 245.53H440.37V256.94H451.78V245.53Z" fill="#F0F0F0"/>
<path d="M385.5 266.25H374.1V277.65H385.5V266.25Z" fill="#F0F0F0"/>
<path d="M407.59 266.25H396.19V277.65H407.59V266.25Z" fill="#FAFAFA"/>
<path d="M429.68 266.25H418.28V277.65H429.68V266.25Z" fill="#F0F0F0"/>
<path d="M451.78 266.25H440.37V277.65H451.78V266.25Z" fill="#FAFAFA"/>
<path d="M385.5 286.97H374.1V298.38H385.5V286.97Z" fill="#FAFAFA"/>
<path d="M407.59 286.97H396.19V298.38H407.59V286.97Z" fill="#FAFAFA"/>
<path d="M429.68 286.97H418.28V298.38H429.68V286.97Z" fill="#F0F0F0"/>
<path d="M451.78 286.97H440.37V298.38H451.78V286.97Z" fill="#F0F0F0"/>
<path opacity="0.1" d="M455.52 71.3701H384.27V313.08H455.52V71.3701Z" fill="white"/>
<g opacity="0.3">
<path d="M448.55 71.3701H425.83L400.98 313.08H423.69L448.55 71.3701Z" fill="white"/>
</g>
<path d="M456.26 68.3101H383.81V74.4401H456.26V68.3101Z" fill="#E0E0E0"/>
<path d="M456.26 310.97H383.81V317.1H456.26V310.97Z" fill="#EBEBEB"/>
<path d="M459.07 322.33H380.53V62.3301H459.07V322.33ZM386.52 316.33H453.09V68.3301H386.52V316.33Z" fill="#EBEBEB"/>
<path d="M377.94 71.3701H306.69V313.08H377.94V71.3701Z" fill="#FAFAFA"/>
<path d="M372.55 237.04H311.62V311.81H372.55V237.04Z" fill="#E6E6E6"/>
<path d="M367.25 245.33H353.07H349.17H345.27V253.13H349.17H353.07H367.25V245.33Z" fill="#E6E6E6"/>
<path d="M367.25 260.44H353.07H349.17H345.27V268.24H349.17H353.07H367.25V260.44Z" fill="#FAFAFA"/>
<path d="M367.25 275.55H353.07H349.17H345.27V283.35H349.17H353.07H367.25V275.55Z" fill="#E6E6E6"/>
<path d="M367.25 290.66H353.07H347.05H345.27V298.46H347.05H353.07H367.25V290.66Z" fill="#FAFAFA"/>
<path d="M338.9 245.33H324.73H320.83H316.93V253.13H320.83H324.73H338.9V245.33Z" fill="#FAFAFA"/>
<path d="M338.9 260.44H324.73H319.23H316.93V268.24H319.23H324.73H338.9V260.44Z" fill="#FAFAFA"/>
<path d="M338.9 275.55H324.73H320.83H316.93V283.35H320.83H324.73H338.9V275.55Z" fill="#E6E6E6"/>
<path d="M338.9 290.66H324.73H320.83H316.93V298.46H320.83H324.73H338.9V290.66Z" fill="#FAFAFA"/>
<path opacity="0.1" d="M377.71 71.3701H306.46V313.08H377.71V71.3701Z" fill="white"/>
<g opacity="0.3">
<path d="M370.83 71.3701H348.12L323.26 313.08H345.98L370.83 71.3701Z" fill="white"/>
</g>
<path d="M378.54 68.3101H306.09V74.4401H378.54V68.3101Z" fill="#E0E0E0"/>
<path d="M378.54 310.97H306.09V317.1H378.54V310.97Z" fill="#EBEBEB"/>
<path d="M381.36 322.33H302.82V62.3301H381.36V322.33ZM308.8 316.33H375.37V68.3301H308.8V316.33Z" fill="#EBEBEB"/>
<path d="M191.25 71.3701H120V313.08H191.25V71.3701Z" fill="#FAFAFA"/>
<path opacity="0.1" d="M191.11 71.3701H119.86V313.08H191.11V71.3701Z" fill="white"/>
<g opacity="0.3">
<path d="M184.15 71.3701H161.43L136.58 313.08H159.29L184.15 71.3701Z" fill="white"/>
</g>
<path d="M191.86 68.3101H119.41V74.4401H191.86V68.3101Z" fill="#E0E0E0"/>
<path d="M191.86 310.97H119.41V317.1H191.86V310.97Z" fill="#EBEBEB"/>
<path d="M194.67 322.33H116.13V62.3301H194.67V322.33ZM122.12 316.33H188.68V68.3301H122.12V316.33Z" fill="#EBEBEB"/>
<path d="M113.64 71.3701H42.3901V313.08H113.64V71.3701Z" fill="#FAFAFA"/>
<path d="M102.9 173.73H47.75V220.01H102.9V173.73Z" fill="#E6E6E6"/>
<path d="M58.3398 179.5H51.2798V186.56H58.3398V179.5Z" fill="#FAFAFA"/>
<path d="M72.02 179.5H64.96V186.56H72.02V179.5Z" fill="#FAFAFA"/>
<path d="M85.7001 179.5H78.6401V186.56H85.7001V179.5Z" fill="#FAFAFA"/>
<path d="M99.3701 179.5H92.3101V186.56H99.3701V179.5Z" fill="#FAFAFA"/>
<path d="M58.3398 192.33H51.2798V199.39H58.3398V192.33Z" fill="#FAFAFA"/>
<path d="M72.02 192.33H64.96V199.39H72.02V192.33Z" fill="#FAFAFA"/>
<path d="M85.7001 192.33H78.6401V199.39H85.7001V192.33Z" fill="#FAFAFA"/>
<path d="M99.3701 192.33H92.3101V199.39H99.3701V192.33Z" fill="#E6E6E6"/>
<path d="M58.3398 205.15H51.2798V212.21H58.3398V205.15Z" fill="#E6E6E6"/>
<path d="M72.02 205.15H64.96V212.21H72.02V205.15Z" fill="#E6E6E6"/>
<path d="M85.7001 205.15H78.6401V212.21H85.7001V205.15Z" fill="#FAFAFA"/>
<path d="M99.3701 205.15H92.3101V212.21H99.3701V205.15Z" fill="#E6E6E6"/>
<path d="M102.9 219.43H47.75V265.71H102.9V219.43Z" fill="#E6E6E6"/>
<path d="M58.3398 225.19H51.2798V232.25H58.3398V225.19Z" fill="#FAFAFA"/>
<path d="M72.02 225.19H64.96V232.25H72.02V225.19Z" fill="#FAFAFA"/>
<path d="M85.7001 225.19H78.6401V232.25H85.7001V225.19Z" fill="#FAFAFA"/>
<path d="M99.3701 225.19H92.3101V232.25H99.3701V225.19Z" fill="#FAFAFA"/>
<path d="M58.3398 238.02H51.2798V245.08H58.3398V238.02Z" fill="#FAFAFA"/>
<path d="M72.02 238.02H64.96V245.08H72.02V238.02Z" fill="#FAFAFA"/>
<path d="M85.7001 238.02H78.6401V245.08H85.7001V238.02Z" fill="#FAFAFA"/>
<path d="M99.3701 238.02H92.3101V245.08H99.3701V238.02Z" fill="#E6E6E6"/>
<path d="M58.3398 250.85H51.2798V257.91H58.3398V250.85Z" fill="#E6E6E6"/>
<path d="M72.02 250.85H64.96V257.91H72.02V250.85Z" fill="#E6E6E6"/>
<path d="M85.7001 250.85H78.6401V257.91H85.7001V250.85Z" fill="#FAFAFA"/>
<path d="M99.3701 250.85H92.3101V257.91H99.3701V250.85Z" fill="#E6E6E6"/>
<path d="M102.9 265.12H47.75V311.4H102.9V265.12Z" fill="#E6E6E6"/>
<path d="M58.3398 270.89H51.2798V277.95H58.3398V270.89Z" fill="#FAFAFA"/>
<path d="M72.02 270.89H64.96V277.95H72.02V270.89Z" fill="#FAFAFA"/>
<path d="M85.7001 270.89H78.6401V277.95H85.7001V270.89Z" fill="#FAFAFA"/>
<path d="M99.3701 270.89H92.3101V277.95H99.3701V270.89Z" fill="#FAFAFA"/>
<path d="M58.3398 283.72H51.2798V290.78H58.3398V283.72Z" fill="#FAFAFA"/>
<path d="M72.02 283.72H64.96V290.78H72.02V283.72Z" fill="#FAFAFA"/>
<path d="M85.7001 283.72H78.6401V290.78H85.7001V283.72Z" fill="#FAFAFA"/>
<path d="M99.3701 283.72H92.3101V290.78H99.3701V283.72Z" fill="#E6E6E6"/>
<path d="M58.3398 296.55H51.2798V303.61H58.3398V296.55Z" fill="#E6E6E6"/>
<path d="M72.02 296.55H64.96V303.61H72.02V296.55Z" fill="#E6E6E6"/>
<path d="M85.7001 296.55H78.6401V303.61H85.7001V296.55Z" fill="#FAFAFA"/>
<path d="M99.3701 296.55H92.3101V303.61H99.3701V296.55Z" fill="#E6E6E6"/>
<path opacity="0.1" d="M112.7 71.3701H41.4502V313.08H112.7V71.3701Z" fill="white"/>
<g opacity="0.3">
<path d="M106.53 71.3701H83.8202L58.9702 313.08H81.6802L106.53 71.3701Z" fill="white"/>
</g>
<path d="M114.25 68.3101H41.7998V74.4401H114.25V68.3101Z" fill="#E0E0E0"/>
<path d="M114.25 310.97H41.7998V317.1H114.25V310.97Z" fill="#EBEBEB"/>
<path d="M117.06 322.33H38.52V62.3301H117.06V322.33ZM44.51 316.33H111.07V68.3301H44.51V316.33Z" fill="#EBEBEB"/>
<path d="M243.52 354.61L242.72 354.71C242.67 354.3 237.81 313.62 247.84 280.38C257.84 247.38 250.94 226.28 250.84 226.08L251.61 225.82C251.68 226.03 258.61 247.33 248.61 280.61C238.63 313.69 243.47 354.21 243.52 354.61Z" fill="#E0E0E0"/>
<path d="M252.3 230.61C250.553 228.53 248.183 227.067 245.54 226.44L245.73 225.65C248.542 226.318 251.064 227.875 252.92 230.09L252.3 230.61Z" fill="#E0E0E0"/>
<path d="M255.73 233.976L253.423 235.279L253.821 235.984L256.128 234.681L255.73 233.976Z" fill="#E0E0E0"/>
<path d="M251.43 252.73C249.418 248.144 245.692 244.527 241.05 242.65L241.35 241.91C246.186 243.862 250.069 247.626 252.17 252.4L251.43 252.73Z" fill="#E0E0E0"/>
<path d="M249.27 278.14H248.46C248.433 276.504 248.044 274.894 247.322 273.426C246.599 271.958 245.56 270.669 244.28 269.65L244.78 269.02C246.155 270.115 247.27 271.5 248.047 273.077C248.823 274.654 249.241 276.383 249.27 278.14Z" fill="#E0E0E0"/>
<path d="M247.47 284.64L246.71 284.35C247.125 283.319 247.748 282.384 248.539 281.603C249.33 280.822 250.273 280.212 251.31 279.81L251.59 280.57C250.66 280.928 249.814 281.475 249.105 282.175C248.396 282.876 247.84 283.715 247.47 284.64Z" fill="#E0E0E0"/>
<path d="M242.23 325.87L241.61 325.36C242.61 324.17 243.34 319.66 243.74 317.24C243.83 316.66 243.91 316.17 243.98 315.81L244.77 315.96C244.71 316.31 244.63 316.8 244.53 317.37C243.94 321 243.27 324.62 242.23 325.87Z" fill="#E0E0E0"/>
<path d="M241.77 338.82C241.207 337.235 240.159 335.869 238.775 334.914C237.391 333.959 235.741 333.464 234.06 333.5V332.69C235.919 332.646 237.744 333.19 239.275 334.247C240.805 335.303 241.962 336.816 242.58 338.57L241.77 338.82Z" fill="#E0E0E0"/>
<path d="M247.942 347.279L242.25 353.646L242.854 354.186L248.545 347.818L247.942 347.279Z" fill="#E0E0E0"/>
<path d="M252 305.75C253.29 309.92 244.3 317.87 244.3 317.87C244.3 317.87 232.39 316.38 231.1 312.2C229.81 308.02 232.83 301.2 238.6 299.42C244.37 297.64 250.67 301.58 252 305.75Z" fill="#F0F0F0"/>
<path d="M261.94 255.11C260.8 259.54 252.28 262.69 252.28 262.69C252.28 262.69 246.34 255.82 247.48 251.39C248.62 246.96 253.33 242.07 257.32 243.1C261.31 244.13 263.08 250.68 261.94 255.11Z" fill="#EBEBEB"/>
<path d="M227.77 321.33C233.11 323.42 236.39 332.87 236.39 332.87C236.39 332.87 227.58 337.62 222.23 335.54C216.88 333.46 211.23 327.54 212.75 323.67C214.27 319.8 222.42 319.25 227.77 321.33Z" fill="#F5F5F5"/>
<path d="M239.49 269.3C240.568 270.209 241.806 270.911 243.14 271.37C243.812 271.585 244.53 271.613 245.217 271.451C245.904 271.289 246.534 270.943 247.04 270.45C248.19 269.13 247.88 267.09 247.16 265.5C245.73 262.35 240.46 257.01 236.41 258.5C230.57 260.75 236.88 267.37 239.49 269.3Z" fill="#E6E6E6"/>
<path d="M251.45 277.33C250.68 278.28 249.87 279.47 250.29 280.62C250.528 281.108 250.922 281.502 251.409 281.741C251.896 281.98 252.449 282.05 252.98 281.94C254.037 281.693 255.025 281.211 255.87 280.53C257.93 279.09 262.16 276.09 259.46 273.28C256.76 270.47 253.06 275.32 251.45 277.33Z" fill="#EBEBEB"/>
<path d="M234.19 237.33C233.745 237.354 233.32 237.518 232.973 237.798C232.627 238.078 232.377 238.46 232.26 238.89C232.09 239.89 232.94 240.81 233.76 241.44C235.81 243.02 241.96 247.28 243.34 243.17C244.64 239.29 236.91 237 234.19 237.33Z" fill="#E0E0E0"/>
<path d="M245.54 223.81C244.27 223.93 243 223.47 241.73 223.55C240.46 223.63 239.04 224.65 239.33 225.9C239.62 227.15 241.02 227.43 242.19 227.51C244.2 227.63 246.217 227.489 248.19 227.09C248.656 227.048 249.089 226.83 249.4 226.48C249.92 225.72 249.1 224.7 248.22 224.48C247.314 224.364 246.422 224.152 245.56 223.85L245.54 223.81Z" fill="#E6E6E6"/>
<path d="M258 232.55C259.28 232.55 260.51 232.04 261.79 232.04C263.07 232.04 264.54 232.96 264.34 234.22C264.14 235.48 262.75 235.87 261.58 236.02C259.589 236.284 257.571 236.284 255.58 236.02C255.108 236.01 254.658 235.82 254.32 235.49C253.76 234.76 254.51 233.7 255.32 233.37C256.22 233.196 257.099 232.924 257.94 232.56L258 232.55Z" fill="#F0F0F0"/>
<path d="M256.69 326.51C256.98 326.209 257.365 326.018 257.78 325.97C258.052 326.001 258.307 326.122 258.502 326.314C258.698 326.507 258.824 326.758 258.86 327.03C258.919 327.575 258.85 328.126 258.66 328.64C257.79 331.53 248.09 352.48 245.85 348.72C244.53 346.49 247.78 339.13 248.74 337.04C250.586 332.99 253.3 329.395 256.69 326.51Z" fill="#F0F0F0"/>
<path d="M250.89 224.6C251.516 222.826 252.587 221.242 254 220C255.53 218.89 258 218.81 259.1 220.34C260.35 222.05 259.1 224.65 257.19 225.56C255.28 226.47 253.05 226.19 250.95 225.9C250.95 225.59 250.95 225.28 250.9 224.97L250.89 224.6Z" fill="#E6E6E6"/>
<path d="M257.67 382.55C247.278 384.32 236.662 384.32 226.27 382.55L214.06 346.55H269.89L257.67 382.55Z" fill="#F0F0F0"/>
<path d="M250.59 112.98C262.039 112.98 271.32 103.699 271.32 92.25C271.32 80.8012 262.039 71.52 250.59 71.52C239.141 71.52 229.86 80.8012 229.86 92.25C229.86 103.699 239.141 112.98 250.59 112.98Z" fill="#E0E0E0"/>
<path d="M269.668 94.7125C271.503 83.4116 263.828 72.7633 252.527 70.9289C241.227 69.0945 230.578 76.7686 228.744 88.0696C226.909 99.3705 234.584 110.019 245.885 111.853C257.185 113.688 267.834 106.013 269.668 94.7125Z" fill="#EBEBEB"/>
<path opacity="0.8" d="M265.83 91.5199C265.83 94.811 264.854 98.0281 263.025 100.765C261.197 103.501 258.598 105.634 255.558 106.893C252.517 108.153 249.171 108.482 245.944 107.84C242.716 107.198 239.751 105.613 237.424 103.286C235.096 100.959 233.512 97.994 232.87 94.7662C232.227 91.5383 232.557 88.1926 233.816 85.152C235.076 82.1115 237.209 79.5127 239.945 77.6842C242.682 75.8558 245.899 74.8799 249.19 74.8799C253.603 74.8799 257.835 76.633 260.956 79.7536C264.077 82.8742 265.83 87.1067 265.83 91.5199Z" fill="white"/>
<path d="M248.29 93.09C247.975 92.7726 247.799 92.3434 247.8 91.8964C247.801 91.4494 247.979 91.021 248.295 90.7049C248.611 90.3889 249.039 90.2109 249.486 90.21C249.933 90.209 250.362 90.3852 250.68 90.7C250.838 90.8566 250.963 91.043 251.049 91.2483C251.135 91.4536 251.179 91.6739 251.18 91.8964C251.18 92.1189 251.137 92.3394 251.052 92.5451C250.967 92.7507 250.842 92.9376 250.685 93.095C250.527 93.2523 250.341 93.377 250.135 93.462C249.929 93.5469 249.709 93.5904 249.486 93.59C249.264 93.5895 249.043 93.5451 248.838 93.4593C248.633 93.3735 248.446 93.248 248.29 93.09Z" fill="#E0E0E0"/>
<path d="M249.19 91.32L259.01 91.02L259.04 92.04L250.14 92.31L249.18 107.79L248.17 107.73L249.19 91.32Z" fill="#E0E0E0"/>
<path d="M250 427.01C357.082 427.01 443.89 421.942 443.89 415.69C443.89 409.438 357.082 404.37 250 404.37C142.917 404.37 56.1099 409.438 56.1099 415.69C56.1099 421.942 142.917 427.01 250 427.01Z" fill="#F5F5F5"/>
<path d="M430.35 362.91L435.43 282.05C435.877 274.939 434.862 267.811 432.447 261.107C430.033 254.403 426.271 248.265 421.393 243.071C416.515 237.877 410.624 233.738 404.085 230.909C397.545 228.079 390.495 226.62 383.37 226.62C370.046 226.622 357.229 231.722 347.546 240.875C337.864 250.027 332.051 262.538 331.3 275.84L326 370.28H422.5C424.5 370.279 426.425 369.517 427.883 368.148C429.341 366.779 430.223 364.906 430.35 362.91Z" fill="#0E98D5"/>
<path opacity="0.1" d="M430.53 360L435.43 282.07C435.877 274.959 434.862 267.831 432.447 261.127C430.033 254.423 426.271 248.285 421.393 243.091C416.515 237.897 410.624 233.758 404.085 230.929C397.545 228.099 390.495 226.64 383.37 226.64C370.046 226.642 357.229 231.742 347.546 240.895C337.864 250.047 332.051 262.558 331.3 275.86L326 370.28H419.59C422.376 370.271 425.056 369.205 427.086 367.296C429.117 365.388 430.348 362.781 430.53 360Z" fill="black"/>
<path d="M414.69 370.28L420.23 282.05C420.675 274.939 419.659 267.812 417.244 261.109C414.83 254.406 411.067 248.268 406.19 243.074C401.312 237.881 395.422 233.742 388.883 230.912C382.344 228.082 375.295 226.621 368.17 226.62C354.846 226.62 342.027 231.719 332.344 240.872C322.661 250.025 316.849 262.537 316.1 275.84L310.77 370.28H414.69Z" fill="#0E98D5"/>
<path d="M416.35 385.47H417.68C418.039 385.451 418.378 385.304 418.639 385.057C418.899 384.809 419.062 384.477 419.1 384.12L421.1 370.29H413L415 384.12C415.037 384.465 415.191 384.788 415.437 385.033C415.682 385.279 416.005 385.433 416.35 385.47Z" fill="#0E98D5"/>
<path opacity="0.7" d="M416.35 385.47H417.68C418.039 385.451 418.378 385.304 418.639 385.057C418.899 384.809 419.062 384.477 419.1 384.12L421.1 370.29H413L415 384.12C415.037 384.465 415.191 384.788 415.437 385.033C415.682 385.279 416.005 385.433 416.35 385.47Z" fill="white"/>
<path d="M285.7 385.47H286.9C287.24 385.435 287.557 385.28 287.793 385.032C288.029 384.785 288.17 384.462 288.19 384.12L290 370.29H282.64L284.43 384.12C284.449 384.459 284.586 384.78 284.819 385.027C285.051 385.273 285.363 385.431 285.7 385.47Z" fill="#0E98D5"/>
<path opacity="0.5" d="M285.7 385.47H286.9C287.24 385.435 287.557 385.28 287.793 385.032C288.029 384.785 288.17 384.462 288.19 384.12L290 370.29H282.64L284.43 384.12C284.449 384.459 284.586 384.78 284.819 385.027C285.051 385.273 285.363 385.431 285.7 385.47Z" fill="white"/>
<path d="M323.31 385.47H324.52C324.86 385.435 325.177 385.28 325.413 385.032C325.65 384.785 325.79 384.462 325.81 384.12L327.59 370.29H320.24L322 384.12C322.02 384.465 322.163 384.791 322.404 385.038C322.644 385.286 322.966 385.439 323.31 385.47Z" fill="#0E98D5"/>
<path opacity="0.7" d="M323.31 385.47H324.52C324.86 385.435 325.177 385.28 325.413 385.032C325.65 384.785 325.79 384.462 325.81 384.12L327.59 370.29H320.24L322 384.12C322.02 384.465 322.163 384.791 322.404 385.038C322.644 385.286 322.966 385.439 323.31 385.47Z" fill="white"/>
<path d="M375.85 385.47H377.18C377.539 385.449 377.879 385.302 378.141 385.055C378.402 384.808 378.568 384.477 378.61 384.12L380.61 370.29H372.5L374.5 384.12C374.535 384.466 374.689 384.789 374.935 385.035C375.181 385.281 375.504 385.435 375.85 385.47Z" fill="#0E98D5"/>
<path opacity="0.5" d="M375.85 385.47H377.18C377.539 385.449 377.879 385.302 378.141 385.055C378.402 384.808 378.568 384.477 378.61 384.12L380.61 370.29H372.5L374.5 384.12C374.535 384.466 374.689 384.789 374.935 385.035C375.181 385.281 375.504 385.435 375.85 385.47Z" fill="white"/>
<path d="M331.82 337H296.26L293.91 302.72L293.4 295.36L293.17 291.97C293.106 291.081 292.989 290.196 292.82 289.32C292.82 289.13 292.74 288.92 292.7 288.73C292.679 288.587 292.642 288.446 292.59 288.31C291.632 284.816 289.765 281.638 287.18 279.1C284.197 276.154 280.253 274.379 276.07 274.1H309.52C309.88 274.1 310.25 274.1 310.62 274.1C315.155 274.12 319.502 275.915 322.73 279.1C325.318 281.638 327.188 284.815 328.15 288.31C328.202 288.446 328.239 288.587 328.26 288.73C328.495 289.797 328.652 290.88 328.73 291.97L328.96 295.36L331.82 337Z" fill="#0E98D5"/>
<path opacity="0.1" d="M331.82 337H296.26L293.91 302.72L293.4 295.36L293.17 291.97C293.106 291.081 292.989 290.196 292.82 289.32C292.82 289.13 292.74 288.92 292.7 288.73C292.679 288.587 292.642 288.446 292.59 288.31C291.632 284.816 289.765 281.638 287.18 279.1C284.197 276.154 280.253 274.379 276.07 274.1H309.52C309.88 274.1 310.25 274.1 310.62 274.1C315.155 274.12 319.502 275.915 322.73 279.1C325.318 281.638 327.188 284.815 328.15 288.31C328.202 288.446 328.239 288.587 328.26 288.73C328.495 289.797 328.652 290.88 328.73 291.97L328.96 295.36L331.82 337Z" fill="black"/>
<g opacity="0.1">
<path d="M360 318.7H374.28C377.76 318.7 380.57 320.9 380.57 323.61V332.05C380.57 334.77 377.76 336.96 374.28 336.96H360V318.7Z" fill="black"/>
</g>
<path d="M301.69 336.96H364.59C367.583 336.96 370.01 334.534 370.01 331.54V324.11C370.01 321.117 367.583 318.69 364.59 318.69H301.69C298.696 318.69 296.27 321.117 296.27 324.11V331.54C296.27 334.534 298.696 336.96 301.69 336.96Z" fill="#0E98D5"/>
<path d="M450 294.27C450.008 299.051 448.325 303.682 445.249 307.342C442.173 311.002 437.901 313.456 433.19 314.27L429.54 363C429.22 367.14 426.21 370.31 422.61 370.31H383.39C386.99 370.31 389.99 367.14 390.31 363L392.31 337L394 314.24C397.082 313.711 399.999 312.472 402.521 310.622C405.042 308.772 407.099 306.361 408.53 303.58C408.726 303.227 408.903 302.863 409.06 302.49C410.215 299.904 410.808 297.102 410.8 294.27C410.798 292.883 410.657 291.499 410.38 290.14C410.27 289.6 410.13 289.06 409.98 288.53C409.267 286.148 408.129 283.915 406.62 281.94C404.727 279.475 402.294 277.478 399.508 276.101C396.722 274.725 393.657 274.006 390.55 274H429.77C432.913 273.989 436.014 274.722 438.82 276.14C441.562 277.505 443.956 279.479 445.82 281.91C448.541 285.455 450.011 289.801 450 294.27Z" fill="#0E98D5"/>
<path opacity="0.1" d="M450 294.27C450.008 299.051 448.325 303.682 445.249 307.342C442.173 311.002 437.901 313.456 433.19 314.27L429.54 363C429.22 367.14 426.21 370.31 422.61 370.31H383.39C386.99 370.31 389.99 367.14 390.31 363L392.31 337L394 314.24C397.082 313.711 399.999 312.472 402.521 310.622C405.042 308.772 407.099 306.361 408.53 303.58C408.726 303.227 408.903 302.863 409.06 302.49C410.215 299.904 410.808 297.102 410.8 294.27C410.798 292.883 410.657 291.499 410.38 290.14C410.27 289.6 410.13 289.06 409.98 288.53C409.267 286.148 408.129 283.915 406.62 281.94C404.727 279.475 402.294 277.478 399.508 276.101C396.722 274.725 393.657 274.006 390.55 274H429.77C432.913 273.989 436.014 274.722 438.82 276.14C441.562 277.505 443.956 279.479 445.82 281.91C448.541 285.455 450.011 289.801 450 294.27Z" fill="black"/>
<path d="M410.81 294.28C410.81 304.28 404.22 312.61 395.57 314.28L392.23 363C391.94 367.14 389.23 370.32 385.95 370.32H281.21C277.95 370.32 275.21 367.14 274.93 363L271.58 314.19C263.1 312.41 256.69 304.19 256.69 294.31C256.67 290.162 257.847 286.096 260.08 282.6C261.769 279.934 264.096 277.731 266.85 276.19C269.356 274.78 272.184 274.04 275.06 274.04C279.596 274.067 283.944 275.86 287.18 279.04C289.764 281.575 291.631 284.749 292.59 288.24C292.642 288.382 292.678 288.53 292.7 288.68C292.936 289.744 293.093 290.823 293.17 291.91L293.41 295.3L296.26 337H370.9L373.99 292C374.43 285.64 377.53 280.34 381.83 277.83C384.547 275.656 387.867 274.368 391.34 274.14C391.705 274.103 392.072 274.086 392.44 274.09C395.232 274.074 397.983 274.762 400.44 276.09C400.516 276.124 400.59 276.164 400.66 276.21C403.196 277.618 405.372 279.593 407.02 281.98C409.502 285.6 410.824 289.89 410.81 294.28Z" fill="#0E98D5"/>
<path opacity="0.1" d="M369.17 370.29H281.17C277.91 370.29 275.17 367.11 274.89 362.97L271.54 314.16C263.06 312.38 256.65 304.16 256.65 294.28C256.63 290.132 257.807 286.066 260.04 282.57C261.729 279.904 264.056 277.701 266.81 276.16C269.316 274.751 272.144 274.01 275.02 274.01C279.556 274.037 283.904 275.831 287.14 279.01C289.724 281.545 291.591 284.719 292.55 288.21C292.602 288.353 292.638 288.5 292.66 288.65C292.896 289.714 293.053 290.793 293.13 291.88L293.37 295.27L296.26 337H370.9L369.17 370.29Z" fill="white"/>
<path d="M357.76 231.72C356.02 232.72 354.43 233.55 352.76 234.4C351.09 235.25 349.45 236.03 347.76 236.81C344.4 238.34 341 239.81 337.5 241.08C333.972 242.392 330.381 243.527 326.74 244.48C322.952 245.498 319.085 246.191 315.18 246.55L314.35 246.63H313.96C310.43 246.22 307.3 245.63 304.16 244.93C301.02 244.23 297.91 243.54 294.83 242.75C291.75 241.96 288.69 241.15 285.63 240.27C282.57 239.39 279.54 238.48 276.51 237.45L277.9 230.51C284.19 230.91 290.47 231.51 296.69 232.16L305.98 233.09C309.04 233.39 312.17 233.65 314.91 233.75H313.7C316.838 233.191 319.933 232.409 322.96 231.41C326.09 230.41 329.22 229.27 332.35 227.93C335.48 226.59 338.58 225.21 341.66 223.74C343.24 223.02 344.77 222.26 346.27 221.51C347.77 220.76 349.37 219.96 350.74 219.25L357.76 231.72Z" fill="#263238"/>
<path opacity="0.1" d="M357.76 231.72C356.02 232.72 354.43 233.55 352.76 234.4C351.09 235.25 349.45 236.03 347.76 236.81C344.4 238.34 341 239.81 337.5 241.08C333.972 242.392 330.381 243.527 326.74 244.48C322.952 245.498 319.085 246.191 315.18 246.55L314.35 246.63H313.96C310.43 246.22 307.3 245.63 304.16 244.93C301.02 244.23 297.91 243.54 294.83 242.75C291.75 241.96 288.69 241.15 285.63 240.27C282.57 239.39 279.54 238.48 276.51 237.45L277.9 230.51C284.19 230.91 290.47 231.51 296.69 232.16L305.98 233.09C309.04 233.39 312.17 233.65 314.91 233.75H313.7C316.838 233.191 319.933 232.409 322.96 231.41C326.09 230.41 329.22 229.27 332.35 227.93C335.48 226.59 338.58 225.21 341.66 223.74C343.24 223.02 344.77 222.26 346.27 221.51C347.77 220.76 349.37 219.96 350.74 219.25L357.76 231.72Z" fill="black"/>
<path d="M276.63 226.7C275.151 225.663 273.518 224.866 271.79 224.34L269.2 234.45L276.96 237.71L277.84 236.63C278.436 235.909 278.88 235.074 279.143 234.175C279.406 233.277 279.483 232.334 279.37 231.405C279.257 230.476 278.956 229.579 278.484 228.771C278.013 227.962 277.382 227.257 276.63 226.7Z" fill="#FFC3BD"/>
<path d="M269.2 234.45L271.79 224.34L264.55 220.39L262.37 227.51L269.2 234.45Z" fill="#FFC3BD"/>
<path opacity="0.2" d="M333.41 242H333.69H333.81C337.63 241.59 348.86 239.7 356.98 231.69C355.77 229.35 354.11 227.54 352.08 227.13C346.48 226.07 339.62 230.08 333.41 242Z" fill="black"/>
<path d="M340 294.27C349.58 268.4 343.28 244.61 344.48 231.44C344.775 228.194 346.119 225.132 348.31 222.718C350.5 220.303 353.417 218.669 356.62 218.06C363.16 216.8 371.25 215.38 378.96 214.34C381.114 214.043 383.308 214.215 385.389 214.845C387.471 215.475 389.392 216.548 391.02 217.99C392.648 219.432 393.945 221.209 394.822 223.199C395.699 225.189 396.135 227.346 396.1 229.52C395.43 268.52 382.93 294.27 382.93 294.27L362.73 294.18L340 294.27Z" fill="#0E98D5"/>
<path opacity="0.8" d="M340 294.27C349.58 268.4 343.28 244.61 344.48 231.44C344.775 228.194 346.119 225.132 348.31 222.718C350.5 220.303 353.417 218.669 356.62 218.06C363.16 216.8 371.25 215.38 378.96 214.34C381.114 214.043 383.308 214.215 385.389 214.845C387.471 215.475 389.392 216.548 391.02 217.99C392.648 219.432 393.945 221.209 394.822 223.199C395.699 225.189 396.135 227.346 396.1 229.52C395.43 268.52 382.93 294.27 382.93 294.27L362.73 294.18L340 294.27Z" fill="white"/>
<path d="M263.36 382.541L260.8 399.371H268.93L274.27 382.541H263.36Z" fill="#FFC3BD"/>
<path d="M259.76 395.62L270.63 395.36C270.715 395.351 270.801 395.359 270.882 395.384C270.964 395.41 271.039 395.452 271.103 395.509C271.168 395.566 271.219 395.635 271.255 395.713C271.29 395.791 271.309 395.875 271.31 395.96V403.96C271.261 404.404 271.053 404.814 270.723 405.114C270.393 405.414 269.966 405.583 269.52 405.59C265.74 405.59 263.94 405.45 259.16 405.59C254.071 405.574 248.987 405.24 243.94 404.59C240.07 403.93 241.12 400.3 242.87 400.24C250.77 399.95 255.19 398.3 258.03 396.24C258.525 395.853 259.132 395.636 259.76 395.62Z" fill="#263238"/>
<path opacity="0.2" d="M262.33 389.291L263.36 382.541H274.27L271.65 390.961L262.33 389.291Z" fill="black"/>
<path d="M335 288.21C335 288.21 268.85 288.87 267.82 309.82C266.36 339.94 261.27 385.82 261.27 385.82L273.74 389.25C273.74 389.25 291.54 343.72 292.23 320.19C310.84 316.49 358.67 320.19 364.29 307.97C367.037 301.751 367.778 294.83 366.41 288.17L335 288.21Z" fill="#0E98D5"/>
<path opacity="0.6" d="M335 288.21C335 288.21 268.85 288.87 267.82 309.82C266.36 339.94 261.27 385.82 261.27 385.82L273.74 389.25C273.74 389.25 291.54 343.72 292.23 320.19C310.84 316.49 358.67 320.19 364.29 307.97C367.037 301.751 367.778 294.83 366.41 288.17L335 288.21Z" fill="black"/>
<path d="M321.56 389.05L325.97 400.47H334.89L331.82 388.46L321.56 389.05Z" fill="#FFC3BD"/>
<path opacity="0.2" d="M332.65 391.7L330.92 382.91L319.65 384.31L322.54 391.95L332.65 391.7Z" fill="black"/>
<path d="M323.55 396.69H334.94C335.124 396.677 335.306 396.736 335.446 396.856C335.587 396.976 335.674 397.146 335.69 397.33L336.24 405.86C336.229 406.322 336.038 406.761 335.707 407.083C335.376 407.404 334.931 407.583 334.47 407.58C330.47 407.51 328.61 407.29 323.6 407.29C320.53 407.29 314.31 407.59 310.06 407.59C305.81 407.59 305.93 403.59 307.72 403.28C315.82 401.66 318.95 399.43 321.8 397.28C322.306 396.905 322.919 396.698 323.55 396.69Z" fill="#263238"/>
<path d="M352.79 288.21C352.79 288.21 292.79 292.28 294.27 313.21C295.88 336.13 319.91 389.28 319.91 389.28H332C332 389.28 324 341.06 320.32 317.7C337.24 317.7 376.45 320.25 382.09 308C384.825 301.777 385.559 294.858 384.19 288.2L352.79 288.21Z" fill="#0E98D5"/>
<path opacity="0.5" d="M352.79 288.21C352.79 288.21 292.79 292.28 294.27 313.21C295.88 336.13 319.91 389.28 319.91 389.28H332C332 389.28 324 341.06 320.32 317.7C337.24 317.7 376.45 320.25 382.09 308C384.825 301.777 385.559 294.858 384.19 288.2L352.79 288.21Z" fill="black"/>
<path d="M361.88 203.42C363.26 208.76 363.69 215.42 356.23 218.17C354.16 221.47 353.15 224.95 361.12 223.71C367.464 222.89 373.238 219.625 377.21 214.61C372.44 210.43 373.31 197.61 374.52 190.38L361.88 203.42Z" fill="#FFC3BD"/>
<path d="M361 213.14C354.15 214.31 348.52 219.61 345.5 225.86C342.48 232.11 341.75 239.23 341.81 246.18C341.87 253.13 342.66 260.05 342.47 266.99C342.26 274.99 340.33 280.66 337.57 288.2C337.57 289.99 340.28 291 342.57 291.47C347.35 281.04 350.49 271.06 350.16 259.6C349.91 251.28 349.8 241.8 351.16 233.6C352.52 225.4 362.33 214.69 361.86 213.21L361 213.14Z" fill="#263238"/>
<path opacity="0.3" d="M367.7 207.34C366.982 207.874 366.164 208.256 365.294 208.466C364.425 208.676 363.522 208.708 362.64 208.56C362.656 207.261 362.563 205.963 362.36 204.68L370.64 197.88C370.821 198.764 370.938 199.66 370.99 200.56C371.079 201.879 370.823 203.198 370.246 204.388C369.669 205.577 368.791 206.595 367.7 207.34Z" fill="black"/>
<path d="M355.32 171.84C346.57 176.79 346.48 190.78 349.18 198.84C349.861 200.955 351.11 202.842 352.791 204.295C354.472 205.748 356.521 206.71 358.712 207.078C360.903 207.445 363.153 207.203 365.216 206.378C367.279 205.553 369.076 204.177 370.41 202.4C374.69 196.99 374.07 191.53 373.86 182.13C373.65 172.73 364.08 166.9 355.32 171.84Z" fill="#FFC3BD"/>
<path opacity="0.2" d="M358.14 197C355.32 198.21 352.23 199.78 349.38 199.44C350.147 201.467 351.443 203.251 353.134 204.606C354.825 205.961 356.849 206.837 358.994 207.143C361.139 207.45 363.327 207.175 365.33 206.348C367.332 205.521 369.076 204.171 370.38 202.44C373.91 198 375 195 374 186.92C368.52 193.34 364.17 194.4 358.14 197Z" fill="black"/>
<path d="M366.6 175C365.691 176.476 365.287 178.208 365.447 179.934C365.608 181.66 366.325 183.287 367.49 184.57C368.28 185.4 369.25 186.04 370.01 186.89C371.195 188.224 371.812 189.968 371.73 191.75C371.908 190.604 372.479 189.554 373.346 188.783C374.212 188.011 375.32 187.565 376.48 187.52C375.293 191.194 374.106 194.86 372.92 198.52C375.269 197.425 377.299 195.747 378.818 193.647C380.337 191.547 381.294 189.094 381.6 186.52C382.36 179.42 373.6 164.21 366.6 175Z" fill="#263238"/>
<path d="M346.18 175.49C345.51 176.234 345.033 177.13 344.79 178.1C344.673 178.581 344.706 179.086 344.885 179.547C345.064 180.009 345.379 180.404 345.79 180.68C346.547 180.985 347.385 181.028 348.17 180.8L356.17 179.41C360.75 178.61 365.33 177.82 369.85 176.73C371.85 176.25 374.16 175.48 374.96 173.56C377.55 167.31 366.49 166.5 362.79 166.67C356.49 167 350.12 170.62 346.18 175.49Z" fill="#263238"/>
<path d="M375.28 185.92C372.66 186.51 371.54 190.28 371.61 192.7C371.61 195.45 373.61 197.24 375.93 195.58C377.653 194.3 378.825 192.412 379.21 190.3C379.68 187.71 377.91 185.33 375.28 185.92Z" fill="#FFC3BD"/>
<path d="M356.77 195.47C356.373 195.735 355.923 195.908 355.451 195.979C354.979 196.05 354.497 196.016 354.04 195.88C355.04 193.62 354.92 194.13 355.23 190.29L356.77 195.47Z" fill="#ED847E"/>
<path d="M361.38 183C360.63 182.16 358.58 181.84 357.47 182C357.357 182.015 357.244 181.985 357.153 181.918C357.061 181.851 356.999 181.752 356.98 181.64C356.965 181.52 356.996 181.399 357.066 181.301C357.136 181.202 357.241 181.134 357.36 181.11C358.76 180.9 361.09 181.32 362.04 182.37C362.122 182.454 362.168 182.567 362.168 182.685C362.168 182.803 362.122 182.916 362.04 183C361.984 183.058 361.915 183.103 361.84 183.13C361.759 183.155 361.672 183.156 361.591 183.133C361.509 183.11 361.436 183.064 361.38 183Z" fill="#263238"/>
<path d="M348.44 184.87C348.346 184.805 348.281 184.706 348.259 184.594C348.236 184.482 348.258 184.366 348.32 184.27C348.67 183.639 349.162 183.098 349.758 182.69C350.353 182.282 351.035 182.019 351.75 181.92C351.805 181.919 351.859 181.928 351.91 181.948C351.961 181.968 352.007 181.998 352.046 182.037C352.085 182.075 352.117 182.12 352.138 182.171C352.159 182.221 352.17 182.275 352.17 182.33C352.176 182.451 352.134 182.57 352.054 182.662C351.974 182.753 351.861 182.81 351.74 182.82C351.176 182.91 350.64 183.127 350.172 183.454C349.705 183.782 349.317 184.211 349.04 184.71C349.004 184.775 348.952 184.83 348.889 184.87C348.826 184.911 348.754 184.935 348.68 184.94C348.594 184.947 348.509 184.922 348.44 184.87Z" fill="#263238"/>
<path d="M356 199.54C356.962 200.764 357.847 202.047 358.65 203.38L359.27 203.12C362.09 201.9 362.89 200.2 362.93 198.69C362.896 197.489 362.525 196.321 361.86 195.32C360.86 197.05 358.33 198.43 356.95 199.1C356.36 199.39 356 199.54 356 199.54Z" fill="#2E353A"/>
<path d="M356.93 199.1L357.34 199.66C357.452 199.811 357.612 199.919 357.793 199.968C357.974 200.017 358.167 200.004 358.34 199.93C360.42 198.93 361.8 197.93 362.34 196.8C362.389 196.694 362.415 196.578 362.415 196.46C362.415 196.343 362.389 196.227 362.34 196.12C362.206 195.843 362.052 195.575 361.88 195.32C360.83 197.05 358.31 198.43 356.93 199.1Z" fill="white"/>
<path d="M359.25 203.12C362.07 201.9 362.87 200.2 362.91 198.69C361.839 199.185 360.887 199.904 360.12 200.8C359.592 201.462 359.287 202.274 359.25 203.12Z" fill="#DE5753"/>
<path d="M351.65 188C351.16 188.09 350.89 188.79 351.03 189.54C351.17 190.29 351.7 190.83 352.19 190.73C352.68 190.63 352.95 189.95 352.81 189.2C352.67 188.45 352.14 188 351.65 188Z" fill="#263238"/>
<path d="M360.23 186.62C359.74 186.71 359.47 187.4 359.61 188.16C359.75 188.92 360.28 189.45 360.77 189.35C361.26 189.25 361.53 188.56 361.39 187.81C361.25 187.06 360.72 186.53 360.23 186.62Z" fill="#263238"/>
<path opacity="0.9" d="M347.87 192.06L354.18 190.64L354.29 193.32L348.42 194.72L347.87 192.06Z" fill="white"/>
<g opacity="0.8">
<path opacity="0.9" d="M356.1 190.22L356.85 192.68L364.95 190.94L364.47 188.1L356.1 190.22Z" fill="white"/>
</g>
<path d="M354.22 191.63L354.18 190.64L356.1 190.22L356.38 191.15L354.22 191.63Z" fill="#263238"/>
<path d="M351.92 293.12C351.92 293.12 363.31 297.53 365.92 298.39C368.92 299.565 372.078 300.289 375.29 300.54C376.919 300.65 378.552 300.411 380.081 299.84C381.611 299.27 383.001 298.38 384.16 297.23C386.88 294.33 387.73 289.93 388.44 285.8C390.52 273.673 392.607 261.547 394.7 249.42C395.7 243.42 398.33 234.42 398.11 231.03C397.7 224.73 393.69 217.29 383.48 213.2C379.48 211.61 375.59 212.2 372.25 216.2C370.25 218.58 364.43 224.32 363 234.43C361.86 242.53 360.08 253.02 360.19 261.25C360.32 272.07 356 285.71 351.92 293.12Z" fill="#263238"/>
<path d="M397.55 227.7C398.71 238.24 392.88 264.81 391.76 266.41C386.98 281.82 373.85 273.51 371.95 272.8C368.64 271.58 365.27 269.19 362.12 267.6C356.01 264.6 350.22 262.12 344.54 258.35L347.74 252.03C353.97 254.15 371.6 258.71 374.51 259.42C375.77 259.75 380.68 262.32 380.63 258.93C381.32 257.8 382.28 235.79 384.39 228.01C384.631 227.137 385.049 226.323 385.62 225.62L385.81 225.38C386.58 224.415 387.601 223.68 388.76 223.255C389.92 222.83 391.174 222.732 392.385 222.972C393.597 223.211 394.719 223.779 395.63 224.613C396.541 225.446 397.205 226.514 397.55 227.7Z" fill="#263238"/>
<path opacity="0.1" d="M397.55 227.7C398.71 238.24 392.88 264.81 391.76 266.41C386.98 281.82 373.85 273.51 371.95 272.8C368.64 271.58 365.27 269.19 362.12 267.6C356.01 264.6 350.22 262.12 344.54 258.35L347.74 252.03C353.97 254.15 371.6 258.71 374.51 259.42C375.77 259.75 380.68 262.32 380.63 258.93C381.32 257.8 382.28 235.79 384.39 228.01C384.631 227.137 385.049 226.323 385.62 225.62L385.81 225.38C386.58 224.415 387.601 223.68 388.76 223.255C389.92 222.83 391.174 222.732 392.385 222.972C393.597 223.211 394.719 223.779 395.63 224.613C396.541 225.446 397.205 226.514 397.55 227.7Z" fill="white"/>
<path d="M345.24 267.5H315.64L312.26 228.88H341.86L345.24 267.5Z" fill="#263238"/>
<path opacity="0.5" d="M345.24 267.5H315.64L312.26 228.88H341.86L345.24 267.5Z" fill="white"/>
<path d="M344.19 267.31H314.59L311.21 228.69H340.81L344.19 267.31Z" fill="#0E98D5"/>
<path opacity="0.8" d="M344.19 267.31H314.59L311.21 228.69H340.81L344.19 267.31Z" fill="white"/>
<path d="M332.45 231.1H320L319.58 226.27H332.02L332.45 231.1Z" fill="#0E98D5"/>
<path d="M319.58 226.27L320.8 225.85H333.69L333.87 227.9L332.91 229.01L332.85 230.69L332.45 231.1L332.02 226.27H319.58Z" fill="#0E98D5"/>
<path opacity="0.5" d="M319.58 226.27L320.8 225.85H333.69L333.87 227.9L332.91 229.01L332.85 230.69L332.45 231.1L332.02 226.27H319.58Z" fill="black"/>
<path d="M350.1 254.12L350.77 257.73C349.17 261.9 340 260.8 340 260.8V250.13L348.09 252.01C348.592 252.133 349.048 252.397 349.404 252.771C349.76 253.145 350.002 253.613 350.1 254.12Z" fill="#FFC3BD"/>
<path d="M339.98 250.13L340.02 260.82L331.9 261.02L330.04 251.62L339.98 250.13Z" fill="#FFC3BD"/>
<path d="M370.9 337L373.99 292C374.43 285.64 377.53 280.34 381.83 277.83C384.547 275.656 387.867 274.368 391.34 274.14C391.705 274.103 392.073 274.087 392.44 274.09C395.232 274.075 397.983 274.763 400.44 276.09C400.516 276.124 400.59 276.164 400.66 276.21C403.196 277.618 405.372 279.593 407.02 281.98C409.513 285.611 410.839 289.916 410.82 294.32C410.82 304.32 404.23 312.65 395.58 314.32L392.23 363C391.94 367.14 389.23 370.32 385.95 370.32H369.17L370.9 337Z" fill="#0E98D5"/>
<path opacity="0.1" d="M370.9 337L373.99 292C374.43 285.64 377.53 280.34 381.83 277.83C384.547 275.656 387.867 274.368 391.34 274.14C391.705 274.103 392.073 274.087 392.44 274.09C395.232 274.075 397.983 274.763 400.44 276.09C400.516 276.124 400.59 276.164 400.66 276.21C403.196 277.618 405.372 279.593 407.02 281.98C409.513 285.611 410.839 289.916 410.82 294.32C410.82 304.32 404.23 312.65 395.58 314.32L392.23 363C391.94 367.14 389.23 370.32 385.95 370.32H369.17L370.9 337Z" fill="white"/>
<path d="M218.3 127.6V169.41C218.3 170.471 217.878 171.488 217.128 172.238C216.378 172.988 215.361 173.41 214.3 173.41H171.48L156.18 185.24C155.746 185.568 155.229 185.768 154.687 185.818C154.145 185.867 153.601 185.765 153.114 185.522C152.627 185.278 152.218 184.904 151.933 184.441C151.648 183.978 151.498 183.444 151.5 182.9V173.41H149.11C148.049 173.41 147.032 172.988 146.281 172.238C145.531 171.488 145.11 170.471 145.11 169.41V127.59C145.112 127.069 145.218 126.554 145.421 126.074C145.624 125.595 145.92 125.16 146.292 124.795C146.664 124.431 147.105 124.144 147.588 123.951C148.072 123.757 148.589 123.662 149.11 123.67H214.37C215.412 123.67 216.412 124.084 217.149 124.821C217.886 125.558 218.3 126.558 218.3 127.6V127.6Z" stroke="#0E98D5" stroke-miterlimit="10"/>
<path d="M178.2 117.78H170.03V118.78H178.2V117.78Z" fill="#0E98D5"/>
<path d="M140 129.56H139V124.63C139.003 122.81 139.728 121.065 141.016 119.779C142.304 118.492 144.05 117.77 145.87 117.77H164.1V118.77H145.85C144.296 118.773 142.806 119.391 141.706 120.489C140.606 121.587 139.985 123.076 139.98 124.63L140 129.56Z" fill="#0E98D5"/>
<path d="M197.77 154.3C197.335 154.303 196.905 154.215 196.506 154.043C196.107 153.871 195.747 153.619 195.451 153.301C195.154 152.984 194.926 152.608 194.781 152.199C194.637 151.789 194.578 151.353 194.61 150.92C195.68 138.73 205.34 137.61 206.55 123.75C206.9 119.75 205.44 118.25 202.65 118.25C199.86 118.25 198.14 119.76 197.79 123.75L197.59 126.03C197.5 127.06 197.027 128.019 196.264 128.717C195.501 129.415 194.504 129.801 193.47 129.8C192.898 129.799 192.332 129.68 191.808 129.449C191.284 129.218 190.814 128.881 190.428 128.459C190.041 128.036 189.747 127.539 189.563 126.997C189.379 126.455 189.31 125.88 189.36 125.31L189.45 124.31C190.23 115.39 195.06 110.31 203.59 110.31C212.12 110.31 216.05 115.41 215.27 124.31C214 138.76 203.45 141 202.55 151.19C202.555 151.24 202.555 151.29 202.55 151.34C202.504 152.148 202.152 152.909 201.565 153.466C200.977 154.024 200.2 154.336 199.39 154.34L197.77 154.3ZM202.1 162.78C202.01 163.829 201.529 164.805 200.753 165.516C199.977 166.228 198.962 166.621 197.91 166.62C197.327 166.621 196.75 166.5 196.216 166.266C195.681 166.031 195.202 165.688 194.808 165.258C194.414 164.828 194.113 164.321 193.926 163.769C193.739 163.216 193.669 162.631 193.72 162.05C193.81 161 194.292 160.022 195.07 159.31C195.849 158.599 196.866 158.206 197.92 158.21C198.502 158.212 199.077 158.335 199.609 158.57C200.142 158.806 200.619 159.149 201.012 159.579C201.405 160.008 201.704 160.514 201.891 161.065C202.079 161.616 202.15 162.2 202.1 162.78Z" fill="#0E98D5"/>
<path d="M186.5 144.51H163.5C162.97 144.51 162.461 144.3 162.086 143.924C161.711 143.549 161.5 143.041 161.5 142.51C161.5 141.98 161.711 141.471 162.086 141.096C162.461 140.721 162.97 140.51 163.5 140.51H186.5C187.03 140.51 187.539 140.721 187.914 141.096C188.289 141.471 188.5 141.98 188.5 142.51C188.5 143.041 188.289 143.549 187.914 143.924C187.539 144.3 187.03 144.51 186.5 144.51Z" fill="#0E98D5"/>
<path d="M183.32 152.43H163.54C163.01 152.43 162.501 152.219 162.126 151.844C161.751 151.469 161.54 150.961 161.54 150.43C161.54 149.9 161.751 149.391 162.126 149.016C162.501 148.641 163.01 148.43 163.54 148.43H183.32C183.85 148.43 184.359 148.641 184.734 149.016C185.109 149.391 185.32 149.9 185.32 150.43C185.32 150.961 185.109 151.469 184.734 151.844C184.359 152.219 183.85 152.43 183.32 152.43Z" fill="#0E98D5"/>
<path d="M180.14 160.34H163.54C163.01 160.34 162.501 160.129 162.126 159.754C161.751 159.379 161.54 158.87 161.54 158.34C161.54 157.809 161.751 157.301 162.126 156.926C162.501 156.551 163.01 156.34 163.54 156.34H180.14C180.67 156.34 181.179 156.551 181.554 156.926C181.929 157.301 182.14 157.809 182.14 158.34C182.14 158.87 181.929 159.379 181.554 159.754C181.179 160.129 180.67 160.34 180.14 160.34Z" fill="#0E98D5"/>
<path d="M133.08 323.51H118.47C114.91 323.51 112.03 325.76 112.03 328.51V337.15C112.03 339.93 114.91 342.15 118.47 342.15H133.08V323.51Z" fill="#0E98D5"/>
<path d="M65.1802 364.2L60.1002 283.34C59.6535 276.23 60.6683 269.104 63.082 262.401C65.4957 255.699 69.2572 249.562 74.1343 244.369C79.0114 239.176 84.9008 235.037 91.4391 232.208C97.9775 229.379 105.026 227.92 112.15 227.92C125.475 227.92 138.296 233.019 147.98 242.172C157.665 251.324 163.479 263.836 164.23 277.14L169.55 371.58H73.0002C71.0038 371.572 69.0853 370.804 67.6333 369.434C66.1814 368.064 65.3045 366.193 65.1802 364.2Z" fill="#0E98D5"/>
<path opacity="0.1" d="M65.0002 361.27L60.1002 283.34C59.6535 276.23 60.6683 269.104 63.082 262.401C65.4957 255.699 69.2572 249.562 74.1343 244.369C79.0114 239.176 84.9008 235.037 91.4391 232.208C97.9775 229.379 105.026 227.92 112.15 227.92C125.475 227.92 138.296 233.019 147.98 242.172C157.665 251.324 163.479 263.836 164.23 277.14L169.55 371.58H76.0002C73.1985 371.586 70.5003 370.522 68.4561 368.606C66.412 366.69 65.1759 364.067 65.0002 361.27Z" fill="black"/>
<path d="M80.8399 371.58L75.2999 283.34C74.8531 276.229 75.8682 269.102 78.2826 262.399C80.6969 255.696 84.4592 249.558 89.3374 244.365C94.2156 239.172 100.106 235.034 106.646 232.205C113.185 229.377 120.235 227.919 127.36 227.92C140.683 227.922 153.501 233.023 163.184 242.175C172.866 251.327 178.679 263.838 179.43 277.14L184.76 371.58H80.8399Z" fill="#0E98D5"/>
<path d="M79.1799 386.77H77.8499C77.49 386.747 77.1498 386.598 76.8885 386.349C76.6271 386.101 76.4613 385.768 76.4199 385.41L74.4199 371.58H82.5299L80.5299 385.41C80.4952 385.757 80.3421 386.082 80.0962 386.33C79.8504 386.577 79.5269 386.733 79.1799 386.77Z" fill="#0E98D5"/>
<path opacity="0.7" d="M79.1799 386.77H77.8499C77.49 386.747 77.1498 386.598 76.8885 386.349C76.6271 386.101 76.4613 385.768 76.4199 385.41L74.4199 371.58H82.5299L80.5299 385.41C80.4952 385.757 80.3421 386.082 80.0962 386.33C79.8504 386.577 79.5269 386.733 79.1799 386.77Z" fill="white"/>
<path d="M209.83 386.77H208.62C208.279 386.733 207.962 386.576 207.725 386.327C207.489 386.078 207.349 385.753 207.33 385.41L205.55 371.58H212.9L211.12 385.41C211.101 385.753 210.96 386.078 210.724 386.327C210.488 386.576 210.171 386.733 209.83 386.77Z" fill="#0E98D5"/>
<path opacity="0.5" d="M209.83 386.77H208.62C208.279 386.733 207.962 386.576 207.725 386.327C207.489 386.078 207.349 385.753 207.33 385.41L205.55 371.58H212.9L211.12 385.41C211.101 385.753 210.96 386.078 210.724 386.327C210.488 386.576 210.171 386.733 209.83 386.77Z" fill="white"/>
<path d="M172.22 386.77H171C170.659 386.733 170.342 386.576 170.106 386.327C169.869 386.078 169.729 385.753 169.71 385.41L167.92 371.58H175.28L173.5 385.41C173.479 385.751 173.34 386.073 173.106 386.322C172.872 386.57 172.559 386.729 172.22 386.77Z" fill="#0E98D5"/>
<path opacity="0.7" d="M172.22 386.77H171C170.659 386.733 170.342 386.576 170.106 386.327C169.869 386.078 169.729 385.753 169.71 385.41L167.92 371.58H175.28L173.5 385.41C173.479 385.751 173.34 386.073 173.106 386.322C172.872 386.57 172.559 386.729 172.22 386.77Z" fill="white"/>
<path d="M119.68 386.77H118.35C117.989 386.749 117.648 386.6 117.386 386.351C117.125 386.103 116.959 385.769 116.92 385.41L114.92 371.58H123.03L121.03 385.41C120.995 385.757 120.842 386.082 120.596 386.33C120.35 386.577 120.027 386.733 119.68 386.77Z" fill="#0E98D5"/>
<path opacity="0.5" d="M119.68 386.77H118.35C117.989 386.749 117.648 386.6 117.386 386.351C117.125 386.103 116.959 385.769 116.92 385.41L114.92 371.58H123.03L121.03 385.41C120.995 385.757 120.842 386.082 120.596 386.33C120.35 386.577 120.027 386.733 119.68 386.77Z" fill="white"/>
<path d="M163.71 338.25H199.27L201.62 304L202.12 296.64L202.36 293.25C202.421 292.361 202.535 291.476 202.7 290.6C202.7 290.41 202.79 290.21 202.83 290.02C202.851 289.873 202.888 289.729 202.94 289.59C203.898 286.099 205.765 282.925 208.35 280.39C211.33 277.445 215.27 275.67 219.45 275.39H186C185.63 275.39 185.27 275.39 184.9 275.39C180.363 275.413 176.013 277.207 172.78 280.39C170.195 282.925 168.328 286.099 167.37 289.59C167.318 289.729 167.281 289.873 167.26 290.02C167.025 291.084 166.868 292.163 166.79 293.25L166.56 296.64L163.71 338.25Z" fill="#0E98D5"/>
<path opacity="0.1" d="M163.71 338.25H199.27L201.62 304L202.12 296.64L202.36 293.25C202.421 292.361 202.535 291.476 202.7 290.6C202.7 290.41 202.79 290.21 202.83 290.02C202.851 289.873 202.888 289.729 202.94 289.59C203.898 286.099 205.765 282.925 208.35 280.39C211.33 277.445 215.27 275.67 219.45 275.39H186C185.63 275.39 185.27 275.39 184.9 275.39C180.363 275.413 176.013 277.207 172.78 280.39C170.195 282.925 168.328 286.099 167.37 289.59C167.318 289.729 167.281 289.873 167.26 290.02C167.025 291.084 166.868 292.163 166.79 293.25L166.56 296.64L163.71 338.25Z" fill="black"/>
<g opacity="0.1">
<path d="M135.53 320H121.24C117.77 320 114.96 322.2 114.96 324.91V333.36C114.96 336.07 117.77 338.27 121.24 338.27H135.53V320Z" fill="black"/>
</g>
<path d="M193.84 319.99H130.94C127.947 319.99 125.52 322.417 125.52 325.41V332.84C125.52 335.834 127.947 338.26 130.94 338.26H193.84C196.833 338.26 199.26 335.834 199.26 332.84V325.41C199.26 322.417 196.833 319.99 193.84 319.99Z" fill="#0E98D5"/>
<path d="M45.5 295.57C45.4916 300.352 47.1743 304.982 50.2506 308.642C53.327 312.302 57.5986 314.756 62.31 315.57L66 364.26C66.32 368.4 69.32 371.58 72.92 371.58H112.15C108.55 371.58 105.55 368.4 105.23 364.26L103.23 338.26L101.51 315.55C98.4322 315.012 95.5207 313.768 93.0035 311.917C90.4862 310.066 88.4315 307.658 87 304.88C86.81 304.52 86.64 304.15 86.48 303.78C85.3199 301.199 84.7233 298.4 84.73 295.57C84.7304 294.179 84.8745 292.792 85.16 291.43C85.27 290.89 85.41 290.35 85.55 289.83C86.2676 287.446 87.4092 285.21 88.92 283.23C90.789 280.804 93.1819 278.832 95.92 277.46C98.7126 276.056 101.794 275.323 104.92 275.32H65.76C63.7256 275.319 61.7027 275.626 59.76 276.23C55.7593 277.464 52.2406 279.91 49.69 283.23C46.9691 286.768 45.4958 291.107 45.5 295.57Z" fill="#0E98D5"/>
<path opacity="0.1" d="M45.5 295.57C45.4916 300.352 47.1743 304.982 50.2506 308.642C53.327 312.302 57.5986 314.756 62.31 315.57L66 364.26C66.32 368.4 69.32 371.58 72.92 371.58H112.15C108.55 371.58 105.55 368.4 105.23 364.26L103.23 338.26L101.51 315.55C98.4322 315.012 95.5207 313.768 93.0035 311.917C90.4862 310.066 88.4315 307.658 87 304.88C86.81 304.52 86.64 304.15 86.48 303.78C85.3199 301.199 84.7233 298.4 84.73 295.57C84.7304 294.179 84.8745 292.792 85.16 291.43C85.27 290.89 85.41 290.35 85.55 289.83C86.2676 287.446 87.4092 285.21 88.92 283.23C90.789 280.804 93.1819 278.832 95.92 277.46C98.7126 276.056 101.794 275.323 104.92 275.32H65.76C63.7256 275.319 61.7027 275.626 59.76 276.23C55.7593 277.464 52.2406 279.91 49.69 283.23C46.9691 286.768 45.4958 291.107 45.5 295.57Z" fill="black"/>
<path d="M84.72 295.57C84.72 305.57 91.31 313.91 99.96 315.57L103.3 364.3C103.59 368.45 106.3 371.62 109.58 371.62H214.32C217.58 371.62 220.32 368.45 220.6 364.3L223.95 315.5C232.42 313.72 238.83 305.5 238.83 295.61C238.853 291.463 237.68 287.397 235.45 283.9C233.756 281.235 231.426 279.032 228.67 277.49C226.164 276.089 223.341 275.353 220.47 275.35C215.932 275.371 211.582 277.165 208.35 280.35C205.764 282.885 203.894 286.059 202.93 289.55C202.886 289.691 202.853 289.835 202.83 289.98C202.59 291.043 202.433 292.123 202.36 293.21L202.12 296.6L199.27 338.24H124.63L121.54 293.24C121.09 286.88 118 281.58 113.7 279.07C110.978 276.903 107.661 275.616 104.19 275.38C103.82 275.38 103.46 275.38 103.09 275.38C100.298 275.365 97.5465 276.052 95.09 277.38C95.0097 277.408 94.9326 277.445 94.86 277.49C92.3302 278.907 90.1554 280.88 88.5 283.26C86.0154 286.883 84.6966 291.178 84.72 295.57Z" fill="#0E98D5"/>
<path opacity="0.1" d="M126.35 371.58H214.35C217.61 371.58 220.35 368.41 220.63 364.26L223.98 315.46C232.45 313.68 238.86 305.46 238.86 295.57C238.883 291.423 237.709 287.357 235.48 283.86C233.786 281.195 231.456 278.992 228.7 277.45C226.194 276.049 223.371 275.313 220.5 275.31C215.962 275.331 211.612 277.125 208.38 280.31C205.793 282.845 203.923 286.019 202.96 289.51C202.916 289.651 202.883 289.794 202.86 289.94C202.62 291.003 202.463 292.083 202.39 293.17L202.15 296.56L199.3 338.2H124.63L126.35 371.58Z" fill="white"/>
<path d="M153.13 388.79L161.66 391.15L169.32 371.1L160.79 368.74L153.13 388.79Z" fill="#FFC3BD"/>
<path d="M165.48 388.49C164.807 387.618 163.834 387.026 162.75 386.83L154 385.12C153.796 385.061 153.576 385.084 153.389 385.185C153.202 385.286 153.062 385.457 153 385.66L150.29 393.66C150.212 393.877 150.178 394.108 150.19 394.338C150.202 394.569 150.259 394.794 150.359 395.003C150.458 395.211 150.598 395.397 150.77 395.551C150.942 395.705 151.142 395.824 151.36 395.9H151.42C154.66 397.18 156.85 396.74 161.91 397.72C165.04 398.32 171.59 400.4 175.97 400.22C180.35 400.04 180.34 395.71 178.5 395.39C172 394.39 167 390.47 165.48 388.49Z" fill="#263238"/>
<g opacity="0.2">
<path d="M169.32 371.11L165.37 381.45L156.84 379.07L160.78 368.74L169.32 371.11Z" fill="black"/>
</g>
<path d="M140.85 295C140.85 295 192.21 294.72 190.61 311.92C189.53 323.54 183.95 335.75 179.61 347.54C173.3 364.63 167.83 379.54 167.83 379.54L156.13 375.49C156.13 375.49 166.64 326.07 173.72 321.01H130.29C115.92 321.01 109.71 305.23 123.7 286.83C132.25 286.86 140.85 295 140.85 295Z" fill="#0E98D5"/>
<path opacity="0.6" d="M140.85 295C140.85 295 192.21 294.72 190.61 311.92C191.4 322.61 167.82 379.52 167.82 379.52L156.12 375.47C156.12 375.47 166.63 326.05 173.71 320.99H130.29C115.92 320.99 109.71 305.21 123.7 286.81C132.25 286.86 140.85 295 140.85 295Z" fill="black"/>
<path d="M177.07 263.77C170.75 269.54 158.34 255.88 156.34 254.26C152.06 250.76 139.48 239.02 140.14 234.94C142.14 222.94 161.82 239.94 167.51 251.66L177.07 263.77Z" fill="#263238"/>
<path d="M121.76 227.66C118.59 228.33 115.16 227.19 112.93 229.54C110.7 231.89 109.77 235.19 109.45 238.41C109.169 242.909 109.403 247.425 110.15 251.87C110.817 257.29 111.514 262.707 112.24 268.12C112.691 272.579 112.519 277.079 111.73 281.49C111.647 281.959 111.722 282.442 111.942 282.864C112.163 283.285 112.518 283.622 112.95 283.82C112.95 283.82 137.54 284.66 144.69 284.39C148.49 284.25 145.88 274.25 147.05 268.39C147.31 267.09 149.85 261.75 150.23 260.39C151.99 253.94 150.82 249.5 149.23 243.02C148.04 238.31 147.55 231.52 145.15 231.02C140.83 230.13 130.58 225.78 121.76 227.66Z" fill="#0E98D5"/>
<path opacity="0.8" d="M121.76 227.66C118.59 228.33 115.16 227.19 112.93 229.54C110.7 231.89 109.77 235.19 109.45 238.41C109.169 242.909 109.403 247.425 110.15 251.87C110.817 257.29 111.514 262.707 112.24 268.12C112.691 272.579 112.519 277.079 111.73 281.49C111.647 281.959 111.722 282.442 111.942 282.864C112.163 283.285 112.518 283.622 112.95 283.82C112.95 283.82 137.54 284.66 144.69 284.39C148.49 284.25 145.88 274.25 147.05 268.39C147.31 267.09 149.85 261.75 150.23 260.39C151.99 253.94 150.82 249.5 149.23 243.02C148.04 238.31 147.55 231.52 145.15 231.02C140.83 230.13 130.58 225.78 121.76 227.66Z" fill="white"/>
<path d="M118.25 232.28C117.92 231.78 109.25 224.5 107.7 232.91C105.51 244.62 110.04 256.14 110.04 256.14C110.04 256.14 111.04 268.81 114.76 270.08C118.48 271.35 121.94 271.66 123.18 269.49C123.982 267.799 124.405 265.952 124.42 264.08C124.42 264.08 124 241 118.25 232.28Z" fill="#263238"/>
<path d="M124.24 211.59C125.13 216.98 125.88 226.83 122.03 230.3C122.03 230.3 131.44 235.23 137.62 243.83C138.992 242.806 140.007 241.376 140.521 239.742C141.034 238.109 141.02 236.355 140.48 234.73C140.17 233.705 139.656 232.753 138.969 231.931C138.281 231.11 137.435 230.436 136.48 229.95C132.83 227.95 133.18 224.17 134.18 220.63L124.24 211.59Z" fill="#E8BFBF"/>
<path opacity="0.2" d="M125.47 220.74L128.98 222.09C130.483 222.671 132.091 222.93 133.7 222.85C133.45 223.949 133.45 225.091 133.7 226.19C132.442 226.534 131.111 226.506 129.868 226.108C128.625 225.711 127.525 224.961 126.7 223.95C126.133 222.947 125.718 221.865 125.47 220.74Z" fill="black"/>
<path d="M212.6 371.55H222.16L212.15 347.58L205.67 358.58L212.6 371.55Z" fill="#FFC3BD"/>
<path d="M221.37 369.28L210.16 366.73C209.968 366.682 209.765 366.708 209.591 366.802C209.417 366.897 209.284 367.053 209.22 367.24L206.09 375.86C206.028 376.078 206.008 376.305 206.034 376.53C206.059 376.755 206.129 376.972 206.238 377.17C206.348 377.368 206.496 377.542 206.673 377.683C206.85 377.824 207.053 377.928 207.27 377.99C211.2 378.81 213.13 378.99 218.06 380.12C221.06 380.81 228.78 382.83 232.97 383.78C237.16 384.73 238.26 380.63 236.59 379.85C229.11 376.39 225.06 373.08 222.89 370.26C222.511 369.769 221.974 369.423 221.37 369.28Z" fill="#263238"/>
<g opacity="0.2">
<path d="M212.15 347.58L216.41 357.79L207.81 362.59L205.67 358.59L212.15 347.58Z" fill="black"/>
</g>
<path d="M111.54 283.93L110.54 287.19C110.41 287.44 110.7 287.7 111.12 287.72L148.12 288.84C148.46 288.84 148.73 288.7 148.76 288.49L149.19 285.21C149.19 284.99 148.93 284.79 148.58 284.77L112.18 283.67C112.06 283.651 111.937 283.666 111.824 283.711C111.711 283.757 111.613 283.833 111.54 283.93Z" fill="#263238"/>
<path d="M157.82 310.68C145.65 315.87 132.45 321.05 125.27 321.05C110.89 321.05 98.1203 310.67 111.73 287.05C120.29 287.05 135.16 287.29 135.16 287.29C135.16 287.29 163.16 279.29 183.54 281.65C188.37 282.214 192.896 284.294 196.47 287.591C200.043 290.887 202.48 295.232 203.43 300C208.59 326 216.54 354.12 216.54 354.12L206.31 361.12C206.31 361.12 190.36 327.59 181.18 301C176.32 302.53 167.39 306.6 157.82 310.68Z" fill="#0E98D5"/>
<path opacity="0.5" d="M203.43 300C202.484 295.228 200.048 290.879 196.475 287.579C192.901 284.278 188.372 282.195 183.54 281.63C163.2 279.31 135.16 287.27 135.16 287.27C135.16 287.27 120.29 287 111.73 287.03C97.9001 310.55 110.89 321.03 125.27 321.03C132.45 321.03 145.65 315.85 157.82 310.66C167.39 306.58 176.32 302.51 181.18 300.95C190.36 327.57 206.31 361.11 206.31 361.11L216.54 354.11C216.54 354.11 208.59 326 203.43 300Z" fill="black"/>
<path d="M190.61 312C190.285 315.341 189.784 318.662 189.11 321.95C189.06 321.84 189.02 321.74 188.98 321.63C188.94 321.52 188.98 321.58 188.98 321.55C188.947 321.44 188.904 321.332 188.85 321.23C186.13 314.47 183.47 307.54 181.22 301.01H181.29C187.11 303.48 191.08 307 190.61 312Z" fill="#0E98D5"/>
<path opacity="0.6" d="M190.61 312C190.285 315.341 189.784 318.662 189.11 321.95C189.06 321.84 189.02 321.74 188.98 321.63C188.94 321.52 188.98 321.58 188.98 321.55C188.947 321.44 188.904 321.332 188.85 321.23C186.13 314.47 183.47 307.54 181.22 301.01H181.29C187.11 303.48 191.08 307 190.61 312Z" fill="black"/>
<path d="M117.68 206.41C120.68 214.86 121.78 218.5 127.4 221.67C135.87 226.45 145.57 220.89 145.15 211.67C144.77 203.42 139.92 190.98 130.52 189.98C128.446 189.747 126.347 190.048 124.423 190.855C122.498 191.662 120.812 192.948 119.525 194.591C118.238 196.234 117.393 198.179 117.07 200.24C116.747 202.302 116.957 204.412 117.68 206.37V206.41Z" fill="#E8BFBF"/>
<path d="M132.87 205.31C133.08 206.04 133.61 206.47 134.07 206.31C134.53 206.15 134.71 205.51 134.53 204.8C134.35 204.09 133.8 203.64 133.33 203.8C132.86 203.96 132.67 204.61 132.87 205.31Z" fill="#263238"/>
<path d="M140.72 202.83C140.93 203.57 141.46 204 141.92 203.83C142.38 203.66 142.56 203.03 142.38 202.32C142.2 201.61 141.64 201.16 141.19 201.32C140.74 201.48 140.52 202.14 140.72 202.83Z" fill="#263238"/>
<path d="M141 201.43L142.54 200.43C142.54 200.43 142.05 202 141 201.43Z" fill="#263238"/>
<path d="M137.91 204.43C138.992 205.851 140.264 207.116 141.69 208.19C141.404 208.544 141.043 208.831 140.633 209.029C140.224 209.228 139.775 209.334 139.32 209.34L137.91 204.43Z" fill="#ED847E"/>
<path d="M112.16 212C112.774 213.522 113.24 215.099 113.55 216.71C113.635 218.331 113.114 219.925 112.088 221.182C111.062 222.439 109.605 223.269 108 223.51C109.397 223.883 110.88 223.761 112.198 223.165C113.516 222.569 114.587 221.536 115.23 220.24C114.466 222.276 112.952 223.943 111 224.9C112.396 224.916 113.776 224.609 115.033 224.003C116.291 223.398 117.391 222.511 118.25 221.41C117.78 222.63 117.25 223.84 116.83 225.06C119.204 223.622 121.154 221.579 122.48 219.14C123.01 218.14 123.41 216.84 122.71 215.96C122.01 215.08 120.9 215.14 119.88 215.12C118.86 215.1 117.63 214.86 117.26 213.91C116.89 212.96 117.57 212.01 118.31 211.36C119.05 210.71 119.94 210.11 120.21 209.16C120.338 208.473 120.29 207.764 120.07 207.1C119.61 205.26 119.157 203.417 118.71 201.57C118.589 200.918 118.355 200.293 118.02 199.72C116.02 196.72 113.79 201.12 113.02 202.61C111.579 205.525 111.272 208.872 112.16 212Z" fill="#263238"/>
<path d="M117.09 214.69C118.222 216.162 119.89 217.129 121.73 217.38C124.18 217.68 125.04 215.38 124.06 213.29C123.17 211.37 120.83 208.92 118.52 209.57C116.21 210.22 115.71 212.85 117.09 214.69Z" fill="#E8BFBF"/>
<path d="M133 199.27C132.984 199.363 132.94 199.45 132.874 199.517C132.808 199.585 132.723 199.631 132.63 199.65C130.63 200.03 129.47 202.44 129.47 202.46C129.42 202.569 129.329 202.654 129.217 202.697C129.105 202.74 128.98 202.738 128.87 202.69C128.764 202.64 128.681 202.55 128.64 202.44C128.599 202.33 128.602 202.208 128.65 202.1C128.74 202.01 129.98 199.24 132.46 198.76C132.576 198.742 132.695 198.77 132.792 198.837C132.888 198.904 132.956 199.005 132.98 199.12C133.001 199.167 133.008 199.219 133 199.27Z" fill="#263238"/>
<path d="M138.34 197.27C138.273 197.26 138.205 197.263 138.139 197.28C138.074 197.298 138.013 197.328 137.96 197.37C137.85 197.49 137.48 197.7 137.69 197.81C138.91 198.43 140.6 199.45 141.9 199.24C142.12 199.24 142.64 199.01 142.53 198.85C142.455 198.769 142.36 198.709 142.255 198.676C142.15 198.643 142.038 198.637 141.93 198.66C140.93 198.8 139.52 197.83 138.56 197.33C138.489 197.301 138.415 197.281 138.34 197.27Z" fill="#263238"/>
<path d="M133.14 203.9L134.69 202.9C134.69 202.9 134.2 204.49 133.14 203.9Z" fill="#263238"/>
<path d="M133 186.28C129.59 185.66 129.15 185.43 125.69 185.65C122.195 185.76 118.816 186.928 116 189C113.369 191.175 111.513 194.143 110.71 197.46C109.924 200.766 109.835 204.199 110.45 207.54C110.56 209.137 111.25 210.637 112.39 211.76C112.506 209.963 112.811 208.184 113.3 206.45C113.81 204.701 114.86 203.157 116.3 202.04C116.935 201.697 117.483 201.211 117.9 200.62C118.116 200.037 118.238 199.422 118.26 198.8C118.573 197.4 119.411 196.173 120.6 195.37C121.781 194.586 123.045 193.936 124.37 193.43C128.58 191.62 133.17 190.58 137.05 188.14C135.78 187.358 134.42 186.734 133 186.28Z" fill="#263238"/>
<path d="M115.55 199.66C116.466 200.772 117.719 201.555 119.12 201.89C120.78 202.27 124.93 202.17 125.18 201.74C125.43 201.31 123.95 196.65 122.27 196.37C123.429 197.489 124.813 198.348 126.33 198.89C128.046 199.233 129.814 199.233 131.53 198.89C132.41 198.69 130.44 195.05 129.01 194.01C133.32 194.91 137.88 195.94 141.01 199.01C144.14 202.08 145.49 206.94 145.33 211.47C146.063 210.879 146.653 210.129 147.053 209.277C147.453 208.424 147.654 207.492 147.64 206.55C148.395 208.893 148.672 211.363 148.453 213.814C148.235 216.265 147.527 218.648 146.37 220.82C150.95 217.06 152.66 210.49 151.46 204.69C150.26 198.89 146.46 193.84 141.85 190.13C137.85 186.96 133.09 184.59 128.02 184.47C121.37 184.27 109.05 191.83 115.55 199.66Z" fill="#263238"/>
<path d="M120.94 226.4C120.94 226.07 121.02 225.63 121.06 225.17C121.147 224.114 120.84 223.063 120.197 222.221C119.554 221.378 118.622 220.804 117.58 220.61C117.271 220.555 116.982 220.418 116.743 220.214C116.504 220.01 116.323 219.747 116.22 219.45C115.45 217.21 115.15 216.53 114.41 214.33C112.41 213.84 110 214.59 107.91 214.81C107.331 217.32 107.29 219.923 107.79 222.45C107.87 223.015 108.09 223.551 108.43 224.01C110.328 225.565 112.427 226.857 114.67 227.85C116.47 228.4 119 226.57 120.94 226.4Z" fill="#E8BFBF"/>
<path d="M114.88 227.9C114.88 227.9 109.37 263.45 115.05 268.9C118.38 272.08 121.26 270.32 123.05 268.33C123.706 267.589 124.2 266.718 124.5 265.774C124.799 264.83 124.898 263.834 124.79 262.85L120.92 226.43C120.92 226.43 117.12 224.18 114.88 227.9Z" fill="#E8BFBF"/>
<path d="M174.08 260C176.343 258.026 177.965 255.422 178.74 252.52C178.917 251.497 178.984 250.458 178.94 249.42C178.89 242.98 177.07 231.17 177.07 231.17L171.84 229.44C171.84 229.44 170.21 238.44 169.84 243.36C169.77 244.36 169.66 245.47 169.54 246.68C169.31 248.88 169.03 251.3 168.78 253.31L174.08 260Z" fill="#E8BFBF"/>
<path d="M177.07 263.77C178.68 262.3 178.95 260.52 179.78 256.77C180.57 253.19 179.68 248.77 178.94 249.44C178.847 249.525 178.779 249.631 178.74 249.75C177.47 252.75 172.53 250.12 171.13 248.62C170.527 248.047 169.996 247.402 169.55 246.7C169.366 246.432 169.268 246.115 169.268 245.79C169.268 245.465 169.366 245.148 169.55 244.88C168.03 244.25 166.81 250.23 167.55 251.7L167.93 252.81C168.532 254.611 169.461 256.286 170.67 257.75L173.42 261.06L177.07 263.77Z" fill="#263238"/>
<path d="M171.7 230.19L171.08 221.05C172.698 221.82 174.369 222.472 176.08 223C178.62 223.87 182.08 222.34 181.28 224C180.005 226.47 178.582 228.861 177.02 231.16L171.7 230.19Z" fill="#E8BFBF"/>
<path d="M171.08 221.05L175 211.9L180.12 215.03C181.53 218.09 181.36 224.03 181.36 224.03C181.36 224.03 174.24 224.31 171.08 221.05Z" fill="#E8BFBF"/>
<path d="M137.31 214C137.44 214.65 137.91 215.11 138.31 215C138.71 214.89 138.96 214.31 138.82 213.66C138.68 213.01 138.22 212.55 137.82 212.66C137.42 212.77 137.17 213.39 137.31 214Z" fill="#263238"/>
<path d="M124.63 338.25L121.54 293.25C121.09 286.89 118 281.59 113.7 279.08C110.978 276.914 107.661 275.627 104.19 275.39C103.82 275.39 103.46 275.39 103.09 275.39C100.298 275.375 97.5465 276.063 95.09 277.39C95.0097 277.419 94.9326 277.456 94.86 277.5C92.3302 278.917 90.1554 280.89 88.5 283.27C86.0025 286.899 84.6763 291.205 84.7 295.61C84.7 305.61 91.29 313.95 99.94 315.61L103.28 364.34C103.57 368.49 106.28 371.66 109.56 371.66H126.33L124.63 338.25Z" fill="#0E98D5"/>
<path opacity="0.1" d="M124.63 338.25L121.54 293.25C121.09 286.89 118 281.59 113.7 279.08C110.978 276.914 107.661 275.627 104.19 275.39C103.82 275.39 103.46 275.39 103.09 275.39C100.298 275.375 97.5465 276.063 95.09 277.39C95.0097 277.419 94.9326 277.456 94.86 277.5C92.3302 278.917 90.1554 280.89 88.5 283.27C86.0025 286.899 84.6763 291.205 84.7 295.61C84.7 305.61 91.29 313.95 99.94 315.61L103.28 364.34C103.57 368.49 106.28 371.66 109.56 371.66H126.33L124.63 338.25Z" fill="white"/>
<path d="M244.16 420.47C262.684 420.47 277.7 416.629 277.7 411.89C277.7 407.151 262.684 403.31 244.16 403.31C225.636 403.31 210.62 407.151 210.62 411.89C210.62 416.629 225.636 420.47 244.16 420.47Z" fill="#263238"/>
<path opacity="0.3" d="M244.16 417.61C262.684 417.61 277.7 414.409 277.7 410.46C277.7 406.511 262.684 403.31 244.16 403.31C225.636 403.31 210.62 406.511 210.62 410.46C210.62 414.409 225.636 417.61 244.16 417.61Z" fill="white"/>
<path d="M246.93 410.45H241.39L234.99 341.43H253.33L246.93 410.45Z" fill="#263238"/>
<path d="M253.33 341.43C253.33 343.43 249.23 345.07 244.16 345.07C239.09 345.07 234.99 343.44 234.99 341.43C234.99 339.42 239.1 337.79 244.16 337.79C249.22 337.79 253.33 339.42 253.33 341.43Z" fill="#263238"/>
<path opacity="0.7" d="M253.33 341.43C253.33 343.43 249.23 345.07 244.16 345.07C239.09 345.07 234.99 343.44 234.99 341.43C234.99 339.42 239.1 337.79 244.16 337.79C249.22 337.79 253.33 339.42 253.33 341.43Z" fill="white"/>
<path opacity="0.7" d="M132 342.51C132.025 342.097 132.133 341.693 132.316 341.322C132.5 340.951 132.756 340.62 133.07 340.35C140.82 348.15 189.99 354.16 249.49 354.16C308.99 354.16 358.16 348.16 365.92 340.35C366.234 340.62 366.49 340.951 366.674 341.322C366.857 341.693 366.965 342.097 366.99 342.51C366.99 351.32 314.38 358.51 249.49 358.51C184.6 358.51 132 351.32 132 342.51Z" fill="white"/>
<path opacity="0.7" d="M133.11 344.5C140.86 336.7 190.03 330.7 249.53 330.7C309.03 330.7 358.2 336.7 365.96 344.5C358.2 352.3 309.03 358.31 249.53 358.31C190.03 358.31 140.86 352.3 133.11 344.5Z" fill="white"/>
<path opacity="0.7" d="M132 342.2C132 333.38 184.6 326.2 249.49 326.2C314.38 326.2 366.99 333.34 366.99 342.2C366.966 342.612 366.859 343.015 366.675 343.385C366.491 343.754 366.234 344.082 365.92 344.35C358.16 336.55 308.99 330.55 249.49 330.55C189.99 330.55 140.82 336.55 133.07 344.35C132.756 344.082 132.499 343.754 132.315 343.385C132.131 343.015 132.024 342.612 132 342.2Z" fill="white"/>
<path d="M294.85 334.43L245.69 333.5C245.557 333.487 245.429 333.447 245.312 333.383C245.195 333.319 245.092 333.232 245.009 333.128C244.926 333.023 244.865 332.903 244.829 332.775C244.793 332.647 244.783 332.513 244.8 332.38C244.789 332.247 244.805 332.114 244.846 331.987C244.888 331.86 244.955 331.743 245.042 331.642C245.13 331.542 245.237 331.459 245.356 331.401C245.476 331.342 245.607 331.308 245.74 331.3L294.9 332.23C295.033 332.243 295.163 332.282 295.281 332.345C295.399 332.409 295.503 332.495 295.587 332.6C295.671 332.704 295.733 332.824 295.77 332.953C295.806 333.082 295.817 333.217 295.8 333.35C295.811 333.484 295.795 333.619 295.752 333.746C295.71 333.873 295.643 333.991 295.554 334.092C295.465 334.193 295.357 334.275 295.236 334.333C295.115 334.391 294.984 334.424 294.85 334.43Z" fill="#263238"/>
<path opacity="0.2" d="M294.85 334.43L245.69 333.5C245.557 333.487 245.429 333.447 245.312 333.383C245.195 333.319 245.092 333.232 245.009 333.128C244.926 333.023 244.865 332.903 244.829 332.775C244.793 332.647 244.783 332.513 244.8 332.38C244.789 332.247 244.805 332.114 244.846 331.987C244.888 331.86 244.955 331.743 245.042 331.642C245.13 331.542 245.237 331.459 245.356 331.401C245.476 331.342 245.607 331.308 245.74 331.3L294.9 332.23C295.033 332.243 295.163 332.282 295.281 332.345C295.399 332.409 295.503 332.495 295.587 332.6C295.671 332.704 295.733 332.824 295.77 332.953C295.806 333.082 295.817 333.217 295.8 333.35C295.811 333.484 295.795 333.619 295.752 333.746C295.71 333.873 295.643 333.991 295.554 334.092C295.465 334.193 295.357 334.275 295.236 334.333C295.115 334.391 294.984 334.424 294.85 334.43Z" fill="white"/>
<path d="M318.72 330.84L295.22 334.39C294.963 334.39 294.716 334.292 294.53 334.115C294.344 333.938 294.233 333.697 294.22 333.44C294.179 333.171 294.239 332.897 294.389 332.67C294.538 332.442 294.767 332.279 295.03 332.21L318.53 328.66C318.787 328.66 319.034 328.758 319.22 328.935C319.406 329.112 319.517 329.354 319.53 329.61C319.571 329.879 319.511 330.154 319.361 330.381C319.212 330.608 318.983 330.772 318.72 330.84Z" fill="#263238"/>
<path d="M318.51 328.66H268.83L245.74 331.3L293.56 332.2L318.51 328.66Z" fill="#263238"/>
<path opacity="0.6" d="M318.51 328.66H268.83L245.74 331.3L293.56 332.2L318.51 328.66Z" fill="white"/>
<path opacity="0.5" d="M318.72 330.84L295.22 334.39C294.963 334.39 294.716 334.292 294.53 334.115C294.344 333.938 294.233 333.697 294.22 333.44C294.179 333.171 294.239 332.897 294.389 332.67C294.538 332.442 294.767 332.279 295.03 332.21L318.53 328.66C318.787 328.66 319.034 328.758 319.22 328.935C319.406 329.112 319.517 329.354 319.53 329.61C319.571 329.879 319.511 330.154 319.361 330.381C319.212 330.608 318.983 330.772 318.72 330.84Z" fill="white"/>
<path d="M293.56 332.2L247.72 331.34C246.856 331.23 246.062 330.807 245.489 330.151C244.916 329.495 244.603 328.651 244.61 327.78L243.23 300.1C243.13 298.17 244.38 296.62 245.99 296.65L291.83 297.52C292.696 297.626 293.493 298.048 294.067 298.705C294.64 299.362 294.952 300.208 294.94 301.08L296.33 328.75C296.42 330.68 295.18 332.23 293.56 332.2Z" fill="#0E98D5"/>
<path opacity="0.2" d="M293.56 332.2L247.72 331.34C246.856 331.23 246.062 330.807 245.489 330.151C244.916 329.495 244.603 328.651 244.61 327.78L243.23 300.1C243.13 298.17 244.38 296.62 245.99 296.65L291.83 297.52C292.696 297.626 293.493 298.048 294.067 298.705C294.64 299.362 294.952 300.208 294.94 301.08L296.33 328.75C296.42 330.68 295.18 332.23 293.56 332.2Z" fill="white"/>
<path d="M292.22 332.06L246.38 331.19C245.514 331.082 244.718 330.66 244.143 330.004C243.568 329.348 243.253 328.503 243.26 327.63L241.88 300C241.78 298.07 243.03 296.52 244.65 296.55L290.48 297.41C291.346 297.518 292.142 297.94 292.718 298.597C293.293 299.253 293.607 300.098 293.6 300.97L295 328.61C295.08 330.54 293.83 332.09 292.22 332.06Z" fill="#0E98D5"/>
<path opacity="0.6" d="M292.22 332.06L246.38 331.19C245.514 331.082 244.718 330.66 244.143 330.004C243.568 329.348 243.253 328.503 243.26 327.63L241.88 300C241.78 298.07 243.03 296.52 244.65 296.55L290.48 297.41C291.346 297.518 292.142 297.94 292.718 298.597C293.293 299.253 293.607 300.098 293.6 300.97L295 328.61C295.08 330.54 293.83 332.09 292.22 332.06Z" fill="white"/>
<path d="M262.36 313.83C262.494 315.147 263.107 316.369 264.082 317.265C265.057 318.16 266.326 318.668 267.65 318.69C268.273 318.701 268.89 318.579 269.462 318.333C270.034 318.086 270.547 317.721 270.966 317.262C271.386 316.802 271.704 316.258 271.897 315.667C272.091 315.075 272.157 314.449 272.09 313.83C271.945 312.52 271.328 311.308 270.354 310.419C269.381 309.53 268.118 309.026 266.8 309C266.18 308.99 265.566 309.111 264.996 309.356C264.427 309.6 263.915 309.962 263.496 310.419C263.077 310.875 262.758 311.415 262.563 312.003C262.367 312.591 262.298 313.213 262.36 313.83Z" fill="white"/>
</svg>
