<svg width="500" height="500" viewBox="0 0 500 500" fill="none" xmlns="http://www.w3.org/2000/svg">
<path d="M296.28 470.77L140.28 470.85C134.248 470.853 128.462 468.46 124.194 464.197C119.926 459.935 117.525 454.152 117.52 448.12L117.34 96.7099C117.337 93.3052 118.005 89.9334 119.306 86.7869C120.607 83.6405 122.515 80.7812 124.921 78.3723C127.327 75.9635 130.184 74.0522 133.329 72.7478C136.474 71.4433 139.845 70.7712 143.25 70.7699L296.37 70.6899C302.47 70.6899 308.32 73.1131 312.633 77.4265C316.947 81.7398 319.37 87.59 319.37 93.6899L319.56 447.51C319.555 453.681 317.1 459.597 312.734 463.958C308.369 468.32 302.451 470.77 296.28 470.77Z" fill="#455A64"/>
<path d="M120.69 440L120.51 101.61C120.523 94.2844 123.442 87.2634 128.626 82.0872C133.809 76.911 140.835 74.0026 148.16 73.9999L288.5 73.9199C292.133 73.9173 295.732 74.6305 299.089 76.0187C302.447 77.407 305.498 79.4431 308.068 82.0107C310.639 84.5784 312.678 87.6273 314.07 90.9834C315.462 94.3394 316.179 97.9367 316.18 101.57L316.36 439.96C316.363 443.593 315.65 447.191 314.261 450.549C312.873 453.906 310.837 456.957 308.269 459.528C305.702 462.098 302.653 464.138 299.297 465.53C295.941 466.922 292.343 467.639 288.71 467.64L148.37 467.72C144.732 467.721 141.128 467.005 137.767 465.612C134.405 464.219 131.352 462.176 128.78 459.601C126.209 457.027 124.171 453.97 122.783 450.606C121.395 447.243 120.684 443.639 120.69 440Z" fill="#263238"/>
<path d="M203.83 86.5299C203.233 86.5299 202.661 86.2928 202.239 85.8709C201.817 85.4489 201.58 84.8766 201.58 84.2799C201.58 83.6832 201.817 83.1109 202.239 82.6889C202.661 82.267 203.233 82.0299 203.83 82.0299H232.72C233.027 82.0094 233.336 82.0522 233.626 82.1557C233.916 82.2593 234.182 82.4213 234.407 82.6318C234.632 82.8422 234.811 83.0967 234.934 83.3793C235.057 83.662 235.12 83.9668 235.12 84.2749C235.12 84.583 235.057 84.8878 234.934 85.1705C234.811 85.4531 234.632 85.7076 234.407 85.918C234.182 86.1285 233.916 86.2905 233.626 86.3941C233.336 86.4976 233.027 86.5404 232.72 86.5199L203.83 86.5299Z" fill="#455A64"/>
<path d="M188.34 86.54C187.895 86.542 187.459 86.4117 187.087 86.1657C186.716 85.9197 186.426 85.569 186.254 85.158C186.082 84.7471 186.036 84.2943 186.122 83.8572C186.208 83.4201 186.421 83.0183 186.736 82.7026C187.05 82.3869 187.451 82.1716 187.887 82.084C188.324 81.9964 188.777 82.0404 189.189 82.2104C189.6 82.3804 189.953 82.6687 190.2 83.039C190.448 83.4092 190.58 83.8446 190.58 84.29C190.58 84.885 190.344 85.4558 189.925 85.8775C189.505 86.2992 188.935 86.5374 188.34 86.54Z" fill="#455A64"/>
<path d="M196.61 86.5298C196.165 86.5317 195.729 86.4015 195.357 86.1554C194.986 85.9094 194.696 85.5587 194.524 85.1478C194.352 84.7368 194.306 84.2841 194.392 83.847C194.478 83.4099 194.691 83.008 195.006 82.6923C195.32 82.3767 195.721 82.1614 196.157 82.0738C196.594 81.9861 197.047 82.0301 197.459 82.2001C197.871 82.3701 198.223 82.6585 198.47 83.0287C198.718 83.3989 198.85 83.8343 198.85 84.2798C198.85 84.8748 198.614 85.4456 198.195 85.8672C197.775 86.2889 197.205 86.5271 196.61 86.5298Z" fill="#455A64"/>
<path d="M248.34 86.5C247.894 86.5 247.459 86.3678 247.089 86.1201C246.719 85.8724 246.43 85.5204 246.26 85.1087C246.09 84.697 246.046 84.2441 246.134 83.8074C246.221 83.3706 246.437 82.9697 246.752 82.6555C247.068 82.3412 247.47 82.1277 247.907 82.042C248.344 81.9563 248.797 82.0023 249.208 82.1742C249.619 82.346 249.969 82.6359 250.216 83.0073C250.462 83.3786 250.592 83.8146 250.59 84.26C250.59 84.555 250.532 84.8471 250.418 85.1195C250.305 85.392 250.139 85.6393 249.93 85.8475C249.721 86.0556 249.473 86.2204 249.2 86.3324C248.927 86.4443 248.635 86.5013 248.34 86.5Z" fill="#455A64"/>
<path d="M240.07 86.5098C239.625 86.5098 239.19 86.3778 238.82 86.1306C238.45 85.8833 238.161 85.5319 237.991 85.1208C237.821 84.7097 237.776 84.2573 237.863 83.8208C237.95 83.3844 238.164 82.9834 238.479 82.6688C238.793 82.3541 239.194 82.1398 239.631 82.053C240.067 81.9662 240.52 82.0107 240.931 82.181C241.342 82.3513 241.693 82.6397 241.941 83.0097C242.188 83.3797 242.32 83.8148 242.32 84.2598C242.321 84.5556 242.264 84.8488 242.151 85.1224C242.039 85.396 241.873 85.6445 241.664 85.8537C241.455 86.0629 241.206 86.2286 240.932 86.3412C240.659 86.4538 240.366 86.5111 240.07 86.5098Z" fill="#455A64"/>
<path d="M290 78.5098H262.8C261.517 78.5093 260.269 78.9239 259.241 79.6918C258.214 80.4597 257.463 81.5395 257.1 82.7698L254.88 90.3898C254.479 91.768 253.641 92.9785 252.492 93.8388C251.343 94.6992 249.945 95.1628 248.51 95.1598H188.25C186.815 95.1607 185.419 94.6977 184.269 93.8398C183.119 92.9819 182.278 91.7752 181.87 90.3998L179.64 82.7798C179.278 81.5497 178.527 80.4702 177.499 79.7038C176.471 78.9374 175.222 78.5254 173.94 78.5298H146.72C140.99 78.5192 135.491 80.7844 131.431 84.8274C127.371 88.8704 125.083 94.3602 125.07 100.09L125.25 440.71C125.259 443.546 125.827 446.353 126.921 448.97C128.015 451.588 129.614 453.964 131.626 455.963C133.638 457.962 136.024 459.545 138.649 460.622C141.273 461.699 144.083 462.249 146.92 462.24L290.17 462.17C295.899 462.18 301.399 459.915 305.459 455.872C309.518 451.829 311.807 446.339 311.82 440.61L311.64 99.9998C311.611 94.2833 309.317 88.8114 305.26 84.7832C301.204 80.7551 295.716 78.4991 290 78.5098Z" fill="#FAFAFA"/>
<path d="M319.39 157.63C319.742 157.632 320.079 157.773 320.328 158.022C320.577 158.271 320.718 158.608 320.72 158.96V202.29C320.72 202.641 320.581 202.978 320.334 203.227C320.087 203.476 319.751 203.617 319.4 203.62L319.39 157.63Z" fill="#455A64"/>
<path d="M117.37 186.08C117.007 186.08 116.658 186.224 116.401 186.481C116.144 186.738 116 187.087 116 187.45V213.82C116.003 214.184 116.149 214.533 116.408 214.789C116.666 215.046 117.016 215.19 117.38 215.19L117.37 186.08Z" fill="#455A64"/>
<path d="M117.35 148C117.169 148 116.99 148.036 116.823 148.105C116.657 148.175 116.505 148.277 116.378 148.405C116.25 148.533 116.15 148.685 116.081 148.853C116.013 149.02 115.979 149.199 115.98 149.38V175.74C115.983 176.105 116.129 176.455 116.387 176.713C116.645 176.971 116.995 177.117 117.36 177.12L117.35 148Z" fill="#455A64"/>
<path d="M117.34 119.49C117.024 119.49 116.722 119.615 116.498 119.838C116.275 120.061 116.15 120.364 116.15 120.68V131.85C116.15 132.006 116.181 132.16 116.241 132.304C116.301 132.447 116.388 132.578 116.499 132.688C116.61 132.797 116.741 132.884 116.885 132.943C117.03 133.002 117.184 133.031 117.34 133.03V119.49Z" fill="#455A64"/>
<path d="M267.72 89.6001H266.33V91.5501H267.72V89.6001Z" fill="white"/>
<path d="M269.98 88.73H268.59V91.54H269.98V88.73Z" fill="white"/>
<path d="M272.24 88.0801H270.85V91.5401H272.24V88.0801Z" fill="white"/>
<path d="M274.5 86.8198H273.11V91.5398H274.5V86.8198Z" fill="white"/>
<path d="M295 91.6299H288C287.935 91.6313 287.87 91.6196 287.809 91.5955C287.749 91.5715 287.694 91.5356 287.647 91.49C287.6 91.4444 287.563 91.3899 287.538 91.3298C287.513 91.2697 287.5 91.2051 287.5 91.1399V87.6699C287.5 87.539 287.551 87.4133 287.643 87.3199C287.734 87.2264 287.859 87.1725 287.99 87.1699H294.99C295.024 87.1723 295.055 87.1867 295.079 87.2106C295.103 87.2345 295.118 87.2662 295.12 87.2999V88.4399H295.87C295.887 88.4399 295.903 88.4433 295.918 88.4499C295.934 88.4566 295.947 88.4663 295.959 88.4785C295.97 88.4908 295.979 88.5052 295.984 88.5209C295.989 88.5367 295.991 88.5533 295.99 88.5699V90.2299C295.99 90.2644 295.976 90.2975 295.952 90.3218C295.928 90.3462 295.894 90.3599 295.86 90.3599H295.11V91.4999C295.111 91.5157 295.11 91.5316 295.105 91.5467C295.1 91.5617 295.092 91.5757 295.082 91.5878C295.072 91.5999 295.059 91.6098 295.045 91.6171C295.031 91.6243 295.016 91.6287 295 91.6299ZM294.87 87.4199H288C287.936 87.4199 287.875 87.4452 287.83 87.4902C287.785 87.5352 287.76 87.5963 287.76 87.6599V91.1299C287.76 91.1936 287.785 91.2546 287.83 91.2996C287.875 91.3446 287.936 91.3699 288 91.3699H294.84V90.2299C294.84 90.1981 294.853 90.1676 294.875 90.1451C294.898 90.1226 294.928 90.1099 294.96 90.1099H295.71V88.6899H295C294.968 88.6899 294.938 88.6773 294.915 88.6548C294.893 88.6323 294.88 88.6017 294.88 88.5699L294.87 87.4199Z" fill="white"/>
<path d="M288.34 90.8097V87.9997L294.29 87.9897V89.2598V89.5397V90.8097H288.34Z" fill="white"/>
<path d="M281.14 91.3699C281.14 91.269 281.11 91.1704 281.054 91.0865C280.998 91.0027 280.918 90.9373 280.825 90.8987C280.732 90.8601 280.63 90.85 280.531 90.8697C280.432 90.8893 280.341 90.9379 280.27 91.0092C280.198 91.0806 280.15 91.1714 280.13 91.2704C280.11 91.3693 280.12 91.4718 280.159 91.565C280.198 91.6582 280.263 91.7379 280.347 91.7939C280.431 91.85 280.529 91.8799 280.63 91.8799C280.765 91.8799 280.895 91.8261 280.991 91.7305C281.086 91.6348 281.14 91.5051 281.14 91.3699Z" fill="white"/>
<path d="M278.89 90.1499L279.54 90.7899C279.83 90.5029 280.222 90.3419 280.63 90.3419C281.038 90.3419 281.43 90.5029 281.72 90.7899L282.37 90.1399C281.907 89.6805 281.282 89.4218 280.63 89.4199C280.306 89.4205 279.986 89.4854 279.687 89.6107C279.388 89.736 279.118 89.9193 278.89 90.1499Z" fill="white"/>
<path d="M280.63 88C279.596 88.001 278.604 88.4108 277.87 89.14L278.52 89.79C279.082 89.2343 279.84 88.9226 280.63 88.9226C281.42 88.9226 282.178 89.2343 282.74 89.79L283.39 89.14C283.028 88.7771 282.598 88.4895 282.124 88.2939C281.65 88.0982 281.143 87.9983 280.63 88Z" fill="white"/>
<path d="M276.81 88.0698L277.46 88.7198C277.874 88.2999 278.368 87.9668 278.912 87.7402C279.456 87.5135 280.04 87.3978 280.63 87.3998C281.818 87.4009 282.958 87.8718 283.8 88.7098L284.45 88.0598C283.949 87.5579 283.353 87.1597 282.698 86.8881C282.042 86.6164 281.34 86.4766 280.63 86.4766C279.921 86.4766 279.218 86.6164 278.562 86.8881C277.907 87.1597 277.312 87.5579 276.81 88.0598V88.0698Z" fill="white"/>
<path d="M163.47 173.7C163.448 176.249 162.671 178.735 161.236 180.842C159.802 182.95 157.775 184.584 155.411 185.54C153.048 186.495 150.454 186.728 147.958 186.21C145.462 185.691 143.176 184.444 141.388 182.626C139.601 180.808 138.393 178.501 137.917 175.996C137.441 173.492 137.718 170.902 138.714 168.555C139.71 166.208 141.379 164.209 143.511 162.811C145.642 161.413 148.141 160.678 150.69 160.7C152.383 160.714 154.056 161.062 155.614 161.723C157.173 162.384 158.586 163.346 159.772 164.553C160.959 165.76 161.897 167.189 162.531 168.758C163.165 170.328 163.484 172.007 163.47 173.7Z" fill="#0E98D5"/>
<path d="M227.9 163.77C227.9 163.91 215.9 163.93 201.2 163.77C186.5 163.61 174.49 163.44 174.49 163.29C174.49 163.14 186.49 163.13 201.2 163.29C215.91 163.45 227.91 163.63 227.9 163.77Z" fill="#263238"/>
<path d="M271.49 176C271.49 176.14 249.69 176.08 222.8 175.86C195.91 175.64 174.11 175.34 174.11 175.2C174.11 175.06 195.91 175.12 222.81 175.34C249.71 175.56 271.49 175.85 271.49 176Z" fill="#E0E0E0"/>
<path d="M271.41 185.61C271.41 185.75 249.61 185.69 222.72 185.47C195.83 185.25 174 185 174 184.81C174 184.62 195.79 184.73 222.69 184.95C249.59 185.17 271.41 185.46 271.41 185.61Z" fill="#E0E0E0"/>
<path d="M300.15 161.92C300.15 162.07 295.43 162.14 289.62 162.1C283.81 162.06 279.1 161.89 279.1 161.75C279.1 161.61 283.81 161.53 289.63 161.58C295.45 161.63 300.15 161.78 300.15 161.92Z" fill="#263238"/>
<path d="M292 175.33L292.87 177.13C292.942 177.284 293.051 177.419 293.187 177.522C293.323 177.624 293.482 177.692 293.65 177.72L295.65 178.02C295.855 178.029 296.052 178.1 296.215 178.225C296.378 178.349 296.499 178.521 296.561 178.716C296.623 178.911 296.624 179.121 296.563 179.317C296.502 179.512 296.382 179.685 296.22 179.81L294.77 181.2C294.648 181.319 294.556 181.466 294.502 181.628C294.448 181.789 294.434 181.962 294.46 182.13L294.79 184.13C294.82 184.324 294.795 184.522 294.719 184.703C294.643 184.884 294.518 185.04 294.358 185.154C294.199 185.268 294.011 185.335 293.815 185.349C293.619 185.362 293.424 185.321 293.25 185.23L291.49 184.28C291.336 184.198 291.164 184.155 290.99 184.155C290.815 184.155 290.644 184.198 290.49 184.28L288.71 185.2C288.539 185.313 288.337 185.371 288.131 185.366C287.926 185.36 287.727 185.292 287.562 185.169C287.397 185.047 287.274 184.877 287.209 184.682C287.144 184.487 287.141 184.277 287.2 184.08L287.55 182.08C287.585 181.913 287.577 181.74 287.526 181.577C287.475 181.415 287.383 181.268 287.26 181.15L285.84 179.74C285.699 179.602 285.601 179.428 285.555 179.236C285.509 179.045 285.518 178.844 285.58 178.658C285.643 178.471 285.757 178.306 285.909 178.181C286.061 178.055 286.245 177.976 286.44 177.95L288.44 177.68C288.609 177.66 288.771 177.598 288.909 177.498C289.047 177.398 289.158 177.265 289.23 177.11L290.13 175.33C290.22 175.161 290.355 175.019 290.52 174.92C290.684 174.822 290.873 174.77 291.065 174.77C291.257 174.77 291.445 174.822 291.61 174.92C291.775 175.019 291.909 175.161 292 175.33Z" fill="#0E98D5"/>
<path d="M242.16 163.19C242.156 163.669 242.01 164.135 241.741 164.531C241.472 164.927 241.092 165.234 240.648 165.413C240.204 165.593 239.717 165.637 239.249 165.54C238.78 165.442 238.351 165.208 238.015 164.867C237.679 164.526 237.452 164.093 237.363 163.623C237.273 163.152 237.325 162.666 237.512 162.226C237.699 161.785 238.012 161.409 238.412 161.147C238.813 160.884 239.282 160.746 239.76 160.75C240.078 160.753 240.392 160.818 240.685 160.942C240.977 161.066 241.243 161.246 241.466 161.473C241.688 161.7 241.865 161.968 241.984 162.262C242.103 162.557 242.163 162.872 242.16 163.19Z" fill="#0E98D5"/>
<path d="M310.9 139.84C310.9 139.98 269.25 139.76 217.9 139.34C166.55 138.92 124.9 138.46 124.9 138.34C124.9 138.22 166.54 138.42 217.9 138.84C269.26 139.26 310.91 139.7 310.9 139.84Z" fill="#E0E0E0"/>
<path d="M310.36 206.46C310.36 206.61 268.7 206.38 217.36 205.96C166.02 205.54 124.36 205.08 124.36 204.96C124.36 204.84 166.01 205.04 217.36 205.46C268.71 205.88 310.36 206.32 310.36 206.46Z" fill="#E0E0E0"/>
<path d="M158.606 315.725C163.64 310.691 163.64 302.53 158.606 297.496C153.572 292.462 145.411 292.462 140.377 297.496C135.343 302.53 135.343 310.691 140.377 315.725C145.411 320.759 153.572 320.759 158.606 315.725Z" fill="#0E98D5"/>
<path d="M226.81 296.79C226.81 296.93 214.86 296.95 200.11 296.79C185.36 296.63 173.4 296.46 173.4 296.31C173.4 296.16 185.4 296.15 200.11 296.31C214.82 296.47 226.82 296.65 226.81 296.79Z" fill="#263238"/>
<path d="M270.4 309C270.4 309.14 248.6 309.08 221.71 308.86C194.82 308.64 173.02 308.34 173.02 308.2C173.02 308.06 194.82 308.12 221.72 308.34C248.62 308.56 270.4 308.87 270.4 309Z" fill="#E0E0E0"/>
<path d="M270.32 318.63C270.32 318.77 248.52 318.71 221.63 318.49C194.74 318.27 172.94 317.97 172.95 317.83C172.96 317.69 194.74 317.75 221.64 317.97C248.54 318.19 270.32 318.48 270.32 318.63Z" fill="#E0E0E0"/>
<path d="M299.06 294.94C299.06 295.09 294.35 295.16 288.53 295.12C282.71 295.08 278.01 294.91 278.01 294.77C278.01 294.63 282.72 294.55 288.54 294.6C294.36 294.65 299.06 294.8 299.06 294.94Z" fill="#263238"/>
<path d="M290.9 308.35L291.77 310.15C291.843 310.304 291.951 310.439 292.087 310.541C292.223 310.644 292.382 310.712 292.55 310.74L294.55 311.04C294.755 311.049 294.952 311.12 295.115 311.244C295.278 311.369 295.399 311.54 295.461 311.736C295.523 311.931 295.524 312.141 295.463 312.337C295.402 312.532 295.282 312.705 295.12 312.83L293.67 314.22C293.548 314.339 293.456 314.486 293.402 314.648C293.349 314.809 293.334 314.982 293.36 315.15L293.69 317.15C293.72 317.344 293.696 317.542 293.619 317.723C293.543 317.904 293.418 318.06 293.259 318.174C293.099 318.288 292.911 318.355 292.715 318.369C292.52 318.382 292.324 318.341 292.15 318.25L290.39 317.25C290.236 317.168 290.065 317.125 289.89 317.125C289.716 317.125 289.544 317.168 289.39 317.25L287.61 318.17C287.439 318.283 287.237 318.341 287.032 318.336C286.826 318.33 286.628 318.262 286.463 318.139C286.298 318.017 286.175 317.847 286.11 317.652C286.045 317.457 286.042 317.247 286.1 317.05L286.46 315.05C286.494 314.882 286.484 314.709 286.432 314.546C286.379 314.383 286.286 314.237 286.16 314.12L284.74 312.71C284.6 312.572 284.501 312.397 284.455 312.206C284.409 312.015 284.418 311.814 284.481 311.628C284.543 311.441 284.657 311.276 284.809 311.151C284.961 311.025 285.145 310.946 285.34 310.92L287.34 310.65C287.51 310.63 287.671 310.568 287.809 310.468C287.948 310.368 288.058 310.235 288.13 310.08L289.03 308.3C289.125 308.133 289.264 307.995 289.431 307.9C289.598 307.806 289.788 307.759 289.98 307.764C290.172 307.769 290.359 307.826 290.521 307.93C290.683 308.033 290.814 308.178 290.9 308.35Z" fill="#0E98D5"/>
<path d="M241.03 296.692C241.29 295.381 240.439 294.108 239.128 293.847C237.817 293.587 236.543 294.438 236.283 295.749C236.022 297.06 236.874 298.334 238.185 298.594C239.496 298.855 240.769 298.003 241.03 296.692Z" fill="#0E98D5"/>
<path d="M309.81 272.86C309.81 273 268.16 272.78 216.81 272.36C165.46 271.94 123.81 271.48 123.81 271.36C123.81 271.24 165.45 271.44 216.81 271.86C268.17 272.28 309.82 272.72 309.81 272.86Z" fill="#E0E0E0"/>
<path d="M309.27 339.48C309.27 339.63 268.27 339.36 217.68 338.88C167.09 338.4 126.09 337.88 126.09 337.76C126.09 337.64 167.09 337.88 217.69 338.36C268.29 338.84 309.27 339.34 309.27 339.48Z" fill="#E0E0E0"/>
<path d="M161.35 433.22C161.328 435.769 160.551 438.254 159.117 440.361C157.683 442.469 155.656 444.104 153.293 445.059C150.93 446.015 148.337 446.249 145.841 445.731C143.346 445.213 141.059 443.967 139.272 442.15C137.484 440.333 136.275 438.027 135.798 435.523C135.321 433.019 135.597 430.43 136.591 428.083C137.585 425.736 139.253 423.736 141.383 422.336C143.513 420.937 146.011 420.2 148.56 420.22C151.979 420.249 155.248 421.635 157.646 424.073C160.044 426.51 161.376 429.801 161.35 433.22Z" fill="#E0E0E0"/>
<path d="M225.78 423.3C225.78 423.44 213.78 423.46 199.07 423.3C184.36 423.14 172.37 422.97 172.37 422.82C172.37 422.67 184.37 422.66 199.08 422.82C213.79 422.98 225.78 423.16 225.78 423.3Z" fill="#263238"/>
<path d="M269.36 435.53C269.36 435.67 247.56 435.61 220.68 435.39C193.8 435.17 171.99 434.87 171.99 434.73C171.99 434.59 193.79 434.65 220.68 434.87C247.57 435.09 269.36 435.38 269.36 435.53Z" fill="#E0E0E0"/>
<path d="M269.28 445.13C269.28 445.28 247.48 445.22 220.6 445C193.72 444.78 171.91 444.48 171.91 444.34C171.91 444.2 193.71 444.25 220.6 444.47C247.49 444.69 269.29 445 269.28 445.13Z" fill="#E0E0E0"/>
<path d="M298 421.45C298 421.59 293.29 421.67 287.48 421.62C281.67 421.57 276.95 421.42 276.95 421.28C276.95 421.14 281.67 421.06 287.48 421.1C293.29 421.14 298 421.31 298 421.45Z" fill="#263238"/>
<path d="M240 422.72C239.996 423.198 239.85 423.665 239.581 424.061C239.312 424.457 238.931 424.764 238.488 424.943C238.044 425.123 237.557 425.167 237.088 425.069C236.62 424.972 236.191 424.738 235.855 424.397C235.519 424.056 235.292 423.622 235.203 423.152C235.113 422.682 235.165 422.196 235.352 421.755C235.539 421.315 235.852 420.939 236.252 420.677C236.652 420.414 237.121 420.276 237.6 420.28C237.918 420.282 238.232 420.348 238.525 420.472C238.817 420.596 239.083 420.776 239.305 421.003C239.528 421.229 239.704 421.498 239.824 421.792C239.943 422.087 240.003 422.402 240 422.72Z" fill="#0E98D5"/>
<path d="M311.392 206.475L125.948 204.954L125.402 271.572L310.846 273.093L311.392 206.475Z" fill="#F5F5F5"/>
<path d="M159.535 247.919C164.569 242.885 164.569 234.723 159.535 229.69C154.501 224.656 146.339 224.656 141.306 229.69C136.272 234.723 136.272 242.885 141.306 247.919C146.339 252.953 154.501 252.953 159.535 247.919Z" fill="#455A64"/>
<path d="M227.74 229C227.74 229.15 215.74 229.17 201.04 229.05C186.34 228.93 174.33 228.71 174.33 228.57C174.33 228.43 186.33 228.4 201.04 228.57C215.75 228.74 227.74 228.84 227.74 229Z" fill="#263238"/>
<path d="M271.33 241.21C271.33 241.36 249.53 241.29 222.64 241.07C195.75 240.85 173.95 240.56 173.95 240.41C173.95 240.26 195.75 240.33 222.64 240.55C249.53 240.77 271.33 241.07 271.33 241.21Z" fill="#E0E0E0"/>
<path d="M271.25 250.82C271.25 250.96 249.45 250.9 222.56 250.68C195.67 250.46 173.87 250.17 173.87 250.02C173.87 249.87 195.67 249.94 222.57 250.16C249.47 250.38 271.25 250.68 271.25 250.82Z" fill="#E0E0E0"/>
<path d="M300 227.14C300 227.28 295.28 227.36 289.47 227.31C285.96 227.37 282.449 227.253 278.95 226.96C278.95 226.82 283.66 226.74 289.48 226.79C292.991 226.73 296.502 226.846 300 227.14Z" fill="#263238"/>
<path d="M291.83 240.55C291.83 240.55 291.75 240.44 291.57 240.28C291.443 240.174 291.291 240.101 291.129 240.068C290.967 240.035 290.799 240.042 290.64 240.09C290.416 240.151 290.226 240.299 290.11 240.5C289.98 240.72 289.85 241.02 289.71 241.31L289.25 242.31C289.169 242.52 289.034 242.705 288.858 242.845C288.683 242.986 288.473 243.077 288.25 243.11L286.96 243.31L286.28 243.41C286.089 243.442 285.915 243.542 285.79 243.69C285.659 243.841 285.586 244.035 285.586 244.235C285.586 244.435 285.659 244.629 285.79 244.78L286.93 245.9L287.23 246.19C287.351 246.304 287.449 246.44 287.52 246.59C287.66 246.905 287.685 247.259 287.59 247.59C287.49 248.157 287.39 248.737 287.29 249.33C287.258 249.446 287.253 249.567 287.275 249.685C287.297 249.803 287.345 249.914 287.417 250.01C287.488 250.107 287.58 250.186 287.686 250.241C287.793 250.296 287.91 250.327 288.03 250.33C288.26 250.33 288.47 250.21 288.77 250.06L289.62 249.63C289.91 249.455 290.218 249.314 290.54 249.21C290.723 249.174 290.91 249.175 291.092 249.213C291.274 249.25 291.447 249.324 291.6 249.43L293.2 250.29C293.301 250.339 293.41 250.367 293.522 250.372C293.633 250.377 293.745 250.358 293.849 250.318C293.954 250.278 294.048 250.216 294.128 250.137C294.207 250.058 294.269 249.964 294.31 249.86C294.38 249.629 294.38 249.382 294.31 249.15C294.31 248.87 294.23 248.6 294.18 248.33L294.06 247.52C294 247.203 294.06 246.875 294.23 246.6C294.4 246.382 294.591 246.181 294.8 246L295.35 245.49L295.87 245C296.011 244.873 296.109 244.705 296.15 244.52C296.182 244.344 296.16 244.161 296.084 243.999C296.009 243.836 295.885 243.7 295.73 243.61C295.372 243.494 295.004 243.414 294.63 243.37L293.63 243.19C293.46 243.175 293.294 243.124 293.145 243.042C292.995 242.959 292.864 242.846 292.76 242.71C292.627 242.478 292.51 242.238 292.41 241.99C292.19 241.562 292.012 241.113 291.88 240.65C292.156 241.045 292.397 241.463 292.6 241.9C292.706 242.127 292.827 242.348 292.96 242.56C293.05 242.663 293.161 242.746 293.285 242.805C293.409 242.863 293.543 242.896 293.68 242.9L294.68 243.04C295.096 243.07 295.506 243.154 295.9 243.29C296.072 243.385 296.22 243.519 296.33 243.681C296.441 243.843 296.512 244.029 296.537 244.224C296.563 244.419 296.542 244.617 296.476 244.802C296.411 244.987 296.302 245.155 296.16 245.29L295.64 245.79L295.11 246.32C294.929 246.472 294.765 246.643 294.62 246.83C294.517 247.012 294.481 247.225 294.52 247.43C294.57 247.7 294.61 247.97 294.66 248.24C294.71 248.51 294.75 248.78 294.8 249.06C294.901 249.386 294.901 249.734 294.8 250.06C294.737 250.231 294.638 250.387 294.51 250.517C294.382 250.648 294.228 250.75 294.059 250.817C293.889 250.884 293.707 250.914 293.524 250.906C293.342 250.898 293.163 250.852 293 250.77L291.39 249.91C291.289 249.833 291.172 249.778 291.048 249.749C290.924 249.719 290.795 249.716 290.67 249.74C290.398 249.843 290.134 249.967 289.88 250.11L289.04 250.54L288.61 250.76C288.431 250.841 288.236 250.879 288.04 250.87C287.851 250.861 287.667 250.811 287.499 250.724C287.331 250.637 287.183 250.515 287.067 250.366C286.95 250.217 286.867 250.045 286.823 249.861C286.778 249.677 286.774 249.486 286.81 249.3C286.92 248.71 287.03 248.13 287.13 247.57C287.212 247.347 287.212 247.103 287.13 246.88C287.003 246.664 286.837 246.474 286.64 246.32L285.45 245C285.249 244.766 285.139 244.468 285.139 244.16C285.139 243.852 285.249 243.554 285.45 243.32C285.646 243.104 285.911 242.963 286.2 242.92L286.89 242.83L288.19 242.67C288.36 242.651 288.521 242.586 288.657 242.482C288.793 242.378 288.898 242.239 288.96 242.08L289.45 241.14C289.61 240.85 289.74 240.59 289.9 240.32C290.062 240.082 290.309 239.914 290.59 239.85C290.778 239.805 290.974 239.81 291.159 239.867C291.343 239.923 291.51 240.028 291.64 240.17C291.81 240.4 291.84 240.54 291.83 240.55Z" fill="#263238"/>
<path d="M242 228.41C241.996 228.888 241.85 229.355 241.581 229.751C241.312 230.147 240.931 230.454 240.488 230.633C240.044 230.813 239.557 230.856 239.088 230.759C238.62 230.662 238.191 230.428 237.855 230.087C237.519 229.745 237.292 229.312 237.203 228.842C237.113 228.372 237.165 227.886 237.352 227.445C237.539 227.005 237.852 226.629 238.252 226.367C238.652 226.104 239.121 225.966 239.6 225.97C240.241 225.978 240.853 226.239 241.303 226.696C241.752 227.153 242.003 227.769 242 228.41Z" fill="#0E98D5"/>
<path d="M311.533 339.282L126.089 337.761L125.542 404.379L310.986 405.9L311.533 339.282Z" fill="#F5F5F5"/>
<path d="M159.674 380.721C164.708 375.687 164.708 367.525 159.674 362.491C154.641 357.457 146.479 357.457 141.445 362.491C136.411 367.525 136.411 375.687 141.445 380.721C146.479 385.754 154.641 385.754 159.674 380.721Z" fill="#455A64"/>
<path d="M227.88 361.79C227.88 361.93 215.88 361.95 201.18 361.79C186.48 361.63 174.47 361.46 174.47 361.31C174.47 361.16 186.47 361.15 201.18 361.31C215.89 361.47 227.88 361.65 227.88 361.79Z" fill="#263238"/>
<path d="M271.47 374C271.47 374.14 249.67 374.08 222.78 373.86C195.89 373.64 174.09 373.34 174.09 373.2C174.09 373.06 195.89 373.12 222.78 373.34C249.67 373.56 271.47 373.87 271.47 374Z" fill="#E0E0E0"/>
<path d="M271.39 383.63C271.39 383.77 249.59 383.71 222.7 383.49C195.81 383.27 174 383 174 382.83C174 382.66 195.8 382.75 222.7 382.97C249.6 383.19 271.39 383.48 271.39 383.63Z" fill="#E0E0E0"/>
<path d="M300.13 359.94C300.13 360.09 295.41 360.16 289.6 360.12C283.79 360.08 279.08 359.91 279.08 359.77C279.08 359.63 283.79 359.55 289.61 359.6C295.43 359.65 300.13 359.8 300.13 359.94Z" fill="#263238"/>
<path d="M292 373.35C292 373.35 291.92 373.24 291.74 373.09C291.614 372.982 291.462 372.907 291.3 372.872C291.138 372.837 290.969 372.843 290.81 372.89C290.588 372.955 290.399 373.101 290.28 373.3C290.15 373.53 290.02 373.83 289.88 374.12C289.74 374.41 289.58 374.74 289.42 375.07C289.341 375.282 289.207 375.47 289.031 375.612C288.855 375.755 288.644 375.847 288.42 375.88L287.13 376.07L286.45 376.18C286.302 376.202 286.163 376.264 286.048 376.359C285.932 376.454 285.845 376.579 285.796 376.72C285.747 376.861 285.737 377.013 285.767 377.159C285.798 377.305 285.868 377.44 285.97 377.55L287.11 378.66L287.41 378.95C287.533 379.066 287.632 379.205 287.7 379.36C287.846 379.673 287.871 380.029 287.77 380.36C287.67 380.933 287.57 381.513 287.47 382.1C287.445 382.212 287.445 382.329 287.47 382.441C287.495 382.553 287.545 382.659 287.616 382.749C287.686 382.84 287.776 382.914 287.879 382.966C287.982 383.018 288.095 383.047 288.21 383.05C288.476 383.035 288.733 382.945 288.95 382.79L289.8 382.35C290.091 382.179 290.4 382.038 290.72 381.93C291.09 381.864 291.47 381.947 291.78 382.16L293.38 383.02C293.48 383.069 293.59 383.097 293.701 383.102C293.813 383.107 293.925 383.088 294.029 383.048C294.133 383.007 294.228 382.946 294.307 382.867C294.387 382.788 294.449 382.694 294.49 382.59C294.56 382.358 294.56 382.111 294.49 381.88C294.49 381.6 294.41 381.32 294.36 381.05L294.24 380.25C294.178 379.933 294.239 379.604 294.41 379.33C294.579 379.111 294.77 378.91 294.98 378.73L295.53 378.22L296.05 377.72C296.194 377.596 296.293 377.427 296.33 377.24C296.361 377.065 296.338 376.884 296.263 376.723C296.188 376.562 296.064 376.428 295.91 376.34C295.553 376.219 295.184 376.139 294.81 376.1L293.81 375.92C293.639 375.903 293.473 375.851 293.323 375.766C293.174 375.682 293.043 375.567 292.94 375.43C292.807 375.201 292.69 374.964 292.59 374.72C292.366 374.29 292.189 373.837 292.06 373.37C292.334 373.769 292.575 374.191 292.78 374.63C292.886 374.854 293.006 375.071 293.14 375.28C293.229 375.385 293.339 375.47 293.463 375.53C293.587 375.59 293.722 375.624 293.86 375.63L294.86 375.77C295.247 375.804 295.63 375.881 296 376C296.229 376.122 296.415 376.313 296.529 376.547C296.644 376.78 296.683 377.043 296.64 377.3C296.596 377.575 296.462 377.828 296.26 378.02L295.74 378.52L295.21 379.04C295.031 379.197 294.866 379.371 294.72 379.56C294.615 379.741 294.58 379.954 294.62 380.16C294.67 380.43 294.71 380.69 294.76 380.96C294.81 381.23 294.85 381.51 294.9 381.79C294.996 382.116 294.996 382.463 294.9 382.79C294.833 382.959 294.731 383.113 294.602 383.242C294.473 383.37 294.318 383.47 294.148 383.536C293.978 383.602 293.796 383.632 293.614 383.624C293.432 383.616 293.253 383.57 293.09 383.49C292.56 383.21 292.02 382.93 291.48 382.63C291.27 382.483 291.013 382.422 290.76 382.46C290.488 382.567 290.224 382.694 289.97 382.84L289.13 383.27L288.7 383.49C288.519 383.563 288.325 383.597 288.13 383.59C287.942 383.58 287.758 383.53 287.591 383.444C287.424 383.358 287.277 383.237 287.161 383.089C287.044 382.941 286.961 382.77 286.916 382.588C286.871 382.405 286.865 382.215 286.9 382.03C287.01 381.44 287.12 380.86 287.22 380.29C287.302 380.067 287.302 379.823 287.22 379.6C287.087 379.388 286.922 379.199 286.73 379.04L285.59 377.89C285.389 377.656 285.279 377.358 285.279 377.05C285.279 376.742 285.389 376.444 285.59 376.21C285.788 375.994 286.051 375.85 286.34 375.8L287.03 375.71L288.33 375.55C288.5 375.535 288.662 375.473 288.798 375.37C288.934 375.268 289.039 375.129 289.1 374.97L289.59 374.03C289.75 373.73 289.88 373.47 290.04 373.21C290.199 372.966 290.446 372.794 290.73 372.73C290.91 372.696 291.096 372.707 291.27 372.763C291.445 372.819 291.603 372.917 291.73 373.05C292 373.21 292 373.35 292 373.35Z" fill="#263238"/>
<path d="M242.14 361.21C242.136 361.689 241.99 362.155 241.721 362.551C241.452 362.947 241.072 363.254 240.628 363.433C240.184 363.613 239.697 363.657 239.229 363.56C238.76 363.462 238.331 363.228 237.995 362.887C237.659 362.546 237.432 362.113 237.343 361.643C237.253 361.172 237.305 360.686 237.492 360.246C237.679 359.805 237.992 359.429 238.392 359.167C238.793 358.904 239.262 358.766 239.74 358.77C240.058 358.773 240.372 358.838 240.665 358.962C240.957 359.086 241.223 359.266 241.446 359.493C241.668 359.72 241.844 359.988 241.964 360.282C242.083 360.577 242.143 360.892 242.14 361.21Z" fill="#0E98D5"/>
<path d="M226.199 115.141L210.659 115.014C209.417 115.003 208.401 116.002 208.391 117.245L208.295 128.925C208.285 130.167 209.284 131.183 210.526 131.193L226.066 131.321C227.308 131.331 228.324 130.332 228.334 129.089L228.43 117.409C228.44 116.167 227.441 115.151 226.199 115.141Z" fill="#0E98D5"/>
<path d="M227.35 115.76C227.183 116.067 226.974 116.35 226.73 116.6C226.31 117.12 225.73 117.86 224.9 118.77L222.14 121.94L220.49 123.8C220.204 124.148 219.9 124.482 219.58 124.8C219.175 125.135 218.654 125.296 218.13 125.25C217.611 125.196 217.134 124.941 216.8 124.54L215.91 123.54L214.24 121.7L211.44 118.57C210.64 117.67 210.01 116.94 209.58 116.42C209.335 116.172 209.123 115.893 208.95 115.59C208.95 115.59 209.25 115.81 209.73 116.29C210.21 116.77 210.88 117.45 211.73 118.29L214.61 121.35L216.31 123.17L217.2 124.17C217.321 124.321 217.471 124.446 217.642 124.539C217.812 124.631 217.999 124.689 218.191 124.708C218.384 124.728 218.578 124.709 218.764 124.652C218.949 124.596 219.121 124.503 219.27 124.38C219.54 124.14 219.85 123.75 220.13 123.45L221.8 121.61L224.65 118.51C225.46 117.64 226.13 116.93 226.65 116.51C226.851 116.232 227.086 115.98 227.35 115.76Z" fill="white"/>
<path d="M215.31 123.09C214.341 124.386 213.268 125.6 212.1 126.72C211.049 127.963 209.838 129.063 208.5 129.99C209.471 128.693 210.548 127.479 211.72 126.36C212.769 125.118 213.976 124.019 215.31 123.09Z" fill="white"/>
<path d="M228.32 130.37C226.96 129.285 225.717 128.062 224.61 126.72C223.37 125.497 222.252 124.158 221.27 122.72C222.632 123.806 223.878 125.029 224.99 126.37C226.228 127.591 227.344 128.931 228.32 130.37Z" fill="white"/>
<path d="M153.77 121.64C153.77 121.73 150.35 121.8 146.13 121.8C141.91 121.8 138.49 121.73 138.49 121.64C138.49 121.55 141.91 121.48 146.13 121.48C150.35 121.48 153.77 121.55 153.77 121.64Z" fill="#263238"/>
<path d="M153.77 125.55C153.77 125.64 150.35 125.71 146.13 125.71C141.91 125.71 138.49 125.64 138.49 125.55C138.49 125.46 141.91 125.39 146.13 125.39C150.35 125.39 153.77 125.46 153.77 125.55Z" fill="#263238"/>
<path d="M153.77 129.46C153.77 129.55 150.35 129.63 146.13 129.63C141.91 129.63 138.49 129.55 138.49 129.47C138.49 129.39 141.91 129.3 146.13 129.3C150.35 129.3 153.77 129.38 153.77 129.46Z" fill="#263238"/>
<path d="M297.18 124.13C297.13 124.13 297.18 123.75 296.96 123.13C296.713 122.245 296.179 121.467 295.44 120.92C294.849 120.471 294.145 120.196 293.406 120.125C292.667 120.054 291.923 120.189 291.257 120.517C290.591 120.844 290.03 121.35 289.635 121.979C289.24 122.607 289.028 123.333 289.022 124.075C289.016 124.817 289.217 125.546 289.602 126.181C289.987 126.815 290.541 127.33 291.202 127.668C291.862 128.006 292.604 128.153 293.344 128.093C294.084 128.034 294.792 127.769 295.39 127.33C296.133 126.788 296.68 126.019 296.95 125.14C297.13 124.51 297.13 124.14 297.18 124.14C297.193 124.23 297.193 124.321 297.18 124.41C297.186 124.672 297.159 124.934 297.1 125.19C296.883 126.148 296.338 127.001 295.56 127.6C294.904 128.091 294.123 128.389 293.306 128.461C292.489 128.532 291.669 128.373 290.937 128.003C290.206 127.633 289.592 127.066 289.166 126.365C288.739 125.665 288.517 124.859 288.524 124.04C288.531 123.22 288.767 122.418 289.205 121.725C289.644 121.032 290.267 120.475 291.005 120.118C291.743 119.76 292.566 119.616 293.381 119.701C294.197 119.786 294.972 120.098 295.62 120.6C296.388 121.213 296.916 122.077 297.11 123.04C297.167 123.296 297.191 123.558 297.18 123.82C297.204 123.922 297.204 124.028 297.18 124.13Z" fill="#263238"/>
<path d="M299.43 131.39C298.662 130.876 297.986 130.238 297.43 129.5C296.747 128.863 296.176 128.116 295.74 127.29C296.508 127.804 297.184 128.443 297.74 129.18C298.426 129.815 298.998 130.562 299.43 131.39Z" fill="#263238"/>
<path d="M287.81 333L287.67 386.74L263.92 381.86L243.92 377.68C243.92 377.68 271.3 431.68 301.08 431.68C330.86 431.68 334.71 386.75 334.71 386.75L336.48 333H287.81Z" fill="#9B7564"/>
<path d="M411.18 194.37C409 195.61 406 194 405 191.68C404 189.36 404.46 186.68 405.22 184.24C405.98 181.8 407.04 179.46 407.22 176.93C407.309 174.62 406.653 172.343 405.35 170.435C404.046 168.526 402.164 167.087 399.98 166.33C404.28 162.92 404.63 155.61 400.68 151.8C398.83 150.02 396.37 149.05 394.22 147.65C392.997 146.842 391.858 145.914 390.82 144.88C392.739 145.353 394.736 145.414 396.68 145.06C398.238 144.718 399.686 143.989 400.888 142.94C402.09 141.892 403.009 140.557 403.56 139.06C404.068 137.543 404.142 135.915 403.775 134.359C403.407 132.802 402.613 131.379 401.48 130.25C400.312 129.156 398.839 128.444 397.256 128.208C395.673 127.973 394.056 128.224 392.62 128.93C389.84 130.4 388.32 133.42 386.97 136.26L385.71 138.89C381.8 133.71 378.12 128.36 372.09 126.54C366.62 124.89 360.74 126.73 355.04 126.32C350.89 126.01 346.91 124.52 342.77 124.06C338.63 123.6 333.92 124.49 331.48 127.86C330.04 129.86 329.59 132.4 328.14 134.37C325.14 138.43 318.68 138.98 316.22 143.37C314.22 146.95 315.76 151.47 314.9 155.48C313.97 159.84 310.37 163.03 307.43 166.38C304.49 169.73 301.92 174.33 303.57 178.47C305.03 182.12 309.28 184.08 310.66 187.75C311.66 190.43 310.94 193.4 310.89 196.26C310.84 199.12 311.98 202.52 314.77 203.17L346.5 211.55C357.43 215.99 368.7 220.55 380.5 220.49C392.3 220.43 404.89 214.81 409.5 203.97C407.784 203.905 406.158 203.19 404.95 201.97C406.491 201.25 407.85 200.193 408.929 198.878C410.007 197.562 410.776 196.022 411.18 194.37Z" fill="#263238"/>
<path d="M385.17 204.32C387.79 196.32 390.37 188.17 391.56 179.79C392.75 171.41 392.5 162.67 389.56 154.79C389.12 153.59 385.31 145.52 384.03 145.65C383.12 145.74 385.46 153.26 385.03 154.06C380.63 161.62 379.43 170.71 380.14 179.44C380.898 187.913 382.598 196.274 385.21 204.37" fill="#263238"/>
<path d="M357.15 274.66C370.27 274.38 385.15 245.66 385.15 245.66L386 172C386.68 150.79 374.91 132.71 353.69 132.61L351.69 132.71C342.172 133.23 333.198 137.309 326.546 144.136C319.894 150.964 316.052 160.042 315.78 169.57C315.29 187.96 314.97 208.29 315.62 218.11C316.96 238.43 337.47 240.5 337.47 240.5C337.47 240.5 337.59 245.22 337.65 251.2C337.79 264.62 351.84 275.08 357.1 274.63L357.15 274.66Z" fill="#9B7564"/>
<path d="M337.52 240.53C337.52 240.53 350.38 240.6 363.58 231.28C363.58 231.28 357.92 246.42 337.53 245.68L337.52 240.53Z" fill="#7F6358"/>
<path d="M324.61 185.56C324.644 186.325 324.978 187.045 325.539 187.566C326.101 188.086 326.845 188.364 327.61 188.34C327.98 188.349 328.348 188.284 328.693 188.15C329.038 188.015 329.352 187.812 329.617 187.554C329.883 187.296 330.094 186.988 330.239 186.647C330.384 186.306 330.459 185.94 330.46 185.57C330.429 184.803 330.096 184.08 329.534 183.557C328.972 183.035 328.227 182.755 327.46 182.78C327.089 182.77 326.72 182.835 326.375 182.971C326.029 183.106 325.714 183.31 325.449 183.569C325.183 183.828 324.972 184.138 324.828 184.48C324.684 184.821 324.61 185.189 324.61 185.56Z" fill="#263238"/>
<path d="M320.63 177.81C321.01 178.17 323.12 176.42 326.25 176.26C329.38 176.1 331.75 177.55 332.07 177.14C332.22 176.97 331.82 176.3 330.78 175.63C329.38 174.762 327.744 174.353 326.1 174.46C324.474 174.541 322.916 175.136 321.65 176.16C320.73 177 320.44 177.65 320.63 177.81Z" fill="#263238"/>
<path d="M352.76 184.81C352.794 185.575 353.128 186.296 353.689 186.816C354.251 187.336 354.995 187.614 355.76 187.59C356.131 187.599 356.5 187.534 356.846 187.399C357.191 187.263 357.506 187.06 357.771 186.801C358.037 186.542 358.248 186.232 358.392 185.89C358.536 185.548 358.61 185.181 358.61 184.81C358.577 184.054 358.25 183.341 357.699 182.822C357.148 182.303 356.417 182.019 355.66 182.03C355.286 182.015 354.912 182.076 354.561 182.209C354.21 182.342 353.89 182.544 353.62 182.804C353.349 183.063 353.133 183.375 352.986 183.719C352.838 184.064 352.761 184.435 352.76 184.81Z" fill="#263238"/>
<path d="M351.31 177.43C351.69 177.79 353.81 176.05 356.93 175.89C360.05 175.73 362.43 177.17 362.75 176.77C362.91 176.59 362.51 175.93 361.46 175.25C360.058 174.388 358.423 173.979 356.78 174.08C355.154 174.163 353.597 174.758 352.33 175.78C351.42 176.57 351.13 177.27 351.31 177.43Z" fill="#263238"/>
<path d="M341.39 202.05C341.39 201.87 339.39 201.64 336.26 201.41C335.46 201.41 334.7 201.25 334.53 200.71C334.416 199.89 334.56 199.055 334.94 198.32C335.607 196.32 336.274 194.25 336.94 192.11C339.76 183.29 341.75 176.04 341.39 175.93C341.03 175.82 338.46 182.93 335.65 191.72C334.98 193.89 334.33 195.97 333.72 197.95C333.266 198.941 333.177 200.06 333.47 201.11C333.602 201.385 333.795 201.626 334.034 201.815C334.273 202.004 334.552 202.135 334.85 202.2C335.296 202.299 335.754 202.339 336.21 202.32C339.42 202.32 341.38 202.23 341.39 202.05Z" fill="#263238"/>
<path d="M350.7 203.72C350.19 203.72 350.37 207.11 347.59 209.67C344.81 212.23 341.19 212.06 341.19 212.53C341.19 212.75 342.03 213.15 343.55 213.11C345.54 213.029 347.437 212.25 348.91 210.91C350.327 209.617 351.184 207.824 351.3 205.91C351.36 204.51 350.93 203.69 350.7 203.72Z" fill="#263238"/>
<path d="M350.8 164.74C351.16 165.58 354.26 165.01 357.95 165.25C361.64 165.49 364.66 166.34 365.1 165.55C365.3 165.17 364.74 164.4 363.5 163.64C361.85 162.719 360.012 162.186 358.126 162.08C356.239 161.974 354.353 162.299 352.61 163.03C351.29 163.64 350.65 164.35 350.8 164.74Z" fill="#263238"/>
<path d="M321.36 167.35C321.95 168.03 324.07 167.18 326.65 167.01C329.23 166.84 331.46 167.23 331.92 166.46C332.13 166.09 331.74 165.39 330.75 164.77C329.419 164.035 327.901 163.712 326.386 163.84C324.871 163.968 323.429 164.542 322.24 165.49C321.36 166.27 321.1 167 321.36 167.35Z" fill="#263238"/>
<path d="M385.15 187.18C385.49 187.01 398.9 182.3 399.21 196.18C399.52 210.06 385.46 207.53 385.43 207.18C385.4 206.83 385.15 187.18 385.15 187.18Z" fill="#9B7564"/>
<path d="M389.57 201.82C389.63 201.82 389.82 201.98 390.23 202.16C390.811 202.394 391.46 202.394 392.04 202.16C393.5 201.59 394.69 199.22 394.71 196.71C394.714 195.515 394.455 194.333 393.95 193.25C393.81 192.819 393.567 192.428 393.244 192.111C392.92 191.795 392.524 191.561 392.09 191.43C391.809 191.363 391.513 191.396 391.254 191.524C390.995 191.651 390.788 191.866 390.67 192.13C390.49 192.52 390.59 192.8 390.51 192.82C390.43 192.84 390.21 192.59 390.31 192.02C390.381 191.672 390.568 191.358 390.84 191.13C391.025 190.981 391.238 190.871 391.467 190.805C391.695 190.74 391.934 190.721 392.17 190.75C392.744 190.85 393.282 191.096 393.734 191.464C394.185 191.831 394.535 192.309 394.75 192.85C395.373 194.044 395.693 195.373 395.68 196.72C395.68 199.53 394.27 202.18 392.27 202.81C391.898 202.928 391.505 202.96 391.119 202.905C390.732 202.85 390.364 202.708 390.04 202.49C389.6 202.15 389.52 201.84 389.57 201.82Z" fill="#7F6358"/>
<path d="M324.55 146.41C322.28 145.2 328.95 137.81 334.46 135.22C342.78 131.32 355.54 128.82 363.28 130.91C372.61 133.42 380.39 137.91 385.17 146.35C389.95 154.79 391.83 164.58 391.68 174.24C391.63 177.19 391.37 180.24 389.82 182.78C387.92 185.88 384.21 187.87 384.43 192.12C384.492 192.888 384.401 193.661 384.163 194.394C383.924 195.127 383.543 195.805 383.04 196.39C380.52 199.13 377.37 196.62 375.91 194.09C372.77 188.67 372.35 182.16 372 175.92C371.75 171.48 371.51 166.92 372.71 162.66C373.36 160.33 374.43 158.12 374.95 155.76C375.47 153.4 375.37 150.76 373.87 148.81C373.526 148.398 373.144 148.02 372.73 147.68C370.764 146.012 368.39 144.896 365.851 144.446C363.313 143.996 360.7 144.229 358.28 145.12C350.47 148 337.13 152.32 333.6 149.7C328.52 145.93 327.28 143.45 327.28 143.45L324.55 146.41Z" fill="#263238"/>
<path d="M362.53 129C354.85 126.54 346.13 126.79 339.02 130.6C335.24 132.6 331.84 135.82 330.74 139.95C329.64 144.08 331.46 149.15 335.44 150.71L335.72 150.88C341.72 152.8 345.54 151.96 351.44 149.83C356.44 148.04 360.8 144.91 365.77 143.14C371.098 141.265 376.864 141.025 382.33 142.45C376.93 136.47 370.22 131.49 362.53 129Z" fill="#263238"/>
<path d="M389 142.8C388.88 142.9 387.76 141.57 385.5 140C384.185 139.082 382.765 138.323 381.27 137.74C379.482 136.987 377.548 136.645 375.61 136.74C372.062 137.135 368.697 138.521 365.9 140.74C363.74 142.45 362.74 143.89 362.61 143.79C362.48 143.69 362.76 143.36 363.22 142.72C363.876 141.813 364.631 140.981 365.47 140.24C368.282 137.755 371.798 136.207 375.53 135.81C377.607 135.691 379.682 136.061 381.59 136.89C383.131 137.535 384.578 138.386 385.89 139.42C388.14 141.23 389.1 142.74 389 142.8Z" fill="#455A64"/>
<path d="M390.41 147.73C390.294 149.115 389.935 150.469 389.35 151.73C386.847 157.973 382.251 163.152 376.35 166.38C375.177 167.109 373.883 167.624 372.53 167.9C372.36 167.63 378.38 165.35 383.43 159.57C388.48 153.79 390.12 147.6 390.41 147.73Z" fill="#455A64"/>
<path d="M396.08 150C396.189 150.52 396.206 151.054 396.13 151.58C396.057 153.022 395.856 154.454 395.53 155.86C394.461 160.547 392.249 164.896 389.091 168.52C385.932 172.144 381.926 174.93 377.43 176.63C376.08 177.143 374.688 177.538 373.27 177.81C372.757 177.959 372.222 178.013 371.69 177.97C371.69 177.81 373.88 177.43 377.18 175.97C381.485 174.157 385.319 171.383 388.389 167.861C391.458 164.34 393.682 160.163 394.89 155.65C395.83 152.23 395.91 150 396.08 150Z" fill="#455A64"/>
<path d="M346.58 127.75C346.58 127.91 345.13 128.25 342.89 129.14C337.012 131.476 332.014 135.595 328.6 140.92C327.969 142.072 327.278 143.19 326.53 144.27C326.796 142.957 327.305 141.706 328.03 140.58C329.628 137.759 331.73 135.254 334.23 133.19C336.731 131.127 339.593 129.547 342.67 128.53C343.916 128.038 345.241 127.774 346.58 127.75Z" fill="#455A64"/>
<path d="M400.45 129.5C400.68 129.5 400.07 133.5 396.92 137.25C393.77 141 389.92 142.3 389.92 142.07C389.92 141.84 393.29 140.21 396.23 136.65C399.17 133.09 400.17 129.41 400.45 129.5Z" fill="#455A64"/>
<path d="M252.46 378.13L260.72 373.06C262.122 372.208 263.73 371.755 265.37 371.75H281.37L297.89 386.8L302.82 389.26L300.98 415.26L290.24 413.94C290.24 413.94 267.31 414.94 265.09 413.45C262.87 411.96 259.66 407.28 259.66 407.28C259.66 407.28 247.09 403.21 245.86 402.11C241.19 397.92 243.07 396.92 243.07 396.92L240.92 395.92C240.52 396.68 237.39 391.58 237.72 389.02C237.91 387.53 237.47 387.54 237.47 387.54C236.428 386.942 235.53 386.122 234.839 385.139C234.148 384.156 233.68 383.033 233.47 381.85C233.24 380.33 239.47 381.42 239.47 381.42L255 381.63L252.46 378.13Z" fill="#9B7564"/>
<path d="M266.27 381.28L251.66 361.39C251.132 360.666 250.439 360.077 249.64 359.673C248.84 359.268 247.956 359.058 247.06 359.06H218.18C217.623 359.06 217.089 359.281 216.695 359.675C216.301 360.068 216.08 360.603 216.08 361.16C216.085 361.662 216.265 362.147 216.59 362.53L233.14 381.73L266.27 381.28Z" fill="#455A64"/>
<path d="M259.19 389.43C258.127 389.716 257.031 389.86 255.93 389.86C250.639 390.168 245.331 389.71 240.17 388.5C239.085 388.304 238.029 387.968 237.03 387.5C238.122 387.574 239.206 387.738 240.27 387.99C242.27 388.34 245 388.77 248.06 388.99C251.12 389.21 253.9 389.31 255.91 389.3C257.005 389.246 258.103 389.29 259.19 389.43Z" fill="#7F6358"/>
<path d="M263.34 398.14C262.277 398.423 261.181 398.568 260.08 398.57C257.438 398.728 254.787 398.691 252.15 398.46C249.51 398.234 246.89 397.817 244.31 397.21C243.228 397.015 242.175 396.679 241.18 396.21C242.272 396.285 243.355 396.449 244.42 396.7C246.42 397.05 249.15 397.48 252.21 397.7C255.27 397.92 258.05 398.02 260.06 398.01C261.155 397.956 262.253 398 263.34 398.14Z" fill="#7F6358"/>
<path d="M233.51 381.85C233.631 382.466 233.791 383.074 233.99 383.67C234.646 385.315 235.915 386.641 237.53 387.37L237.64 387.42V387.54C237.605 389.299 237.992 391.041 238.77 392.62C239.731 394.56 241.32 396.118 243.28 397.04L243.55 397.16L243.42 397.41C243.27 397.722 243.192 398.063 243.192 398.41C243.192 398.756 243.27 399.098 243.42 399.41C243.76 400.084 244.245 400.674 244.84 401.14C246.162 402.157 247.615 402.991 249.16 403.62C252.584 405.041 256.128 406.152 259.75 406.94H259.89L259.96 407.06C260.887 408.404 261.979 409.627 263.21 410.7C264.394 411.874 265.851 412.736 267.45 413.21C268.682 413.513 269.952 413.641 271.22 413.59L275.02 413.69L282.35 413.89L295.55 414.26H295.6L311.33 417.47L315.7 418.41L316.84 418.68C316.976 418.696 317.108 418.736 317.23 418.8C317.097 418.815 316.963 418.815 316.83 418.8L315.67 418.62L311.26 417.84L295.48 414.84H295.53L282.33 414.56L275.01 414.39L271.2 414.3C269.874 414.341 268.548 414.199 267.26 413.88C265.557 413.38 264.004 412.466 262.74 411.22C261.465 410.105 260.34 408.831 259.39 407.43L259.6 407.58C255.939 406.775 252.361 405.633 248.91 404.17C247.315 403.509 245.818 402.634 244.46 401.57C243.792 401.03 243.256 400.346 242.89 399.57C242.717 399.184 242.632 398.765 242.642 398.343C242.653 397.92 242.758 397.506 242.95 397.13L243.09 397.5C241.026 396.508 239.362 394.843 238.37 392.78C237.588 391.126 237.221 389.307 237.3 387.48L237.41 387.65C236.574 387.259 235.826 386.704 235.21 386.016C234.595 385.329 234.126 384.524 233.83 383.65C233.614 383.074 233.505 382.464 233.51 381.85Z" fill="#7F6358"/>
<path d="M268.07 405.79C268.15 405.95 266.21 406.94 263.58 407.29C260.95 407.64 258.83 407.2 258.86 407.03C258.89 406.86 260.97 406.94 263.49 406.59C266.01 406.24 268 405.6 268.07 405.79Z" fill="#7F6358"/>
<path d="M275.49 381.25C275.49 381.44 272.32 381.71 268.38 381.86C264.44 382.01 261.25 381.96 261.25 381.76C261.25 381.56 264.42 381.3 268.36 381.15C272.3 381 275.49 381.05 275.49 381.25Z" fill="#7F6358"/>
<path d="M302.51 387.13C302.51 387.13 302.21 387.42 301.51 387.53C300.506 387.639 299.494 387.414 298.63 386.89C297.422 386.101 296.294 385.197 295.26 384.19L291.32 380.74L284.12 374.55C283.075 373.749 282.098 372.863 281.2 371.9C282.348 372.55 283.429 373.311 284.43 374.17C286.36 375.65 288.98 377.77 291.79 380.17C293.19 381.39 294.51 382.57 295.69 383.66C296.676 384.666 297.743 385.589 298.88 386.42C299.65 386.935 300.554 387.213 301.48 387.22C302.14 387.23 302.49 387.07 302.51 387.13Z" fill="#7F6358"/>
<path d="M263.19 381.71C263.045 381.58 262.915 381.436 262.8 381.28L261.8 380L258 375.21L252.52 368.07L249.3 363.85C248.732 363.158 247.985 362.635 247.14 362.34C246.708 362.189 246.257 362.099 245.8 362.07C245.35 362.07 244.8 362.07 244.36 362.07L224.36 361.99L218.29 361.91H216.64C216.445 361.914 216.251 361.898 216.06 361.86C216.25 361.815 216.445 361.798 216.64 361.81L218.29 361.76L224.36 361.67L244.36 361.6C244.86 361.6 245.36 361.6 245.84 361.6C246.341 361.634 246.836 361.735 247.31 361.9C248.242 362.232 249.065 362.813 249.69 363.58L252.9 367.83L258.29 375.04C259.78 377.04 261 378.71 261.89 379.93C262.28 380.47 262.59 380.93 262.89 381.27C263.008 381.403 263.109 381.551 263.19 381.71Z" fill="#263238"/>
<path d="M231.78 364.89C231.966 364.747 232.189 364.662 232.423 364.646C232.656 364.629 232.89 364.682 233.093 364.798C233.297 364.913 233.462 365.086 233.568 365.295C233.674 365.504 233.715 365.74 233.688 365.972C233.66 366.205 233.565 366.424 233.413 366.603C233.262 366.781 233.061 366.911 232.836 366.976C232.611 367.041 232.371 367.038 232.148 366.967C231.925 366.897 231.727 366.762 231.58 366.58C231.394 366.335 231.307 366.029 231.337 365.723C231.366 365.418 231.51 365.134 231.74 364.93" fill="#F5F5F5"/>
<path d="M386.58 239.87L427.26 263.78L434.74 395.78L444.46 470.46H298.26C298.26 470.46 299.87 379.57 300.37 352.08C300.73 332.81 300.21 295.46 306.73 272.49C309.51 262.7 336.73 250.05 336.73 250.05C351.64 263.22 368.31 259.29 386.58 239.87Z" fill="#0E98D5"/>
<path d="M440.16 437.46C440.16 437.6 408.6 437.72 369.66 437.72C330.72 437.72 299.16 437.6 299.16 437.46C299.16 437.32 330.72 437.2 369.66 437.2C408.6 437.2 440.16 437.31 440.16 437.46Z" fill="white"/>
<g opacity="0.3">
<path d="M299.07 415C310.39 424.49 327.98 429.63 342.46 432.56C356.94 435.49 371.73 436.56 386.25 439.22C396.4 441.11 407.05 443.78 416.84 440.48C421.714 438.749 425.988 435.655 429.155 431.565C432.321 427.475 434.246 422.562 434.7 417.41C434.773 417.064 434.771 416.707 434.695 416.362C434.62 416.018 434.471 415.693 434.26 415.41C433.969 415.188 433.634 415.029 433.278 414.943C432.921 414.857 432.551 414.845 432.19 414.91C388.48 416.85 342.19 416.58 299.07 414.97" fill="black"/>
</g>
<path d="M291.33 387.64H393.49L393.99 333.81L441.13 327.73C441.13 327.73 441.34 382.4 441.34 400.33C441.34 421.85 422.74 436.81 407.12 434.51C391.5 432.21 291.33 413.51 291.33 413.51V387.64Z" fill="#9B7564"/>
<path d="M444.4 338.91L389.46 344.62V280.16C389.46 280.16 394.86 258.38 413.84 259.29C432.82 260.2 444 280.73 444.4 299.56C444.8 318.39 444.4 338.91 444.4 338.91Z" fill="#0E98D5"/>
<path d="M312.54 264.93C312.54 264.93 294.93 276.52 290.21 289.31C285.26 302.72 278.31 346.16 278.31 346.16H303L312.54 264.93Z" fill="#0E98D5"/>
<path d="M389 282.72C389.065 283.502 389.065 284.288 389 285.07C388.95 286.7 388.88 288.86 388.8 291.48C388.64 296.88 388.47 304.35 388.49 312.6C388.51 320.85 388.73 328.32 388.94 333.72C389.04 336.34 389.12 338.5 389.18 340.13C389.241 340.912 389.241 341.698 389.18 342.48C389.023 341.709 388.929 340.926 388.9 340.14C388.76 338.64 388.59 336.45 388.43 333.75C388.1 328.34 387.81 320.87 387.78 312.6C387.75 304.33 388 296.86 388.3 291.45C388.44 288.75 388.59 286.57 388.72 285.06C388.753 284.274 388.847 283.491 389 282.72Z" fill="#263238"/>
<path d="M416.66 260.33C416.66 260.47 414.82 259.98 411.84 260.03C407.96 260.07 404.164 261.163 400.856 263.192C397.549 265.22 394.854 268.109 393.06 271.55C391.67 274.18 391.28 276.02 391.15 275.99C391.158 275.548 391.232 275.11 391.37 274.69C391.671 273.53 392.09 272.404 392.62 271.33C394.346 267.72 397.078 264.686 400.488 262.592C403.898 260.499 407.84 259.435 411.84 259.53C413.04 259.551 414.236 259.688 415.41 259.94C415.844 260.005 416.266 260.136 416.66 260.33Z" fill="#263238"/>
<path d="M301.23 295.29C301.277 295.53 301.3 295.775 301.3 296.02C301.3 296.58 301.3 297.27 301.36 298.11C301.36 299.92 301.42 302.54 301.42 305.78C301.42 312.26 301.32 321.21 301.13 331.09C300.94 340.97 300.75 349.82 300.62 356.39C300.56 359.55 300.51 362.15 300.47 364.06C300.47 364.9 300.41 365.59 300.39 366.15C300.403 366.392 300.379 366.634 300.32 366.87C300.268 366.633 300.244 366.391 300.25 366.15C300.25 365.59 300.25 364.9 300.19 364.06C300.19 362.25 300.13 359.63 300.13 356.39C300.13 349.91 300.23 340.96 300.42 331.07C300.61 321.18 300.79 312.34 300.92 305.78C300.99 302.61 301.04 300.02 301.08 298.11C301.08 297.27 301.14 296.58 301.15 296.02C301.142 295.774 301.169 295.528 301.23 295.29Z" fill="#263238"/>
<path d="M300.6 316.88C297.82 317.115 295.028 317.178 292.24 317.07C289.449 317.13 286.657 317.016 283.88 316.73C286.66 316.495 289.452 316.431 292.24 316.54C295.031 316.473 297.823 316.587 300.6 316.88Z" fill="white"/>
<path d="M388.06 302C388.06 302.14 369.06 302.26 345.71 302.26C322.36 302.26 303.34 302.14 303.34 302C303.34 301.86 322.34 301.74 345.71 301.74C369.08 301.74 388.06 301.83 388.06 302Z" fill="white"/>
<path d="M443.21 293.18C443.024 293.201 442.836 293.201 442.65 293.18L441.07 293.05L435.27 292.55C430.36 292.14 423.58 291.69 416.08 291.48C408.58 291.27 401.78 291.36 396.86 291.48L391.03 291.66H389.45C389.264 291.687 389.076 291.687 388.89 291.66C389.07 291.612 389.254 291.586 389.44 291.58L391.02 291.44C392.4 291.33 394.38 291.21 396.85 291.09C401.77 290.86 408.57 290.73 416.09 290.93C423.61 291.13 430.4 291.65 435.3 292.15C437.75 292.4 439.73 292.63 441.09 292.82L442.66 293.04C442.849 293.062 443.034 293.109 443.21 293.18Z" fill="white"/>
<path d="M443.73 331.37C443.73 331.52 431.32 331.37 416.03 331.01C400.74 330.65 388.32 330.26 388.33 330.12C388.34 329.98 400.73 330.12 416.04 330.49C431.35 330.86 443.73 331.23 443.73 331.37Z" fill="white"/>
<path d="M393.82 269.89C393.82 270.04 374.24 270.15 350.09 270.15C325.94 270.15 306.36 270.04 306.36 269.89C306.36 269.74 325.94 269.63 350.09 269.63C374.24 269.63 393.82 269.75 393.82 269.89Z" fill="white"/>
<path d="M388.34 342.55C388.34 342.69 368.7 342.81 344.47 342.81C320.24 342.81 300.6 342.69 300.6 342.55C300.6 342.41 320.24 342.29 344.47 342.29C368.7 342.29 388.34 342.4 388.34 342.55Z" fill="white"/>
<path d="M394.64 374.63C394.64 374.77 373.28 374.89 346.94 374.89C320.6 374.89 299.23 374.77 299.23 374.63C299.23 374.49 320.59 374.37 346.94 374.37C373.29 374.37 394.64 374.48 394.64 374.63Z" fill="white"/>
<path d="M442.93 467.13C442.93 467.27 410.72 467.39 371 467.39C331.28 467.39 299.07 467.27 299.07 467.13C299.07 466.99 331.27 466.87 371 466.87C410.73 466.87 442.93 467 442.93 467.13Z" fill="white"/>
<g opacity="0.3">
<path d="M388.79 345.23C388.15 332.49 388.61 320.57 387.96 307.84C383.622 326.522 381.574 345.663 381.86 364.84C381.93 369.39 382.15 374.02 383.62 378.33C385.09 382.64 389.16 386.33 393.32 388.17L393.72 344.68C391.85 344.82 390.67 345.14 388.79 345.23Z" fill="black"/>
</g>
<path d="M105.72 423.48L98.5099 470.85H56.6199L46.8999 424.16L105.72 423.48Z" fill="#0E98D5"/>
<path d="M52.7603 453.84C52.7603 453.98 63.4903 454.09 76.7603 454.09C90.0303 454.09 100.76 453.98 100.76 453.84C100.76 453.7 90.0303 453.6 76.7603 453.6C63.4903 453.6 52.7603 453.71 52.7603 453.84Z" fill="#FAFAFA"/>
<path d="M52.6001 451.51C52.6001 451.65 63.4001 451.76 76.7301 451.76C90.0601 451.76 100.86 451.65 100.86 451.51C100.86 451.37 90.0601 451.27 76.7301 451.27C63.4001 451.27 52.6001 451.38 52.6001 451.51Z" fill="#FAFAFA"/>
<path d="M52.6802 448.88C52.6802 449.02 63.4802 449.13 76.8102 449.13C90.1402 449.13 100.94 449.02 100.94 448.88C100.94 448.74 90.1402 448.63 76.8102 448.63C63.4802 448.63 52.6802 448.74 52.6802 448.88Z" fill="#FAFAFA"/>
<path d="M93.7002 468.15C94.2809 466.186 94.7088 464.18 94.9802 462.15C95.4086 460.158 95.6762 458.135 95.7802 456.1C95.1909 458.062 94.7628 460.069 94.5002 462.1C94.0659 464.091 93.7983 466.115 93.7002 468.15Z" fill="#FAFAFA"/>
<path d="M90.8502 467.65C91.135 465.722 91.3086 463.779 91.3702 461.83C91.5816 459.891 91.6718 457.941 91.6402 455.99C91.1835 457.891 90.9288 459.836 90.8802 461.79C90.6572 463.737 90.6471 465.702 90.8502 467.65Z" fill="#FAFAFA"/>
<path d="M85.6499 467.65C86.6288 463.727 87.1026 459.694 87.0599 455.65C86.6788 457.634 86.4084 459.637 86.2499 461.65C85.9423 463.638 85.742 465.641 85.6499 467.65Z" fill="#FAFAFA"/>
<path d="M81.9999 467.9C82.6426 463.88 82.7737 459.794 82.3899 455.74C82.1731 457.759 82.0729 459.79 82.0899 461.82C81.9392 463.843 81.9091 465.874 81.9999 467.9Z" fill="#FAFAFA"/>
<path d="M75.5498 467.65C75.8667 465.747 76.0172 463.82 75.9998 461.89C76.1441 459.969 76.124 458.038 75.9398 456.12C75.6354 458.025 75.4883 459.951 75.4998 461.88C75.3615 463.802 75.3782 465.731 75.5498 467.65Z" fill="#FAFAFA"/>
<path d="M70.84 467.9C71.0776 465.91 71.1445 463.902 71.04 461.9C71.1054 459.912 71.0051 457.922 70.74 455.95C70.5155 457.942 70.452 459.948 70.55 461.95C70.4844 463.938 70.5814 465.928 70.84 467.9Z" fill="#FAFAFA"/>
<path d="M66.42 467.26C66.4698 465.18 66.3494 463.1 66.06 461.04C65.9393 458.965 65.6585 456.902 65.22 454.87C65.17 456.95 65.2904 459.03 65.58 461.09C65.7007 463.165 65.9815 465.228 66.42 467.26Z" fill="#FAFAFA"/>
<path d="M60.72 466.64C60.7125 464.854 60.4773 463.076 60.02 461.35C59.7188 459.591 59.1946 457.877 58.46 456.25C58.7253 458.005 59.0859 459.744 59.54 461.46C59.8322 463.208 60.2262 464.938 60.72 466.64Z" fill="#FAFAFA"/>
<path d="M64.7601 330C64.7479 330.08 64.7479 330.16 64.7601 330.24C64.7601 330.42 64.8701 330.64 64.9501 330.91C65.1501 331.53 65.4101 332.38 65.7501 333.46C66.0901 334.54 66.5401 335.93 66.9801 337.52C67.4201 339.11 67.9801 340.9 68.4901 342.92C69.0001 344.94 69.6001 347.13 70.1201 349.52C70.6401 351.91 71.1901 354.45 71.7401 357.15C72.7401 362.55 73.6601 368.52 74.3001 374.82C74.9401 381.12 75.2001 387.17 75.3001 392.67C75.3001 395.41 75.3001 398.02 75.2301 400.47C75.1601 402.92 75.0501 405.18 74.9301 407.26C74.8101 409.34 74.6501 411.2 74.5201 412.85C74.3901 414.5 74.2501 415.91 74.1101 417.07C73.9701 418.23 73.9001 419.07 73.8401 419.73C73.8401 420.01 73.8201 420.24 73.7801 420.42C73.7801 420.58 73.7801 420.66 73.7801 420.66C73.8137 420.588 73.834 420.51 73.8401 420.43C73.8401 420.25 73.9001 420.02 73.9501 419.74C74.0301 419.1 74.1601 418.21 74.3101 417.09C74.4601 415.97 74.6501 414.52 74.8001 412.88C74.9501 411.24 75.1701 409.36 75.2901 407.28C75.4101 405.2 75.5801 402.93 75.6401 400.48C75.7001 398.03 75.7501 395.42 75.7701 392.66C75.7101 387.16 75.4401 381.1 74.7701 374.78C74.1001 368.46 73.1901 362.47 72.1601 357.06C71.6001 354.36 71.1001 351.8 70.5001 349.42C69.9001 347.04 69.3601 344.83 68.8101 342.83C68.2601 340.83 67.7001 339.02 67.2201 337.44C66.7401 335.86 66.3001 334.5 65.9101 333.44C65.5201 332.38 65.2401 331.53 65.0301 330.91C64.9301 330.65 64.8501 330.43 64.7901 330.26C64.7858 330.173 64.7758 330.086 64.7601 330Z" fill="#263238"/>
<path d="M72.3199 359.33C71.1665 355.914 68.8617 353.005 65.7999 351.1C64.7999 350.46 63.4599 349.94 62.3599 350.47C60.8999 351.18 60.7799 353.23 61.2199 354.8C61.9796 357.461 63.6778 359.756 65.9999 361.26C68.0407 362.772 70.5966 363.416 73.1099 363.05" fill="#263238"/>
<path d="M74.8603 379.14C73.7803 375.05 70.5203 369.24 67.1303 366.7C66.611 366.277 66.0127 365.96 65.3703 365.77C65.0485 365.673 64.7076 365.659 64.3791 365.729C64.0505 365.799 63.7448 365.951 63.4903 366.17C63.2013 366.554 63.0117 367.003 62.9384 367.477C62.8651 367.952 62.9104 368.437 63.0703 368.89C63.7652 371.872 65.2763 374.602 67.4345 376.774C69.5926 378.947 72.3127 380.476 75.2903 381.19" fill="#263238"/>
<path d="M75.5601 396.57C73.8784 392.668 71.1858 389.285 67.7601 386.77C67.398 386.428 66.9702 386.163 66.5027 385.991C66.0352 385.819 65.5376 385.744 65.0401 385.77C63.5601 386.03 62.8901 387.84 63.0401 389.34C63.3101 392.42 65.6701 394.9 68.1001 396.81C70.3307 398.357 72.7547 399.605 75.3101 400.52" fill="#263238"/>
<path d="M75.1702 409.11C73.5447 406.129 71.2766 403.547 68.5302 401.55C67.9414 401.103 67.2567 400.798 66.5302 400.66C66.161 400.582 65.7773 400.611 65.4234 400.741C65.0694 400.872 64.7598 401.101 64.5302 401.4C63.8602 402.4 64.5302 403.7 65.2102 404.65C67.5516 407.909 70.8678 410.339 74.6802 411.59" fill="#263238"/>
<path d="M75.5002 404C78.3605 400.496 81.5408 397.265 85.0002 394.35C85.2308 394.083 85.5246 393.878 85.8547 393.754C86.1849 393.63 86.5409 393.591 86.8902 393.64C87.1427 393.745 87.3593 393.92 87.5138 394.146C87.6682 394.371 87.7538 394.637 87.7602 394.91C87.7602 395.46 87.6372 396.004 87.4002 396.5C86.2652 399.02 84.5774 401.251 82.4618 403.029C80.3463 404.807 77.8575 406.086 75.1802 406.77" fill="#263238"/>
<path d="M75.1899 387.71L82.6499 378.62C83.3061 377.709 84.1269 376.929 85.0699 376.32C85.5499 376.031 86.0996 375.878 86.6599 375.878C87.2203 375.878 87.77 376.031 88.2499 376.32C88.6794 376.677 89.0006 377.148 89.1773 377.678C89.354 378.208 89.3791 378.777 89.2499 379.32C88.9833 380.413 88.4854 381.436 87.7899 382.32C86.3414 384.522 84.509 386.446 82.3799 388C80.1899 389.51 78.1999 390.49 75.5699 390.1" fill="#263238"/>
<path d="M74.1602 369.34C75.6162 364.988 78.2049 361.101 81.6602 358.08C82.2111 357.526 82.9025 357.132 83.6602 356.94C84.4203 356.88 85.1776 357.087 85.8017 357.525C86.4259 357.963 86.8779 358.605 87.0802 359.34C87.3197 360.164 87.3829 361.028 87.2658 361.878C87.1486 362.727 86.8537 363.542 86.4002 364.27C85.4925 365.728 84.3025 366.989 82.9002 367.98C80.3877 369.897 77.5905 371.409 74.6102 372.46" fill="#263238"/>
<path d="M71.1802 353C71.9002 347.73 74.6402 343.34 77.8202 339.08C78.4902 338.18 79.4302 337.23 80.5302 337.4C80.8807 337.474 81.2072 337.634 81.4798 337.866C81.7523 338.099 81.9622 338.396 82.0902 338.73C82.3373 339.405 82.4362 340.124 82.3802 340.84C82.2438 344.033 81.1694 347.116 79.2913 349.702C77.4131 352.288 74.8145 354.263 71.8202 355.38" fill="#263238"/>
<path d="M69.0902 344.6C69.4348 341.901 69.5252 339.176 69.3602 336.46C69.1908 333.727 68.2551 331.096 66.6602 328.87C65.9936 327.915 65.0718 327.166 64.0002 326.71C63.4555 326.493 62.864 326.419 62.2826 326.496C61.7012 326.573 61.1494 326.798 60.6802 327.15C60.2832 327.522 59.9748 327.979 59.7775 328.486C59.5802 328.993 59.4991 329.538 59.5402 330.08C59.6401 331.16 59.9242 332.216 60.3802 333.2C62.3802 337.98 65.6802 343.27 69.1402 344.6" fill="#263238"/>
<path d="M101.57 350.88C101.546 351.103 101.546 351.328 101.57 351.55C101.57 352.04 101.57 352.67 101.57 353.46C101.57 354.25 101.57 355.31 101.52 356.46C101.47 357.61 101.52 358.98 101.38 360.46C101.25 363.46 100.96 366.94 100.51 370.84C100.06 374.74 99.3 379 98.39 383.45C97.48 387.9 96.39 392.05 95.22 395.81C94.05 399.57 92.91 402.89 91.84 405.66C91.34 407.05 90.84 408.29 90.37 409.38C89.9 410.47 89.53 411.38 89.19 412.17L88.45 413.93C88.3524 414.133 88.2721 414.344 88.21 414.56C88.3385 414.375 88.449 414.177 88.54 413.97C88.75 413.53 89.02 412.97 89.37 412.25C89.72 411.53 90.16 410.58 90.62 409.49C91.08 408.4 91.62 407.18 92.17 405.79C93.28 403.03 94.47 399.69 95.65 395.94C96.83 392.19 97.92 387.99 98.87 383.55C99.82 379.11 100.44 374.83 100.87 370.92C101.3 367.01 101.55 363.48 101.63 360.5C101.71 359.02 101.69 357.67 101.7 356.5C101.71 355.33 101.7 354.3 101.7 353.5C101.7 352.7 101.7 352.08 101.63 351.59C101.639 351.352 101.619 351.114 101.57 350.88Z" fill="#263238"/>
<path d="M100.4 372.48C100.349 369.909 99.4091 367.436 97.7399 365.48C97.4944 365.12 97.1648 364.825 96.7797 364.622C96.3946 364.418 95.9656 364.311 95.5299 364.31C94.3799 364.48 93.8599 365.85 93.8199 367.01C93.7586 368.98 94.4122 370.905 95.6599 372.43C96.724 373.896 98.3227 374.884 100.11 375.18" fill="#263238"/>
<path d="M97.8699 386.52C98.0099 383.52 97.0399 378.84 95.2799 376.39C95.0166 375.994 94.6766 375.654 94.2799 375.39C94.0789 375.259 93.8488 375.18 93.6099 375.159C93.3709 375.138 93.1305 375.176 92.9099 375.27C92.6273 375.463 92.3989 375.725 92.2466 376.032C92.0943 376.338 92.0231 376.679 92.0399 377.02C91.8716 379.199 92.3127 381.382 93.3141 383.325C94.3154 385.267 95.8374 386.893 97.7099 388.02" fill="#263238"/>
<path d="M94.5899 398.54C94.2888 395.519 93.1877 392.633 91.3999 390.18C91.2209 389.874 90.9828 389.607 90.6996 389.394C90.4163 389.181 90.0935 389.027 89.7499 388.94C88.6899 388.8 87.8399 389.89 87.6099 390.94C87.1299 393.09 88.1999 395.28 89.4399 397.11C90.6282 398.642 92.0096 400.013 93.5499 401.19" fill="#263238"/>
<path d="M91.63 407C91.161 404.624 90.1743 402.381 88.74 400.43C88.4283 400.015 88.0288 399.673 87.57 399.43C87.3368 399.309 87.075 399.253 86.8125 399.269C86.55 399.285 86.2968 399.372 86.08 399.52C85.42 400.04 85.57 401.07 85.85 401.87C86.7514 404.603 88.5035 406.975 90.85 408.64" fill="#263238"/>
<path d="M93.0002 403.59C95.7002 401.819 98.5592 400.302 101.54 399.06C101.754 398.926 101.998 398.848 102.25 398.834C102.502 398.82 102.753 398.871 102.98 398.98C103.121 399.101 103.225 399.258 103.282 399.435C103.338 399.611 103.345 399.8 103.3 399.98C103.183 400.354 102.981 400.697 102.71 400.98C101.397 402.454 99.7678 403.612 97.9446 404.369C96.1215 405.125 94.151 405.461 92.1802 405.35" fill="#263238"/>
<path d="M96.25 392.42C98.5966 390.9 100.93 389.373 103.25 387.84C103.897 387.374 104.626 387.034 105.4 386.84C105.784 386.707 106.201 386.699 106.59 386.817C106.98 386.934 107.322 387.172 107.568 387.496C107.814 387.82 107.952 388.213 107.961 388.62C107.97 389.026 107.851 389.425 107.62 389.76C107.2 390.442 106.641 391.028 105.98 391.48C104.515 392.693 102.841 393.628 101.04 394.24C100.237 394.582 99.3728 394.758 98.5 394.758C97.6271 394.758 96.7632 394.582 95.96 394.24" fill="#263238"/>
<path d="M99.5001 379.7C101.433 377.053 104.031 374.963 107.03 373.64C107.519 373.393 108.062 373.272 108.61 373.29C109.14 373.413 109.611 373.717 109.942 374.15C110.272 374.582 110.441 375.116 110.42 375.66C110.403 376.273 110.258 376.874 109.995 377.427C109.731 377.98 109.355 378.472 108.89 378.87C107.96 379.668 106.878 380.27 105.71 380.64C103.587 381.407 101.356 381.833 99.1001 381.9" fill="#263238"/>
<path d="M101 367.91C102.62 364.48 105.43 362.08 108.51 359.86C108.797 359.582 109.153 359.384 109.54 359.285C109.928 359.187 110.335 359.192 110.72 359.3C110.943 359.425 111.132 359.604 111.268 359.821C111.404 360.037 111.484 360.285 111.5 360.54C111.524 361.053 111.435 361.565 111.24 362.04C110.459 364.185 109.064 366.052 107.229 367.409C105.394 368.766 103.199 369.552 100.92 369.67" fill="#263238"/>
<path d="M101.38 361.77C102.195 360.005 102.841 358.167 103.31 356.28C103.785 354.383 103.716 352.39 103.11 350.53C102.843 349.749 102.365 349.057 101.73 348.53C101.405 348.264 101.018 348.086 100.605 348.012C100.191 347.938 99.7663 347.972 99.3698 348.11C99.0203 348.279 98.7131 348.523 98.4708 348.826C98.2284 349.129 98.0573 349.482 97.9698 349.86C97.7964 350.614 97.7625 351.394 97.8698 352.16C98.1898 355.84 99.3098 360.16 101.38 361.82" fill="#263238"/>
<path d="M48.61 350.42C48.595 350.643 48.595 350.867 48.61 351.09C48.61 351.58 48.56 352.21 48.54 353C48.52 353.79 48.48 354.85 48.54 356C48.6 357.15 48.54 358.53 48.61 360C48.7 363 48.95 366.51 49.37 370.42C49.79 374.33 50.49 378.61 51.37 383.05C52.25 387.49 53.43 391.68 54.58 395.44C55.73 399.2 56.95 402.53 58.07 405.29C58.6 406.68 59.15 407.9 59.62 408.99C60.09 410.08 60.5 410.99 60.87 411.75L61.7 413.47C61.7857 413.677 61.8929 413.875 62.02 414.06C61.9592 413.844 61.8823 413.634 61.79 413.43L61 411.71C60.66 410.95 60.26 410.02 59.83 408.92C59.4 407.82 58.83 406.59 58.35 405.2C57.28 402.43 56.13 399.09 54.97 395.35C53.81 391.61 52.74 387.42 51.8 383C50.86 378.58 50.22 374.31 49.73 370.42C49.24 366.53 49 363 48.87 360C48.77 358.52 48.76 357.18 48.72 356C48.68 354.82 48.72 353.8 48.72 353C48.72 352.2 48.72 351.58 48.72 351.09C48.7118 350.863 48.6748 350.638 48.61 350.42Z" fill="#455A64"/>
<path d="M49.7798 372C49.83 369.428 50.774 366.953 52.4498 365C52.6925 364.64 53.0201 364.344 53.4037 364.14C53.7873 363.936 54.2153 363.83 54.6498 363.83C55.7998 364 56.3198 365.37 56.3598 366.53C56.437 368.516 55.7862 370.461 54.5298 372C53.4625 373.468 51.8602 374.456 50.0698 374.75" fill="#455A64"/>
<path d="M52.3102 386.06C52.1702 383.06 53.1402 378.38 54.9002 375.93C55.1641 375.534 55.504 375.194 55.9002 374.93C56.0993 374.799 56.3277 374.72 56.5651 374.699C56.8024 374.678 57.0413 374.716 57.2602 374.81C57.5428 375.003 57.7712 375.265 57.9235 375.572C58.0758 375.878 58.147 376.219 58.1302 376.56C58.3009 378.74 57.8607 380.923 56.8591 382.867C55.8576 384.81 54.3343 386.435 52.4602 387.56" fill="#455A64"/>
<path d="M55.5898 398.08C55.899 395.059 57.0032 392.175 58.7898 389.72C58.9673 389.415 59.2036 389.148 59.4852 388.935C59.7668 388.722 60.0879 388.568 60.4298 388.48C61.4998 388.34 62.3398 389.43 62.5798 390.48C63.0598 392.63 61.9898 394.83 60.7398 396.65C59.5544 398.184 58.1726 399.556 56.6298 400.73" fill="#455A64"/>
<path d="M58.5601 406.53C59.0257 404.166 60.013 401.935 61.4501 400C61.7582 399.585 62.1543 399.244 62.6101 399C62.8432 398.879 63.1051 398.823 63.3675 398.839C63.63 398.854 63.8832 398.941 64.1001 399.09C64.7601 399.61 64.6201 400.65 64.3401 401.44C63.4342 404.17 61.6831 406.541 59.3401 408.21" fill="#455A64"/>
<path d="M57.2398 403.13C54.5363 401.359 51.674 399.842 48.6898 398.6C48.4762 398.466 48.232 398.388 47.9802 398.374C47.7283 398.36 47.477 398.411 47.2498 398.52C47.1017 398.646 46.9934 398.813 46.9384 398.999C46.8833 399.185 46.8838 399.384 46.9398 399.57C47.0534 399.944 47.2519 400.286 47.5198 400.57C48.8337 402.043 50.4627 403.201 52.2858 403.958C54.1089 404.714 56.0791 405.05 58.0498 404.94" fill="#455A64"/>
<path d="M53.9299 392L46.9299 387.42C46.2854 386.956 45.5595 386.617 44.7899 386.42C44.4026 386.319 43.9948 386.328 43.6118 386.444C43.2289 386.56 42.8856 386.781 42.6199 387.08C42.3992 387.414 42.2774 387.803 42.2686 388.203C42.2597 388.603 42.3642 388.997 42.5699 389.34C42.9842 389.997 43.5287 390.562 44.1699 391C45.6363 392.211 47.3101 393.146 49.1099 393.76C49.9149 394.102 50.7804 394.278 51.6549 394.278C52.5295 394.278 53.395 394.102 54.1999 393.76" fill="#455A64"/>
<path d="M50.6802 379.24C48.7515 376.588 46.1528 374.497 43.1502 373.18C42.6649 372.932 42.1247 372.812 41.5802 372.83C41.049 372.953 40.577 373.256 40.245 373.688C39.9129 374.121 39.7415 374.655 39.7602 375.2C39.7772 375.812 39.9221 376.414 40.1856 376.967C40.4491 377.52 40.8253 378.011 41.2902 378.41C42.2206 379.207 43.3021 379.809 44.4702 380.18C46.593 380.947 48.824 381.372 51.0802 381.44" fill="#455A64"/>
<path d="M49.19 367.45C47.56 364.02 44.75 361.62 41.67 359.4C41.3832 359.121 41.028 358.923 40.64 358.824C40.2521 358.726 39.8451 358.731 39.46 358.84C39.2391 358.967 39.0532 359.147 38.9188 359.363C38.7844 359.58 38.7058 359.826 38.69 360.08C38.6627 360.593 38.7481 361.105 38.94 361.58C39.7218 363.724 41.1172 365.591 42.9522 366.948C44.7873 368.304 46.981 369.091 49.26 369.21" fill="#455A64"/>
<path d="M48.81 361.31C47.9919 359.545 47.3424 357.707 46.87 355.82C46.3978 353.922 46.4706 351.929 47.08 350.07C47.3276 349.26 47.8074 348.54 48.46 348C48.7824 347.734 49.1682 347.555 49.5799 347.482C49.9915 347.408 50.4153 347.442 50.81 347.58C51.1609 347.748 51.4698 347.992 51.7138 348.295C51.9579 348.598 52.1308 348.952 52.22 349.33C52.3834 350.086 52.4172 350.863 52.32 351.63C51.99 355.32 50.88 359.63 48.81 361.29" fill="#455A64"/>
<path d="M110.52 414.1V423C110.52 423.458 110.43 423.912 110.254 424.336C110.079 424.759 109.822 425.144 109.498 425.468C109.174 425.792 108.789 426.049 108.366 426.224C107.942 426.4 107.488 426.49 107.03 426.49H46.3801C45.9218 426.49 45.468 426.4 45.0446 426.224C44.6211 426.049 44.2364 425.792 43.9123 425.468C43.5883 425.144 43.3312 424.759 43.1558 424.336C42.9804 423.912 42.8901 423.458 42.8901 423V414.1H110.52Z" fill="#0E98D5"/>
<g opacity="0.4">
<path d="M105.26 426.45L104.76 429.27L48.7999 433.26L47.3799 426.45H105.26Z" fill="black"/>
</g>
<path d="M471.08 470.66C471.08 470.8 372.08 470.92 250.01 470.92C127.94 470.92 28.9199 470.8 28.9199 470.66C28.9199 470.52 127.92 470.4 250.01 470.4C372.1 470.4 471.08 470.51 471.08 470.66Z" fill="#263238"/>
</svg>
