<svg width="139" height="17" viewBox="0 0 139 17" fill="none" xmlns="http://www.w3.org/2000/svg">
<path d="M8.27853 0.5C4.1504 0.5 2.33321 3.90915 2.33321 6.35912C2.33321 11.6854 6.38097 11.9843 6.83397 12.0054V11.9843C5.40893 11.5585 3.96322 9.85366 3.96322 7.4224C3.96322 4.54606 5.76088 2.52244 8.31757 2.52244C11.0011 2.52244 13.7479 5.01394 13.7479 8.44648C13.7479 11.3848 11.6006 14.5396 7.18248 14.5396C3.80017 14.5413 0.498233 12.1767 0.145706 8.1909H0.12561V8.44824C0.12561 12.899 3.61472 16.5 7.92887 16.5C12.2206 16.5 15.7097 12.899 15.7097 8.44824C15.7097 3.90915 12.0972 0.5 8.27853 0.5ZM20.106 0.606444C19.9761 0.604737 19.8473 0.629366 19.7268 0.678898C19.6064 0.728429 19.4969 0.801873 19.4046 0.894951C19.3123 0.988029 19.2391 1.09888 19.1893 1.22105C19.1395 1.34322 19.1141 1.47427 19.1144 1.60655V11.8129H21.0763V2.63064H22.3549C25.4944 2.63064 28.031 5.25257 28.031 8.48976C28.031 11.727 25.4944 14.3489 22.3549 14.3489H17.8972C17.7549 14.3539 17.6134 14.3244 17.4844 14.2629L19.2586 16.0947C19.4353 16.2719 19.6731 16.3716 19.9211 16.3725H22.3549C26.5663 16.3725 29.9911 12.8364 29.9911 8.48976C29.9911 4.12203 26.5652 0.606444 22.3549 0.606444H20.106ZM34.3885 0.606444C34.2588 0.605052 34.13 0.629897 34.0097 0.679541C33.8895 0.729184 33.78 0.80264 33.6878 0.895656C33.5956 0.988671 33.5224 1.0994 33.4725 1.22143C33.4226 1.34345 33.3969 1.47435 33.397 1.60655V11.8129H35.3577V2.63064H36.6415C39.7775 2.63064 42.3175 5.25257 42.3175 8.48976C42.3175 11.727 39.7764 14.3489 36.6415 14.3489H32.1827C32.0403 14.3542 31.8987 14.3247 31.7698 14.2629L33.544 16.0947C33.7196 16.2719 33.9565 16.3716 34.2037 16.3725H36.6415C40.8529 16.3725 44.2777 12.8364 44.2777 8.48976C44.2777 4.12203 40.8517 0.606444 36.6415 0.606444H34.3885ZM50.2207 0.5C47.8667 0.5 46.2384 2.03292 46.2384 4.10098C46.2384 5.89182 47.2506 7.33876 49.5811 8.14938C51.7284 8.89507 52.1613 10.1736 52.1613 11.3246C52.1613 13.0055 50.676 14.7957 47.9298 14.7957C46.7747 14.7957 45.8629 14.6033 45.1033 14.1769L45.0832 14.2009L46.8975 15.8607C47.2506 16.1807 47.7863 16.5 49.0448 16.5C51.9977 16.5 54.1421 13.9851 54.1421 11.3246C54.1421 7.67856 51.1922 6.57201 50.0571 6.1667C49.2314 5.86784 48.2198 5.31456 48.2198 4.1425C48.2198 3.14239 48.9627 2.5242 50.2213 2.5242C51.4195 2.5242 52.4312 3.12192 52.7613 3.12192C52.8927 3.12218 53.0228 3.09575 53.144 3.04417C53.2652 2.9926 53.3751 2.91692 53.4673 2.82157C53.5595 2.72621 53.632 2.61309 53.6808 2.48882C53.7295 2.36455 53.7534 2.23163 53.7511 2.09784C53.7557 1.90356 53.703 1.71234 53.5999 1.54888C53.4967 1.38541 53.3478 1.25719 53.1724 1.18078C52.9473 1.07433 51.5849 0.5 50.2207 0.5Z" fill="black"/>
<path d="M5.65871 0.754395C2.8494 1.63051 0.371948 4.29338 0.371948 7.63526C0.371948 11.4702 3.5114 14.3027 7.18365 14.3027C11.4151 14.3027 13.4993 11.3199 13.4993 8.44354C13.5033 5.18704 10.899 2.78093 8.31875 2.78093C5.78216 2.78093 4.21358 4.80513 4.21358 7.42647C4.21104 7.75483 4.23795 8.08273 4.29396 8.40611H4.31693C4.35712 6.38191 5.94521 4.72149 7.9289 4.72149C9.82704 4.72149 11.5414 6.3591 11.5414 8.44997C11.5414 10.3882 10.0963 12.2849 7.43341 12.2849C4.74984 12.2849 2.08636 10.6871 2.08636 6.36085C2.08636 4.03604 3.57053 1.71298 5.67881 0.778374L5.65871 0.754395ZM17.1744 3.01488C17.0001 3.20507 16.9046 3.45652 16.908 3.71671V13.0704C16.9054 13.2042 16.9291 13.3372 16.9777 13.4616C17.0263 13.586 17.0988 13.6992 17.191 13.7946C17.2831 13.89 17.3931 13.9657 17.5144 14.0172C17.6357 14.0687 17.7659 14.0949 17.8973 14.0944H22.355C25.348 14.0944 27.7847 11.5796 27.7847 8.48974C27.7847 5.39993 25.348 2.88504 22.355 2.88504H21.3215V4.90923H22.355C24.2755 4.90923 25.824 6.50707 25.824 8.48974C25.824 10.4724 24.2738 12.0703 22.355 12.0703H18.8687V1.60653C18.8743 1.4613 18.9014 1.31775 18.9491 1.18076L17.1744 3.01488ZM31.4598 3.01488C31.2835 3.20397 31.1868 3.4559 31.1906 3.71671V13.0704C31.188 13.2044 31.2119 13.3376 31.2607 13.4622C31.3095 13.5867 31.3822 13.7 31.4747 13.7955C31.5671 13.8909 31.6774 13.9665 31.799 14.0179C31.9206 14.0692 32.0511 14.0953 32.1827 14.0944H36.6415C39.6346 14.0944 42.0684 11.5796 42.0684 8.48974C42.0684 5.39993 39.6334 2.88504 36.6415 2.88504H35.6081V4.90923H36.6415C38.5592 4.90923 40.1077 6.50707 40.1077 8.48974C40.1077 10.4724 38.5575 12.0703 36.6415 12.0703H33.1513V1.60653C33.1564 1.46098 33.1845 1.31721 33.2345 1.18076L31.4598 3.01488ZM47.5601 0.991262C46.7083 1.37803 45.9853 2.00892 45.4793 2.807C44.9733 3.60508 44.7063 4.53588 44.7106 5.48591C44.7106 9.40446 48.7756 10.2589 49.2315 10.4069C49.8504 10.6409 49.9537 11.0672 49.9537 11.3246C49.9537 11.7714 49.375 12.4943 47.9299 12.4943C46.9176 12.4943 46.5278 12.3229 46.1552 12.1749C46.0277 12.107 45.8863 12.0706 45.7424 12.0685C45.5194 12.0696 45.3033 12.1468 45.1285 12.2878C44.9537 12.4288 44.8303 12.6254 44.7781 12.8462C44.726 13.067 44.748 13.2993 44.8407 13.5058C44.9333 13.7124 45.0913 13.8813 45.2894 13.9857C45.7826 14.2407 46.4652 14.5395 47.9304 14.5395C50.5308 14.5395 51.9351 12.8762 51.9351 11.3228C51.9351 10.0858 51.3794 9.04185 49.4984 8.38154C47.0641 7.5101 46.0122 5.99766 46.0122 4.10096C46.0122 2.45867 46.9176 1.47962 47.5802 1.01173L47.5601 0.991262ZM50.2207 2.78093C49.1683 2.78093 48.446 3.27221 48.446 4.08283C48.446 4.63611 48.6321 4.93497 48.8588 5.16891C49.2315 4.97649 49.7476 4.65716 50.7593 4.87005C51.2324 4.95602 51.5849 4.82852 51.8117 4.61564L53.2132 3.31374L53.1931 3.29268C53.055 3.34674 52.9087 3.37584 52.7608 3.37866C52.2848 3.37866 51.3788 2.78093 50.2207 2.78093V2.78093Z" fill="#1498D5"/>
<path d="M64.926 1.078C65.102 1.078 65.2853 1.122 65.476 1.21C65.6667 1.298 65.8133 1.42267 65.916 1.584L71.504 10.098L70.558 10.054L76.256 1.584C76.4907 1.24667 76.7913 1.078 77.158 1.078C77.4513 1.078 77.708 1.188 77.928 1.408C78.1627 1.61333 78.28 1.87733 78.28 2.2V15.378C78.28 15.7007 78.1773 15.972 77.972 16.192C77.7667 16.3973 77.4953 16.5 77.158 16.5C76.806 16.5 76.52 16.3973 76.3 16.192C76.0947 15.972 75.992 15.7007 75.992 15.378V4.224L76.696 4.378L71.856 11.748C71.7533 11.88 71.6213 11.9973 71.46 12.1C71.2987 12.188 71.13 12.2247 70.954 12.21C70.7927 12.2247 70.624 12.188 70.448 12.1C70.2867 11.9973 70.1547 11.88 70.052 11.748L65.388 4.488L65.916 3.608V15.378C65.916 15.7007 65.8133 15.972 65.608 16.192C65.4173 16.3973 65.1607 16.5 64.838 16.5C64.53 16.5 64.2733 16.3973 64.068 16.192C63.8773 15.972 63.782 15.7007 63.782 15.378V2.2C63.782 1.892 63.892 1.628 64.112 1.408C64.3467 1.188 64.618 1.078 64.926 1.078ZM85.9198 16.72C84.7025 16.72 83.6465 16.4707 82.7518 15.972C81.8572 15.4587 81.1605 14.762 80.6618 13.882C80.1778 12.9873 79.9358 11.968 79.9358 10.824C79.9358 9.53333 80.1925 8.43333 80.7058 7.524C81.2338 6.6 81.9158 5.896 82.7518 5.412C83.5878 4.91333 84.4752 4.664 85.4138 4.664C86.1325 4.664 86.8145 4.81067 87.4598 5.104C88.1052 5.38267 88.6772 5.77867 89.1758 6.292C89.6892 6.79067 90.0925 7.38467 90.3858 8.074C90.6792 8.74867 90.8332 9.48933 90.8478 10.296C90.8332 10.5893 90.7158 10.8313 90.4958 11.022C90.2758 11.2127 90.0192 11.308 89.7258 11.308H81.1678L80.6398 9.438H88.9118L88.4938 9.834V9.284C88.4645 8.77067 88.2958 8.32333 87.9878 7.942C87.6798 7.546 87.2985 7.24533 86.8438 7.04C86.3892 6.82 85.9125 6.71 85.4138 6.71C84.9738 6.71 84.5485 6.78333 84.1378 6.93C83.7418 7.062 83.3825 7.282 83.0598 7.59C82.7518 7.898 82.5025 8.30867 82.3118 8.822C82.1358 9.32067 82.0478 9.944 82.0478 10.692C82.0478 11.4987 82.2165 12.2027 82.5538 12.804C82.8912 13.4053 83.3458 13.8747 83.9178 14.212C84.4898 14.5347 85.1205 14.696 85.8098 14.696C86.3525 14.696 86.7998 14.6447 87.1518 14.542C87.5038 14.4247 87.7972 14.2853 88.0318 14.124C88.2665 13.9627 88.4718 13.8087 88.6478 13.662C88.8678 13.53 89.0878 13.464 89.3078 13.464C89.5718 13.464 89.7918 13.5593 89.9678 13.75C90.1438 13.926 90.2318 14.1387 90.2318 14.388C90.2318 14.7107 90.0705 15.004 89.7478 15.268C89.3518 15.6493 88.8018 15.9867 88.0978 16.28C87.4085 16.5733 86.6825 16.72 85.9198 16.72ZM98.1965 4.664C99.2379 4.664 100.045 4.884 100.617 5.324C101.189 5.74933 101.585 6.32867 101.805 7.062C102.039 7.78067 102.157 8.58733 102.157 9.482V15.378C102.157 15.7007 102.047 15.972 101.827 16.192C101.621 16.3973 101.365 16.5 101.057 16.5C100.734 16.5 100.47 16.3973 100.265 16.192C100.059 15.972 99.9565 15.7007 99.9565 15.378V9.504C99.9565 8.976 99.8832 8.50667 99.7365 8.096C99.5899 7.67067 99.3332 7.33333 98.9665 7.084C98.6145 6.82 98.1159 6.688 97.4705 6.688C96.8692 6.688 96.3412 6.82 95.8865 7.084C95.4319 7.33333 95.0725 7.67067 94.8085 8.096C94.5592 8.50667 94.4345 8.976 94.4345 9.504V15.378C94.4345 15.7007 94.3245 15.972 94.1045 16.192C93.8992 16.3973 93.6425 16.5 93.3345 16.5C93.0119 16.5 92.7479 16.3973 92.5425 16.192C92.3372 15.972 92.2345 15.7007 92.2345 15.378V6.05C92.2345 5.72733 92.3372 5.46333 92.5425 5.258C92.7479 5.038 93.0119 4.928 93.3345 4.928C93.6425 4.928 93.8992 5.038 94.1045 5.258C94.3245 5.46333 94.4345 5.72733 94.4345 6.05V7.282L94.0385 7.502C94.1412 7.17933 94.3172 6.85667 94.5665 6.534C94.8305 6.19667 95.1459 5.88867 95.5125 5.61C95.8792 5.31667 96.2899 5.08933 96.7445 4.928C97.1992 4.752 97.6832 4.664 98.1965 4.664ZM103.957 5.06H109.127C109.42 5.06 109.662 5.16267 109.853 5.368C110.058 5.55867 110.161 5.80067 110.161 6.094C110.161 6.37267 110.058 6.60733 109.853 6.798C109.662 6.98867 109.42 7.084 109.127 7.084H103.957C103.664 7.084 103.414 6.98867 103.209 6.798C103.018 6.59267 102.923 6.35067 102.923 6.072C102.923 5.77867 103.018 5.53667 103.209 5.346C103.414 5.15533 103.664 5.06 103.957 5.06ZM106.267 2.2C106.59 2.2 106.854 2.31 107.059 2.53C107.264 2.73533 107.367 2.99933 107.367 3.322V13.53C107.367 13.794 107.411 14.0067 107.499 14.168C107.587 14.3293 107.704 14.4393 107.851 14.498C108.012 14.5567 108.174 14.586 108.335 14.586C108.496 14.586 108.636 14.5567 108.753 14.498C108.885 14.4393 109.039 14.41 109.215 14.41C109.391 14.41 109.552 14.4907 109.699 14.652C109.846 14.8133 109.919 15.0333 109.919 15.312C109.919 15.664 109.728 15.95 109.347 16.17C108.966 16.39 108.555 16.5 108.115 16.5C107.866 16.5 107.572 16.478 107.235 16.434C106.898 16.39 106.568 16.28 106.245 16.104C105.937 15.928 105.68 15.6493 105.475 15.268C105.27 14.872 105.167 14.322 105.167 13.618V3.322C105.167 2.99933 105.27 2.73533 105.475 2.53C105.695 2.31 105.959 2.2 106.267 2.2ZM122.478 10.714C122.478 11.8873 122.221 12.9287 121.708 13.838C121.195 14.7327 120.498 15.4367 119.618 15.95C118.738 16.4633 117.748 16.72 116.648 16.72C115.548 16.72 114.558 16.4633 113.678 15.95C112.798 15.4367 112.094 14.7327 111.566 13.838C111.053 12.9287 110.796 11.8873 110.796 10.714C110.796 9.526 111.053 8.48467 111.566 7.59C112.094 6.68067 112.798 5.96933 113.678 5.456C114.558 4.928 115.548 4.664 116.648 4.664C117.748 4.664 118.738 4.928 119.618 5.456C120.498 5.96933 121.195 6.68067 121.708 7.59C122.221 8.48467 122.478 9.526 122.478 10.714ZM120.278 10.714C120.278 9.90733 120.117 9.21067 119.794 8.624C119.471 8.02267 119.031 7.55333 118.474 7.216C117.931 6.864 117.323 6.688 116.648 6.688C115.973 6.688 115.357 6.864 114.8 7.216C114.243 7.55333 113.803 8.02267 113.48 8.624C113.157 9.21067 112.996 9.90733 112.996 10.714C112.996 11.4913 113.157 12.1807 113.48 12.782C113.803 13.3833 114.243 13.8527 114.8 14.19C115.357 14.5273 115.973 14.696 116.648 14.696C117.323 14.696 117.931 14.5273 118.474 14.19C119.031 13.8527 119.471 13.3833 119.794 12.782C120.117 12.1807 120.278 11.4913 120.278 10.714ZM124.968 16.5C124.645 16.5 124.381 16.3973 124.176 16.192C123.971 15.972 123.868 15.7007 123.868 15.378V6.05C123.868 5.72733 123.971 5.46333 124.176 5.258C124.381 5.038 124.645 4.928 124.968 4.928C125.276 4.928 125.533 5.038 125.738 5.258C125.958 5.46333 126.068 5.72733 126.068 6.05V8.514L125.848 7.568C125.965 7.15733 126.141 6.776 126.376 6.424C126.625 6.072 126.919 5.764 127.256 5.5C127.593 5.236 127.967 5.03067 128.378 4.884C128.803 4.73733 129.243 4.664 129.698 4.664C130.079 4.664 130.409 4.76667 130.688 4.972C130.967 5.17733 131.106 5.434 131.106 5.742C131.106 6.138 131.003 6.43133 130.798 6.622C130.593 6.798 130.365 6.886 130.116 6.886C129.896 6.886 129.683 6.842 129.478 6.754C129.273 6.65133 129.031 6.6 128.752 6.6C128.444 6.6 128.129 6.68067 127.806 6.842C127.483 7.00333 127.19 7.24533 126.926 7.568C126.662 7.876 126.449 8.24267 126.288 8.668C126.141 9.09333 126.068 9.57 126.068 10.098V15.378C126.068 15.7007 125.958 15.972 125.738 16.192C125.533 16.3973 125.276 16.5 124.968 16.5Z" fill="url(#paint0_linear_2392_10890)"/>
<defs>
<linearGradient id="paint0_linear_2392_10890" x1="69.9906" y1="16.5" x2="139" y2="16.5" gradientUnits="userSpaceOnUse">
<stop stop-color="#025AA9" stop-opacity="0.78"/>
<stop offset="1" stop-color="#0E98D5"/>
</linearGradient>
</defs>
</svg>
