<svg width="219" height="27" viewBox="0 0 219 27" fill="none" xmlns="http://www.w3.org/2000/svg">
<path d="M13.5083 0C6.66852 0 3.6577 5.53986 3.6577 9.52107C3.6577 18.1763 10.3643 18.662 11.1148 18.6962V18.662C8.75374 17.9701 6.3584 15.1997 6.3584 11.2489C6.3584 6.57484 9.33688 3.28647 13.573 3.28647C18.0193 3.28647 22.5702 7.33516 22.5702 12.913C22.5702 17.6878 19.0124 22.8143 11.6923 22.8143C6.08824 22.8171 0.617385 18.9747 0.033295 12.4977H0V12.9159C0 20.1484 5.78097 26 12.9289 26C20.0398 26 25.8208 20.1484 25.8208 12.9159C25.8208 5.53986 19.8353 0 13.5083 0ZM33.1048 0.172972C32.8896 0.170197 32.6761 0.21022 32.4766 0.290709C32.277 0.371197 32.0955 0.490544 31.9426 0.641796C31.7897 0.793048 31.6685 0.973183 31.586 1.17171C31.5034 1.37023 31.4613 1.58318 31.4619 1.79815V18.3835H34.7125V3.46229H36.831C42.0326 3.46229 46.2354 7.72292 46.2354 12.9834C46.2354 18.2438 42.0326 22.5044 36.831 22.5044H29.4452C29.2093 22.5125 28.9749 22.4646 28.7612 22.3647L31.7007 25.3414C31.9935 25.6294 32.3876 25.7914 32.7985 25.7928H36.831C43.8087 25.7928 49.4831 20.0467 49.4831 12.9834C49.4831 5.88581 43.8068 0.172972 36.831 0.172972H33.1048ZM56.769 0.172972C56.554 0.17071 56.3406 0.211082 56.1414 0.291753C55.9421 0.372424 55.7608 0.491791 55.608 0.642941C55.4552 0.794091 55.3339 0.974022 55.2512 1.17232C55.1685 1.37061 55.126 1.58333 55.1261 1.79815V18.3835H58.3748V3.46229H60.5018C65.6978 3.46229 69.9062 7.72292 69.9062 12.9834C69.9062 18.2438 65.6959 22.5044 60.5018 22.5044H53.1141C52.8783 22.513 52.6437 22.4651 52.4302 22.3647L55.3696 25.3414C55.6606 25.6293 56.0532 25.7914 56.4627 25.7928H60.5018C67.4795 25.7928 73.1539 20.0467 73.1539 12.9834C73.1539 5.88581 67.4776 0.172972 60.5018 0.172972H56.769ZM83.0007 0C79.1004 0 76.4026 2.49099 76.4026 5.85159C76.4026 8.76171 78.0797 11.113 81.941 12.4302C85.4988 13.642 86.2161 15.7196 86.2161 17.5899C86.2161 20.3214 83.7551 23.2305 79.2051 23.2305C77.2911 23.2305 75.7804 22.9179 74.5219 22.225L74.4886 22.264L77.4947 24.9612C78.0797 25.4811 78.9673 26 81.0525 26C85.945 26 89.498 21.9133 89.498 17.5899C89.498 11.6652 84.6103 9.86702 82.7296 9.20839C81.3616 8.72274 79.6855 7.82366 79.6855 5.91907C79.6855 4.29389 80.9165 3.28932 83.0017 3.28932C84.987 3.28932 86.6632 4.26063 87.2102 4.26063C87.4278 4.26104 87.6434 4.21809 87.8442 4.13428C88.0451 4.05047 88.2272 3.9275 88.3799 3.77254C88.5326 3.61759 88.6528 3.43377 88.7336 3.23184C88.8143 3.0299 88.854 2.81391 88.8502 2.59648C88.8578 2.28078 88.7705 1.97006 88.5995 1.70442C88.4286 1.43879 88.1819 1.23043 87.8913 1.10626C87.5184 0.933289 85.261 0 83.0007 0Z" fill="black"/>
<path d="M9.16765 0.413422C4.51301 1.83712 0.408203 6.16427 0.408203 11.5948C0.408203 17.8266 5.60984 22.4294 11.6943 22.4294C18.7053 22.4294 22.1584 17.5823 22.1584 12.9083C22.1651 7.61648 17.85 3.70655 13.575 3.70655C9.37218 3.70655 6.77326 6.99587 6.77326 11.2555C6.76906 11.7891 6.81364 12.322 6.90644 12.8475H6.94449C7.01108 9.55814 9.64234 6.85996 12.929 6.85996C16.074 6.85996 18.9145 9.52107 18.9145 12.9187C18.9145 16.0684 16.5201 19.1505 12.1081 19.1505C7.66176 19.1505 3.24875 16.554 3.24875 9.52392C3.24875 5.7461 5.70782 1.97112 9.20095 0.452388L9.16765 0.413422ZM28.2476 4.0867C27.9588 4.39577 27.8006 4.80438 27.8062 5.22718V20.4269C27.8019 20.6444 27.8412 20.8605 27.9217 21.0626C28.0022 21.2647 28.1223 21.4487 28.275 21.6037C28.4277 21.7588 28.6099 21.8818 28.8109 21.9654C29.0119 22.0491 29.2276 22.0918 29.4453 22.091H36.8311C41.7901 22.091 45.8274 18.0043 45.8274 12.9834C45.8274 7.96242 41.7901 3.87572 36.8311 3.87572H35.1188V7.16504H36.8311C40.0131 7.16504 42.5787 9.76152 42.5787 12.9834C42.5787 16.2052 40.0103 18.8017 36.8311 18.8017H31.0549V1.79815C31.0641 1.56214 31.109 1.32888 31.188 1.10626L28.2476 4.0867ZM51.9166 4.0867C51.6244 4.39399 51.4642 4.80337 51.4704 5.22718V20.4269C51.4662 20.6447 51.5057 20.8612 51.5866 21.0636C51.6674 21.2659 51.788 21.4501 51.9412 21.6052C52.0944 21.7602 52.2771 21.8831 52.4785 21.9666C52.68 22.05 52.8962 22.0923 53.1142 22.091H60.5019C65.461 22.091 69.4935 18.0043 69.4935 12.9834C69.4935 7.96242 65.4591 3.87572 60.5019 3.87572H58.7896V7.16504H60.5019C63.6792 7.16504 66.2449 9.76152 66.2449 12.9834C66.2449 16.2052 63.6764 18.8017 60.5019 18.8017H54.7191V1.79815C54.7276 1.56162 54.7742 1.328 54.857 1.10626L51.9166 4.0867ZM78.5926 0.798332C77.1811 1.42683 75.9833 2.45202 75.1449 3.7489C74.3066 5.04579 73.8641 6.55833 73.8713 8.10213C73.8713 14.4698 80.6064 15.8583 81.3618 16.0988C82.3872 16.4789 82.5585 17.1718 82.5585 17.5899C82.5585 18.316 81.5996 19.4907 79.2052 19.4907C77.5281 19.4907 76.8821 19.2123 76.2648 18.9718C76.0535 18.8614 75.8192 18.8022 75.5808 18.7988C75.2114 18.8006 74.8532 18.9261 74.5636 19.1552C74.274 19.3843 74.0697 19.7038 73.9832 20.0626C73.8968 20.4214 73.9332 20.7988 74.0868 21.1345C74.2403 21.4702 74.5021 21.7447 74.8302 21.9142C75.6474 22.3286 76.7785 22.8143 79.2061 22.8143C83.5145 22.8143 85.8414 20.1113 85.8414 17.5871C85.8414 15.577 84.9205 13.8805 81.8041 12.8075C77.7706 11.3915 76.0279 8.93373 76.0279 5.85159C76.0279 3.18288 77.5281 1.59191 78.6259 0.831596L78.5926 0.798332ZM83.0008 3.70655C81.2571 3.70655 80.0604 4.50488 80.0604 5.82213C80.0604 6.7212 80.3686 7.20686 80.7444 7.58702C81.3617 7.27433 82.217 6.75542 83.8931 7.10136C84.677 7.24107 85.2611 7.03388 85.6368 6.68794L87.9589 4.57236L87.9256 4.53814C87.6968 4.62599 87.4544 4.67326 87.2093 4.67785C86.4207 4.67785 84.9196 3.70655 83.0008 3.70655Z" fill="#1498D5"/>
<path d="M127.351 0.872V26H122.311V9.656L115.579 26H111.763L104.995 9.656V26H99.9547V0.872H105.679L113.671 19.556L121.663 0.872H127.351ZM149.074 15.596C149.074 16.316 149.026 16.964 148.93 17.54H134.35C134.47 18.98 134.974 20.108 135.862 20.924C136.75 21.74 137.842 22.148 139.138 22.148C141.01 22.148 142.342 21.344 143.134 19.736H148.57C147.994 21.656 146.89 23.24 145.258 24.488C143.626 25.712 141.622 26.324 139.246 26.324C137.326 26.324 135.598 25.904 134.062 25.064C132.55 24.2 131.362 22.988 130.498 21.428C129.658 19.868 129.238 18.068 129.238 16.028C129.238 13.964 129.658 12.152 130.498 10.592C131.338 9.032 132.514 7.832 134.026 6.992C135.538 6.152 137.278 5.732 139.246 5.732C141.142 5.732 142.834 6.14 144.322 6.956C145.834 7.772 146.998 8.936 147.814 10.448C148.654 11.936 149.074 13.652 149.074 15.596ZM143.854 14.156C143.83 12.86 143.362 11.828 142.45 11.06C141.538 10.268 140.422 9.872 139.102 9.872C137.854 9.872 136.798 10.256 135.934 11.024C135.094 11.768 134.578 12.812 134.386 14.156H143.854ZM162.004 5.768C164.38 5.768 166.3 6.524 167.764 8.036C169.228 9.524 169.96 11.612 169.96 14.3V26H164.92V14.984C164.92 13.4 164.524 12.188 163.732 11.348C162.94 10.484 161.86 10.052 160.492 10.052C159.1 10.052 157.996 10.484 157.18 11.348C156.388 12.188 155.992 13.4 155.992 14.984V26H150.952V6.056H155.992V8.54C156.664 7.676 157.516 7.004 158.548 6.524C159.604 6.02 160.756 5.768 162.004 5.768ZM178.821 10.196V19.844C178.821 20.516 178.977 21.008 179.289 21.32C179.625 21.608 180.177 21.752 180.945 21.752H183.285V26H180.117C175.869 26 173.745 23.936 173.745 19.808V10.196H171.369V6.056H173.745V1.124H178.821V6.056H183.285V10.196H178.821ZM193.966 26.324C192.046 26.324 190.318 25.904 188.782 25.064C187.246 24.2 186.034 22.988 185.146 21.428C184.282 19.868 183.85 18.068 183.85 16.028C183.85 13.988 184.294 12.188 185.182 10.628C186.094 9.068 187.33 7.868 188.89 7.028C190.45 6.164 192.19 5.732 194.11 5.732C196.03 5.732 197.77 6.164 199.33 7.028C200.89 7.868 202.114 9.068 203.002 10.628C203.914 12.188 204.37 13.988 204.37 16.028C204.37 18.068 203.902 19.868 202.966 21.428C202.054 22.988 200.806 24.2 199.222 25.064C197.662 25.904 195.91 26.324 193.966 26.324ZM193.966 21.932C194.878 21.932 195.73 21.716 196.522 21.284C197.338 20.828 197.986 20.156 198.466 19.268C198.946 18.38 199.186 17.3 199.186 16.028C199.186 14.132 198.682 12.68 197.674 11.672C196.69 10.64 195.478 10.124 194.038 10.124C192.598 10.124 191.386 10.64 190.402 11.672C189.442 12.68 188.962 14.132 188.962 16.028C188.962 17.924 189.43 19.388 190.366 20.42C191.326 21.428 192.526 21.932 193.966 21.932ZM211.307 9.152C211.955 8.096 212.795 7.268 213.827 6.668C214.883 6.068 216.083 5.768 217.427 5.768V11.06H216.095C214.511 11.06 213.311 11.432 212.495 12.176C211.703 12.92 211.307 14.216 211.307 16.064V26H206.267V6.056H211.307V9.152Z" fill="black"/>
</svg>
