<svg width="65" height="35" viewBox="0 0 65 35" fill="none" xmlns="http://www.w3.org/2000/svg">
<path d="M9.81165 0C4.91904 0 2.76535 3.83529 2.76535 6.59151C2.76535 12.5836 7.56268 12.9198 8.09958 12.9435V12.9198C6.41064 12.4408 4.69721 10.5229 4.69721 7.7877C4.69721 4.55182 6.82777 2.27525 9.85792 2.27525C13.0385 2.27525 16.2938 5.07819 16.2938 8.9398C16.2938 12.2454 13.7489 15.7945 8.51262 15.7945C4.50396 15.7965 0.590553 13.1363 0.172742 8.65226H0.148926V8.94177C0.148926 13.9489 4.28416 18 9.39724 18C14.4838 18 18.619 13.9489 18.619 8.94177C18.619 3.83529 14.3375 0 9.81165 0ZM23.8294 0.11975C23.6755 0.117829 23.5227 0.145537 23.38 0.20126C23.2373 0.256983 23.1075 0.339607 22.9981 0.44432C22.8887 0.549033 22.802 0.673742 22.743 0.811183C22.6839 0.948624 22.6538 1.09605 22.6542 1.24487V12.7271H24.9794V2.39697H26.4948C30.2156 2.39697 33.222 5.34664 33.222 8.98849C33.222 12.6303 30.2156 15.58 26.4948 15.58H21.2116C21.0429 15.5856 20.8753 15.5524 20.7224 15.4833L22.825 17.544C23.0345 17.7434 23.3164 17.8556 23.6103 17.8566H26.4948C31.4861 17.8566 35.5451 13.8785 35.5451 8.98849C35.5451 4.07479 31.4847 0.11975 26.4948 0.11975H23.8294ZM40.7569 0.11975C40.6031 0.118184 40.4505 0.146134 40.3079 0.201983C40.1653 0.257832 40.0357 0.34047 39.9264 0.445113C39.8171 0.549755 39.7303 0.674323 39.6712 0.811603C39.612 0.948884 39.5816 1.09615 39.5817 1.24487V12.7271H41.9055V2.39697H43.427C47.1438 2.39697 50.1542 5.34664 50.1542 8.98849C50.1542 12.6303 47.1424 15.58 43.427 15.58H38.1425C37.9737 15.5859 37.806 15.5528 37.6532 15.4833L39.7559 17.544C39.964 17.7433 40.2448 17.8556 40.5377 17.8566H43.427C48.4183 17.8566 52.4773 13.8785 52.4773 8.98849C52.4773 4.07479 48.4169 0.11975 43.427 0.11975H40.7569ZM59.5209 0C56.731 0 54.8011 1.72453 54.8011 4.0511C54.8011 6.0658 56.0008 7.69361 58.7629 8.60555C61.3078 9.44446 61.8209 10.8828 61.8209 12.1777C61.8209 14.0686 60.0605 16.0827 56.8058 16.0827C55.4367 16.0827 54.3561 15.8662 53.4558 15.3866L53.432 15.4135L55.5823 17.2808C56.0008 17.6408 56.6357 18 58.1273 18C61.627 18 64.1685 15.1707 64.1685 12.1777C64.1685 8.07589 60.6723 6.83101 59.327 6.37504C58.3484 6.03882 57.1495 5.41638 57.1495 4.09782C57.1495 2.97269 58.03 2.27722 59.5216 2.27722C60.9417 2.27722 62.1407 2.94967 62.532 2.94967C62.6877 2.94995 62.8419 2.92021 62.9856 2.86219C63.1292 2.80417 63.2595 2.71904 63.3687 2.61176C63.478 2.50449 63.564 2.37723 63.6217 2.23742C63.6795 2.09762 63.7079 1.94809 63.7051 1.79757C63.7106 1.579 63.6481 1.36389 63.5258 1.17999C63.4036 0.996084 63.2271 0.85184 63.0192 0.765873C62.7525 0.646123 61.1377 0 59.5209 0Z" fill="black"/>
<path d="M6.70672 0.286209C3.37716 1.27184 0.440918 4.26757 0.440918 8.02719C0.440918 12.3415 4.16175 15.528 8.51405 15.528C13.5291 15.528 15.9993 12.1724 15.9993 8.9365C16.004 5.27294 12.9174 2.56606 9.85935 2.56606C6.85302 2.56606 4.99397 4.84329 4.99397 7.7923C4.99096 8.1617 5.02285 8.53059 5.08923 8.89439H5.11645C5.16408 6.61717 7.04627 4.7492 9.39731 4.7492C11.647 4.7492 13.6788 6.59151 13.6788 8.94374C13.6788 11.1242 11.9661 13.258 8.81006 13.258C5.62953 13.258 2.47281 11.4605 2.47281 6.59348C2.47281 3.97806 4.23184 1.36462 6.73053 0.313186L6.70672 0.286209ZM20.355 2.82925C20.1484 3.04322 20.0352 3.3261 20.0392 3.61881V14.1417C20.0361 14.2922 20.0642 14.4419 20.1218 14.5818C20.1794 14.7217 20.2653 14.8491 20.3746 14.9564C20.4838 15.0638 20.6141 15.1489 20.7579 15.2068C20.9017 15.2648 21.0559 15.2943 21.2117 15.2938H26.4949C30.0422 15.2938 32.9301 12.4645 32.9301 8.98848C32.9301 5.51244 30.0422 2.68318 26.4949 2.68318H25.27V4.96041H26.4949C28.7711 4.96041 30.6063 6.75797 30.6063 8.98848C30.6063 11.219 28.769 13.0166 26.4949 13.0166H22.363V1.24487C22.3697 1.08147 22.4018 0.919988 22.4583 0.765867L20.355 2.82925ZM37.2858 2.82925C37.0768 3.04199 36.9622 3.32541 36.9667 3.61881V14.1417C36.9637 14.2925 36.9919 14.4424 37.0498 14.5825C37.1076 14.7226 37.1939 14.85 37.3034 14.9574C37.413 15.0648 37.5437 15.1499 37.6878 15.2076C37.8319 15.2654 37.9865 15.2947 38.1425 15.2938H43.4271C46.9744 15.2938 49.8589 12.4645 49.8589 8.98848C49.8589 5.51244 46.973 2.68318 43.4271 2.68318H42.2023V4.96041H43.4271C45.6999 4.96041 47.5351 6.75797 47.5351 8.98848C47.5351 11.219 45.6978 13.0166 43.4271 13.0166H39.2905V1.24487C39.2966 1.08112 39.3299 0.919381 39.3892 0.765867L37.2858 2.82925ZM56.3677 0.552686C55.3581 0.987801 54.5012 1.69755 53.9015 2.59539C53.3019 3.49323 52.9853 4.54038 52.9905 5.60916C52.9905 10.0175 57.8082 10.9788 58.3485 11.1453C59.0821 11.4085 59.2046 11.8881 59.2046 12.1776C59.2046 12.6803 58.5186 13.4936 56.8059 13.4936C55.6062 13.4936 55.1442 13.3008 54.7025 13.1343C54.5514 13.0579 54.3838 13.0169 54.2133 13.0146C53.949 13.0158 53.6929 13.1027 53.4857 13.2613C53.2785 13.4199 53.1323 13.6411 53.0705 13.8895C53.0087 14.1379 53.0348 14.3992 53.1446 14.6316C53.2544 14.864 53.4417 15.054 53.6764 15.1714C54.2609 15.4583 55.07 15.7945 56.8066 15.7945C59.8884 15.7945 61.5529 13.9232 61.5529 12.1757C61.5529 10.7841 60.8942 9.6096 58.6649 8.86675C55.7797 7.88638 54.5331 6.18488 54.5331 4.0511C54.5331 2.20352 55.6062 1.10209 56.3915 0.575715L56.3677 0.552686ZM59.521 2.56606C58.2737 2.56606 57.4176 3.11876 57.4176 4.0307C57.4176 4.65314 57.6381 4.98936 57.9069 5.25254C58.3485 5.03607 58.9603 4.67682 60.1593 4.91632C60.72 5.01304 61.1378 4.86961 61.4066 4.63011L63.0676 3.16547L63.0438 3.14179C62.8801 3.2026 62.7067 3.23533 62.5314 3.23851C61.9673 3.23851 60.8935 2.56606 59.521 2.56606Z" fill="#1498D5"/>
<path d="M2.66 19.98C2.82 19.98 2.98667 20.02 3.16 20.1C3.33333 20.18 3.46667 20.2933 3.56 20.44L8.64 28.18L7.78 28.14L12.96 20.44C13.1733 20.1333 13.4467 19.98 13.78 19.98C14.0467 19.98 14.28 20.08 14.48 20.28C14.6933 20.4667 14.8 20.7067 14.8 21V32.98C14.8 33.2733 14.7067 33.52 14.52 33.72C14.3333 33.9067 14.0867 34 13.78 34C13.46 34 13.2 33.9067 13 33.72C12.8133 33.52 12.72 33.2733 12.72 32.98V22.84L13.36 22.98L8.96 29.68C8.86667 29.8 8.74667 29.9067 8.6 30C8.45333 30.08 8.3 30.1133 8.14 30.1C7.99333 30.1133 7.84 30.08 7.68 30C7.53333 29.9067 7.41333 29.8 7.32 29.68L3.08 23.08L3.56 22.28V32.98C3.56 33.2733 3.46667 33.52 3.28 33.72C3.10667 33.9067 2.87333 34 2.58 34C2.3 34 2.06667 33.9067 1.88 33.72C1.70667 33.52 1.62 33.2733 1.62 32.98V21C1.62 20.72 1.72 20.48 1.92 20.28C2.13333 20.08 2.38 19.98 2.66 19.98ZM21.7453 34.2C20.6386 34.2 19.6786 33.9733 18.8653 33.52C18.052 33.0533 17.4186 32.42 16.9653 31.62C16.5253 30.8067 16.3053 29.88 16.3053 28.84C16.3053 27.6667 16.5386 26.6667 17.0053 25.84C17.4853 25 18.1053 24.36 18.8653 23.92C19.6253 23.4667 20.432 23.24 21.2853 23.24C21.9386 23.24 22.5586 23.3733 23.1453 23.64C23.732 23.8933 24.252 24.2533 24.7053 24.72C25.172 25.1733 25.5386 25.7133 25.8053 26.34C26.072 26.9533 26.212 27.6267 26.2253 28.36C26.212 28.6267 26.1053 28.8467 25.9053 29.02C25.7053 29.1933 25.472 29.28 25.2053 29.28H17.4253L16.9453 27.58H24.4653L24.0853 27.94V27.44C24.0586 26.9733 23.9053 26.5667 23.6253 26.22C23.3453 25.86 22.9986 25.5867 22.5853 25.4C22.172 25.2 21.7386 25.1 21.2853 25.1C20.8853 25.1 20.4986 25.1667 20.1253 25.3C19.7653 25.42 19.4386 25.62 19.1453 25.9C18.8653 26.18 18.6386 26.5533 18.4653 27.02C18.3053 27.4733 18.2253 28.04 18.2253 28.72C18.2253 29.4533 18.3786 30.0933 18.6853 30.64C18.992 31.1867 19.4053 31.6133 19.9253 31.92C20.4453 32.2133 21.0186 32.36 21.6453 32.36C22.1386 32.36 22.5453 32.3133 22.8653 32.22C23.1853 32.1133 23.452 31.9867 23.6653 31.84C23.8786 31.6933 24.0653 31.5533 24.2253 31.42C24.4253 31.3 24.6253 31.24 24.8253 31.24C25.0653 31.24 25.2653 31.3267 25.4253 31.5C25.5853 31.66 25.6653 31.8533 25.6653 32.08C25.6653 32.3733 25.5186 32.64 25.2253 32.88C24.8653 33.2267 24.3653 33.5333 23.7253 33.8C23.0986 34.0667 22.4386 34.2 21.7453 34.2ZM32.9059 23.24C33.8526 23.24 34.5859 23.44 35.1059 23.84C35.6259 24.2267 35.9859 24.7533 36.1859 25.42C36.3993 26.0733 36.5059 26.8067 36.5059 27.62V32.98C36.5059 33.2733 36.4059 33.52 36.2059 33.72C36.0193 33.9067 35.7859 34 35.5059 34C35.2126 34 34.9726 33.9067 34.7859 33.72C34.5993 33.52 34.5059 33.2733 34.5059 32.98V27.64C34.5059 27.16 34.4393 26.7333 34.3059 26.36C34.1726 25.9733 33.9393 25.6667 33.6059 25.44C33.2859 25.2 32.8326 25.08 32.2459 25.08C31.6993 25.08 31.2193 25.2 30.8059 25.44C30.3926 25.6667 30.0659 25.9733 29.8259 26.36C29.5993 26.7333 29.4859 27.16 29.4859 27.64V32.98C29.4859 33.2733 29.3859 33.52 29.1859 33.72C28.9993 33.9067 28.7659 34 28.4859 34C28.1926 34 27.9526 33.9067 27.7659 33.72C27.5793 33.52 27.4859 33.2733 27.4859 32.98V24.5C27.4859 24.2067 27.5793 23.9667 27.7659 23.78C27.9526 23.58 28.1926 23.48 28.4859 23.48C28.7659 23.48 28.9993 23.58 29.1859 23.78C29.3859 23.9667 29.4859 24.2067 29.4859 24.5V25.62L29.1259 25.82C29.2193 25.5267 29.3793 25.2333 29.6059 24.94C29.8459 24.6333 30.1326 24.3533 30.4659 24.1C30.7993 23.8333 31.1726 23.6267 31.5859 23.48C31.9993 23.32 32.4393 23.24 32.9059 23.24ZM38.1428 23.6H42.8428C43.1095 23.6 43.3295 23.6933 43.5028 23.88C43.6895 24.0533 43.7828 24.2733 43.7828 24.54C43.7828 24.7933 43.6895 25.0067 43.5028 25.18C43.3295 25.3533 43.1095 25.44 42.8428 25.44H38.1428C37.8761 25.44 37.6495 25.3533 37.4628 25.18C37.2895 24.9933 37.2028 24.7733 37.2028 24.52C37.2028 24.2533 37.2895 24.0333 37.4628 23.86C37.6495 23.6867 37.8761 23.6 38.1428 23.6ZM40.2428 21C40.5361 21 40.7761 21.1 40.9628 21.3C41.1495 21.4867 41.2428 21.7267 41.2428 22.02V31.3C41.2428 31.54 41.2828 31.7333 41.3628 31.88C41.4428 32.0267 41.5495 32.1267 41.6828 32.18C41.8295 32.2333 41.9761 32.26 42.1228 32.26C42.2695 32.26 42.3961 32.2333 42.5028 32.18C42.6228 32.1267 42.7628 32.1 42.9228 32.1C43.0828 32.1 43.2295 32.1733 43.3628 32.32C43.4961 32.4667 43.5628 32.6667 43.5628 32.92C43.5628 33.24 43.3895 33.5 43.0428 33.7C42.6961 33.9 42.3228 34 41.9228 34C41.6961 34 41.4295 33.98 41.1228 33.94C40.8161 33.9 40.5161 33.8 40.2228 33.64C39.9428 33.48 39.7095 33.2267 39.5228 32.88C39.3361 32.52 39.2428 32.02 39.2428 31.38V22.02C39.2428 21.7267 39.3361 21.4867 39.5228 21.3C39.7228 21.1 39.9628 21 40.2428 21ZM54.98 28.74C54.98 29.8067 54.7467 30.7533 54.28 31.58C53.8133 32.3933 53.18 33.0333 52.38 33.5C51.58 33.9667 50.68 34.2 49.68 34.2C48.68 34.2 47.78 33.9667 46.98 33.5C46.18 33.0333 45.54 32.3933 45.06 31.58C44.5933 30.7533 44.36 29.8067 44.36 28.74C44.36 27.66 44.5933 26.7133 45.06 25.9C45.54 25.0733 46.18 24.4267 46.98 23.96C47.78 23.48 48.68 23.24 49.68 23.24C50.68 23.24 51.58 23.48 52.38 23.96C53.18 24.4267 53.8133 25.0733 54.28 25.9C54.7467 26.7133 54.98 27.66 54.98 28.74ZM52.98 28.74C52.98 28.0067 52.8333 27.3733 52.54 26.84C52.2467 26.2933 51.8467 25.8667 51.34 25.56C50.8467 25.24 50.2933 25.08 49.68 25.08C49.0667 25.08 48.5067 25.24 48 25.56C47.4933 25.8667 47.0933 26.2933 46.8 26.84C46.5067 27.3733 46.36 28.0067 46.36 28.74C46.36 29.4467 46.5067 30.0733 46.8 30.62C47.0933 31.1667 47.4933 31.5933 48 31.9C48.5067 32.2067 49.0667 32.36 49.68 32.36C50.2933 32.36 50.8467 32.2067 51.34 31.9C51.8467 31.5933 52.2467 31.1667 52.54 30.62C52.8333 30.0733 52.98 29.4467 52.98 28.74ZM57.2438 34C56.9504 34 56.7104 33.9067 56.5238 33.72C56.3371 33.52 56.2438 33.2733 56.2438 32.98V24.5C56.2438 24.2067 56.3371 23.9667 56.5238 23.78C56.7104 23.58 56.9504 23.48 57.2438 23.48C57.5238 23.48 57.7571 23.58 57.9438 23.78C58.1438 23.9667 58.2438 24.2067 58.2438 24.5V26.74L58.0438 25.88C58.1504 25.5067 58.3104 25.16 58.5238 24.84C58.7504 24.52 59.0171 24.24 59.3238 24C59.6304 23.76 59.9704 23.5733 60.3438 23.44C60.7304 23.3067 61.1304 23.24 61.5438 23.24C61.8904 23.24 62.1904 23.3333 62.4438 23.52C62.6971 23.7067 62.8238 23.94 62.8238 24.22C62.8238 24.58 62.7304 24.8467 62.5438 25.02C62.3571 25.18 62.1504 25.26 61.9238 25.26C61.7238 25.26 61.5304 25.22 61.3438 25.14C61.1571 25.0467 60.9371 25 60.6838 25C60.4038 25 60.1171 25.0733 59.8238 25.22C59.5304 25.3667 59.2638 25.5867 59.0238 25.88C58.7838 26.16 58.5904 26.4933 58.4438 26.88C58.3104 27.2667 58.2438 27.7 58.2438 28.18V32.98C58.2438 33.2733 58.1438 33.52 57.9438 33.72C57.7571 33.9067 57.5238 34 57.2438 34Z" fill="#1498D5"/>
</svg>
