<svg width="65" height="33" viewBox="0 0 65 33" fill="none" xmlns="http://www.w3.org/2000/svg">
<path d="M9.81165 0C4.91904 0 2.76535 3.83529 2.76535 6.59151C2.76535 12.5836 7.56268 12.9198 8.09958 12.9435V12.9198C6.41064 12.4408 4.69721 10.5229 4.69721 7.7877C4.69721 4.55181 6.82777 2.27525 9.85792 2.27525C13.0385 2.27525 16.2938 5.07819 16.2938 8.9398C16.2938 12.2454 13.7489 15.7945 8.51262 15.7945C4.50396 15.7965 0.590553 13.1363 0.172742 8.65226H0.148926V8.94177C0.148926 13.9489 4.28416 18 9.39724 18C14.4838 18 18.619 13.9489 18.619 8.94177C18.619 3.83529 14.3375 0 9.81165 0ZM23.8294 0.11975C23.6755 0.117829 23.5227 0.145537 23.38 0.20126C23.2373 0.256983 23.1075 0.339607 22.9981 0.44432C22.8887 0.549033 22.802 0.673742 22.743 0.811183C22.6839 0.948624 22.6538 1.09605 22.6542 1.24487V12.7271H24.9794V2.39697H26.4948C30.2156 2.39697 33.222 5.34664 33.222 8.98849C33.222 12.6303 30.2156 15.58 26.4948 15.58H21.2116C21.0429 15.5856 20.8753 15.5524 20.7224 15.4833L22.825 17.544C23.0345 17.7434 23.3164 17.8556 23.6103 17.8566H26.4948C31.4861 17.8566 35.5451 13.8785 35.5451 8.98849C35.5451 4.07479 31.4847 0.11975 26.4948 0.11975H23.8294ZM40.7569 0.11975C40.6031 0.118184 40.4505 0.146134 40.3079 0.201983C40.1653 0.257832 40.0357 0.34047 39.9264 0.445113C39.8171 0.549755 39.7303 0.674323 39.6712 0.811603C39.612 0.948884 39.5816 1.09615 39.5817 1.24487V12.7271H41.9055V2.39697H43.427C47.1438 2.39697 50.1542 5.34664 50.1542 8.98849C50.1542 12.6303 47.1424 15.58 43.427 15.58H38.1425C37.9737 15.5859 37.806 15.5528 37.6532 15.4833L39.7559 17.544C39.964 17.7433 40.2448 17.8556 40.5377 17.8566H43.427C48.4183 17.8566 52.4773 13.8785 52.4773 8.98849C52.4773 4.07479 48.4169 0.11975 43.427 0.11975H40.7569ZM59.5209 0C56.731 0 54.8011 1.72453 54.8011 4.0511C54.8011 6.0658 56.0008 7.69361 58.7629 8.60555C61.3078 9.44446 61.8209 10.8828 61.8209 12.1777C61.8209 14.0686 60.0605 16.0827 56.8058 16.0827C55.4367 16.0827 54.3561 15.8662 53.4558 15.3866L53.432 15.4135L55.5823 17.2808C56.0008 17.6408 56.6357 18 58.1273 18C61.627 18 64.1685 15.1707 64.1685 12.1777C64.1685 8.07589 60.6723 6.83101 59.327 6.37504C58.3485 6.03882 57.1495 5.41638 57.1495 4.09782C57.1495 2.97269 58.03 2.27722 59.5216 2.27722C60.9417 2.27722 62.1407 2.94967 62.532 2.94967C62.6877 2.94995 62.8419 2.92021 62.9856 2.86219C63.1292 2.80417 63.2595 2.71904 63.3687 2.61176C63.478 2.50449 63.564 2.37723 63.6217 2.23742C63.6795 2.09762 63.7079 1.94809 63.7051 1.79757C63.7106 1.579 63.6481 1.36389 63.5258 1.17999C63.4036 0.996084 63.2271 0.85184 63.0192 0.765873C62.7525 0.646123 61.1377 0 59.5209 0Z" fill="black"/>
<path d="M6.70672 0.286133C3.37716 1.27177 0.440918 4.26749 0.440918 8.02711C0.440918 12.3414 4.16175 15.5279 8.51405 15.5279C13.5291 15.5279 15.9993 12.1723 15.9993 8.93642C16.004 5.27286 12.9174 2.56599 9.85935 2.56599C6.85302 2.56599 4.99397 4.84321 4.99397 7.79222C4.99096 8.16162 5.02285 8.53052 5.08923 8.89431H5.11645C5.16408 6.61709 7.04627 4.74912 9.39731 4.74912C11.647 4.74912 13.6788 6.59143 13.6788 8.94366C13.6788 11.1242 11.9661 13.2579 8.81006 13.2579C5.62953 13.2579 2.47281 11.4604 2.47281 6.5934C2.47281 3.97799 4.23184 1.36454 6.73053 0.313109L6.70672 0.286133ZM20.355 2.82917C20.1484 3.04314 20.0352 3.32603 20.0392 3.61874V14.1416C20.0361 14.2922 20.0642 14.4418 20.1218 14.5817C20.1794 14.7216 20.2653 14.849 20.3746 14.9564C20.4838 15.0637 20.6141 15.1488 20.7579 15.2068C20.9017 15.2647 21.0559 15.2943 21.2117 15.2937H26.4949C30.0422 15.2937 32.9301 12.4644 32.9301 8.9884C32.9301 5.51236 30.0422 2.68311 26.4949 2.68311H25.27V4.96033H26.4949C28.7711 4.96033 30.6063 6.75789 30.6063 8.9884C30.6063 11.2189 28.769 13.0165 26.4949 13.0165H22.363V1.24479C22.3697 1.0814 22.4018 0.919911 22.4583 0.765791L20.355 2.82917ZM37.2858 2.82917C37.0768 3.04191 36.9622 3.32533 36.9667 3.61874V14.1416C36.9637 14.2924 36.9919 14.4423 37.0498 14.5824C37.1076 14.7225 37.1939 14.85 37.3034 14.9573C37.413 15.0647 37.5437 15.1498 37.6878 15.2075C37.8319 15.2653 37.9865 15.2946 38.1425 15.2937H43.4271C46.9744 15.2937 49.8589 12.4644 49.8589 8.9884C49.8589 5.51236 46.973 2.68311 43.4271 2.68311H42.2023V4.96033H43.4271C45.6999 4.96033 47.5351 6.75789 47.5351 8.9884C47.5351 11.2189 45.6978 13.0165 43.4271 13.0165H39.2905V1.24479C39.2966 1.08104 39.3299 0.919305 39.3892 0.765791L37.2858 2.82917ZM56.3677 0.552609C55.3581 0.987725 54.5012 1.69747 53.9015 2.59531C53.3019 3.49315 52.9853 4.5403 52.9905 5.60908C52.9905 10.0175 57.8082 10.9788 58.3485 11.1452C59.0821 11.4084 59.2046 11.8881 59.2046 12.1776C59.2046 12.6803 58.5186 13.4935 56.8059 13.4935C55.6062 13.4935 55.1442 13.3007 54.7025 13.1343C54.5514 13.0578 54.3838 13.0168 54.2133 13.0145C53.949 13.0157 53.6929 13.1026 53.4857 13.2612C53.2785 13.4198 53.1323 13.641 53.0705 13.8894C53.0087 14.1378 53.0348 14.3991 53.1446 14.6315C53.2544 14.8639 53.4417 15.054 53.6764 15.1713C54.2609 15.4582 55.07 15.7944 56.8066 15.7944C59.8884 15.7944 61.5529 13.9232 61.5529 12.1756C61.5529 10.784 60.8942 9.60952 58.6649 8.86668C55.7797 7.88631 54.5331 6.18481 54.5331 4.05102C54.5331 2.20345 55.6062 1.10201 56.3915 0.575638L56.3677 0.552609ZM59.521 2.56599C58.2737 2.56599 57.4176 3.11868 57.4176 4.03062C57.4176 4.65306 57.6381 4.98928 57.9069 5.25247C58.3485 5.036 58.9603 4.67675 60.1593 4.91625C60.72 5.01297 61.1378 4.86953 61.4066 4.63003L63.0676 3.1654L63.0438 3.14171C62.8801 3.20252 62.7067 3.23525 62.5314 3.23843C61.9673 3.23843 60.8935 2.56599 59.521 2.56599V2.56599Z" fill="#1498D5"/>
<path d="M2.66 17.98C2.82 17.98 2.98667 18.02 3.16 18.1C3.33333 18.18 3.46667 18.2933 3.56 18.44L8.64 26.18L7.78 26.14L12.96 18.44C13.1733 18.1333 13.4467 17.98 13.78 17.98C14.0467 17.98 14.28 18.08 14.48 18.28C14.6933 18.4667 14.8 18.7067 14.8 19V30.98C14.8 31.2733 14.7067 31.52 14.52 31.72C14.3333 31.9067 14.0867 32 13.78 32C13.46 32 13.2 31.9067 13 31.72C12.8133 31.52 12.72 31.2733 12.72 30.98V20.84L13.36 20.98L8.96 27.68C8.86667 27.8 8.74667 27.9067 8.6 28C8.45333 28.08 8.3 28.1133 8.14 28.1C7.99333 28.1133 7.84 28.08 7.68 28C7.53333 27.9067 7.41333 27.8 7.32 27.68L3.08 21.08L3.56 20.28V30.98C3.56 31.2733 3.46667 31.52 3.28 31.72C3.10667 31.9067 2.87333 32 2.58 32C2.3 32 2.06667 31.9067 1.88 31.72C1.70667 31.52 1.62 31.2733 1.62 30.98V19C1.62 18.72 1.72 18.48 1.92 18.28C2.13333 18.08 2.38 17.98 2.66 17.98ZM21.7453 32.2C20.6386 32.2 19.6786 31.9733 18.8653 31.52C18.052 31.0533 17.4186 30.42 16.9653 29.62C16.5253 28.8067 16.3053 27.88 16.3053 26.84C16.3053 25.6667 16.5386 24.6667 17.0053 23.84C17.4853 23 18.1053 22.36 18.8653 21.92C19.6253 21.4667 20.432 21.24 21.2853 21.24C21.9386 21.24 22.5586 21.3733 23.1453 21.64C23.732 21.8933 24.252 22.2533 24.7053 22.72C25.172 23.1733 25.5386 23.7133 25.8053 24.34C26.072 24.9533 26.212 25.6267 26.2253 26.36C26.212 26.6267 26.1053 26.8467 25.9053 27.02C25.7053 27.1933 25.472 27.28 25.2053 27.28H17.4253L16.9453 25.58H24.4653L24.0853 25.94V25.44C24.0586 24.9733 23.9053 24.5667 23.6253 24.22C23.3453 23.86 22.9986 23.5867 22.5853 23.4C22.172 23.2 21.7386 23.1 21.2853 23.1C20.8853 23.1 20.4986 23.1667 20.1253 23.3C19.7653 23.42 19.4386 23.62 19.1453 23.9C18.8653 24.18 18.6386 24.5533 18.4653 25.02C18.3053 25.4733 18.2253 26.04 18.2253 26.72C18.2253 27.4533 18.3786 28.0933 18.6853 28.64C18.992 29.1867 19.4053 29.6133 19.9253 29.92C20.4453 30.2133 21.0186 30.36 21.6453 30.36C22.1386 30.36 22.5453 30.3133 22.8653 30.22C23.1853 30.1133 23.452 29.9867 23.6653 29.84C23.8786 29.6933 24.0653 29.5533 24.2253 29.42C24.4253 29.3 24.6253 29.24 24.8253 29.24C25.0653 29.24 25.2653 29.3267 25.4253 29.5C25.5853 29.66 25.6653 29.8533 25.6653 30.08C25.6653 30.3733 25.5186 30.64 25.2253 30.88C24.8653 31.2267 24.3653 31.5333 23.7253 31.8C23.0986 32.0667 22.4386 32.2 21.7453 32.2ZM32.9059 21.24C33.8526 21.24 34.5859 21.44 35.1059 21.84C35.6259 22.2267 35.9859 22.7533 36.1859 23.42C36.3993 24.0733 36.5059 24.8067 36.5059 25.62V30.98C36.5059 31.2733 36.4059 31.52 36.2059 31.72C36.0193 31.9067 35.7859 32 35.5059 32C35.2126 32 34.9726 31.9067 34.7859 31.72C34.5993 31.52 34.5059 31.2733 34.5059 30.98V25.64C34.5059 25.16 34.4393 24.7333 34.3059 24.36C34.1726 23.9733 33.9393 23.6667 33.6059 23.44C33.2859 23.2 32.8326 23.08 32.2459 23.08C31.6993 23.08 31.2193 23.2 30.8059 23.44C30.3926 23.6667 30.0659 23.9733 29.8259 24.36C29.5993 24.7333 29.4859 25.16 29.4859 25.64V30.98C29.4859 31.2733 29.3859 31.52 29.1859 31.72C28.9993 31.9067 28.7659 32 28.4859 32C28.1926 32 27.9526 31.9067 27.7659 31.72C27.5793 31.52 27.4859 31.2733 27.4859 30.98V22.5C27.4859 22.2067 27.5793 21.9667 27.7659 21.78C27.9526 21.58 28.1926 21.48 28.4859 21.48C28.7659 21.48 28.9993 21.58 29.1859 21.78C29.3859 21.9667 29.4859 22.2067 29.4859 22.5V23.62L29.1259 23.82C29.2193 23.5267 29.3793 23.2333 29.6059 22.94C29.8459 22.6333 30.1326 22.3533 30.4659 22.1C30.7993 21.8333 31.1726 21.6267 31.5859 21.48C31.9993 21.32 32.4393 21.24 32.9059 21.24ZM38.1428 21.6H42.8428C43.1095 21.6 43.3295 21.6933 43.5028 21.88C43.6895 22.0533 43.7828 22.2733 43.7828 22.54C43.7828 22.7933 43.6895 23.0067 43.5028 23.18C43.3295 23.3533 43.1095 23.44 42.8428 23.44H38.1428C37.8761 23.44 37.6495 23.3533 37.4628 23.18C37.2895 22.9933 37.2028 22.7733 37.2028 22.52C37.2028 22.2533 37.2895 22.0333 37.4628 21.86C37.6495 21.6867 37.8761 21.6 38.1428 21.6ZM40.2428 19C40.5361 19 40.7761 19.1 40.9628 19.3C41.1495 19.4867 41.2428 19.7267 41.2428 20.02V29.3C41.2428 29.54 41.2828 29.7333 41.3628 29.88C41.4428 30.0267 41.5495 30.1267 41.6828 30.18C41.8295 30.2333 41.9761 30.26 42.1228 30.26C42.2695 30.26 42.3961 30.2333 42.5028 30.18C42.6228 30.1267 42.7628 30.1 42.9228 30.1C43.0828 30.1 43.2295 30.1733 43.3628 30.32C43.4961 30.4667 43.5628 30.6667 43.5628 30.92C43.5628 31.24 43.3895 31.5 43.0428 31.7C42.6961 31.9 42.3228 32 41.9228 32C41.6961 32 41.4295 31.98 41.1228 31.94C40.8161 31.9 40.5161 31.8 40.2228 31.64C39.9428 31.48 39.7095 31.2267 39.5228 30.88C39.3361 30.52 39.2428 30.02 39.2428 29.38V20.02C39.2428 19.7267 39.3361 19.4867 39.5228 19.3C39.7228 19.1 39.9628 19 40.2428 19ZM54.98 26.74C54.98 27.8067 54.7467 28.7533 54.28 29.58C53.8133 30.3933 53.18 31.0333 52.38 31.5C51.58 31.9667 50.68 32.2 49.68 32.2C48.68 32.2 47.78 31.9667 46.98 31.5C46.18 31.0333 45.54 30.3933 45.06 29.58C44.5933 28.7533 44.36 27.8067 44.36 26.74C44.36 25.66 44.5933 24.7133 45.06 23.9C45.54 23.0733 46.18 22.4267 46.98 21.96C47.78 21.48 48.68 21.24 49.68 21.24C50.68 21.24 51.58 21.48 52.38 21.96C53.18 22.4267 53.8133 23.0733 54.28 23.9C54.7467 24.7133 54.98 25.66 54.98 26.74ZM52.98 26.74C52.98 26.0067 52.8333 25.3733 52.54 24.84C52.2467 24.2933 51.8467 23.8667 51.34 23.56C50.8467 23.24 50.2933 23.08 49.68 23.08C49.0667 23.08 48.5067 23.24 48 23.56C47.4933 23.8667 47.0933 24.2933 46.8 24.84C46.5067 25.3733 46.36 26.0067 46.36 26.74C46.36 27.4467 46.5067 28.0733 46.8 28.62C47.0933 29.1667 47.4933 29.5933 48 29.9C48.5067 30.2067 49.0667 30.36 49.68 30.36C50.2933 30.36 50.8467 30.2067 51.34 29.9C51.8467 29.5933 52.2467 29.1667 52.54 28.62C52.8333 28.0733 52.98 27.4467 52.98 26.74ZM57.2438 32C56.9504 32 56.7104 31.9067 56.5238 31.72C56.3371 31.52 56.2438 31.2733 56.2438 30.98V22.5C56.2438 22.2067 56.3371 21.9667 56.5238 21.78C56.7104 21.58 56.9504 21.48 57.2438 21.48C57.5238 21.48 57.7571 21.58 57.9438 21.78C58.1438 21.9667 58.2438 22.2067 58.2438 22.5V24.74L58.0438 23.88C58.1504 23.5067 58.3104 23.16 58.5238 22.84C58.7504 22.52 59.0171 22.24 59.3238 22C59.6304 21.76 59.9704 21.5733 60.3438 21.44C60.7304 21.3067 61.1304 21.24 61.5438 21.24C61.8904 21.24 62.1904 21.3333 62.4438 21.52C62.6971 21.7067 62.8238 21.94 62.8238 22.22C62.8238 22.58 62.7304 22.8467 62.5438 23.02C62.3571 23.18 62.1504 23.26 61.9238 23.26C61.7238 23.26 61.5304 23.22 61.3438 23.14C61.1571 23.0467 60.9371 23 60.6838 23C60.4038 23 60.1171 23.0733 59.8238 23.22C59.5304 23.3667 59.2638 23.5867 59.0238 23.88C58.7838 24.16 58.5904 24.4933 58.4438 24.88C58.3104 25.2667 58.2438 25.7 58.2438 26.18V30.98C58.2438 31.2733 58.1438 31.52 57.9438 31.72C57.7571 31.9067 57.5238 32 57.2438 32Z" fill="#1498D5"/>
</svg>
